<?xml version="1.0" encoding="UTF-8" standalone="no"?>
<svg
   xmlns:dc="http://purl.org/dc/elements/1.1/"
   xmlns:cc="http://creativecommons.org/ns#"
   xmlns:rdf="http://www.w3.org/1999/02/22-rdf-syntax-ns#"
   xmlns:svg="http://www.w3.org/2000/svg"
   xmlns="http://www.w3.org/2000/svg"
   xmlns:sodipodi="http://sodipodi.sourceforge.net/DTD/sodipodi-0.dtd"
   xmlns:inkscape="http://www.inkscape.org/namespaces/inkscape"
   inkscape:version="1.0 (4035a4fb49, 2020-05-01)"
   sodipodi:docname="golmon_silk_svg.svg"
   xml:space="preserve"
   style="enable-background:new 0 0 170.1 212.6;"
   viewBox="0 0 25.0 30.0"
   y="0px"
   x="0px"
   id="Layer_1"
   version="1.1"
   width="25.0mm"
   height="30.0mm"><metadata
   id="metadata36"><rdf:RDF><cc:Work
       rdf:about=""><dc:format>image/svg+xml</dc:format><dc:type
         rdf:resource="http://purl.org/dc/dcmitype/StillImage" /></cc:Work></rdf:RDF></metadata><defs
   id="defs34" /><sodipodi:namedview
   inkscape:document-rotation="0"
   inkscape:document-units="mm"
   inkscape:current-layer="Layer_1"
   inkscape:window-maximized="1"
   inkscape:window-y="445"
   inkscape:window-x="-8"
   inkscape:cy="47.163836"
   inkscape:cx="21.781374"
   inkscape:zoom="6.3684752"
   showgrid="false"
   id="namedview32"
   inkscape:window-height="1017"
   inkscape:window-width="1920"
   inkscape:pageshadow="2"
   inkscape:pageopacity="0"
   guidetolerance="10"
   gridtolerance="10"
   objecttolerance="10"
   borderopacity="1"
   bordercolor="#666666"
   pagecolor="#ffffff" />
<style
   id="style2"
   type="text/css">
	.st0{fill:none;stroke:#FF0000;stroke-miterlimit:10;}
	.st1{fill:#FF0000;stroke:#FF0000;stroke-width:2;stroke-linecap:square;stroke-miterlimit:10;}
	.st2{fill:#FF0000;stroke:#FF0000;stroke-linecap:round;stroke-miterlimit:10;}
	.st3{fill:#FF0000;}
	.st4{fill:none;stroke:#FF0000;stroke-width:0.75;stroke-linecap:round;stroke-miterlimit:10;}
	.st5{fill:#FF0000;stroke:#FF0000;stroke-width:0.5;stroke-miterlimit:10;}
	.st6{fill:none;stroke:#FF0000;stroke-linecap:round;stroke-miterlimit:10;}
	.st7{stroke:#000000;stroke-width:0.25;stroke-miterlimit:10;}
	.st8{font-family:'Bebas-Regular';}
	.st9{font-size:40px;}
</style>



















<g
   inkscape:label="[fixed] BG"
   inkscape:groupmode="layer"
   sodipodi:insensitive="true"
   id="g923"><rect
     x="0"
     y="0"
     width="25.0"
     height="25.0"
     style="fill:#FFFFFF;fill-opacity:1;stroke:none"
     id="rect921" /></g><g
   inkscape:label="F.SilkS"
   inkscape:groupmode="layer"
   id="g925"><g
     id="g887"
     transform="matrix(0.09524714,0,0,0.09524714,2.9530169,-2.2924048)"><path
       style="stroke:#000000;stroke-opacity:1"
       d="m 57.9,56.9 c -1.8,1.3 9.3,41.5 9.7,42.8 0.4,1.3 0.1,4.3 -2.9,5.4 -3.1,1.1 -30.8,4.8 -33.4,6.7 -3,2.1 -7.5,8.1 -8.7,9.6 -1.2,1.5 -0.3,4.4 0,5.9 0.3,1.5 7,32.5 7.4,34.3 0.4,1.7 1.7,7.7 6.6,7.6 3.5,-0.8 105.4,-24.4 107.4,-24.9 2,-0.5 3.5,-4.2 2.8,-6.5 -0.7,-2.3 -29.1,-88.7 -29.5,-89.8 -0.4,-1.1 -1.2,-2.7 -3,-2.4 -1.8,0.3 -49.3,6.7 -55.6,10.8 0,0 -3.5,2.3 -9.5,9.3 -0.3,0.3 -0.7,0.9 -1,1.8 -0.4,1.4 0,2.7 0.1,3.1 0.7,2.1 4.8,16.5 9.8,35.7"
       class="st0"
       id="XMLID_1_" /><path
       style="stroke:#000000;stroke-opacity:1"
       d="m 32.9,111.2 c 0,0 -3.2,2.2 -2.9,3.7 0.3,1.5 6.3,28.6 6.9,31.6 0.6,3 2.3,4 3.8,4.3 6.4,1.6 95.8,-19.6 97.8,-21.4 2.7,-1.3 4.4,-3.1 3.9,-4.8"
       class="st0"
       id="XMLID_3_" /><line
       style="fill:#000000;fill-opacity:1;stroke:#000000;stroke-opacity:1"
       y2="130"
       x2="43.5"
       y1="128.7"
       x1="52.799999"
       class="st1"
       id="XMLID_2_" /><polygon
       style="fill:#000000;fill-opacity:1;stroke:#0b0000;stroke-opacity:1"
       points="39.3,130.8 43.8,133 43.1,127.2 "
       class="st2"
       id="XMLID_6_" /><g
       style="fill:#000000;fill-opacity:1"
       id="XMLID_7_"><path
         style="fill:#000000;fill-opacity:1"
         d="m 60.3,127.3 -3.1,0.4 0.3,2.8 3.4,-0.5 0.1,0.8 -4.5,0.7 -0.7,-7.7 4.3,-0.5 0.1,0.8 -3.3,0.4 0.2,2.4 3.1,-0.4 z"
         class="st3"
         id="XMLID_8_" /><path
         style="fill:#000000;fill-opacity:1"
         d="m 61.9,126.7 c -0.1,-0.6 -0.1,-1 -0.2,-1.5 l 0.9,-0.1 0.1,0.9 v 0 c 0.2,-0.6 0.8,-1.1 1.7,-1.3 0.8,-0.1 2,0.2 2.1,2 l 0.3,3.2 -1,0.1 -0.3,-3.1 c -0.1,-0.9 -0.5,-1.5 -1.4,-1.4 -0.7,0.1 -1.1,0.6 -1.3,1.2 0,0.1 0,0.3 0,0.5 l 0.3,3.3 -1,0.1 z"
         class="st3"
         id="XMLID_10_" /><path
         style="fill:#000000;fill-opacity:1"
         d="m 69,122.7 0.1,1.5 1.4,-0.2 0.1,0.7 -1.4,0.2 0.3,2.9 c 0.1,0.7 0.3,1 0.8,0.9 0.3,0 0.4,-0.1 0.5,-0.1 l 0.1,0.7 c -0.2,0.1 -0.5,0.2 -0.8,0.3 -0.4,0.1 -0.8,0 -1.1,-0.3 -0.3,-0.2 -0.4,-0.7 -0.5,-1.3 l -0.3,-2.9 -0.8,0.1 -0.1,-0.7 0.8,-0.1 -0.1,-1.3 z"
         class="st3"
         id="XMLID_12_" /><path
         style="fill:#000000;fill-opacity:1"
         d="m 72.3,126.7 c 0.1,1.3 1,1.7 1.9,1.6 0.7,-0.1 1.1,-0.3 1.4,-0.5 l 0.2,0.7 c -0.3,0.2 -0.9,0.5 -1.7,0.6 -1.6,0.2 -2.6,-0.7 -2.8,-2.3 -0.1,-1.6 0.7,-3 2.2,-3.2 1.7,-0.2 2.2,1.2 2.3,2.2 0,0.2 0,0.3 0,0.4 z m 2.7,-1.1 c 0,-0.6 -0.4,-1.5 -1.4,-1.4 -0.9,0.1 -1.3,1.1 -1.3,1.7 z"
         class="st3"
         id="XMLID_14_" /><path
         style="fill:#000000;fill-opacity:1"
         d="m 77,124.9 c -0.1,-0.6 -0.1,-1.1 -0.2,-1.6 l 0.8,-0.1 0.1,1 v 0 c 0.2,-0.7 0.7,-1.2 1.3,-1.3 0.1,0 0.2,0 0.3,0 l 0.1,0.9 c -0.1,0 -0.2,0 -0.3,0 -0.6,0.1 -1,0.6 -1.1,1.4 0,0.1 0,0.3 0,0.4 l 0.2,2.7 -0.9,0.1 z"
         class="st3"
         id="XMLID_17_" /></g><path
       style="stroke:#020000;stroke-opacity:1"
       d="m 73.6,109.6 c -1.3,0 -2.6,-0.1 -3.9,-0.1 -0.9,0 -1.8,0.1 -2.8,0 -1.4,0 -2.8,-0.1 -4.1,-0.3"
       class="st4"
       id="XMLID_5_" /><path
       style="stroke:#000000;stroke-opacity:1"
       d="m 73.3,109.6 c 0.6,0 1.2,0.2 1.7,0.5 0.5,0.3 1,0.7 1.5,1 2,1.4 4.3,2.3 6.7,2.9"
       class="st4"
       id="XMLID_20_" /><g
       style="fill:#000000;fill-opacity:1"
       id="XMLID_22_"><path
         style="fill:#000000;fill-opacity:1"
         d="m 71.5,109.6 c -0.3,0.1 -0.3,0.2 -0.5,0.4 -0.4,0.4 -0.7,0.9 -0.8,1.5 -0.1,0.6 -0.2,1.1 -0.2,1.7 0,0.7 0,1.4 0.2,2 0.2,0.7 0.6,1.3 1.3,1.5 0.3,0.1 0.7,0.2 1.1,0.2 0.9,0 1.8,-0.1 2.7,-0.4 0.9,-0.3 1.7,-0.8 2.2,-1.5 0.2,-0.3 0.4,-0.5 0.5,-0.8 0.1,-0.4 0.1,-0.7 0.1,-1.1 0,-0.2 0,-0.4 -0.1,-0.6 -0.1,-0.4 -0.5,-0.6 -0.8,-0.9 -0.8,-0.6 -1.6,-1.1 -2.4,-1.5 -0.4,-0.2 -0.8,-0.5 -1.2,-0.6 -0.7,-0.1 -1.4,0 -2.1,0.1 z"
         class="st3"
         id="XMLID_65_" /><g
         style="fill:#000000;fill-opacity:1"
         id="XMLID_59_"><path
           style="fill:#000000;fill-opacity:1"
           d="m 71.3,109.4 c -1.9,1 -2.1,4.4 -1.4,6.2 0.9,2.3 3.9,2 5.7,1.2 1.6,-0.7 3.5,-2.8 2.3,-4.6 -0.6,-1 -2.1,-1.6 -3.1,-2.2 -1.1,-0.8 -2,-0.9 -3.5,-0.6 -0.3,0 -0.1,0.5 0.2,0.5 1.9,-0.3 3,0.5 4.5,1.4 1.2,0.8 2.2,1.8 1.4,3.4 -0.4,0.8 -1.2,1.3 -2,1.6 -1.9,0.8 -4.7,1 -5.2,-1.5 -0.3,-1.5 -0.2,-4.1 1.4,-5 0.3,-0.1 0,-0.6 -0.3,-0.4 z"
           class="st3"
           id="XMLID_64_" /></g></g><path
       style="stroke:#000000;stroke-opacity:1"
       d="m 90.4,114 c 0.4,0.3 0.5,0.8 0.6,1.3 0,0.5 -0.1,1 -0.4,1.5 -0.3,0.4 -0.7,0.8 -1.1,1"
       class="st4"
       id="XMLID_23_" /><path
       style="stroke:#000000;stroke-opacity:1"
       d="m 101.5,109.2 c -0.5,-0.2 -1,-0.3 -1.6,-0.3 -0.2,0 -0.3,0 -0.5,0 -0.2,0 -0.4,0.2 -0.5,0.3 -0.2,0.2 -0.5,0.3 -0.7,0.5 0,0 -0.1,0.1 -0.1,0.1 0,0.1 0,0.1 0,0.2 0,0.4 0.1,0.8 0.3,1.2 0.2,0.4 0.5,0.7 0.8,1 0.2,0.1 0.3,0.3 0.5,0.5"
       class="st4"
       id="XMLID_25_" /><path
       style="stroke:#000000;stroke-opacity:1"
       d="m 106.3,104.4 c 0.5,0.1 1,0.3 1.5,0.5 1.4,0.7 2.9,1.4 4,2.6 0.1,0.1 0.2,0.2 0.2,0.3 0.1,0.1 0.1,0.3 0.2,0.4 0.1,0.4 0.1,0.8 0.2,1.2 0,0.3 0,0.7 -0.1,1 -0.2,0.7 -0.9,1.2 -1.6,1.2"
       class="st4"
       id="XMLID_27_" /><path
       style="stroke:#000000;stroke-opacity:1"
       d="m 114.4,105.5 c 0.3,0.3 0.6,0.7 0.8,1 0.1,0.1 0.1,0.2 0.2,0.4 0,0.2 0,0.5 -0.1,0.7"
       class="st4"
       id="XMLID_34_" /><path
       style="fill:#000000;fill-opacity:1;stroke:#000000;stroke-opacity:1"
       d="m 94.2,116.7 c 0.4,-1 1.8,-1 2.9,-1.2 0.9,-0.1 1.8,0 2.6,0.2 1.9,0.3 3.7,0.5 5.6,0.4 1.9,-0.1 3.8,-0.6 5.7,-1.2 3,-0.9 6,-1.8 9,-2.9 0.2,-0.1 0.5,-0.2 0.8,-0.1 0.4,0.1 0.6,0.5 0.8,0.8 0.2,0.4 0.4,0.8 0.3,1.3 -0.1,0.6 -0.7,1 -1.2,1.3 -3.6,2.3 -7.7,3.7 -11.9,4.7 -1.9,0.4 -3.8,0.8 -5.7,0.7 -2.9,-0.2 -5.6,-1.6 -8.2,-2.9 -0.5,-0.3 -1,-0.6 -0.7,-1.1 z"
       class="st5"
       id="XMLID_41_" /><path
       style="fill:#000000;fill-opacity:1;stroke:#000000;stroke-opacity:1"
       d="m 124.8,96.5 c -0.3,0.1 -0.3,0.1 -0.8,0.3 -0.3,0.1 -0.4,0.6 -0.6,0.9 -0.1,0.3 -0.3,0.5 -0.3,0.8 -0.1,0.2 -0.1,0.5 -0.1,0.8 0,0.6 0,1.2 0.1,1.9 0,0.3 0,0.6 0.2,0.9 0.2,0.5 0.8,0.8 1.4,0.9 0.6,0.1 1.2,-0.2 1.7,-0.5 0.5,-0.3 1,-0.6 1.5,-0.9 0.2,-0.1 0.4,-0.2 0.6,-0.4 0.2,-0.2 0.3,-0.4 0.4,-0.5 0.4,-0.7 0.7,-1.5 0.5,-2.3 -0.1,-0.4 -0.2,-1.1 -0.5,-1.4 -0.3,-0.4 -0.4,-0.5 -0.9,-0.7 -0.5,-0.2 -1.4,0 -1.9,0.1 -0.5,-0.1 -0.8,0 -1.3,0.1 z"
       class="st5"
       id="XMLID_55_" /><path
       style="stroke:#000000;stroke-opacity:1"
       d="m 65.4,109.6 c -0.3,0.2 -0.9,0.6 -1.3,1.2 -0.2,0.2 -1,1.4 -0.7,2.7 0.1,0.2 0,0.5 1.4,2.2 1.7,2 4.8,1.7 6.5,1.6 1.7,0.1 3.9,0.1 10,-0.6 0.3,0 0.6,-1.1 0.4,-2 -0.1,-0.4 0,-0.7 0,-0.9"
       class="st4"
       id="XMLID_19_" /><path
       style="stroke:#000000;stroke-opacity:1"
       d="m 130.6,95.5 c -2.1,-0.2 -4.1,0.8 -6.2,1 -1.6,0.2 -3.2,-0.1 -4.7,0.2 -0.6,0.1 -1.1,0.3 -1.6,0.5 -0.3,0.1 -0.5,0.2 -0.8,0.4 -0.2,0.2 -0.4,0.4 -0.5,0.7 -0.3,0.7 -0.5,1.4 -0.5,2.2 0.1,0.7 0.4,1.5 1.1,1.9 0.5,0.3 1,0.4 1.6,0.4 1.8,0.1 3.6,-0.3 5.3,0.2 0.5,0.1 1,0.4 1.5,0.5 0.6,0.2 1.2,0.3 1.8,0.4 0.6,0.1 1.4,0 1.8,-0.5 0.3,-0.4 0.3,-0.9 0.3,-1.4 0,-1.8 -0.1,-3.6 -0.6,-5.3 -0.1,-0.2 -0.1,-0.5 -0.3,-0.6 -0.2,-0.2 -0.4,-0.3 -0.6,-0.1 0.3,0 0.5,0.2 0.5,0.5"
       class="st4"
       id="XMLID_4_" /><path
       style="stroke:#000000;stroke-opacity:1"
       d="m 95,117.7 c 0.4,0.9 0.6,1.9 0.7,3 0.1,0.5 0.1,1.1 0,1.6 -0.1,0.4 -0.2,0.8 -0.3,1.2 -0.2,0.8 -0.2,1.7 0.1,2.5"
       class="st6"
       id="XMLID_21_" /><path
       style="stroke:#000000;stroke-opacity:1"
       d="m 97.7,118.7 c -0.5,1.2 -0.5,2.5 -0.6,3.8 0,0.4 0,0.9 0,1.3 0.1,0.5 0.3,1 0.4,1.4 0.1,0.5 0.1,1.1 -0.2,1.4"
       class="st6"
       id="XMLID_26_" /></g></g><text
   id="XMLID_28_"
   class="st7 st8 st9"
   x="4.025177"
   y="16.362391"
   style="font-style:normal;font-variant:normal;font-weight:normal;font-stretch:normal;font-size:2.60102px;font-family:Bebas-Regular;-inkscape-font-specification:'Bebas-Regular, Normal';font-variant-ligatures:normal;font-variant-caps:normal;font-variant-numeric:normal;font-variant-east-asian:normal;stroke:#000000;stroke-width:0.0195076;stroke-miterlimit:10">APPROVED</text></svg>
