M48
; DRILL file {KiCad (5.1.9)-1} date 08/16/21 01:56:18
; FORMAT={-:-/ absolute / inch / decimal}
; #@! TF.CreationDate,2021-08-16T01:56:18+02:00
; #@! TF.GenerationSoftware,Kicad,Pcbnew,(5.1.9)-1
; #@! TF.FileFunction,Plated,1,2,PTH
FMAT,2
INCH
T1C0.0157
T2C0.0236
T3C0.0276
T4C0.0315
T5C0.0354
T6C0.0400
T7C0.0433
T8C0.0579
T9C0.0591
T10C0.0866
%
G90
G05
T1
X4.8125Y-2.875
X4.9798Y-1.8658
X5.6243Y-2.3542
X5.6393Y-2.3157
X5.6688Y-2.2872
X5.6875Y-1.9882
X5.6876Y-2.0404
X5.6983Y-2.2607
X5.7209Y-1.9882
X5.7211Y-2.0404
X5.7544Y-1.9882
X5.7546Y-2.0404
X5.7878Y-1.9882
X5.788Y-2.0404
X5.7912Y-2.1012
X5.8213Y-1.9882
X5.8215Y-2.0404
X5.8282Y-2.1172
X5.8548Y-1.9882
X5.855Y-2.0404
X5.8882Y-1.9882
X5.8884Y-2.0404
X5.9219Y-1.9882
X5.9219Y-2.0404
X6.3762Y-1.8787
X6.8107Y-1.9112
X6.8127Y-1.8667
X6.8202Y-1.8202
X6.8202Y-1.9503
X6.8388Y-1.9872
X6.8852Y-1.7714
X6.8998Y-2.4617
X6.9154Y-2.0232
X6.9197Y-2.3197
X6.958Y-1.9758
X7.4272Y-2.0412
X7.553Y-1.9705
X7.5771Y-1.9154
X7.5899Y-1.9569
X7.651Y-1.9882
X7.9733Y-1.9587
X8.0Y-3.25
X8.1402Y-1.9603
T2
X6.1307Y-2.0547
X6.1307Y-2.1138
T3
X5.4787Y-1.7934
X5.4787Y-1.9941
X6.5262Y-1.7913
X6.5262Y-1.8893
X6.5262Y-1.9873
X6.5262Y-2.0853
X6.5262Y-2.1834
X6.5262Y-2.2814
X6.5262Y-2.3794
X6.7262Y-1.7913
X6.7262Y-1.8893
X6.7262Y-1.9873
X6.7262Y-2.0853
X6.7262Y-2.1834
X6.7262Y-2.2814
X6.7262Y-2.3794
T4
X1.4319Y-2.1633
X1.4319Y-2.3632
X1.5651Y-2.1633
X1.5651Y-2.3632
X1.6983Y-2.1633
X1.6983Y-2.3632
X1.8315Y-2.1633
X1.8315Y-2.3632
X1.9647Y-2.1633
X1.9647Y-2.3632
X2.0979Y-2.1633
X2.0979Y-2.3632
X2.2311Y-2.1633
X2.2311Y-2.3632
X2.3643Y-2.1633
X2.3643Y-2.3632
X2.4975Y-2.1633
X2.4975Y-2.3632
X2.6307Y-2.1633
X2.6307Y-2.3632
X2.7639Y-2.1633
X2.7639Y-2.3632
X2.8971Y-2.1633
X2.8971Y-2.3632
X3.0303Y-2.1633
X3.0303Y-2.3632
X3.1635Y-2.1633
X3.1635Y-2.3632
X3.2967Y-2.1633
X3.2967Y-2.3632
X3.4299Y-2.1633
X3.4299Y-2.3632
X3.5631Y-2.1633
X3.5631Y-2.3632
X3.6963Y-2.1633
X3.6963Y-2.3632
X3.8295Y-2.1633
X3.8295Y-2.3632
X3.9627Y-2.1633
X3.9627Y-2.3632
X4.0959Y-2.1633
X4.0959Y-2.3632
X4.2291Y-2.1633
X4.2291Y-2.3632
X4.3623Y-2.1633
X4.3623Y-2.3632
X4.4955Y-2.1633
X4.4955Y-2.3632
X4.6287Y-2.1633
X4.6287Y-2.3632
X4.7619Y-2.1633
X4.7619Y-2.3632
X4.8951Y-2.1633
X4.8951Y-2.3632
X5.0283Y-2.1633
X5.0283Y-2.3632
X5.1616Y-2.1633
X5.1616Y-2.3632
X5.2948Y-2.1633
X5.2948Y-2.3632
X5.428Y-2.1633
X5.428Y-2.3632
X5.5612Y-2.1633
X5.5612Y-2.3632
X6.0248Y-2.2708
X6.0252Y-2.3798
X6.2248Y-2.2708
X6.2252Y-2.3798
X6.9115Y-1.862
X6.9115Y-2.162
X7.0115Y-1.862
X7.0115Y-2.162
X7.1115Y-1.862
X7.1115Y-2.162
X7.2115Y-1.862
X7.2115Y-2.162
X7.2697Y-2.2637
X7.3115Y-1.862
X7.3115Y-2.162
X7.4115Y-1.862
X7.4115Y-2.162
X7.4666Y-2.2637
X7.5115Y-1.7608
X7.5115Y-1.862
X7.5115Y-2.162
X7.5587Y-2.2883
X7.5587Y-2.3868
X7.6115Y-1.862
X7.6115Y-2.162
X7.7083Y-1.7608
X7.7115Y-1.862
X7.7115Y-2.162
X7.7517Y-2.3177
X7.8115Y-1.862
X7.8115Y-2.162
X7.9115Y-1.862
X7.9115Y-2.162
X7.9439Y-2.3177
X8.0115Y-1.862
X8.0115Y-2.162
X8.1115Y-1.862
X8.1115Y-2.162
X8.1377Y-2.2883
X8.1377Y-2.3868
X8.2115Y-1.862
X8.2115Y-2.162
X8.6649Y-2.1633
X8.6649Y-2.3632
X8.8027Y-2.1633
X8.8027Y-2.3632
X8.9405Y-2.1633
X8.9405Y-2.3632
X9.0782Y-2.1633
X9.0782Y-2.3632
X9.216Y-2.1633
X9.216Y-2.3632
X9.3538Y-2.1633
X9.3538Y-2.3632
X9.4916Y-2.1633
X9.4916Y-2.3632
X9.6294Y-2.1633
X9.6294Y-2.3632
X9.7672Y-2.1633
X9.7672Y-2.3632
X9.905Y-2.1633
X9.905Y-2.3632
X10.0428Y-2.1633
X10.0428Y-2.3632
X10.1806Y-2.1633
X10.1806Y-2.3632
X10.3287Y-2.1634
X10.3287Y-2.3634
T5
X6.0927Y-1.8387
X6.1928Y-1.8387
T6
X4.6898Y-1.8217
X4.6898Y-1.9217
X4.7898Y-1.8217
X4.7898Y-1.9217
X4.8898Y-1.8217
X4.8898Y-1.9217
T7
X3.7556Y-1.7893
X3.7556Y-1.9664
X4.0115Y-1.7893
X4.0115Y-1.9664
X4.2257Y-1.7893
X4.2257Y-1.9664
X4.4816Y-1.7893
X4.4816Y-1.9664
T8
X5.5628Y-5.1312
X5.8128Y-5.0312
X6.5018Y-5.1325
X6.7518Y-5.0325
T9
X1.1562Y-2.8813
X1.25Y-3.6313
X1.25Y-5.1312
X1.3438Y-5.1312
X1.4062Y-2.7812
X1.4375Y-4.3812
X1.5Y-3.5312
X1.5Y-5.0312
X1.5938Y-5.0312
X1.6875Y-4.2812
X1.9062Y-2.8813
X2.0938Y-3.6313
X2.0938Y-5.1312
X2.1562Y-2.7812
X2.2812Y-5.1312
X2.3438Y-3.5312
X2.3438Y-5.0312
X2.4688Y-4.3812
X2.5312Y-5.0312
X2.6562Y-2.8813
X2.7188Y-4.2812
X2.8438Y-3.6313
X2.8438Y-5.1312
X2.9062Y-2.7812
X3.0938Y-3.5312
X3.0938Y-5.0312
X3.2188Y-4.3812
X3.2188Y-5.1312
X3.4062Y-2.8813
X3.4688Y-4.2812
X3.4688Y-5.0312
X3.5938Y-3.6313
X3.6562Y-2.7812
X3.8438Y-3.5312
X3.9688Y-4.3812
X4.1562Y-2.8813
X4.2188Y-4.2812
X4.3438Y-3.6313
X4.4062Y-2.7812
X4.5938Y-3.5312
X4.625Y-5.1312
X4.7188Y-4.3812
X4.875Y-5.0312
X4.9062Y-2.8813
X4.9688Y-4.2812
X5.0938Y-3.6313
X5.1562Y-2.7812
X5.3438Y-3.5312
X5.4688Y-4.3812
X5.6562Y-2.8813
X5.7188Y-4.2812
X5.8438Y-3.6313
X5.9062Y-2.7812
X6.0938Y-3.5312
X6.2188Y-4.3812
X6.4062Y-2.8813
X6.4688Y-4.2812
X6.5938Y-3.6313
X6.6562Y-2.7812
X6.8438Y-3.5312
X6.9688Y-4.3812
X7.1562Y-2.8813
X7.2188Y-4.2812
X7.3438Y-3.6313
X7.4062Y-2.7812
X7.5938Y-3.5312
X7.7188Y-4.3812
X7.9062Y-2.8813
X7.9688Y-4.2812
X8.0938Y-3.6313
X8.0938Y-5.1312
X8.1562Y-2.7812
X8.3438Y-3.5312
X8.3438Y-5.0312
X8.375Y-5.1312
X8.4688Y-4.3812
X8.625Y-5.0312
X8.6562Y-2.8813
X8.7188Y-4.2812
X8.8438Y-3.6313
X8.9062Y-2.7812
X9.0312Y-5.1312
X9.0938Y-3.5312
X9.2188Y-4.3812
X9.2188Y-5.1312
X9.2812Y-5.0312
X9.4062Y-2.8813
X9.4688Y-4.2812
X9.4688Y-5.0312
X9.6562Y-2.7812
X9.7812Y-2.8813
X9.875Y-3.6313
X9.9688Y-5.1312
X10.0312Y-2.7812
X10.0625Y-4.3812
X10.0625Y-5.1312
X10.125Y-3.5312
X10.1562Y-2.8813
X10.2188Y-5.0312
X10.3125Y-4.2812
X10.3125Y-5.0312
X10.4062Y-2.7812
T10
X1.0907Y-1.8571
X1.0907Y-2.4083
X2.0012Y-3.3552
X2.5862Y-4.8552
X5.8067Y-3.3552
X9.0302Y-4.8552
X9.6152Y-3.3552
X10.5257Y-1.8463
X10.5257Y-2.4083
T2
G00X5.6345Y-1.8845
M15
G01X5.6345Y-1.853
M16
G05
G00X5.6345Y-2.0314
M15
G01X5.6345Y-1.9723
M16
G05
G00X5.975Y-1.8845
M15
G01X5.975Y-1.853
M16
G05
G00X5.975Y-2.0314
M15
G01X5.975Y-1.9723
M16
G05
T0
M30
