G04 #@! TF.GenerationSoftware,KiCad,Pcbnew,(5.1.10)-1*
G04 #@! TF.CreationDate,2021-08-26T15:08:37+02:00*
G04 #@! TF.ProjectId,romeo-pcb,726f6d65-6f2d-4706-9362-2e6b69636164,rev?*
G04 #@! TF.SameCoordinates,Original*
G04 #@! TF.FileFunction,Legend,Bot*
G04 #@! TF.FilePolarity,Positive*
%FSLAX46Y46*%
G04 Gerber Fmt 4.6, Leading zero omitted, Abs format (unit mm)*
G04 Created by KiCad (PCBNEW (5.1.10)-1) date 2021-08-26 15:08:37*
%MOMM*%
%LPD*%
G01*
G04 APERTURE LIST*
%ADD10C,0.010000*%
G04 APERTURE END LIST*
D10*
G36*
X51174637Y-108689815D02*
G01*
X51096157Y-108692945D01*
X51037281Y-108700555D01*
X50986645Y-108714632D01*
X50932887Y-108737160D01*
X50888941Y-108758226D01*
X50729971Y-108857917D01*
X50601868Y-108986442D01*
X50504797Y-109143485D01*
X50438927Y-109328729D01*
X50404425Y-109541860D01*
X50398851Y-109683916D01*
X50411006Y-109890368D01*
X50448557Y-110068209D01*
X50513988Y-110224420D01*
X50609781Y-110365986D01*
X50662589Y-110425860D01*
X50797845Y-110538642D01*
X50957354Y-110617415D01*
X51139485Y-110661668D01*
X51342610Y-110670893D01*
X51426412Y-110664961D01*
X51605386Y-110627291D01*
X51764096Y-110554081D01*
X51900484Y-110448010D01*
X52012491Y-110311756D01*
X52098062Y-110147997D01*
X52155136Y-109959413D01*
X52181658Y-109748681D01*
X52183354Y-109679666D01*
X52183017Y-109674926D01*
X51864332Y-109674926D01*
X51863083Y-109723830D01*
X51858672Y-109831609D01*
X51851770Y-109909720D01*
X51839787Y-109970831D01*
X51820134Y-110027607D01*
X51790219Y-110092715D01*
X51785836Y-110101650D01*
X51702248Y-110236665D01*
X51601581Y-110334605D01*
X51480785Y-110398333D01*
X51464000Y-110404075D01*
X51352708Y-110424345D01*
X51228406Y-110422370D01*
X51110332Y-110399534D01*
X51045698Y-110373985D01*
X50926113Y-110289137D01*
X50830400Y-110172312D01*
X50760351Y-110027650D01*
X50717759Y-109859294D01*
X50704418Y-109671386D01*
X50707584Y-109592937D01*
X50735870Y-109405936D01*
X50791349Y-109246910D01*
X50872324Y-109117813D01*
X50977099Y-109020595D01*
X51103976Y-108957209D01*
X51251258Y-108929604D01*
X51285329Y-108928531D01*
X51437444Y-108946926D01*
X51571298Y-109002543D01*
X51684241Y-109093252D01*
X51773620Y-109216925D01*
X51836764Y-109371356D01*
X51854386Y-109452474D01*
X51863305Y-109550037D01*
X51864332Y-109674926D01*
X52183017Y-109674926D01*
X52167400Y-109455340D01*
X52119208Y-109255541D01*
X52039561Y-109081706D01*
X51929239Y-108935270D01*
X51789026Y-108817668D01*
X51680424Y-108756512D01*
X51617218Y-108727706D01*
X51564654Y-108708535D01*
X51511259Y-108697051D01*
X51445558Y-108691305D01*
X51356075Y-108689347D01*
X51284083Y-108689180D01*
X51174637Y-108689815D01*
G37*
X51174637Y-108689815D02*
X51096157Y-108692945D01*
X51037281Y-108700555D01*
X50986645Y-108714632D01*
X50932887Y-108737160D01*
X50888941Y-108758226D01*
X50729971Y-108857917D01*
X50601868Y-108986442D01*
X50504797Y-109143485D01*
X50438927Y-109328729D01*
X50404425Y-109541860D01*
X50398851Y-109683916D01*
X50411006Y-109890368D01*
X50448557Y-110068209D01*
X50513988Y-110224420D01*
X50609781Y-110365986D01*
X50662589Y-110425860D01*
X50797845Y-110538642D01*
X50957354Y-110617415D01*
X51139485Y-110661668D01*
X51342610Y-110670893D01*
X51426412Y-110664961D01*
X51605386Y-110627291D01*
X51764096Y-110554081D01*
X51900484Y-110448010D01*
X52012491Y-110311756D01*
X52098062Y-110147997D01*
X52155136Y-109959413D01*
X52181658Y-109748681D01*
X52183354Y-109679666D01*
X52183017Y-109674926D01*
X51864332Y-109674926D01*
X51863083Y-109723830D01*
X51858672Y-109831609D01*
X51851770Y-109909720D01*
X51839787Y-109970831D01*
X51820134Y-110027607D01*
X51790219Y-110092715D01*
X51785836Y-110101650D01*
X51702248Y-110236665D01*
X51601581Y-110334605D01*
X51480785Y-110398333D01*
X51464000Y-110404075D01*
X51352708Y-110424345D01*
X51228406Y-110422370D01*
X51110332Y-110399534D01*
X51045698Y-110373985D01*
X50926113Y-110289137D01*
X50830400Y-110172312D01*
X50760351Y-110027650D01*
X50717759Y-109859294D01*
X50704418Y-109671386D01*
X50707584Y-109592937D01*
X50735870Y-109405936D01*
X50791349Y-109246910D01*
X50872324Y-109117813D01*
X50977099Y-109020595D01*
X51103976Y-108957209D01*
X51251258Y-108929604D01*
X51285329Y-108928531D01*
X51437444Y-108946926D01*
X51571298Y-109002543D01*
X51684241Y-109093252D01*
X51773620Y-109216925D01*
X51836764Y-109371356D01*
X51854386Y-109452474D01*
X51863305Y-109550037D01*
X51864332Y-109674926D01*
X52183017Y-109674926D01*
X52167400Y-109455340D01*
X52119208Y-109255541D01*
X52039561Y-109081706D01*
X51929239Y-108935270D01*
X51789026Y-108817668D01*
X51680424Y-108756512D01*
X51617218Y-108727706D01*
X51564654Y-108708535D01*
X51511259Y-108697051D01*
X51445558Y-108691305D01*
X51356075Y-108689347D01*
X51284083Y-108689180D01*
X51174637Y-108689815D01*
G36*
X57627262Y-109656643D02*
G01*
X57554704Y-109847832D01*
X57486973Y-110027001D01*
X57425519Y-110190260D01*
X57371796Y-110333717D01*
X57327256Y-110453480D01*
X57293351Y-110545658D01*
X57271534Y-110606358D01*
X57263257Y-110631690D01*
X57263223Y-110632052D01*
X57282808Y-110639468D01*
X57334006Y-110643348D01*
X57406188Y-110642947D01*
X57414333Y-110642635D01*
X57565000Y-110636416D01*
X57649493Y-110397851D01*
X57733986Y-110159287D01*
X58149637Y-110165018D01*
X58565288Y-110170750D01*
X58649663Y-110408875D01*
X58734039Y-110647000D01*
X58887853Y-110647000D01*
X58962261Y-110644999D01*
X59016602Y-110639718D01*
X59040450Y-110632240D01*
X59040765Y-110631125D01*
X59033238Y-110608761D01*
X59012006Y-110550772D01*
X58978540Y-110461055D01*
X58934309Y-110343504D01*
X58880785Y-110202015D01*
X58819436Y-110040484D01*
X58768257Y-109906166D01*
X58469102Y-109906166D01*
X58149870Y-109906166D01*
X58022147Y-109905371D01*
X57932023Y-109902718D01*
X57874789Y-109897803D01*
X57845734Y-109890226D01*
X57840103Y-109879708D01*
X57902121Y-109708160D01*
X57961028Y-109548641D01*
X58015158Y-109405392D01*
X58062847Y-109282656D01*
X58102432Y-109184675D01*
X58132247Y-109115691D01*
X58150629Y-109079946D01*
X58155384Y-109076104D01*
X58167793Y-109100954D01*
X58191071Y-109157164D01*
X58221819Y-109236238D01*
X58254591Y-109324083D01*
X58296927Y-109439533D01*
X58342045Y-109562274D01*
X58383362Y-109674413D01*
X58404470Y-109731541D01*
X58469102Y-109906166D01*
X58768257Y-109906166D01*
X58751735Y-109862805D01*
X58679150Y-109672875D01*
X58675274Y-109662750D01*
X58310685Y-108710250D01*
X58151215Y-108704143D01*
X57991745Y-108698037D01*
X57627262Y-109656643D01*
G37*
X57627262Y-109656643D02*
X57554704Y-109847832D01*
X57486973Y-110027001D01*
X57425519Y-110190260D01*
X57371796Y-110333717D01*
X57327256Y-110453480D01*
X57293351Y-110545658D01*
X57271534Y-110606358D01*
X57263257Y-110631690D01*
X57263223Y-110632052D01*
X57282808Y-110639468D01*
X57334006Y-110643348D01*
X57406188Y-110642947D01*
X57414333Y-110642635D01*
X57565000Y-110636416D01*
X57649493Y-110397851D01*
X57733986Y-110159287D01*
X58149637Y-110165018D01*
X58565288Y-110170750D01*
X58649663Y-110408875D01*
X58734039Y-110647000D01*
X58887853Y-110647000D01*
X58962261Y-110644999D01*
X59016602Y-110639718D01*
X59040450Y-110632240D01*
X59040765Y-110631125D01*
X59033238Y-110608761D01*
X59012006Y-110550772D01*
X58978540Y-110461055D01*
X58934309Y-110343504D01*
X58880785Y-110202015D01*
X58819436Y-110040484D01*
X58768257Y-109906166D01*
X58469102Y-109906166D01*
X58149870Y-109906166D01*
X58022147Y-109905371D01*
X57932023Y-109902718D01*
X57874789Y-109897803D01*
X57845734Y-109890226D01*
X57840103Y-109879708D01*
X57902121Y-109708160D01*
X57961028Y-109548641D01*
X58015158Y-109405392D01*
X58062847Y-109282656D01*
X58102432Y-109184675D01*
X58132247Y-109115691D01*
X58150629Y-109079946D01*
X58155384Y-109076104D01*
X58167793Y-109100954D01*
X58191071Y-109157164D01*
X58221819Y-109236238D01*
X58254591Y-109324083D01*
X58296927Y-109439533D01*
X58342045Y-109562274D01*
X58383362Y-109674413D01*
X58404470Y-109731541D01*
X58469102Y-109906166D01*
X58768257Y-109906166D01*
X58751735Y-109862805D01*
X58679150Y-109672875D01*
X58675274Y-109662750D01*
X58310685Y-108710250D01*
X58151215Y-108704143D01*
X57991745Y-108698037D01*
X57627262Y-109656643D01*
G36*
X56623375Y-108704444D02*
G01*
X56476242Y-108708504D01*
X56363957Y-108713185D01*
X56279036Y-108719286D01*
X56213994Y-108727606D01*
X56161346Y-108738945D01*
X56113609Y-108754102D01*
X56095854Y-108760775D01*
X55967819Y-108831269D01*
X55869582Y-108930514D01*
X55802649Y-109055775D01*
X55768523Y-109204314D01*
X55767333Y-109358431D01*
X55793922Y-109507881D01*
X55847511Y-109630565D01*
X55929891Y-109727691D01*
X56042852Y-109800467D01*
X56188185Y-109850101D01*
X56367678Y-109877800D01*
X56547888Y-109885000D01*
X56734500Y-109885000D01*
X56734500Y-110647000D01*
X57030833Y-110647000D01*
X57030833Y-109635683D01*
X56734500Y-109635683D01*
X56505727Y-109627852D01*
X56390897Y-109622061D01*
X56309886Y-109612998D01*
X56254221Y-109599308D01*
X56218966Y-109582027D01*
X56138515Y-109505424D01*
X56091700Y-109403275D01*
X56078492Y-109292333D01*
X56091479Y-109176435D01*
X56131986Y-109086712D01*
X56202329Y-109021462D01*
X56304824Y-108978982D01*
X56441788Y-108957570D01*
X56538708Y-108954131D01*
X56734500Y-108953666D01*
X56734500Y-109635683D01*
X57030833Y-109635683D01*
X57030833Y-108694649D01*
X56623375Y-108704444D01*
G37*
X56623375Y-108704444D02*
X56476242Y-108708504D01*
X56363957Y-108713185D01*
X56279036Y-108719286D01*
X56213994Y-108727606D01*
X56161346Y-108738945D01*
X56113609Y-108754102D01*
X56095854Y-108760775D01*
X55967819Y-108831269D01*
X55869582Y-108930514D01*
X55802649Y-109055775D01*
X55768523Y-109204314D01*
X55767333Y-109358431D01*
X55793922Y-109507881D01*
X55847511Y-109630565D01*
X55929891Y-109727691D01*
X56042852Y-109800467D01*
X56188185Y-109850101D01*
X56367678Y-109877800D01*
X56547888Y-109885000D01*
X56734500Y-109885000D01*
X56734500Y-110647000D01*
X57030833Y-110647000D01*
X57030833Y-109635683D01*
X56734500Y-109635683D01*
X56505727Y-109627852D01*
X56390897Y-109622061D01*
X56309886Y-109612998D01*
X56254221Y-109599308D01*
X56218966Y-109582027D01*
X56138515Y-109505424D01*
X56091700Y-109403275D01*
X56078492Y-109292333D01*
X56091479Y-109176435D01*
X56131986Y-109086712D01*
X56202329Y-109021462D01*
X56304824Y-108978982D01*
X56441788Y-108957570D01*
X56538708Y-108954131D01*
X56734500Y-108953666D01*
X56734500Y-109635683D01*
X57030833Y-109635683D01*
X57030833Y-108694649D01*
X56623375Y-108704444D01*
G36*
X55141708Y-108699826D02*
G01*
X54946969Y-108702474D01*
X54788493Y-108711027D01*
X54660466Y-108726714D01*
X54557078Y-108750769D01*
X54472515Y-108784420D01*
X54400965Y-108828901D01*
X54356603Y-108866124D01*
X54287622Y-108941672D01*
X54241963Y-109023404D01*
X54215892Y-109121829D01*
X54205674Y-109247453D01*
X54205142Y-109292333D01*
X54214349Y-109446946D01*
X54244665Y-109569604D01*
X54299982Y-109667023D01*
X54384193Y-109745923D01*
X54501189Y-109813021D01*
X54508897Y-109816615D01*
X54564455Y-109839575D01*
X54621416Y-109855724D01*
X54690188Y-109866772D01*
X54781179Y-109874427D01*
X54895188Y-109880011D01*
X55168167Y-109891083D01*
X55168167Y-110647000D01*
X55464500Y-110647000D01*
X55464500Y-109631000D01*
X55168167Y-109631000D01*
X54982958Y-109630881D01*
X54888051Y-109628408D01*
X54800093Y-109621940D01*
X54734607Y-109612733D01*
X54722464Y-109609849D01*
X54657436Y-109579994D01*
X54594606Y-109533527D01*
X54585532Y-109524591D01*
X54550846Y-109482618D01*
X54530743Y-109437882D01*
X54520213Y-109375472D01*
X54516112Y-109318082D01*
X54513973Y-109235345D01*
X54520674Y-109178790D01*
X54539311Y-109132656D01*
X54558584Y-109101833D01*
X54604239Y-109045435D01*
X54657531Y-109005945D01*
X54727051Y-108980200D01*
X54821390Y-108965032D01*
X54949142Y-108957279D01*
X54951208Y-108957208D01*
X55168167Y-108949813D01*
X55168167Y-109631000D01*
X55464500Y-109631000D01*
X55464500Y-108699666D01*
X55141708Y-108699826D01*
G37*
X55141708Y-108699826D02*
X54946969Y-108702474D01*
X54788493Y-108711027D01*
X54660466Y-108726714D01*
X54557078Y-108750769D01*
X54472515Y-108784420D01*
X54400965Y-108828901D01*
X54356603Y-108866124D01*
X54287622Y-108941672D01*
X54241963Y-109023404D01*
X54215892Y-109121829D01*
X54205674Y-109247453D01*
X54205142Y-109292333D01*
X54214349Y-109446946D01*
X54244665Y-109569604D01*
X54299982Y-109667023D01*
X54384193Y-109745923D01*
X54501189Y-109813021D01*
X54508897Y-109816615D01*
X54564455Y-109839575D01*
X54621416Y-109855724D01*
X54690188Y-109866772D01*
X54781179Y-109874427D01*
X54895188Y-109880011D01*
X55168167Y-109891083D01*
X55168167Y-110647000D01*
X55464500Y-110647000D01*
X55464500Y-109631000D01*
X55168167Y-109631000D01*
X54982958Y-109630881D01*
X54888051Y-109628408D01*
X54800093Y-109621940D01*
X54734607Y-109612733D01*
X54722464Y-109609849D01*
X54657436Y-109579994D01*
X54594606Y-109533527D01*
X54585532Y-109524591D01*
X54550846Y-109482618D01*
X54530743Y-109437882D01*
X54520213Y-109375472D01*
X54516112Y-109318082D01*
X54513973Y-109235345D01*
X54520674Y-109178790D01*
X54539311Y-109132656D01*
X54558584Y-109101833D01*
X54604239Y-109045435D01*
X54657531Y-109005945D01*
X54727051Y-108980200D01*
X54821390Y-108965032D01*
X54949142Y-108957279D01*
X54951208Y-108957208D01*
X55168167Y-108949813D01*
X55168167Y-109631000D01*
X55464500Y-109631000D01*
X55464500Y-108699666D01*
X55141708Y-108699826D01*
G36*
X53469542Y-108704603D02*
G01*
X53322090Y-108708907D01*
X53209465Y-108713806D01*
X53124160Y-108720108D01*
X53058671Y-108728623D01*
X53005490Y-108740158D01*
X52957112Y-108755524D01*
X52940887Y-108761587D01*
X52814275Y-108829883D01*
X52720580Y-108924773D01*
X52659850Y-109046167D01*
X52632138Y-109193976D01*
X52632030Y-109307131D01*
X52653118Y-109449796D01*
X52698735Y-109561912D01*
X52771597Y-109649214D01*
X52807522Y-109677448D01*
X52894342Y-109738644D01*
X52805952Y-109830893D01*
X52753564Y-109897358D01*
X52688159Y-110000190D01*
X52611685Y-110136154D01*
X52545864Y-110262611D01*
X52490671Y-110372934D01*
X52442844Y-110470819D01*
X52405455Y-110549793D01*
X52381573Y-110603384D01*
X52374167Y-110624540D01*
X52394258Y-110636792D01*
X52450540Y-110644561D01*
X52528189Y-110647000D01*
X52682211Y-110647000D01*
X52839859Y-110329449D01*
X52896122Y-110218946D01*
X52950035Y-110118166D01*
X52997226Y-110034913D01*
X53033323Y-109976989D01*
X53048703Y-109956685D01*
X53116659Y-109900268D01*
X53201004Y-109864381D01*
X53310507Y-109846262D01*
X53410654Y-109842666D01*
X53580667Y-109842666D01*
X53580667Y-110647000D01*
X53877000Y-110647000D01*
X53877000Y-109588666D01*
X53580667Y-109588666D01*
X53374292Y-109588633D01*
X53260198Y-109586093D01*
X53178299Y-109577640D01*
X53118708Y-109561961D01*
X53095338Y-109551592D01*
X53009719Y-109491477D01*
X52959110Y-109413072D01*
X52939368Y-109309417D01*
X52938782Y-109288687D01*
X52947185Y-109178452D01*
X52977398Y-109094266D01*
X53033363Y-109033058D01*
X53119027Y-108991754D01*
X53238332Y-108967283D01*
X53363708Y-108957634D01*
X53580667Y-108948865D01*
X53580667Y-109588666D01*
X53877000Y-109588666D01*
X53877000Y-108694189D01*
X53469542Y-108704603D01*
G37*
X53469542Y-108704603D02*
X53322090Y-108708907D01*
X53209465Y-108713806D01*
X53124160Y-108720108D01*
X53058671Y-108728623D01*
X53005490Y-108740158D01*
X52957112Y-108755524D01*
X52940887Y-108761587D01*
X52814275Y-108829883D01*
X52720580Y-108924773D01*
X52659850Y-109046167D01*
X52632138Y-109193976D01*
X52632030Y-109307131D01*
X52653118Y-109449796D01*
X52698735Y-109561912D01*
X52771597Y-109649214D01*
X52807522Y-109677448D01*
X52894342Y-109738644D01*
X52805952Y-109830893D01*
X52753564Y-109897358D01*
X52688159Y-110000190D01*
X52611685Y-110136154D01*
X52545864Y-110262611D01*
X52490671Y-110372934D01*
X52442844Y-110470819D01*
X52405455Y-110549793D01*
X52381573Y-110603384D01*
X52374167Y-110624540D01*
X52394258Y-110636792D01*
X52450540Y-110644561D01*
X52528189Y-110647000D01*
X52682211Y-110647000D01*
X52839859Y-110329449D01*
X52896122Y-110218946D01*
X52950035Y-110118166D01*
X52997226Y-110034913D01*
X53033323Y-109976989D01*
X53048703Y-109956685D01*
X53116659Y-109900268D01*
X53201004Y-109864381D01*
X53310507Y-109846262D01*
X53410654Y-109842666D01*
X53580667Y-109842666D01*
X53580667Y-110647000D01*
X53877000Y-110647000D01*
X53877000Y-109588666D01*
X53580667Y-109588666D01*
X53374292Y-109588633D01*
X53260198Y-109586093D01*
X53178299Y-109577640D01*
X53118708Y-109561961D01*
X53095338Y-109551592D01*
X53009719Y-109491477D01*
X52959110Y-109413072D01*
X52939368Y-109309417D01*
X52938782Y-109288687D01*
X52947185Y-109178452D01*
X52977398Y-109094266D01*
X53033363Y-109033058D01*
X53119027Y-108991754D01*
X53238332Y-108967283D01*
X53363708Y-108957634D01*
X53580667Y-108948865D01*
X53580667Y-109588666D01*
X53877000Y-109588666D01*
X53877000Y-108694189D01*
X53469542Y-108704603D01*
G36*
X49717193Y-109480522D02*
G01*
X49422957Y-110261377D01*
X49324965Y-110004397D01*
X49289441Y-109910893D01*
X49242524Y-109786893D01*
X49187666Y-109641546D01*
X49128318Y-109484001D01*
X49067930Y-109323407D01*
X49030438Y-109223541D01*
X48833903Y-108699666D01*
X48522428Y-108699666D01*
X48567880Y-108821375D01*
X48585151Y-108867183D01*
X48615680Y-108947679D01*
X48657618Y-109058005D01*
X48709116Y-109193304D01*
X48768323Y-109348716D01*
X48833391Y-109519385D01*
X48902469Y-109700452D01*
X48936553Y-109789750D01*
X49259774Y-110636416D01*
X49420154Y-110642602D01*
X49501731Y-110645044D01*
X49551119Y-110642702D01*
X49578417Y-110632760D01*
X49593725Y-110612403D01*
X49602179Y-110591860D01*
X49620998Y-110542457D01*
X49651821Y-110461657D01*
X49692804Y-110354288D01*
X49742102Y-110225177D01*
X49797872Y-110079148D01*
X49858268Y-109921030D01*
X49921447Y-109755648D01*
X49985566Y-109587828D01*
X50048779Y-109422399D01*
X50109243Y-109264185D01*
X50165113Y-109118013D01*
X50214545Y-108988710D01*
X50255696Y-108881103D01*
X50286721Y-108800017D01*
X50305776Y-108750280D01*
X50311003Y-108736708D01*
X50314321Y-108717738D01*
X50300585Y-108706601D01*
X50261986Y-108701267D01*
X50190711Y-108699705D01*
X50168479Y-108699666D01*
X50011428Y-108699666D01*
X49717193Y-109480522D01*
G37*
X49717193Y-109480522D02*
X49422957Y-110261377D01*
X49324965Y-110004397D01*
X49289441Y-109910893D01*
X49242524Y-109786893D01*
X49187666Y-109641546D01*
X49128318Y-109484001D01*
X49067930Y-109323407D01*
X49030438Y-109223541D01*
X48833903Y-108699666D01*
X48522428Y-108699666D01*
X48567880Y-108821375D01*
X48585151Y-108867183D01*
X48615680Y-108947679D01*
X48657618Y-109058005D01*
X48709116Y-109193304D01*
X48768323Y-109348716D01*
X48833391Y-109519385D01*
X48902469Y-109700452D01*
X48936553Y-109789750D01*
X49259774Y-110636416D01*
X49420154Y-110642602D01*
X49501731Y-110645044D01*
X49551119Y-110642702D01*
X49578417Y-110632760D01*
X49593725Y-110612403D01*
X49602179Y-110591860D01*
X49620998Y-110542457D01*
X49651821Y-110461657D01*
X49692804Y-110354288D01*
X49742102Y-110225177D01*
X49797872Y-110079148D01*
X49858268Y-109921030D01*
X49921447Y-109755648D01*
X49985566Y-109587828D01*
X50048779Y-109422399D01*
X50109243Y-109264185D01*
X50165113Y-109118013D01*
X50214545Y-108988710D01*
X50255696Y-108881103D01*
X50286721Y-108800017D01*
X50305776Y-108750280D01*
X50311003Y-108736708D01*
X50314321Y-108717738D01*
X50300585Y-108706601D01*
X50261986Y-108701267D01*
X50190711Y-108699705D01*
X50168479Y-108699666D01*
X50011428Y-108699666D01*
X49717193Y-109480522D01*
G36*
X47061333Y-108953666D02*
G01*
X47992667Y-108953666D01*
X47992667Y-109482833D01*
X47103667Y-109482833D01*
X47103667Y-109736833D01*
X47992667Y-109736833D01*
X47992667Y-110393000D01*
X47040167Y-110393000D01*
X47040167Y-110647000D01*
X48289000Y-110647000D01*
X48289000Y-108699666D01*
X47061333Y-108699666D01*
X47061333Y-108953666D01*
G37*
X47061333Y-108953666D02*
X47992667Y-108953666D01*
X47992667Y-109482833D01*
X47103667Y-109482833D01*
X47103667Y-109736833D01*
X47992667Y-109736833D01*
X47992667Y-110393000D01*
X47040167Y-110393000D01*
X47040167Y-110647000D01*
X48289000Y-110647000D01*
X48289000Y-108699666D01*
X47061333Y-108699666D01*
X47061333Y-108953666D01*
G36*
X46230542Y-108705613D02*
G01*
X46047881Y-108712145D01*
X45899948Y-108721240D01*
X45779157Y-108734174D01*
X45677920Y-108752224D01*
X45588653Y-108776667D01*
X45503768Y-108808776D01*
X45437795Y-108838960D01*
X45324004Y-108913239D01*
X45218104Y-109017405D01*
X45131236Y-109139137D01*
X45089158Y-109224565D01*
X45070305Y-109275901D01*
X45057058Y-109326015D01*
X45048454Y-109383848D01*
X45043531Y-109458341D01*
X45041327Y-109558436D01*
X45040873Y-109673333D01*
X45041494Y-109802982D01*
X45043996Y-109899249D01*
X45049342Y-109971075D01*
X45058495Y-110027401D01*
X45072415Y-110077169D01*
X45089158Y-110122101D01*
X45159741Y-110252738D01*
X45258890Y-110374143D01*
X45374585Y-110472674D01*
X45425961Y-110504358D01*
X45506745Y-110543823D01*
X45591620Y-110574808D01*
X45687391Y-110598470D01*
X45800860Y-110615963D01*
X45938830Y-110628441D01*
X46108104Y-110637060D01*
X46230542Y-110640940D01*
X46659167Y-110652330D01*
X46659167Y-110393000D01*
X46362833Y-110393000D01*
X46154697Y-110393000D01*
X46047958Y-110390385D01*
X45941385Y-110383405D01*
X45852530Y-110373354D01*
X45825808Y-110368749D01*
X45678403Y-110322083D01*
X45553265Y-110247899D01*
X45457360Y-110150800D01*
X45428567Y-110106260D01*
X45375074Y-109976103D01*
X45342824Y-109822854D01*
X45332128Y-109659257D01*
X45343293Y-109498056D01*
X45376630Y-109351994D01*
X45408419Y-109274918D01*
X45473401Y-109172828D01*
X45555148Y-109093494D01*
X45658719Y-109034580D01*
X45789170Y-108993754D01*
X45951557Y-108968682D01*
X46092958Y-108958995D01*
X46362833Y-108947583D01*
X46362833Y-110393000D01*
X46659167Y-110393000D01*
X46659167Y-108693604D01*
X46230542Y-108705613D01*
G37*
X46230542Y-108705613D02*
X46047881Y-108712145D01*
X45899948Y-108721240D01*
X45779157Y-108734174D01*
X45677920Y-108752224D01*
X45588653Y-108776667D01*
X45503768Y-108808776D01*
X45437795Y-108838960D01*
X45324004Y-108913239D01*
X45218104Y-109017405D01*
X45131236Y-109139137D01*
X45089158Y-109224565D01*
X45070305Y-109275901D01*
X45057058Y-109326015D01*
X45048454Y-109383848D01*
X45043531Y-109458341D01*
X45041327Y-109558436D01*
X45040873Y-109673333D01*
X45041494Y-109802982D01*
X45043996Y-109899249D01*
X45049342Y-109971075D01*
X45058495Y-110027401D01*
X45072415Y-110077169D01*
X45089158Y-110122101D01*
X45159741Y-110252738D01*
X45258890Y-110374143D01*
X45374585Y-110472674D01*
X45425961Y-110504358D01*
X45506745Y-110543823D01*
X45591620Y-110574808D01*
X45687391Y-110598470D01*
X45800860Y-110615963D01*
X45938830Y-110628441D01*
X46108104Y-110637060D01*
X46230542Y-110640940D01*
X46659167Y-110652330D01*
X46659167Y-110393000D01*
X46362833Y-110393000D01*
X46154697Y-110393000D01*
X46047958Y-110390385D01*
X45941385Y-110383405D01*
X45852530Y-110373354D01*
X45825808Y-110368749D01*
X45678403Y-110322083D01*
X45553265Y-110247899D01*
X45457360Y-110150800D01*
X45428567Y-110106260D01*
X45375074Y-109976103D01*
X45342824Y-109822854D01*
X45332128Y-109659257D01*
X45343293Y-109498056D01*
X45376630Y-109351994D01*
X45408419Y-109274918D01*
X45473401Y-109172828D01*
X45555148Y-109093494D01*
X45658719Y-109034580D01*
X45789170Y-108993754D01*
X45951557Y-108968682D01*
X46092958Y-108958995D01*
X46362833Y-108947583D01*
X46362833Y-110393000D01*
X46659167Y-110393000D01*
X46659167Y-108693604D01*
X46230542Y-108705613D01*
G36*
X49126288Y-96262627D02*
G01*
X49045734Y-96296648D01*
X48974007Y-96367809D01*
X48909765Y-96477824D01*
X48859845Y-96603756D01*
X48845511Y-96646570D01*
X48818770Y-96727124D01*
X48780438Y-96842945D01*
X48731330Y-96991556D01*
X48672259Y-97170483D01*
X48604041Y-97377251D01*
X48527491Y-97609384D01*
X48443423Y-97864408D01*
X48352652Y-98139847D01*
X48255993Y-98433227D01*
X48154260Y-98742073D01*
X48048269Y-99063908D01*
X47938833Y-99396260D01*
X47826769Y-99736651D01*
X47712889Y-100082608D01*
X47598010Y-100431656D01*
X47482946Y-100781318D01*
X47368512Y-101129121D01*
X47255521Y-101472588D01*
X47144791Y-101809246D01*
X47037134Y-102136619D01*
X46933365Y-102452232D01*
X46834300Y-102753610D01*
X46740753Y-103038278D01*
X46653539Y-103303760D01*
X46573473Y-103547583D01*
X46501369Y-103767270D01*
X46438042Y-103960347D01*
X46405387Y-104059982D01*
X46325388Y-104304648D01*
X46257897Y-104512808D01*
X46202047Y-104688121D01*
X46156974Y-104834244D01*
X46121812Y-104954839D01*
X46095694Y-105053562D01*
X46077756Y-105134074D01*
X46067130Y-105200033D01*
X46062952Y-105255098D01*
X46064355Y-105302927D01*
X46070474Y-105347181D01*
X46080443Y-105391517D01*
X46085634Y-105411282D01*
X46117003Y-105493696D01*
X46164734Y-105581496D01*
X46219855Y-105660552D01*
X46273393Y-105716735D01*
X46284975Y-105725222D01*
X46294028Y-105729986D01*
X46309166Y-105735954D01*
X46331990Y-105743505D01*
X46364103Y-105753020D01*
X46407107Y-105764878D01*
X46462605Y-105779459D01*
X46532199Y-105797143D01*
X46617491Y-105818310D01*
X46720085Y-105843340D01*
X46841582Y-105872612D01*
X46983585Y-105906507D01*
X47147696Y-105945405D01*
X47335517Y-105989684D01*
X47548652Y-106039726D01*
X47788702Y-106095909D01*
X48057271Y-106158615D01*
X48355959Y-106228222D01*
X48686371Y-106305110D01*
X49050107Y-106389661D01*
X49448771Y-106482252D01*
X49883965Y-106583265D01*
X50357292Y-106693079D01*
X50839583Y-106804938D01*
X51495938Y-106957124D01*
X52111392Y-107099772D01*
X52686272Y-107232956D01*
X53220903Y-107356753D01*
X53715613Y-107471237D01*
X54170728Y-107576484D01*
X54586574Y-107672568D01*
X54963478Y-107759566D01*
X55301767Y-107837552D01*
X55601766Y-107906601D01*
X55863802Y-107966789D01*
X56088201Y-108018190D01*
X56275291Y-108060881D01*
X56425397Y-108094936D01*
X56538846Y-108120431D01*
X56615964Y-108137441D01*
X56657078Y-108146040D01*
X56664539Y-108147207D01*
X56694652Y-108141336D01*
X56747704Y-108129483D01*
X56761646Y-108126228D01*
X56864023Y-108093268D01*
X56949796Y-108042495D01*
X57034989Y-107964106D01*
X57046011Y-107952295D01*
X57093228Y-107898312D01*
X57133947Y-107843862D01*
X57169893Y-107784070D01*
X57202795Y-107714062D01*
X57234379Y-107628966D01*
X57266371Y-107523906D01*
X57300498Y-107394008D01*
X57338487Y-107234400D01*
X57382065Y-107040206D01*
X57402995Y-106944657D01*
X57502803Y-106486106D01*
X57593563Y-106067652D01*
X57675525Y-105688091D01*
X57748939Y-105346220D01*
X57814055Y-105040835D01*
X57871121Y-104770734D01*
X57920388Y-104534713D01*
X57962106Y-104331569D01*
X57996524Y-104160098D01*
X58023893Y-104019098D01*
X58044460Y-103907364D01*
X58058478Y-103823695D01*
X58066195Y-103766885D01*
X58066220Y-103766513D01*
X57956907Y-103766513D01*
X57954902Y-103790989D01*
X57948980Y-103824736D01*
X57934888Y-103896073D01*
X57913432Y-104001218D01*
X57885420Y-104136393D01*
X57851659Y-104297815D01*
X57812959Y-104481706D01*
X57770125Y-104684283D01*
X57723967Y-104901768D01*
X57675291Y-105130378D01*
X57624905Y-105366334D01*
X57573618Y-105605856D01*
X57522236Y-105845162D01*
X57471568Y-106080473D01*
X57422421Y-106308008D01*
X57375602Y-106523986D01*
X57331921Y-106724627D01*
X57292183Y-106906150D01*
X57257198Y-107064775D01*
X57227772Y-107196721D01*
X57218197Y-107239166D01*
X57188057Y-107360163D01*
X57153152Y-107481390D01*
X57117700Y-107589165D01*
X57085920Y-107669805D01*
X57084408Y-107673083D01*
X57008438Y-107805072D01*
X56918439Y-107909478D01*
X56819475Y-107981953D01*
X56716604Y-108018155D01*
X56678602Y-108021485D01*
X56645346Y-108016961D01*
X56575091Y-108003656D01*
X56472046Y-107982485D01*
X56340421Y-107954361D01*
X56184425Y-107920199D01*
X56008267Y-107880913D01*
X55816156Y-107837415D01*
X55612303Y-107790621D01*
X55567352Y-107780219D01*
X55407796Y-107743245D01*
X55211022Y-107697648D01*
X54981050Y-107644359D01*
X54721903Y-107584312D01*
X54437603Y-107518438D01*
X54132171Y-107447668D01*
X53809629Y-107372935D01*
X53474001Y-107295170D01*
X53129306Y-107215305D01*
X52779567Y-107134273D01*
X52428807Y-107053004D01*
X52081046Y-106972432D01*
X51961417Y-106944715D01*
X51394829Y-106813439D01*
X50868021Y-106691364D01*
X50379529Y-106578144D01*
X49927890Y-106473431D01*
X49511640Y-106376880D01*
X49129318Y-106288144D01*
X48779459Y-106206875D01*
X48460600Y-106132727D01*
X48171278Y-106065354D01*
X47910030Y-106004409D01*
X47675393Y-105949545D01*
X47465903Y-105900415D01*
X47280098Y-105856673D01*
X47116514Y-105817973D01*
X46973688Y-105783967D01*
X46850157Y-105754308D01*
X46744457Y-105728651D01*
X46655126Y-105706648D01*
X46580700Y-105687952D01*
X46519716Y-105672218D01*
X46470711Y-105659098D01*
X46432222Y-105648246D01*
X46402785Y-105639315D01*
X46380938Y-105631958D01*
X46365217Y-105625829D01*
X46354158Y-105620581D01*
X46346300Y-105615867D01*
X46343004Y-105613520D01*
X46283779Y-105549556D01*
X46231791Y-105457559D01*
X46194014Y-105351832D01*
X46180010Y-105279436D01*
X46177415Y-105243041D01*
X46179168Y-105203135D01*
X46186628Y-105154290D01*
X46201153Y-105091079D01*
X46224101Y-105008074D01*
X46256831Y-104899846D01*
X46300701Y-104760968D01*
X46341402Y-104634445D01*
X46387838Y-104491309D01*
X46430194Y-104361861D01*
X46466697Y-104251430D01*
X46495575Y-104165343D01*
X46515054Y-104108930D01*
X46523352Y-104087530D01*
X46541736Y-104096053D01*
X46581240Y-104126732D01*
X46621692Y-104162382D01*
X46673355Y-104207427D01*
X46727720Y-104248587D01*
X46788283Y-104287104D01*
X46858538Y-104324218D01*
X46941977Y-104361171D01*
X47042096Y-104399204D01*
X47162387Y-104439560D01*
X47306344Y-104483480D01*
X47477462Y-104532205D01*
X47679235Y-104586976D01*
X47915156Y-104649036D01*
X48188718Y-104719625D01*
X48192935Y-104720706D01*
X48586573Y-104820535D01*
X48996299Y-104922390D01*
X49419116Y-105025617D01*
X49852025Y-105129564D01*
X50292030Y-105233578D01*
X50736134Y-105337007D01*
X51181340Y-105439196D01*
X51624650Y-105539495D01*
X52063067Y-105637249D01*
X52493595Y-105731806D01*
X52913235Y-105822513D01*
X53318992Y-105908717D01*
X53707867Y-105989766D01*
X54076864Y-106065007D01*
X54422986Y-106133786D01*
X54743234Y-106195451D01*
X55034613Y-106249350D01*
X55294125Y-106294829D01*
X55518773Y-106331235D01*
X55705559Y-106357916D01*
X55715150Y-106359149D01*
X55899397Y-106380109D01*
X56048676Y-106390596D01*
X56169171Y-106390068D01*
X56267064Y-106377987D01*
X56348541Y-106353811D01*
X56419784Y-106317002D01*
X56452035Y-106294779D01*
X56514551Y-106237725D01*
X56565255Y-106164824D01*
X56608093Y-106068279D01*
X56647008Y-105940295D01*
X56662106Y-105879619D01*
X56682758Y-105790867D01*
X56709817Y-105671679D01*
X56742414Y-105526086D01*
X56779676Y-105358121D01*
X56820733Y-105171816D01*
X56864714Y-104971204D01*
X56910748Y-104760317D01*
X56957964Y-104543186D01*
X57005491Y-104323844D01*
X57052459Y-104106323D01*
X57097995Y-103894656D01*
X57141230Y-103692874D01*
X57181293Y-103505010D01*
X57217312Y-103335096D01*
X57248416Y-103187164D01*
X57273735Y-103065247D01*
X57292397Y-102973376D01*
X57303532Y-102915584D01*
X57306436Y-102896582D01*
X57309710Y-102873837D01*
X57322811Y-102873281D01*
X57351520Y-102898318D01*
X57401616Y-102952351D01*
X57402125Y-102952916D01*
X57475125Y-103036129D01*
X57556314Y-103132156D01*
X57640792Y-103234807D01*
X57723661Y-103337895D01*
X57800021Y-103435232D01*
X57864973Y-103520631D01*
X57913618Y-103587904D01*
X57941057Y-103630863D01*
X57944249Y-103637633D01*
X57955363Y-103693750D01*
X57956907Y-103766513D01*
X58066220Y-103766513D01*
X58068000Y-103740423D01*
X58065596Y-103675628D01*
X58055906Y-103618538D01*
X58035219Y-103562022D01*
X57999820Y-103498948D01*
X57945998Y-103422185D01*
X57870038Y-103324601D01*
X57817773Y-103259833D01*
X57672686Y-103083382D01*
X57548393Y-102937719D01*
X57479196Y-102861513D01*
X57183017Y-102861513D01*
X57178518Y-102907462D01*
X57167239Y-102980336D01*
X57148787Y-103082145D01*
X57122766Y-103214895D01*
X57088781Y-103380595D01*
X57046438Y-103581252D01*
X56995340Y-103818874D01*
X56935094Y-104095469D01*
X56926880Y-104132975D01*
X56875429Y-104367818D01*
X56824829Y-104598829D01*
X56776135Y-104821199D01*
X56730398Y-105030117D01*
X56688672Y-105220773D01*
X56652009Y-105388355D01*
X56621462Y-105528054D01*
X56598085Y-105635058D01*
X56585256Y-105693869D01*
X56548766Y-105852584D01*
X56515041Y-105975337D01*
X56480928Y-106068086D01*
X56443278Y-106136786D01*
X56398939Y-106187394D01*
X56344759Y-106225867D01*
X56289370Y-106253149D01*
X56244423Y-106270314D01*
X56199024Y-106280572D01*
X56144155Y-106284173D01*
X56070802Y-106281367D01*
X55969947Y-106272405D01*
X55892291Y-106264156D01*
X55716206Y-106241912D01*
X55501806Y-106209740D01*
X55251787Y-106168218D01*
X54968844Y-106117922D01*
X54655672Y-106059430D01*
X54314965Y-105993319D01*
X53949419Y-105920166D01*
X53561729Y-105840548D01*
X53154589Y-105755042D01*
X52730696Y-105664226D01*
X52292742Y-105568676D01*
X51843425Y-105468970D01*
X51385438Y-105365684D01*
X50921477Y-105259397D01*
X50454237Y-105150684D01*
X49986412Y-105040123D01*
X49520698Y-104928292D01*
X49059790Y-104815767D01*
X48627667Y-104708459D01*
X48320786Y-104631199D01*
X48052267Y-104562703D01*
X47819237Y-104502152D01*
X47618821Y-104448730D01*
X47448146Y-104401618D01*
X47304339Y-104360000D01*
X47184527Y-104323058D01*
X47085836Y-104289974D01*
X47005393Y-104259932D01*
X46940325Y-104232113D01*
X46921021Y-104222932D01*
X46809143Y-104157742D01*
X46714005Y-104082251D01*
X46643415Y-104003778D01*
X46605180Y-103929642D01*
X46604196Y-103925934D01*
X46605292Y-103900885D01*
X46615586Y-103850886D01*
X46635651Y-103774057D01*
X46666058Y-103668517D01*
X46707376Y-103532383D01*
X46760178Y-103363776D01*
X46825035Y-103160813D01*
X46902518Y-102921614D01*
X46993197Y-102644298D01*
X46994764Y-102639525D01*
X47214155Y-101971261D01*
X47420558Y-101342952D01*
X47614071Y-100754293D01*
X47794796Y-100204982D01*
X47962834Y-99694713D01*
X48118285Y-99223184D01*
X48261250Y-98790091D01*
X48391831Y-98395129D01*
X48510127Y-98037994D01*
X48616240Y-97718384D01*
X48710270Y-97435993D01*
X48792319Y-97190518D01*
X48862486Y-96981656D01*
X48920873Y-96809102D01*
X48967580Y-96672553D01*
X49002709Y-96571704D01*
X49026359Y-96506253D01*
X49038632Y-96475894D01*
X49039548Y-96474272D01*
X49089677Y-96413770D01*
X49147692Y-96382091D01*
X49224973Y-96375135D01*
X49294417Y-96382446D01*
X49347234Y-96390291D01*
X49435552Y-96403324D01*
X49552984Y-96420604D01*
X49693144Y-96441193D01*
X49849645Y-96464154D01*
X50016100Y-96488546D01*
X50077583Y-96497549D01*
X50593080Y-96574488D01*
X51082266Y-96650471D01*
X51544033Y-96725261D01*
X51977271Y-96798622D01*
X52380873Y-96870316D01*
X52753730Y-96940106D01*
X53094734Y-97007756D01*
X53402776Y-97073028D01*
X53676747Y-97135685D01*
X53915540Y-97195491D01*
X54118046Y-97252208D01*
X54283155Y-97305600D01*
X54409761Y-97355428D01*
X54496754Y-97401457D01*
X54543026Y-97443449D01*
X54548158Y-97453436D01*
X54552808Y-97500167D01*
X54546594Y-97585036D01*
X54530110Y-97705427D01*
X54503950Y-97858725D01*
X54468708Y-98042314D01*
X54424978Y-98253579D01*
X54373354Y-98489904D01*
X54314429Y-98748673D01*
X54248799Y-99027272D01*
X54177057Y-99323085D01*
X54099796Y-99633496D01*
X54017612Y-99955889D01*
X53931098Y-100287650D01*
X53840848Y-100626163D01*
X53760635Y-100920916D01*
X53711859Y-101099949D01*
X53673873Y-101243421D01*
X53645579Y-101356402D01*
X53625878Y-101443959D01*
X53613671Y-101511162D01*
X53607860Y-101563081D01*
X53607347Y-101604783D01*
X53608627Y-101622326D01*
X53633702Y-101745736D01*
X53685895Y-101847284D01*
X53742743Y-101914008D01*
X53769496Y-101940261D01*
X53796488Y-101963451D01*
X53827000Y-101984376D01*
X53864313Y-102003832D01*
X53911706Y-102022618D01*
X53972462Y-102041532D01*
X54049861Y-102061371D01*
X54147182Y-102082933D01*
X54267708Y-102107017D01*
X54414718Y-102134419D01*
X54591494Y-102165937D01*
X54801316Y-102202370D01*
X55047464Y-102244516D01*
X55229001Y-102275437D01*
X55535391Y-102328148D01*
X55817273Y-102377788D01*
X56072529Y-102423946D01*
X56299042Y-102466208D01*
X56494695Y-102504163D01*
X56657369Y-102537397D01*
X56784946Y-102565499D01*
X56875310Y-102588055D01*
X56926342Y-102604654D01*
X56931286Y-102607030D01*
X56976935Y-102638554D01*
X57036452Y-102688556D01*
X57098079Y-102746050D01*
X57150059Y-102800049D01*
X57180632Y-102839568D01*
X57181132Y-102840482D01*
X57183017Y-102861513D01*
X57479196Y-102861513D01*
X57440886Y-102819324D01*
X57346157Y-102724680D01*
X57260197Y-102650266D01*
X57178998Y-102592564D01*
X57098551Y-102548055D01*
X57014848Y-102513219D01*
X56939841Y-102489077D01*
X56827141Y-102459523D01*
X56675691Y-102424749D01*
X56488674Y-102385377D01*
X56269269Y-102342025D01*
X56020656Y-102295315D01*
X55746016Y-102245865D01*
X55448529Y-102194297D01*
X55295167Y-102168406D01*
X55140105Y-102142009D01*
X54998504Y-102117058D01*
X54875787Y-102094577D01*
X54777379Y-102075588D01*
X54708706Y-102061116D01*
X54675191Y-102052183D01*
X54673066Y-102051055D01*
X54673889Y-102027057D01*
X54685390Y-101965546D01*
X54706715Y-101869745D01*
X54737015Y-101742874D01*
X54775438Y-101588154D01*
X54821132Y-101408807D01*
X54873245Y-101208054D01*
X54930927Y-100989115D01*
X54993326Y-100755213D01*
X55059590Y-100509569D01*
X55128867Y-100255403D01*
X55200308Y-99995936D01*
X55273059Y-99734391D01*
X55346270Y-99473988D01*
X55419089Y-99217949D01*
X55455067Y-99092635D01*
X55504931Y-98916155D01*
X55542325Y-98774071D01*
X55568000Y-98660564D01*
X55582710Y-98569817D01*
X55586726Y-98503915D01*
X55478583Y-98503915D01*
X55476206Y-98566557D01*
X55468204Y-98610319D01*
X55457237Y-98653206D01*
X55436223Y-98730670D01*
X55406863Y-98836621D01*
X55370858Y-98964967D01*
X55329910Y-99109616D01*
X55285720Y-99264475D01*
X55278092Y-99291083D01*
X55091425Y-99952442D01*
X54900169Y-100650949D01*
X54712723Y-101354833D01*
X54664205Y-101539160D01*
X54625097Y-101686630D01*
X54594116Y-101801349D01*
X54569978Y-101887420D01*
X54551400Y-101948948D01*
X54537100Y-101990038D01*
X54525795Y-102014793D01*
X54516201Y-102027318D01*
X54507036Y-102031718D01*
X54500995Y-102032166D01*
X54469874Y-102028123D01*
X54406433Y-102017102D01*
X54319792Y-102000770D01*
X54219072Y-101980790D01*
X54215162Y-101979996D01*
X54108986Y-101956140D01*
X54011934Y-101930228D01*
X53935021Y-101905455D01*
X53890483Y-101885792D01*
X53816259Y-101818332D01*
X53759168Y-101725342D01*
X53727903Y-101622772D01*
X53724567Y-101581354D01*
X53730046Y-101533975D01*
X53745570Y-101453696D01*
X53769370Y-101348268D01*
X53799680Y-101225445D01*
X53834734Y-101092978D01*
X53841308Y-101069083D01*
X53935555Y-100724500D01*
X54027772Y-100379541D01*
X54117125Y-100037720D01*
X54202780Y-99702549D01*
X54283901Y-99377541D01*
X54359655Y-99066208D01*
X54429206Y-98772064D01*
X54491720Y-98498620D01*
X54546363Y-98249390D01*
X54592299Y-98027887D01*
X54628694Y-97837623D01*
X54654714Y-97682110D01*
X54666085Y-97597750D01*
X54669664Y-97577187D01*
X54677331Y-97566942D01*
X54693043Y-97570055D01*
X54720757Y-97589564D01*
X54764429Y-97628511D01*
X54828017Y-97689936D01*
X54915476Y-97776879D01*
X54969107Y-97830583D01*
X55116072Y-97979765D01*
X55234068Y-98104657D01*
X55325640Y-98209235D01*
X55393333Y-98297473D01*
X55439691Y-98373349D01*
X55467259Y-98440838D01*
X55478583Y-98503915D01*
X55586726Y-98503915D01*
X55587208Y-98496010D01*
X55582246Y-98433324D01*
X55568579Y-98375941D01*
X55553307Y-98333484D01*
X55518177Y-98270551D01*
X55456154Y-98185231D01*
X55372352Y-98082841D01*
X55271889Y-97968698D01*
X55159878Y-97848121D01*
X55041437Y-97726426D01*
X54921680Y-97608931D01*
X54805723Y-97500953D01*
X54698681Y-97407810D01*
X54605671Y-97334819D01*
X54566751Y-97308009D01*
X54480793Y-97259838D01*
X54370966Y-97211623D01*
X54234801Y-97162678D01*
X54069825Y-97112314D01*
X53873569Y-97059845D01*
X53643563Y-97004582D01*
X53377335Y-96945839D01*
X53072416Y-96882928D01*
X52956250Y-96859827D01*
X52758455Y-96821713D01*
X52540157Y-96781230D01*
X52304895Y-96738928D01*
X52056206Y-96695361D01*
X51797629Y-96651079D01*
X51532701Y-96606634D01*
X51264961Y-96562577D01*
X50997948Y-96519462D01*
X50735198Y-96477838D01*
X50480250Y-96438259D01*
X50236643Y-96401275D01*
X50007914Y-96367438D01*
X49797602Y-96337301D01*
X49609244Y-96311414D01*
X49446379Y-96290330D01*
X49312545Y-96274599D01*
X49211280Y-96264775D01*
X49146121Y-96261407D01*
X49126288Y-96262627D01*
G37*
X49126288Y-96262627D02*
X49045734Y-96296648D01*
X48974007Y-96367809D01*
X48909765Y-96477824D01*
X48859845Y-96603756D01*
X48845511Y-96646570D01*
X48818770Y-96727124D01*
X48780438Y-96842945D01*
X48731330Y-96991556D01*
X48672259Y-97170483D01*
X48604041Y-97377251D01*
X48527491Y-97609384D01*
X48443423Y-97864408D01*
X48352652Y-98139847D01*
X48255993Y-98433227D01*
X48154260Y-98742073D01*
X48048269Y-99063908D01*
X47938833Y-99396260D01*
X47826769Y-99736651D01*
X47712889Y-100082608D01*
X47598010Y-100431656D01*
X47482946Y-100781318D01*
X47368512Y-101129121D01*
X47255521Y-101472588D01*
X47144791Y-101809246D01*
X47037134Y-102136619D01*
X46933365Y-102452232D01*
X46834300Y-102753610D01*
X46740753Y-103038278D01*
X46653539Y-103303760D01*
X46573473Y-103547583D01*
X46501369Y-103767270D01*
X46438042Y-103960347D01*
X46405387Y-104059982D01*
X46325388Y-104304648D01*
X46257897Y-104512808D01*
X46202047Y-104688121D01*
X46156974Y-104834244D01*
X46121812Y-104954839D01*
X46095694Y-105053562D01*
X46077756Y-105134074D01*
X46067130Y-105200033D01*
X46062952Y-105255098D01*
X46064355Y-105302927D01*
X46070474Y-105347181D01*
X46080443Y-105391517D01*
X46085634Y-105411282D01*
X46117003Y-105493696D01*
X46164734Y-105581496D01*
X46219855Y-105660552D01*
X46273393Y-105716735D01*
X46284975Y-105725222D01*
X46294028Y-105729986D01*
X46309166Y-105735954D01*
X46331990Y-105743505D01*
X46364103Y-105753020D01*
X46407107Y-105764878D01*
X46462605Y-105779459D01*
X46532199Y-105797143D01*
X46617491Y-105818310D01*
X46720085Y-105843340D01*
X46841582Y-105872612D01*
X46983585Y-105906507D01*
X47147696Y-105945405D01*
X47335517Y-105989684D01*
X47548652Y-106039726D01*
X47788702Y-106095909D01*
X48057271Y-106158615D01*
X48355959Y-106228222D01*
X48686371Y-106305110D01*
X49050107Y-106389661D01*
X49448771Y-106482252D01*
X49883965Y-106583265D01*
X50357292Y-106693079D01*
X50839583Y-106804938D01*
X51495938Y-106957124D01*
X52111392Y-107099772D01*
X52686272Y-107232956D01*
X53220903Y-107356753D01*
X53715613Y-107471237D01*
X54170728Y-107576484D01*
X54586574Y-107672568D01*
X54963478Y-107759566D01*
X55301767Y-107837552D01*
X55601766Y-107906601D01*
X55863802Y-107966789D01*
X56088201Y-108018190D01*
X56275291Y-108060881D01*
X56425397Y-108094936D01*
X56538846Y-108120431D01*
X56615964Y-108137441D01*
X56657078Y-108146040D01*
X56664539Y-108147207D01*
X56694652Y-108141336D01*
X56747704Y-108129483D01*
X56761646Y-108126228D01*
X56864023Y-108093268D01*
X56949796Y-108042495D01*
X57034989Y-107964106D01*
X57046011Y-107952295D01*
X57093228Y-107898312D01*
X57133947Y-107843862D01*
X57169893Y-107784070D01*
X57202795Y-107714062D01*
X57234379Y-107628966D01*
X57266371Y-107523906D01*
X57300498Y-107394008D01*
X57338487Y-107234400D01*
X57382065Y-107040206D01*
X57402995Y-106944657D01*
X57502803Y-106486106D01*
X57593563Y-106067652D01*
X57675525Y-105688091D01*
X57748939Y-105346220D01*
X57814055Y-105040835D01*
X57871121Y-104770734D01*
X57920388Y-104534713D01*
X57962106Y-104331569D01*
X57996524Y-104160098D01*
X58023893Y-104019098D01*
X58044460Y-103907364D01*
X58058478Y-103823695D01*
X58066195Y-103766885D01*
X58066220Y-103766513D01*
X57956907Y-103766513D01*
X57954902Y-103790989D01*
X57948980Y-103824736D01*
X57934888Y-103896073D01*
X57913432Y-104001218D01*
X57885420Y-104136393D01*
X57851659Y-104297815D01*
X57812959Y-104481706D01*
X57770125Y-104684283D01*
X57723967Y-104901768D01*
X57675291Y-105130378D01*
X57624905Y-105366334D01*
X57573618Y-105605856D01*
X57522236Y-105845162D01*
X57471568Y-106080473D01*
X57422421Y-106308008D01*
X57375602Y-106523986D01*
X57331921Y-106724627D01*
X57292183Y-106906150D01*
X57257198Y-107064775D01*
X57227772Y-107196721D01*
X57218197Y-107239166D01*
X57188057Y-107360163D01*
X57153152Y-107481390D01*
X57117700Y-107589165D01*
X57085920Y-107669805D01*
X57084408Y-107673083D01*
X57008438Y-107805072D01*
X56918439Y-107909478D01*
X56819475Y-107981953D01*
X56716604Y-108018155D01*
X56678602Y-108021485D01*
X56645346Y-108016961D01*
X56575091Y-108003656D01*
X56472046Y-107982485D01*
X56340421Y-107954361D01*
X56184425Y-107920199D01*
X56008267Y-107880913D01*
X55816156Y-107837415D01*
X55612303Y-107790621D01*
X55567352Y-107780219D01*
X55407796Y-107743245D01*
X55211022Y-107697648D01*
X54981050Y-107644359D01*
X54721903Y-107584312D01*
X54437603Y-107518438D01*
X54132171Y-107447668D01*
X53809629Y-107372935D01*
X53474001Y-107295170D01*
X53129306Y-107215305D01*
X52779567Y-107134273D01*
X52428807Y-107053004D01*
X52081046Y-106972432D01*
X51961417Y-106944715D01*
X51394829Y-106813439D01*
X50868021Y-106691364D01*
X50379529Y-106578144D01*
X49927890Y-106473431D01*
X49511640Y-106376880D01*
X49129318Y-106288144D01*
X48779459Y-106206875D01*
X48460600Y-106132727D01*
X48171278Y-106065354D01*
X47910030Y-106004409D01*
X47675393Y-105949545D01*
X47465903Y-105900415D01*
X47280098Y-105856673D01*
X47116514Y-105817973D01*
X46973688Y-105783967D01*
X46850157Y-105754308D01*
X46744457Y-105728651D01*
X46655126Y-105706648D01*
X46580700Y-105687952D01*
X46519716Y-105672218D01*
X46470711Y-105659098D01*
X46432222Y-105648246D01*
X46402785Y-105639315D01*
X46380938Y-105631958D01*
X46365217Y-105625829D01*
X46354158Y-105620581D01*
X46346300Y-105615867D01*
X46343004Y-105613520D01*
X46283779Y-105549556D01*
X46231791Y-105457559D01*
X46194014Y-105351832D01*
X46180010Y-105279436D01*
X46177415Y-105243041D01*
X46179168Y-105203135D01*
X46186628Y-105154290D01*
X46201153Y-105091079D01*
X46224101Y-105008074D01*
X46256831Y-104899846D01*
X46300701Y-104760968D01*
X46341402Y-104634445D01*
X46387838Y-104491309D01*
X46430194Y-104361861D01*
X46466697Y-104251430D01*
X46495575Y-104165343D01*
X46515054Y-104108930D01*
X46523352Y-104087530D01*
X46541736Y-104096053D01*
X46581240Y-104126732D01*
X46621692Y-104162382D01*
X46673355Y-104207427D01*
X46727720Y-104248587D01*
X46788283Y-104287104D01*
X46858538Y-104324218D01*
X46941977Y-104361171D01*
X47042096Y-104399204D01*
X47162387Y-104439560D01*
X47306344Y-104483480D01*
X47477462Y-104532205D01*
X47679235Y-104586976D01*
X47915156Y-104649036D01*
X48188718Y-104719625D01*
X48192935Y-104720706D01*
X48586573Y-104820535D01*
X48996299Y-104922390D01*
X49419116Y-105025617D01*
X49852025Y-105129564D01*
X50292030Y-105233578D01*
X50736134Y-105337007D01*
X51181340Y-105439196D01*
X51624650Y-105539495D01*
X52063067Y-105637249D01*
X52493595Y-105731806D01*
X52913235Y-105822513D01*
X53318992Y-105908717D01*
X53707867Y-105989766D01*
X54076864Y-106065007D01*
X54422986Y-106133786D01*
X54743234Y-106195451D01*
X55034613Y-106249350D01*
X55294125Y-106294829D01*
X55518773Y-106331235D01*
X55705559Y-106357916D01*
X55715150Y-106359149D01*
X55899397Y-106380109D01*
X56048676Y-106390596D01*
X56169171Y-106390068D01*
X56267064Y-106377987D01*
X56348541Y-106353811D01*
X56419784Y-106317002D01*
X56452035Y-106294779D01*
X56514551Y-106237725D01*
X56565255Y-106164824D01*
X56608093Y-106068279D01*
X56647008Y-105940295D01*
X56662106Y-105879619D01*
X56682758Y-105790867D01*
X56709817Y-105671679D01*
X56742414Y-105526086D01*
X56779676Y-105358121D01*
X56820733Y-105171816D01*
X56864714Y-104971204D01*
X56910748Y-104760317D01*
X56957964Y-104543186D01*
X57005491Y-104323844D01*
X57052459Y-104106323D01*
X57097995Y-103894656D01*
X57141230Y-103692874D01*
X57181293Y-103505010D01*
X57217312Y-103335096D01*
X57248416Y-103187164D01*
X57273735Y-103065247D01*
X57292397Y-102973376D01*
X57303532Y-102915584D01*
X57306436Y-102896582D01*
X57309710Y-102873837D01*
X57322811Y-102873281D01*
X57351520Y-102898318D01*
X57401616Y-102952351D01*
X57402125Y-102952916D01*
X57475125Y-103036129D01*
X57556314Y-103132156D01*
X57640792Y-103234807D01*
X57723661Y-103337895D01*
X57800021Y-103435232D01*
X57864973Y-103520631D01*
X57913618Y-103587904D01*
X57941057Y-103630863D01*
X57944249Y-103637633D01*
X57955363Y-103693750D01*
X57956907Y-103766513D01*
X58066220Y-103766513D01*
X58068000Y-103740423D01*
X58065596Y-103675628D01*
X58055906Y-103618538D01*
X58035219Y-103562022D01*
X57999820Y-103498948D01*
X57945998Y-103422185D01*
X57870038Y-103324601D01*
X57817773Y-103259833D01*
X57672686Y-103083382D01*
X57548393Y-102937719D01*
X57479196Y-102861513D01*
X57183017Y-102861513D01*
X57178518Y-102907462D01*
X57167239Y-102980336D01*
X57148787Y-103082145D01*
X57122766Y-103214895D01*
X57088781Y-103380595D01*
X57046438Y-103581252D01*
X56995340Y-103818874D01*
X56935094Y-104095469D01*
X56926880Y-104132975D01*
X56875429Y-104367818D01*
X56824829Y-104598829D01*
X56776135Y-104821199D01*
X56730398Y-105030117D01*
X56688672Y-105220773D01*
X56652009Y-105388355D01*
X56621462Y-105528054D01*
X56598085Y-105635058D01*
X56585256Y-105693869D01*
X56548766Y-105852584D01*
X56515041Y-105975337D01*
X56480928Y-106068086D01*
X56443278Y-106136786D01*
X56398939Y-106187394D01*
X56344759Y-106225867D01*
X56289370Y-106253149D01*
X56244423Y-106270314D01*
X56199024Y-106280572D01*
X56144155Y-106284173D01*
X56070802Y-106281367D01*
X55969947Y-106272405D01*
X55892291Y-106264156D01*
X55716206Y-106241912D01*
X55501806Y-106209740D01*
X55251787Y-106168218D01*
X54968844Y-106117922D01*
X54655672Y-106059430D01*
X54314965Y-105993319D01*
X53949419Y-105920166D01*
X53561729Y-105840548D01*
X53154589Y-105755042D01*
X52730696Y-105664226D01*
X52292742Y-105568676D01*
X51843425Y-105468970D01*
X51385438Y-105365684D01*
X50921477Y-105259397D01*
X50454237Y-105150684D01*
X49986412Y-105040123D01*
X49520698Y-104928292D01*
X49059790Y-104815767D01*
X48627667Y-104708459D01*
X48320786Y-104631199D01*
X48052267Y-104562703D01*
X47819237Y-104502152D01*
X47618821Y-104448730D01*
X47448146Y-104401618D01*
X47304339Y-104360000D01*
X47184527Y-104323058D01*
X47085836Y-104289974D01*
X47005393Y-104259932D01*
X46940325Y-104232113D01*
X46921021Y-104222932D01*
X46809143Y-104157742D01*
X46714005Y-104082251D01*
X46643415Y-104003778D01*
X46605180Y-103929642D01*
X46604196Y-103925934D01*
X46605292Y-103900885D01*
X46615586Y-103850886D01*
X46635651Y-103774057D01*
X46666058Y-103668517D01*
X46707376Y-103532383D01*
X46760178Y-103363776D01*
X46825035Y-103160813D01*
X46902518Y-102921614D01*
X46993197Y-102644298D01*
X46994764Y-102639525D01*
X47214155Y-101971261D01*
X47420558Y-101342952D01*
X47614071Y-100754293D01*
X47794796Y-100204982D01*
X47962834Y-99694713D01*
X48118285Y-99223184D01*
X48261250Y-98790091D01*
X48391831Y-98395129D01*
X48510127Y-98037994D01*
X48616240Y-97718384D01*
X48710270Y-97435993D01*
X48792319Y-97190518D01*
X48862486Y-96981656D01*
X48920873Y-96809102D01*
X48967580Y-96672553D01*
X49002709Y-96571704D01*
X49026359Y-96506253D01*
X49038632Y-96475894D01*
X49039548Y-96474272D01*
X49089677Y-96413770D01*
X49147692Y-96382091D01*
X49224973Y-96375135D01*
X49294417Y-96382446D01*
X49347234Y-96390291D01*
X49435552Y-96403324D01*
X49552984Y-96420604D01*
X49693144Y-96441193D01*
X49849645Y-96464154D01*
X50016100Y-96488546D01*
X50077583Y-96497549D01*
X50593080Y-96574488D01*
X51082266Y-96650471D01*
X51544033Y-96725261D01*
X51977271Y-96798622D01*
X52380873Y-96870316D01*
X52753730Y-96940106D01*
X53094734Y-97007756D01*
X53402776Y-97073028D01*
X53676747Y-97135685D01*
X53915540Y-97195491D01*
X54118046Y-97252208D01*
X54283155Y-97305600D01*
X54409761Y-97355428D01*
X54496754Y-97401457D01*
X54543026Y-97443449D01*
X54548158Y-97453436D01*
X54552808Y-97500167D01*
X54546594Y-97585036D01*
X54530110Y-97705427D01*
X54503950Y-97858725D01*
X54468708Y-98042314D01*
X54424978Y-98253579D01*
X54373354Y-98489904D01*
X54314429Y-98748673D01*
X54248799Y-99027272D01*
X54177057Y-99323085D01*
X54099796Y-99633496D01*
X54017612Y-99955889D01*
X53931098Y-100287650D01*
X53840848Y-100626163D01*
X53760635Y-100920916D01*
X53711859Y-101099949D01*
X53673873Y-101243421D01*
X53645579Y-101356402D01*
X53625878Y-101443959D01*
X53613671Y-101511162D01*
X53607860Y-101563081D01*
X53607347Y-101604783D01*
X53608627Y-101622326D01*
X53633702Y-101745736D01*
X53685895Y-101847284D01*
X53742743Y-101914008D01*
X53769496Y-101940261D01*
X53796488Y-101963451D01*
X53827000Y-101984376D01*
X53864313Y-102003832D01*
X53911706Y-102022618D01*
X53972462Y-102041532D01*
X54049861Y-102061371D01*
X54147182Y-102082933D01*
X54267708Y-102107017D01*
X54414718Y-102134419D01*
X54591494Y-102165937D01*
X54801316Y-102202370D01*
X55047464Y-102244516D01*
X55229001Y-102275437D01*
X55535391Y-102328148D01*
X55817273Y-102377788D01*
X56072529Y-102423946D01*
X56299042Y-102466208D01*
X56494695Y-102504163D01*
X56657369Y-102537397D01*
X56784946Y-102565499D01*
X56875310Y-102588055D01*
X56926342Y-102604654D01*
X56931286Y-102607030D01*
X56976935Y-102638554D01*
X57036452Y-102688556D01*
X57098079Y-102746050D01*
X57150059Y-102800049D01*
X57180632Y-102839568D01*
X57181132Y-102840482D01*
X57183017Y-102861513D01*
X57479196Y-102861513D01*
X57440886Y-102819324D01*
X57346157Y-102724680D01*
X57260197Y-102650266D01*
X57178998Y-102592564D01*
X57098551Y-102548055D01*
X57014848Y-102513219D01*
X56939841Y-102489077D01*
X56827141Y-102459523D01*
X56675691Y-102424749D01*
X56488674Y-102385377D01*
X56269269Y-102342025D01*
X56020656Y-102295315D01*
X55746016Y-102245865D01*
X55448529Y-102194297D01*
X55295167Y-102168406D01*
X55140105Y-102142009D01*
X54998504Y-102117058D01*
X54875787Y-102094577D01*
X54777379Y-102075588D01*
X54708706Y-102061116D01*
X54675191Y-102052183D01*
X54673066Y-102051055D01*
X54673889Y-102027057D01*
X54685390Y-101965546D01*
X54706715Y-101869745D01*
X54737015Y-101742874D01*
X54775438Y-101588154D01*
X54821132Y-101408807D01*
X54873245Y-101208054D01*
X54930927Y-100989115D01*
X54993326Y-100755213D01*
X55059590Y-100509569D01*
X55128867Y-100255403D01*
X55200308Y-99995936D01*
X55273059Y-99734391D01*
X55346270Y-99473988D01*
X55419089Y-99217949D01*
X55455067Y-99092635D01*
X55504931Y-98916155D01*
X55542325Y-98774071D01*
X55568000Y-98660564D01*
X55582710Y-98569817D01*
X55586726Y-98503915D01*
X55478583Y-98503915D01*
X55476206Y-98566557D01*
X55468204Y-98610319D01*
X55457237Y-98653206D01*
X55436223Y-98730670D01*
X55406863Y-98836621D01*
X55370858Y-98964967D01*
X55329910Y-99109616D01*
X55285720Y-99264475D01*
X55278092Y-99291083D01*
X55091425Y-99952442D01*
X54900169Y-100650949D01*
X54712723Y-101354833D01*
X54664205Y-101539160D01*
X54625097Y-101686630D01*
X54594116Y-101801349D01*
X54569978Y-101887420D01*
X54551400Y-101948948D01*
X54537100Y-101990038D01*
X54525795Y-102014793D01*
X54516201Y-102027318D01*
X54507036Y-102031718D01*
X54500995Y-102032166D01*
X54469874Y-102028123D01*
X54406433Y-102017102D01*
X54319792Y-102000770D01*
X54219072Y-101980790D01*
X54215162Y-101979996D01*
X54108986Y-101956140D01*
X54011934Y-101930228D01*
X53935021Y-101905455D01*
X53890483Y-101885792D01*
X53816259Y-101818332D01*
X53759168Y-101725342D01*
X53727903Y-101622772D01*
X53724567Y-101581354D01*
X53730046Y-101533975D01*
X53745570Y-101453696D01*
X53769370Y-101348268D01*
X53799680Y-101225445D01*
X53834734Y-101092978D01*
X53841308Y-101069083D01*
X53935555Y-100724500D01*
X54027772Y-100379541D01*
X54117125Y-100037720D01*
X54202780Y-99702549D01*
X54283901Y-99377541D01*
X54359655Y-99066208D01*
X54429206Y-98772064D01*
X54491720Y-98498620D01*
X54546363Y-98249390D01*
X54592299Y-98027887D01*
X54628694Y-97837623D01*
X54654714Y-97682110D01*
X54666085Y-97597750D01*
X54669664Y-97577187D01*
X54677331Y-97566942D01*
X54693043Y-97570055D01*
X54720757Y-97589564D01*
X54764429Y-97628511D01*
X54828017Y-97689936D01*
X54915476Y-97776879D01*
X54969107Y-97830583D01*
X55116072Y-97979765D01*
X55234068Y-98104657D01*
X55325640Y-98209235D01*
X55393333Y-98297473D01*
X55439691Y-98373349D01*
X55467259Y-98440838D01*
X55478583Y-98503915D01*
X55586726Y-98503915D01*
X55587208Y-98496010D01*
X55582246Y-98433324D01*
X55568579Y-98375941D01*
X55553307Y-98333484D01*
X55518177Y-98270551D01*
X55456154Y-98185231D01*
X55372352Y-98082841D01*
X55271889Y-97968698D01*
X55159878Y-97848121D01*
X55041437Y-97726426D01*
X54921680Y-97608931D01*
X54805723Y-97500953D01*
X54698681Y-97407810D01*
X54605671Y-97334819D01*
X54566751Y-97308009D01*
X54480793Y-97259838D01*
X54370966Y-97211623D01*
X54234801Y-97162678D01*
X54069825Y-97112314D01*
X53873569Y-97059845D01*
X53643563Y-97004582D01*
X53377335Y-96945839D01*
X53072416Y-96882928D01*
X52956250Y-96859827D01*
X52758455Y-96821713D01*
X52540157Y-96781230D01*
X52304895Y-96738928D01*
X52056206Y-96695361D01*
X51797629Y-96651079D01*
X51532701Y-96606634D01*
X51264961Y-96562577D01*
X50997948Y-96519462D01*
X50735198Y-96477838D01*
X50480250Y-96438259D01*
X50236643Y-96401275D01*
X50007914Y-96367438D01*
X49797602Y-96337301D01*
X49609244Y-96311414D01*
X49446379Y-96290330D01*
X49312545Y-96274599D01*
X49211280Y-96264775D01*
X49146121Y-96261407D01*
X49126288Y-96262627D01*
G36*
X55961197Y-103998945D02*
G01*
X55951414Y-104048004D01*
X55945011Y-104098145D01*
X55936522Y-104164873D01*
X55927467Y-104212576D01*
X55921889Y-104227666D01*
X55898658Y-104227987D01*
X55839797Y-104222760D01*
X55751539Y-104212713D01*
X55640121Y-104198576D01*
X55511776Y-104181075D01*
X55460215Y-104173745D01*
X55326944Y-104155325D01*
X55208076Y-104140298D01*
X55109884Y-104129341D01*
X55038643Y-104123134D01*
X55000627Y-104122353D01*
X54996216Y-104123599D01*
X54987880Y-104147613D01*
X54977815Y-104194611D01*
X54968613Y-104249027D01*
X54962866Y-104295295D01*
X54963166Y-104317848D01*
X54963806Y-104318227D01*
X54984753Y-104321047D01*
X55041524Y-104328904D01*
X55128019Y-104340947D01*
X55238140Y-104356327D01*
X55365789Y-104374195D01*
X55419530Y-104381727D01*
X55553582Y-104400405D01*
X55673620Y-104416906D01*
X55773265Y-104430371D01*
X55846137Y-104439942D01*
X55885856Y-104444760D01*
X55890892Y-104445166D01*
X55901949Y-104462528D01*
X55900153Y-104492791D01*
X55880756Y-104604899D01*
X55875493Y-104679545D01*
X55884397Y-104715741D01*
X55892875Y-104719229D01*
X55920469Y-104709680D01*
X55978207Y-104684178D01*
X56058622Y-104646195D01*
X56154246Y-104599205D01*
X56194356Y-104579032D01*
X56469128Y-104439939D01*
X56226106Y-104210498D01*
X56142506Y-104132258D01*
X56069662Y-104065380D01*
X56013088Y-104014827D01*
X55978299Y-103985559D01*
X55970170Y-103980278D01*
X55961197Y-103998945D01*
G37*
X55961197Y-103998945D02*
X55951414Y-104048004D01*
X55945011Y-104098145D01*
X55936522Y-104164873D01*
X55927467Y-104212576D01*
X55921889Y-104227666D01*
X55898658Y-104227987D01*
X55839797Y-104222760D01*
X55751539Y-104212713D01*
X55640121Y-104198576D01*
X55511776Y-104181075D01*
X55460215Y-104173745D01*
X55326944Y-104155325D01*
X55208076Y-104140298D01*
X55109884Y-104129341D01*
X55038643Y-104123134D01*
X55000627Y-104122353D01*
X54996216Y-104123599D01*
X54987880Y-104147613D01*
X54977815Y-104194611D01*
X54968613Y-104249027D01*
X54962866Y-104295295D01*
X54963166Y-104317848D01*
X54963806Y-104318227D01*
X54984753Y-104321047D01*
X55041524Y-104328904D01*
X55128019Y-104340947D01*
X55238140Y-104356327D01*
X55365789Y-104374195D01*
X55419530Y-104381727D01*
X55553582Y-104400405D01*
X55673620Y-104416906D01*
X55773265Y-104430371D01*
X55846137Y-104439942D01*
X55885856Y-104444760D01*
X55890892Y-104445166D01*
X55901949Y-104462528D01*
X55900153Y-104492791D01*
X55880756Y-104604899D01*
X55875493Y-104679545D01*
X55884397Y-104715741D01*
X55892875Y-104719229D01*
X55920469Y-104709680D01*
X55978207Y-104684178D01*
X56058622Y-104646195D01*
X56154246Y-104599205D01*
X56194356Y-104579032D01*
X56469128Y-104439939D01*
X56226106Y-104210498D01*
X56142506Y-104132258D01*
X56069662Y-104065380D01*
X56013088Y-104014827D01*
X55978299Y-103985559D01*
X55970170Y-103980278D01*
X55961197Y-103998945D01*
G36*
X54416586Y-103718618D02*
G01*
X54386385Y-103727188D01*
X54372050Y-103743632D01*
X54368064Y-103759403D01*
X54368462Y-103782742D01*
X54383507Y-103797676D01*
X54421689Y-103807599D01*
X54491500Y-103815905D01*
X54514991Y-103818136D01*
X54590914Y-103826245D01*
X54648544Y-103834378D01*
X54676560Y-103840907D01*
X54677352Y-103841463D01*
X54679876Y-103865918D01*
X54675886Y-103917496D01*
X54671842Y-103947850D01*
X54657250Y-104045156D01*
X54558167Y-104032339D01*
X54487307Y-104022396D01*
X54427014Y-104012645D01*
X54411458Y-104009691D01*
X54375536Y-104009854D01*
X54364181Y-104038536D01*
X54363833Y-104051332D01*
X54367563Y-104079986D01*
X54385131Y-104097820D01*
X54426109Y-104109841D01*
X54496125Y-104120526D01*
X54628417Y-104138250D01*
X54628417Y-104254666D01*
X54627368Y-104321204D01*
X54620435Y-104355759D01*
X54601932Y-104368680D01*
X54566177Y-104370316D01*
X54564917Y-104370301D01*
X54504071Y-104366659D01*
X54427543Y-104358465D01*
X54400875Y-104354831D01*
X54340494Y-104347464D01*
X54310904Y-104351132D01*
X54301179Y-104369680D01*
X54300333Y-104390219D01*
X54303425Y-104415209D01*
X54318258Y-104432220D01*
X54353173Y-104444841D01*
X54416509Y-104456660D01*
X54474958Y-104465336D01*
X54561924Y-104478306D01*
X54637003Y-104490398D01*
X54686880Y-104499444D01*
X54694005Y-104501012D01*
X54711811Y-104503217D01*
X54724925Y-104495755D01*
X54734897Y-104472354D01*
X54743274Y-104426739D01*
X54751603Y-104352639D01*
X54761433Y-104243780D01*
X54763558Y-104219115D01*
X54773792Y-104103673D01*
X54783943Y-103995617D01*
X54792943Y-103905892D01*
X54799727Y-103845446D01*
X54800628Y-103838536D01*
X54812567Y-103750489D01*
X54667575Y-103734804D01*
X54550661Y-103722962D01*
X54469171Y-103717388D01*
X54416586Y-103718618D01*
G37*
X54416586Y-103718618D02*
X54386385Y-103727188D01*
X54372050Y-103743632D01*
X54368064Y-103759403D01*
X54368462Y-103782742D01*
X54383507Y-103797676D01*
X54421689Y-103807599D01*
X54491500Y-103815905D01*
X54514991Y-103818136D01*
X54590914Y-103826245D01*
X54648544Y-103834378D01*
X54676560Y-103840907D01*
X54677352Y-103841463D01*
X54679876Y-103865918D01*
X54675886Y-103917496D01*
X54671842Y-103947850D01*
X54657250Y-104045156D01*
X54558167Y-104032339D01*
X54487307Y-104022396D01*
X54427014Y-104012645D01*
X54411458Y-104009691D01*
X54375536Y-104009854D01*
X54364181Y-104038536D01*
X54363833Y-104051332D01*
X54367563Y-104079986D01*
X54385131Y-104097820D01*
X54426109Y-104109841D01*
X54496125Y-104120526D01*
X54628417Y-104138250D01*
X54628417Y-104254666D01*
X54627368Y-104321204D01*
X54620435Y-104355759D01*
X54601932Y-104368680D01*
X54566177Y-104370316D01*
X54564917Y-104370301D01*
X54504071Y-104366659D01*
X54427543Y-104358465D01*
X54400875Y-104354831D01*
X54340494Y-104347464D01*
X54310904Y-104351132D01*
X54301179Y-104369680D01*
X54300333Y-104390219D01*
X54303425Y-104415209D01*
X54318258Y-104432220D01*
X54353173Y-104444841D01*
X54416509Y-104456660D01*
X54474958Y-104465336D01*
X54561924Y-104478306D01*
X54637003Y-104490398D01*
X54686880Y-104499444D01*
X54694005Y-104501012D01*
X54711811Y-104503217D01*
X54724925Y-104495755D01*
X54734897Y-104472354D01*
X54743274Y-104426739D01*
X54751603Y-104352639D01*
X54761433Y-104243780D01*
X54763558Y-104219115D01*
X54773792Y-104103673D01*
X54783943Y-103995617D01*
X54792943Y-103905892D01*
X54799727Y-103845446D01*
X54800628Y-103838536D01*
X54812567Y-103750489D01*
X54667575Y-103734804D01*
X54550661Y-103722962D01*
X54469171Y-103717388D01*
X54416586Y-103718618D01*
G36*
X53884643Y-103848277D02*
G01*
X53822784Y-103891718D01*
X53794323Y-103934620D01*
X53782814Y-103977855D01*
X53770797Y-104045485D01*
X53759569Y-104126122D01*
X53750427Y-104208380D01*
X53744665Y-104280870D01*
X53743579Y-104332205D01*
X53747006Y-104350450D01*
X53773843Y-104358505D01*
X53803568Y-104360500D01*
X53833319Y-104353969D01*
X53850797Y-104327324D01*
X53862463Y-104269984D01*
X53863540Y-104262295D01*
X53871980Y-104185942D01*
X53876664Y-104114873D01*
X53877000Y-104097672D01*
X53890880Y-104021029D01*
X53927012Y-103967004D01*
X53977132Y-103940462D01*
X54032978Y-103946268D01*
X54077946Y-103979347D01*
X54096258Y-104005449D01*
X54106295Y-104040028D01*
X54109189Y-104093165D01*
X54106070Y-104174939D01*
X54103877Y-104210486D01*
X54099039Y-104303312D01*
X54099633Y-104362153D01*
X54106454Y-104395100D01*
X54120297Y-104410246D01*
X54123632Y-104411721D01*
X54169245Y-104424885D01*
X54196824Y-104417113D01*
X54210753Y-104382082D01*
X54215414Y-104313469D01*
X54215667Y-104278938D01*
X54217908Y-104177957D01*
X54223689Y-104069963D01*
X54229265Y-104003771D01*
X54236000Y-103932547D01*
X54235133Y-103893648D01*
X54223484Y-103877296D01*
X54197871Y-103873713D01*
X54186932Y-103873666D01*
X54145732Y-103880454D01*
X54131000Y-103894522D01*
X54115447Y-103898209D01*
X54076685Y-103881793D01*
X54062208Y-103873434D01*
X54007544Y-103845632D01*
X53962520Y-103831763D01*
X53957371Y-103831412D01*
X53884643Y-103848277D01*
G37*
X53884643Y-103848277D02*
X53822784Y-103891718D01*
X53794323Y-103934620D01*
X53782814Y-103977855D01*
X53770797Y-104045485D01*
X53759569Y-104126122D01*
X53750427Y-104208380D01*
X53744665Y-104280870D01*
X53743579Y-104332205D01*
X53747006Y-104350450D01*
X53773843Y-104358505D01*
X53803568Y-104360500D01*
X53833319Y-104353969D01*
X53850797Y-104327324D01*
X53862463Y-104269984D01*
X53863540Y-104262295D01*
X53871980Y-104185942D01*
X53876664Y-104114873D01*
X53877000Y-104097672D01*
X53890880Y-104021029D01*
X53927012Y-103967004D01*
X53977132Y-103940462D01*
X54032978Y-103946268D01*
X54077946Y-103979347D01*
X54096258Y-104005449D01*
X54106295Y-104040028D01*
X54109189Y-104093165D01*
X54106070Y-104174939D01*
X54103877Y-104210486D01*
X54099039Y-104303312D01*
X54099633Y-104362153D01*
X54106454Y-104395100D01*
X54120297Y-104410246D01*
X54123632Y-104411721D01*
X54169245Y-104424885D01*
X54196824Y-104417113D01*
X54210753Y-104382082D01*
X54215414Y-104313469D01*
X54215667Y-104278938D01*
X54217908Y-104177957D01*
X54223689Y-104069963D01*
X54229265Y-104003771D01*
X54236000Y-103932547D01*
X54235133Y-103893648D01*
X54223484Y-103877296D01*
X54197871Y-103873713D01*
X54186932Y-103873666D01*
X54145732Y-103880454D01*
X54131000Y-103894522D01*
X54115447Y-103898209D01*
X54076685Y-103881793D01*
X54062208Y-103873434D01*
X54007544Y-103845632D01*
X53962520Y-103831763D01*
X53957371Y-103831412D01*
X53884643Y-103848277D01*
G36*
X53524416Y-103669111D02*
G01*
X53517254Y-103720479D01*
X53517167Y-103730709D01*
X53513097Y-103773360D01*
X53492028Y-103784762D01*
X53456417Y-103779020D01*
X53410666Y-103775010D01*
X53389123Y-103794405D01*
X53384462Y-103808529D01*
X53384471Y-103840039D01*
X53412540Y-103857528D01*
X53440999Y-103864088D01*
X53508741Y-103876797D01*
X53493085Y-104023319D01*
X53482158Y-104113385D01*
X53470195Y-104169265D01*
X53453213Y-104199002D01*
X53427228Y-104210641D01*
X53399501Y-104212333D01*
X53359946Y-104227118D01*
X53346313Y-104259989D01*
X53361972Y-104293716D01*
X53381315Y-104305318D01*
X53443661Y-104317597D01*
X53507197Y-104313118D01*
X53552783Y-104293654D01*
X53557335Y-104289025D01*
X53570947Y-104255613D01*
X53586265Y-104191811D01*
X53600646Y-104109341D01*
X53605082Y-104077358D01*
X53617845Y-103988043D01*
X53629764Y-103933113D01*
X53643533Y-103904767D01*
X53661849Y-103895206D01*
X53668155Y-103894833D01*
X53701443Y-103878564D01*
X53707667Y-103852500D01*
X53694432Y-103818023D01*
X53675917Y-103810166D01*
X53650610Y-103791400D01*
X53644167Y-103750064D01*
X53630190Y-103695215D01*
X53593362Y-103666813D01*
X53547641Y-103653021D01*
X53524416Y-103669111D01*
G37*
X53524416Y-103669111D02*
X53517254Y-103720479D01*
X53517167Y-103730709D01*
X53513097Y-103773360D01*
X53492028Y-103784762D01*
X53456417Y-103779020D01*
X53410666Y-103775010D01*
X53389123Y-103794405D01*
X53384462Y-103808529D01*
X53384471Y-103840039D01*
X53412540Y-103857528D01*
X53440999Y-103864088D01*
X53508741Y-103876797D01*
X53493085Y-104023319D01*
X53482158Y-104113385D01*
X53470195Y-104169265D01*
X53453213Y-104199002D01*
X53427228Y-104210641D01*
X53399501Y-104212333D01*
X53359946Y-104227118D01*
X53346313Y-104259989D01*
X53361972Y-104293716D01*
X53381315Y-104305318D01*
X53443661Y-104317597D01*
X53507197Y-104313118D01*
X53552783Y-104293654D01*
X53557335Y-104289025D01*
X53570947Y-104255613D01*
X53586265Y-104191811D01*
X53600646Y-104109341D01*
X53605082Y-104077358D01*
X53617845Y-103988043D01*
X53629764Y-103933113D01*
X53643533Y-103904767D01*
X53661849Y-103895206D01*
X53668155Y-103894833D01*
X53701443Y-103878564D01*
X53707667Y-103852500D01*
X53694432Y-103818023D01*
X53675917Y-103810166D01*
X53650610Y-103791400D01*
X53644167Y-103750064D01*
X53630190Y-103695215D01*
X53593362Y-103666813D01*
X53547641Y-103653021D01*
X53524416Y-103669111D01*
G36*
X53017720Y-103742950D02*
G01*
X52951284Y-103782798D01*
X52906665Y-103852112D01*
X52905628Y-103855015D01*
X52886354Y-103913781D01*
X52880524Y-103954622D01*
X52893681Y-103982165D01*
X52931373Y-104001036D01*
X52999143Y-104015860D01*
X53102537Y-104031263D01*
X53119791Y-104033676D01*
X53179118Y-104043524D01*
X53204588Y-104055260D01*
X53204436Y-104075288D01*
X53195997Y-104092953D01*
X53167979Y-104134947D01*
X53148873Y-104153800D01*
X53105885Y-104166099D01*
X53042919Y-104168611D01*
X52981079Y-104161772D01*
X52946225Y-104149626D01*
X52911187Y-104145779D01*
X52887276Y-104175461D01*
X52882491Y-104204971D01*
X52901343Y-104229650D01*
X52950666Y-104252292D01*
X53018640Y-104268986D01*
X53093444Y-104275820D01*
X53096658Y-104275833D01*
X53171513Y-104263450D01*
X53239292Y-104220769D01*
X53246958Y-104214069D01*
X53284624Y-104177130D01*
X53305365Y-104142091D01*
X53314183Y-104094501D01*
X53316081Y-104019910D01*
X53316083Y-104014376D01*
X53313996Y-103935842D01*
X53313802Y-103934774D01*
X53204580Y-103934774D01*
X53181958Y-103941834D01*
X53128166Y-103939392D01*
X53108822Y-103937512D01*
X53046254Y-103926918D01*
X53003913Y-103911866D01*
X52994022Y-103902581D01*
X53001724Y-103868121D01*
X53034548Y-103833263D01*
X53077764Y-103811893D01*
X53092065Y-103810166D01*
X53138367Y-103828225D01*
X53182124Y-103873344D01*
X53204471Y-103916346D01*
X53204580Y-103934774D01*
X53313802Y-103934774D01*
X53304665Y-103884510D01*
X53283493Y-103845330D01*
X53254168Y-103811820D01*
X53178538Y-103756299D01*
X53096597Y-103733730D01*
X53017720Y-103742950D01*
G37*
X53017720Y-103742950D02*
X52951284Y-103782798D01*
X52906665Y-103852112D01*
X52905628Y-103855015D01*
X52886354Y-103913781D01*
X52880524Y-103954622D01*
X52893681Y-103982165D01*
X52931373Y-104001036D01*
X52999143Y-104015860D01*
X53102537Y-104031263D01*
X53119791Y-104033676D01*
X53179118Y-104043524D01*
X53204588Y-104055260D01*
X53204436Y-104075288D01*
X53195997Y-104092953D01*
X53167979Y-104134947D01*
X53148873Y-104153800D01*
X53105885Y-104166099D01*
X53042919Y-104168611D01*
X52981079Y-104161772D01*
X52946225Y-104149626D01*
X52911187Y-104145779D01*
X52887276Y-104175461D01*
X52882491Y-104204971D01*
X52901343Y-104229650D01*
X52950666Y-104252292D01*
X53018640Y-104268986D01*
X53093444Y-104275820D01*
X53096658Y-104275833D01*
X53171513Y-104263450D01*
X53239292Y-104220769D01*
X53246958Y-104214069D01*
X53284624Y-104177130D01*
X53305365Y-104142091D01*
X53314183Y-104094501D01*
X53316081Y-104019910D01*
X53316083Y-104014376D01*
X53313996Y-103935842D01*
X53313802Y-103934774D01*
X53204580Y-103934774D01*
X53181958Y-103941834D01*
X53128166Y-103939392D01*
X53108822Y-103937512D01*
X53046254Y-103926918D01*
X53003913Y-103911866D01*
X52994022Y-103902581D01*
X53001724Y-103868121D01*
X53034548Y-103833263D01*
X53077764Y-103811893D01*
X53092065Y-103810166D01*
X53138367Y-103828225D01*
X53182124Y-103873344D01*
X53204471Y-103916346D01*
X53204580Y-103934774D01*
X53313802Y-103934774D01*
X53304665Y-103884510D01*
X53283493Y-103845330D01*
X53254168Y-103811820D01*
X53178538Y-103756299D01*
X53096597Y-103733730D01*
X53017720Y-103742950D01*
G36*
X52545937Y-103691889D02*
G01*
X52543500Y-103713490D01*
X52559777Y-103761927D01*
X52585856Y-103778423D01*
X52629020Y-103804606D01*
X52655691Y-103854096D01*
X52667720Y-103932848D01*
X52667273Y-104040175D01*
X52664365Y-104122104D01*
X52666273Y-104170939D01*
X52675076Y-104195829D01*
X52692854Y-104205924D01*
X52705478Y-104208243D01*
X52736623Y-104205708D01*
X52753747Y-104179560D01*
X52762816Y-104134160D01*
X52770161Y-104073861D01*
X52778797Y-103988229D01*
X52787040Y-103894161D01*
X52788249Y-103878958D01*
X52794347Y-103793451D01*
X52795194Y-103741674D01*
X52789297Y-103715191D01*
X52775166Y-103705565D01*
X52757370Y-103704333D01*
X52721821Y-103714260D01*
X52712833Y-103729189D01*
X52700027Y-103733871D01*
X52668708Y-103712469D01*
X52663844Y-103708022D01*
X52609881Y-103669849D01*
X52568542Y-103664563D01*
X52545937Y-103691889D01*
G37*
X52545937Y-103691889D02*
X52543500Y-103713490D01*
X52559777Y-103761927D01*
X52585856Y-103778423D01*
X52629020Y-103804606D01*
X52655691Y-103854096D01*
X52667720Y-103932848D01*
X52667273Y-104040175D01*
X52664365Y-104122104D01*
X52666273Y-104170939D01*
X52675076Y-104195829D01*
X52692854Y-104205924D01*
X52705478Y-104208243D01*
X52736623Y-104205708D01*
X52753747Y-104179560D01*
X52762816Y-104134160D01*
X52770161Y-104073861D01*
X52778797Y-103988229D01*
X52787040Y-103894161D01*
X52788249Y-103878958D01*
X52794347Y-103793451D01*
X52795194Y-103741674D01*
X52789297Y-103715191D01*
X52775166Y-103705565D01*
X52757370Y-103704333D01*
X52721821Y-103714260D01*
X52712833Y-103729189D01*
X52700027Y-103733871D01*
X52668708Y-103712469D01*
X52663844Y-103708022D01*
X52609881Y-103669849D01*
X52568542Y-103664563D01*
X52545937Y-103691889D01*
G36*
X48585041Y-102606721D02*
G01*
X48569151Y-102615972D01*
X48515506Y-102670818D01*
X48479795Y-102744823D01*
X48468819Y-102820796D01*
X48474798Y-102854345D01*
X48511569Y-102909502D01*
X48585076Y-102971895D01*
X48690767Y-103039418D01*
X48824089Y-103109963D01*
X48980489Y-103181423D01*
X49155414Y-103251691D01*
X49344312Y-103318660D01*
X49542630Y-103380222D01*
X49707167Y-103424708D01*
X49819663Y-103450771D01*
X49919484Y-103467609D01*
X50022753Y-103477062D01*
X50145597Y-103480965D01*
X50204583Y-103481386D01*
X50323908Y-103480790D01*
X50412452Y-103477314D01*
X50481743Y-103469479D01*
X50543311Y-103455803D01*
X50608685Y-103434807D01*
X50631534Y-103426578D01*
X50783317Y-103371073D01*
X50798263Y-103550498D01*
X50803678Y-103677734D01*
X50796859Y-103775457D01*
X50789355Y-103809542D01*
X50767383Y-103923118D01*
X50775244Y-104014192D01*
X50787412Y-104044391D01*
X50819302Y-104077300D01*
X50855699Y-104083473D01*
X50880672Y-104060451D01*
X50881212Y-104058875D01*
X50885230Y-104043326D01*
X50888397Y-104020710D01*
X50890960Y-103985037D01*
X50893169Y-103930320D01*
X50895272Y-103850570D01*
X50897518Y-103739799D01*
X50899834Y-103610533D01*
X50903645Y-103483149D01*
X50909910Y-103387939D01*
X50918310Y-103328389D01*
X50927507Y-103308136D01*
X50939746Y-103324185D01*
X50947577Y-103381056D01*
X50950829Y-103477452D01*
X50950886Y-103486603D01*
X50952445Y-103600354D01*
X50955759Y-103724995D01*
X50960136Y-103834890D01*
X50960492Y-103841916D01*
X50965894Y-103926675D01*
X50973113Y-103977990D01*
X50984888Y-104004741D01*
X51003959Y-104015809D01*
X51014798Y-104017915D01*
X51051017Y-104012639D01*
X51070645Y-103976484D01*
X51073437Y-103964999D01*
X51086122Y-103911247D01*
X51095300Y-103877359D01*
X51095511Y-103843836D01*
X51087831Y-103781969D01*
X51073895Y-103704666D01*
X51072630Y-103698539D01*
X51054463Y-103543215D01*
X51064046Y-103395551D01*
X51100040Y-103265581D01*
X51140461Y-103190170D01*
X51195798Y-103109924D01*
X51153253Y-103052587D01*
X51116708Y-103013179D01*
X51069894Y-102983519D01*
X51008162Y-102963187D01*
X50926861Y-102951767D01*
X50821341Y-102948842D01*
X50686951Y-102953994D01*
X50519042Y-102966805D01*
X50363333Y-102981693D01*
X50255891Y-102989483D01*
X50148907Y-102990058D01*
X50037466Y-102982416D01*
X49916656Y-102965557D01*
X49781564Y-102938478D01*
X49627277Y-102900179D01*
X49448881Y-102849659D01*
X49241463Y-102785917D01*
X49000111Y-102707950D01*
X48967794Y-102697314D01*
X48841228Y-102655903D01*
X48748335Y-102626764D01*
X48682692Y-102608587D01*
X48637877Y-102600061D01*
X48607468Y-102599876D01*
X48585041Y-102606721D01*
G37*
X48585041Y-102606721D02*
X48569151Y-102615972D01*
X48515506Y-102670818D01*
X48479795Y-102744823D01*
X48468819Y-102820796D01*
X48474798Y-102854345D01*
X48511569Y-102909502D01*
X48585076Y-102971895D01*
X48690767Y-103039418D01*
X48824089Y-103109963D01*
X48980489Y-103181423D01*
X49155414Y-103251691D01*
X49344312Y-103318660D01*
X49542630Y-103380222D01*
X49707167Y-103424708D01*
X49819663Y-103450771D01*
X49919484Y-103467609D01*
X50022753Y-103477062D01*
X50145597Y-103480965D01*
X50204583Y-103481386D01*
X50323908Y-103480790D01*
X50412452Y-103477314D01*
X50481743Y-103469479D01*
X50543311Y-103455803D01*
X50608685Y-103434807D01*
X50631534Y-103426578D01*
X50783317Y-103371073D01*
X50798263Y-103550498D01*
X50803678Y-103677734D01*
X50796859Y-103775457D01*
X50789355Y-103809542D01*
X50767383Y-103923118D01*
X50775244Y-104014192D01*
X50787412Y-104044391D01*
X50819302Y-104077300D01*
X50855699Y-104083473D01*
X50880672Y-104060451D01*
X50881212Y-104058875D01*
X50885230Y-104043326D01*
X50888397Y-104020710D01*
X50890960Y-103985037D01*
X50893169Y-103930320D01*
X50895272Y-103850570D01*
X50897518Y-103739799D01*
X50899834Y-103610533D01*
X50903645Y-103483149D01*
X50909910Y-103387939D01*
X50918310Y-103328389D01*
X50927507Y-103308136D01*
X50939746Y-103324185D01*
X50947577Y-103381056D01*
X50950829Y-103477452D01*
X50950886Y-103486603D01*
X50952445Y-103600354D01*
X50955759Y-103724995D01*
X50960136Y-103834890D01*
X50960492Y-103841916D01*
X50965894Y-103926675D01*
X50973113Y-103977990D01*
X50984888Y-104004741D01*
X51003959Y-104015809D01*
X51014798Y-104017915D01*
X51051017Y-104012639D01*
X51070645Y-103976484D01*
X51073437Y-103964999D01*
X51086122Y-103911247D01*
X51095300Y-103877359D01*
X51095511Y-103843836D01*
X51087831Y-103781969D01*
X51073895Y-103704666D01*
X51072630Y-103698539D01*
X51054463Y-103543215D01*
X51064046Y-103395551D01*
X51100040Y-103265581D01*
X51140461Y-103190170D01*
X51195798Y-103109924D01*
X51153253Y-103052587D01*
X51116708Y-103013179D01*
X51069894Y-102983519D01*
X51008162Y-102963187D01*
X50926861Y-102951767D01*
X50821341Y-102948842D01*
X50686951Y-102953994D01*
X50519042Y-102966805D01*
X50363333Y-102981693D01*
X50255891Y-102989483D01*
X50148907Y-102990058D01*
X50037466Y-102982416D01*
X49916656Y-102965557D01*
X49781564Y-102938478D01*
X49627277Y-102900179D01*
X49448881Y-102849659D01*
X49241463Y-102785917D01*
X49000111Y-102707950D01*
X48967794Y-102697314D01*
X48841228Y-102655903D01*
X48748335Y-102626764D01*
X48682692Y-102608587D01*
X48637877Y-102600061D01*
X48607468Y-102599876D01*
X48585041Y-102606721D01*
G36*
X51452570Y-102820028D02*
G01*
X51420413Y-102870229D01*
X51402162Y-102931639D01*
X51400500Y-102955488D01*
X51411581Y-103039407D01*
X51449169Y-103115689D01*
X51502297Y-103180458D01*
X51557507Y-103227093D01*
X51599430Y-103235246D01*
X51626559Y-103204624D01*
X51626559Y-103204623D01*
X51619333Y-103165312D01*
X51574602Y-103119693D01*
X51513921Y-103050854D01*
X51493039Y-102973263D01*
X51513099Y-102892004D01*
X51520459Y-102878536D01*
X51543972Y-102833226D01*
X51544107Y-102808391D01*
X51527301Y-102793287D01*
X51490808Y-102791044D01*
X51452570Y-102820028D01*
G37*
X51452570Y-102820028D02*
X51420413Y-102870229D01*
X51402162Y-102931639D01*
X51400500Y-102955488D01*
X51411581Y-103039407D01*
X51449169Y-103115689D01*
X51502297Y-103180458D01*
X51557507Y-103227093D01*
X51599430Y-103235246D01*
X51626559Y-103204624D01*
X51626559Y-103204623D01*
X51619333Y-103165312D01*
X51574602Y-103119693D01*
X51513921Y-103050854D01*
X51493039Y-102973263D01*
X51513099Y-102892004D01*
X51520459Y-102878536D01*
X51543972Y-102833226D01*
X51544107Y-102808391D01*
X51527301Y-102793287D01*
X51490808Y-102791044D01*
X51452570Y-102820028D01*
G36*
X53904882Y-102339788D02*
G01*
X53808208Y-102341995D01*
X53667338Y-102345815D01*
X53521726Y-102350508D01*
X53384838Y-102355591D01*
X53270139Y-102360582D01*
X53225674Y-102362872D01*
X53127027Y-102368950D01*
X53057447Y-102376807D01*
X53003726Y-102390499D01*
X52952659Y-102414083D01*
X52891040Y-102451616D01*
X52849985Y-102478293D01*
X52726866Y-102556275D01*
X52623384Y-102615159D01*
X52525687Y-102661739D01*
X52419923Y-102702815D01*
X52331833Y-102732526D01*
X52241035Y-102763993D01*
X52185092Y-102789244D01*
X52157642Y-102811710D01*
X52151917Y-102829506D01*
X52161185Y-102856476D01*
X52196175Y-102863437D01*
X52217181Y-102862076D01*
X52257926Y-102860699D01*
X52276777Y-102874179D01*
X52282164Y-102913468D01*
X52282445Y-102946834D01*
X52288447Y-103033903D01*
X52311605Y-103089409D01*
X52359648Y-103121667D01*
X52440304Y-103138992D01*
X52463515Y-103141659D01*
X52665224Y-103160661D01*
X52865887Y-103175710D01*
X53059451Y-103186634D01*
X53239864Y-103193260D01*
X53401073Y-103195418D01*
X53537024Y-103192936D01*
X53641664Y-103185641D01*
X53697083Y-103176640D01*
X53838940Y-103122695D01*
X53956407Y-103036871D01*
X53993883Y-102996063D01*
X54074959Y-102878727D01*
X54116501Y-102770273D01*
X54119105Y-102666108D01*
X54117378Y-102661059D01*
X54017239Y-102661059D01*
X54016323Y-102757107D01*
X53980169Y-102855306D01*
X53911085Y-102949592D01*
X53811379Y-103033899D01*
X53803294Y-103039282D01*
X53753078Y-103062350D01*
X53683499Y-103082121D01*
X53605063Y-103097241D01*
X53528273Y-103106359D01*
X53463632Y-103108121D01*
X53421645Y-103101175D01*
X53412571Y-103091126D01*
X52863187Y-103091126D01*
X52740385Y-103077749D01*
X52645175Y-103067239D01*
X52543663Y-103055830D01*
X52501167Y-103050978D01*
X52384750Y-103037583D01*
X52378506Y-102930897D01*
X52372262Y-102824210D01*
X52510798Y-102769773D01*
X52649333Y-102715336D01*
X52649333Y-102776969D01*
X52670406Y-102874621D01*
X52733252Y-102970868D01*
X52786929Y-103024171D01*
X52863187Y-103091126D01*
X53412571Y-103091126D01*
X53411333Y-103089755D01*
X53422083Y-103057961D01*
X53447975Y-103011951D01*
X53448375Y-103011339D01*
X53469955Y-102953439D01*
X53482927Y-102867715D01*
X53487207Y-102767811D01*
X53482713Y-102667370D01*
X53469360Y-102580036D01*
X53451338Y-102526978D01*
X53417259Y-102460874D01*
X53631208Y-102450572D01*
X53741934Y-102447056D01*
X53820424Y-102451353D01*
X53876554Y-102466929D01*
X53920199Y-102497250D01*
X53961233Y-102545782D01*
X53980611Y-102573226D01*
X54017239Y-102661059D01*
X54117378Y-102661059D01*
X54083369Y-102561638D01*
X54056331Y-102515427D01*
X54005675Y-102437771D01*
X54089504Y-102423608D01*
X54147913Y-102407641D01*
X54171753Y-102383018D01*
X54173333Y-102371330D01*
X54170735Y-102357568D01*
X54159054Y-102347832D01*
X54132458Y-102341655D01*
X54085118Y-102338567D01*
X54011203Y-102338101D01*
X53904882Y-102339788D01*
G37*
X53904882Y-102339788D02*
X53808208Y-102341995D01*
X53667338Y-102345815D01*
X53521726Y-102350508D01*
X53384838Y-102355591D01*
X53270139Y-102360582D01*
X53225674Y-102362872D01*
X53127027Y-102368950D01*
X53057447Y-102376807D01*
X53003726Y-102390499D01*
X52952659Y-102414083D01*
X52891040Y-102451616D01*
X52849985Y-102478293D01*
X52726866Y-102556275D01*
X52623384Y-102615159D01*
X52525687Y-102661739D01*
X52419923Y-102702815D01*
X52331833Y-102732526D01*
X52241035Y-102763993D01*
X52185092Y-102789244D01*
X52157642Y-102811710D01*
X52151917Y-102829506D01*
X52161185Y-102856476D01*
X52196175Y-102863437D01*
X52217181Y-102862076D01*
X52257926Y-102860699D01*
X52276777Y-102874179D01*
X52282164Y-102913468D01*
X52282445Y-102946834D01*
X52288447Y-103033903D01*
X52311605Y-103089409D01*
X52359648Y-103121667D01*
X52440304Y-103138992D01*
X52463515Y-103141659D01*
X52665224Y-103160661D01*
X52865887Y-103175710D01*
X53059451Y-103186634D01*
X53239864Y-103193260D01*
X53401073Y-103195418D01*
X53537024Y-103192936D01*
X53641664Y-103185641D01*
X53697083Y-103176640D01*
X53838940Y-103122695D01*
X53956407Y-103036871D01*
X53993883Y-102996063D01*
X54074959Y-102878727D01*
X54116501Y-102770273D01*
X54119105Y-102666108D01*
X54117378Y-102661059D01*
X54017239Y-102661059D01*
X54016323Y-102757107D01*
X53980169Y-102855306D01*
X53911085Y-102949592D01*
X53811379Y-103033899D01*
X53803294Y-103039282D01*
X53753078Y-103062350D01*
X53683499Y-103082121D01*
X53605063Y-103097241D01*
X53528273Y-103106359D01*
X53463632Y-103108121D01*
X53421645Y-103101175D01*
X53412571Y-103091126D01*
X52863187Y-103091126D01*
X52740385Y-103077749D01*
X52645175Y-103067239D01*
X52543663Y-103055830D01*
X52501167Y-103050978D01*
X52384750Y-103037583D01*
X52378506Y-102930897D01*
X52372262Y-102824210D01*
X52510798Y-102769773D01*
X52649333Y-102715336D01*
X52649333Y-102776969D01*
X52670406Y-102874621D01*
X52733252Y-102970868D01*
X52786929Y-103024171D01*
X52863187Y-103091126D01*
X53412571Y-103091126D01*
X53411333Y-103089755D01*
X53422083Y-103057961D01*
X53447975Y-103011951D01*
X53448375Y-103011339D01*
X53469955Y-102953439D01*
X53482927Y-102867715D01*
X53487207Y-102767811D01*
X53482713Y-102667370D01*
X53469360Y-102580036D01*
X53451338Y-102526978D01*
X53417259Y-102460874D01*
X53631208Y-102450572D01*
X53741934Y-102447056D01*
X53820424Y-102451353D01*
X53876554Y-102466929D01*
X53920199Y-102497250D01*
X53961233Y-102545782D01*
X53980611Y-102573226D01*
X54017239Y-102661059D01*
X54117378Y-102661059D01*
X54083369Y-102561638D01*
X54056331Y-102515427D01*
X54005675Y-102437771D01*
X54089504Y-102423608D01*
X54147913Y-102407641D01*
X54171753Y-102383018D01*
X54173333Y-102371330D01*
X54170735Y-102357568D01*
X54159054Y-102347832D01*
X54132458Y-102341655D01*
X54085118Y-102338567D01*
X54011203Y-102338101D01*
X53904882Y-102339788D01*
G36*
X50573586Y-102297897D02*
G01*
X50490129Y-102312755D01*
X50440092Y-102325131D01*
X50415011Y-102338707D01*
X50406425Y-102357161D01*
X50405667Y-102370912D01*
X50409649Y-102394016D01*
X50428191Y-102404827D01*
X50471187Y-102405825D01*
X50527375Y-102401451D01*
X50627442Y-102400891D01*
X50690270Y-102420416D01*
X50715592Y-102459489D01*
X50703138Y-102517574D01*
X50652640Y-102594132D01*
X50634390Y-102615697D01*
X50596572Y-102668314D01*
X50581425Y-102710374D01*
X50582676Y-102720140D01*
X50600314Y-102746676D01*
X50626639Y-102744248D01*
X50668167Y-102710709D01*
X50695308Y-102683041D01*
X50761665Y-102603027D01*
X50797187Y-102532000D01*
X50807833Y-102458002D01*
X50807833Y-102457191D01*
X50788613Y-102395713D01*
X50738720Y-102343034D01*
X50669803Y-102307079D01*
X50593516Y-102295769D01*
X50573586Y-102297897D01*
G37*
X50573586Y-102297897D02*
X50490129Y-102312755D01*
X50440092Y-102325131D01*
X50415011Y-102338707D01*
X50406425Y-102357161D01*
X50405667Y-102370912D01*
X50409649Y-102394016D01*
X50428191Y-102404827D01*
X50471187Y-102405825D01*
X50527375Y-102401451D01*
X50627442Y-102400891D01*
X50690270Y-102420416D01*
X50715592Y-102459489D01*
X50703138Y-102517574D01*
X50652640Y-102594132D01*
X50634390Y-102615697D01*
X50596572Y-102668314D01*
X50581425Y-102710374D01*
X50582676Y-102720140D01*
X50600314Y-102746676D01*
X50626639Y-102744248D01*
X50668167Y-102710709D01*
X50695308Y-102683041D01*
X50761665Y-102603027D01*
X50797187Y-102532000D01*
X50807833Y-102458002D01*
X50807833Y-102457191D01*
X50788613Y-102395713D01*
X50738720Y-102343034D01*
X50669803Y-102307079D01*
X50593516Y-102295769D01*
X50573586Y-102297897D01*
G36*
X49871713Y-101902549D02*
G01*
X49765107Y-101950151D01*
X49762198Y-101951613D01*
X49621298Y-102027533D01*
X49516588Y-102097090D01*
X49443521Y-102165449D01*
X49397554Y-102237774D01*
X49374141Y-102319229D01*
X49368579Y-102398919D01*
X49371337Y-102473696D01*
X49383410Y-102522867D01*
X49410325Y-102562988D01*
X49430372Y-102584128D01*
X49487836Y-102626620D01*
X49544700Y-102644705D01*
X49589982Y-102636606D01*
X49609437Y-102613079D01*
X49604420Y-102583570D01*
X49562281Y-102555476D01*
X49548572Y-102549450D01*
X49486059Y-102504098D01*
X49455340Y-102438775D01*
X49456191Y-102361203D01*
X49488386Y-102279101D01*
X49551699Y-102200192D01*
X49558973Y-102193459D01*
X49629180Y-102139709D01*
X49721898Y-102081454D01*
X49821851Y-102027206D01*
X49913769Y-101985477D01*
X49961167Y-101969313D01*
X50004517Y-101942790D01*
X50014083Y-101914227D01*
X49997749Y-101884357D01*
X49949776Y-101880541D01*
X49871713Y-101902549D01*
G37*
X49871713Y-101902549D02*
X49765107Y-101950151D01*
X49762198Y-101951613D01*
X49621298Y-102027533D01*
X49516588Y-102097090D01*
X49443521Y-102165449D01*
X49397554Y-102237774D01*
X49374141Y-102319229D01*
X49368579Y-102398919D01*
X49371337Y-102473696D01*
X49383410Y-102522867D01*
X49410325Y-102562988D01*
X49430372Y-102584128D01*
X49487836Y-102626620D01*
X49544700Y-102644705D01*
X49589982Y-102636606D01*
X49609437Y-102613079D01*
X49604420Y-102583570D01*
X49562281Y-102555476D01*
X49548572Y-102549450D01*
X49486059Y-102504098D01*
X49455340Y-102438775D01*
X49456191Y-102361203D01*
X49488386Y-102279101D01*
X49551699Y-102200192D01*
X49558973Y-102193459D01*
X49629180Y-102139709D01*
X49721898Y-102081454D01*
X49821851Y-102027206D01*
X49913769Y-101985477D01*
X49961167Y-101969313D01*
X50004517Y-101942790D01*
X50014083Y-101914227D01*
X49997749Y-101884357D01*
X49949776Y-101880541D01*
X49871713Y-101902549D01*
G36*
X49193921Y-101984914D02*
G01*
X49153948Y-102025085D01*
X49113521Y-102076315D01*
X49082889Y-102125745D01*
X49072167Y-102158172D01*
X49081851Y-102215931D01*
X49105502Y-102254635D01*
X49135019Y-102267980D01*
X49162303Y-102249663D01*
X49169957Y-102234263D01*
X49173392Y-102194792D01*
X49169151Y-102183139D01*
X49173559Y-102155694D01*
X49199935Y-102112056D01*
X49211753Y-102097146D01*
X49244578Y-102044697D01*
X49254001Y-101999523D01*
X49239075Y-101972264D01*
X49223191Y-101968666D01*
X49193921Y-101984914D01*
G37*
X49193921Y-101984914D02*
X49153948Y-102025085D01*
X49113521Y-102076315D01*
X49082889Y-102125745D01*
X49072167Y-102158172D01*
X49081851Y-102215931D01*
X49105502Y-102254635D01*
X49135019Y-102267980D01*
X49162303Y-102249663D01*
X49169957Y-102234263D01*
X49173392Y-102194792D01*
X49169151Y-102183139D01*
X49173559Y-102155694D01*
X49199935Y-102112056D01*
X49211753Y-102097146D01*
X49244578Y-102044697D01*
X49254001Y-101999523D01*
X49239075Y-101972264D01*
X49223191Y-101968666D01*
X49193921Y-101984914D01*
G36*
X47674373Y-101028637D02*
G01*
X47639704Y-101054012D01*
X47637026Y-101062355D01*
X47643852Y-101089034D01*
X47682683Y-101102559D01*
X47700350Y-101104688D01*
X47734100Y-101108464D01*
X47754696Y-101117174D01*
X47763534Y-101138646D01*
X47762014Y-101180707D01*
X47751534Y-101251183D01*
X47739366Y-101323083D01*
X47728576Y-101409703D01*
X47720794Y-101516004D01*
X47717665Y-101619355D01*
X47717660Y-101621853D01*
X47719530Y-101714340D01*
X47726854Y-101776385D01*
X47741895Y-101819759D01*
X47761370Y-101849395D01*
X47792402Y-101881887D01*
X47829038Y-101898374D01*
X47885979Y-101903729D01*
X47925411Y-101903770D01*
X48005933Y-101896443D01*
X48105886Y-101878445D01*
X48204895Y-101853513D01*
X48213731Y-101850853D01*
X48302209Y-101826437D01*
X48385002Y-101810926D01*
X48476629Y-101802534D01*
X48591609Y-101799477D01*
X48632824Y-101799333D01*
X48767613Y-101796694D01*
X48813178Y-101792413D01*
X48074263Y-101792413D01*
X48053725Y-101801890D01*
X48051566Y-101802515D01*
X47964056Y-101818402D01*
X47888961Y-101815458D01*
X47837139Y-101794776D01*
X47824078Y-101779558D01*
X47809582Y-101731243D01*
X47802894Y-101666759D01*
X47802840Y-101657849D01*
X47805299Y-101608422D01*
X47813696Y-101595351D01*
X47829298Y-101610145D01*
X47860245Y-101637689D01*
X47915628Y-101677019D01*
X47977483Y-101715979D01*
X48040712Y-101754796D01*
X48071448Y-101778495D01*
X48074263Y-101792413D01*
X48813178Y-101792413D01*
X48867334Y-101787325D01*
X48939008Y-101769050D01*
X48989654Y-101739690D01*
X49026293Y-101697069D01*
X49040059Y-101673026D01*
X49066616Y-101583730D01*
X49068945Y-101486995D01*
X48985462Y-101486995D01*
X48978099Y-101571639D01*
X48933760Y-101644324D01*
X48925628Y-101652794D01*
X48896817Y-101679983D01*
X48869209Y-101697750D01*
X48833341Y-101708099D01*
X48779754Y-101713034D01*
X48698984Y-101714557D01*
X48633384Y-101714666D01*
X48403012Y-101714666D01*
X48423184Y-101565646D01*
X48432522Y-101461500D01*
X48426177Y-101375263D01*
X48401417Y-101285674D01*
X48380058Y-101229965D01*
X48380828Y-101215775D01*
X48402203Y-101208346D01*
X48451068Y-101206919D01*
X48534310Y-101210735D01*
X48547209Y-101211526D01*
X48705657Y-101230681D01*
X48826128Y-101266303D01*
X48909860Y-101318919D01*
X48956465Y-101385029D01*
X48985462Y-101486995D01*
X49068945Y-101486995D01*
X49069185Y-101477044D01*
X49048302Y-101370082D01*
X49029042Y-101321449D01*
X48990185Y-101259896D01*
X48936874Y-101212225D01*
X48863566Y-101176446D01*
X48764717Y-101150573D01*
X48634785Y-101132619D01*
X48468917Y-101120633D01*
X48300622Y-101107998D01*
X48143023Y-101088918D01*
X48010331Y-101065189D01*
X47985746Y-101059488D01*
X47849423Y-101031359D01*
X47744956Y-101021080D01*
X47674373Y-101028637D01*
G37*
X47674373Y-101028637D02*
X47639704Y-101054012D01*
X47637026Y-101062355D01*
X47643852Y-101089034D01*
X47682683Y-101102559D01*
X47700350Y-101104688D01*
X47734100Y-101108464D01*
X47754696Y-101117174D01*
X47763534Y-101138646D01*
X47762014Y-101180707D01*
X47751534Y-101251183D01*
X47739366Y-101323083D01*
X47728576Y-101409703D01*
X47720794Y-101516004D01*
X47717665Y-101619355D01*
X47717660Y-101621853D01*
X47719530Y-101714340D01*
X47726854Y-101776385D01*
X47741895Y-101819759D01*
X47761370Y-101849395D01*
X47792402Y-101881887D01*
X47829038Y-101898374D01*
X47885979Y-101903729D01*
X47925411Y-101903770D01*
X48005933Y-101896443D01*
X48105886Y-101878445D01*
X48204895Y-101853513D01*
X48213731Y-101850853D01*
X48302209Y-101826437D01*
X48385002Y-101810926D01*
X48476629Y-101802534D01*
X48591609Y-101799477D01*
X48632824Y-101799333D01*
X48767613Y-101796694D01*
X48813178Y-101792413D01*
X48074263Y-101792413D01*
X48053725Y-101801890D01*
X48051566Y-101802515D01*
X47964056Y-101818402D01*
X47888961Y-101815458D01*
X47837139Y-101794776D01*
X47824078Y-101779558D01*
X47809582Y-101731243D01*
X47802894Y-101666759D01*
X47802840Y-101657849D01*
X47805299Y-101608422D01*
X47813696Y-101595351D01*
X47829298Y-101610145D01*
X47860245Y-101637689D01*
X47915628Y-101677019D01*
X47977483Y-101715979D01*
X48040712Y-101754796D01*
X48071448Y-101778495D01*
X48074263Y-101792413D01*
X48813178Y-101792413D01*
X48867334Y-101787325D01*
X48939008Y-101769050D01*
X48989654Y-101739690D01*
X49026293Y-101697069D01*
X49040059Y-101673026D01*
X49066616Y-101583730D01*
X49068945Y-101486995D01*
X48985462Y-101486995D01*
X48978099Y-101571639D01*
X48933760Y-101644324D01*
X48925628Y-101652794D01*
X48896817Y-101679983D01*
X48869209Y-101697750D01*
X48833341Y-101708099D01*
X48779754Y-101713034D01*
X48698984Y-101714557D01*
X48633384Y-101714666D01*
X48403012Y-101714666D01*
X48423184Y-101565646D01*
X48432522Y-101461500D01*
X48426177Y-101375263D01*
X48401417Y-101285674D01*
X48380058Y-101229965D01*
X48380828Y-101215775D01*
X48402203Y-101208346D01*
X48451068Y-101206919D01*
X48534310Y-101210735D01*
X48547209Y-101211526D01*
X48705657Y-101230681D01*
X48826128Y-101266303D01*
X48909860Y-101318919D01*
X48956465Y-101385029D01*
X48985462Y-101486995D01*
X49068945Y-101486995D01*
X49069185Y-101477044D01*
X49048302Y-101370082D01*
X49029042Y-101321449D01*
X48990185Y-101259896D01*
X48936874Y-101212225D01*
X48863566Y-101176446D01*
X48764717Y-101150573D01*
X48634785Y-101132619D01*
X48468917Y-101120633D01*
X48300622Y-101107998D01*
X48143023Y-101088918D01*
X48010331Y-101065189D01*
X47985746Y-101059488D01*
X47849423Y-101031359D01*
X47744956Y-101021080D01*
X47674373Y-101028637D01*
G36*
X56622225Y-116763514D02*
G01*
X56571778Y-116820353D01*
X56538676Y-116911047D01*
X56530978Y-116955021D01*
X56522304Y-117020403D01*
X56512517Y-117065690D01*
X56495928Y-117091074D01*
X56466847Y-117096747D01*
X56419583Y-117082902D01*
X56348446Y-117049730D01*
X56247747Y-116997425D01*
X56189132Y-116966572D01*
X56082822Y-116912334D01*
X55986215Y-116866028D01*
X55906930Y-116831079D01*
X55852584Y-116810913D01*
X55835032Y-116807333D01*
X55773073Y-116825921D01*
X55728286Y-116873401D01*
X55708621Y-116937347D01*
X55716513Y-116992534D01*
X55738310Y-117033619D01*
X55780614Y-117098769D01*
X55838762Y-117181916D01*
X55908095Y-117276992D01*
X55983951Y-117377929D01*
X56061668Y-117478658D01*
X56136587Y-117573111D01*
X56204045Y-117655219D01*
X56259382Y-117718914D01*
X56297936Y-117758127D01*
X56311858Y-117767633D01*
X56362642Y-117778455D01*
X56396289Y-117771520D01*
X56433239Y-117740913D01*
X56445212Y-117729045D01*
X56481598Y-117683806D01*
X56493122Y-117638864D01*
X56478522Y-117585189D01*
X56436540Y-117513750D01*
X56409825Y-117475420D01*
X56322483Y-117353448D01*
X56446867Y-117419012D01*
X56518213Y-117453069D01*
X56580775Y-117476790D01*
X56617339Y-117484621D01*
X56663728Y-117467051D01*
X56710106Y-117424176D01*
X56743134Y-117370872D01*
X56751167Y-117335376D01*
X56754022Y-117289343D01*
X56764742Y-117266933D01*
X56786563Y-117270243D01*
X56822717Y-117301369D01*
X56876440Y-117362409D01*
X56950965Y-117455459D01*
X56965917Y-117474586D01*
X57040940Y-117569895D01*
X57095955Y-117636487D01*
X57136434Y-117679452D01*
X57167845Y-117703881D01*
X57195659Y-117714865D01*
X57225347Y-117717496D01*
X57226917Y-117717500D01*
X57302956Y-117701867D01*
X57349746Y-117656430D01*
X57365000Y-117586733D01*
X57358318Y-117552422D01*
X57336215Y-117505512D01*
X57295611Y-117441101D01*
X57233422Y-117354284D01*
X57149762Y-117244287D01*
X57038301Y-117100681D01*
X56949157Y-116987296D01*
X56879078Y-116900612D01*
X56824813Y-116837110D01*
X56783111Y-116793269D01*
X56750723Y-116765570D01*
X56724396Y-116750492D01*
X56700881Y-116744516D01*
X56687566Y-116743833D01*
X56622225Y-116763514D01*
G37*
X56622225Y-116763514D02*
X56571778Y-116820353D01*
X56538676Y-116911047D01*
X56530978Y-116955021D01*
X56522304Y-117020403D01*
X56512517Y-117065690D01*
X56495928Y-117091074D01*
X56466847Y-117096747D01*
X56419583Y-117082902D01*
X56348446Y-117049730D01*
X56247747Y-116997425D01*
X56189132Y-116966572D01*
X56082822Y-116912334D01*
X55986215Y-116866028D01*
X55906930Y-116831079D01*
X55852584Y-116810913D01*
X55835032Y-116807333D01*
X55773073Y-116825921D01*
X55728286Y-116873401D01*
X55708621Y-116937347D01*
X55716513Y-116992534D01*
X55738310Y-117033619D01*
X55780614Y-117098769D01*
X55838762Y-117181916D01*
X55908095Y-117276992D01*
X55983951Y-117377929D01*
X56061668Y-117478658D01*
X56136587Y-117573111D01*
X56204045Y-117655219D01*
X56259382Y-117718914D01*
X56297936Y-117758127D01*
X56311858Y-117767633D01*
X56362642Y-117778455D01*
X56396289Y-117771520D01*
X56433239Y-117740913D01*
X56445212Y-117729045D01*
X56481598Y-117683806D01*
X56493122Y-117638864D01*
X56478522Y-117585189D01*
X56436540Y-117513750D01*
X56409825Y-117475420D01*
X56322483Y-117353448D01*
X56446867Y-117419012D01*
X56518213Y-117453069D01*
X56580775Y-117476790D01*
X56617339Y-117484621D01*
X56663728Y-117467051D01*
X56710106Y-117424176D01*
X56743134Y-117370872D01*
X56751167Y-117335376D01*
X56754022Y-117289343D01*
X56764742Y-117266933D01*
X56786563Y-117270243D01*
X56822717Y-117301369D01*
X56876440Y-117362409D01*
X56950965Y-117455459D01*
X56965917Y-117474586D01*
X57040940Y-117569895D01*
X57095955Y-117636487D01*
X57136434Y-117679452D01*
X57167845Y-117703881D01*
X57195659Y-117714865D01*
X57225347Y-117717496D01*
X57226917Y-117717500D01*
X57302956Y-117701867D01*
X57349746Y-117656430D01*
X57365000Y-117586733D01*
X57358318Y-117552422D01*
X57336215Y-117505512D01*
X57295611Y-117441101D01*
X57233422Y-117354284D01*
X57149762Y-117244287D01*
X57038301Y-117100681D01*
X56949157Y-116987296D01*
X56879078Y-116900612D01*
X56824813Y-116837110D01*
X56783111Y-116793269D01*
X56750723Y-116765570D01*
X56724396Y-116750492D01*
X56700881Y-116744516D01*
X56687566Y-116743833D01*
X56622225Y-116763514D01*
G36*
X56299295Y-118069752D02*
G01*
X56247320Y-118108874D01*
X56222614Y-118167971D01*
X56230240Y-118237676D01*
X56253419Y-118282104D01*
X56258591Y-118296625D01*
X56242480Y-118297986D01*
X56201059Y-118284868D01*
X56130300Y-118255949D01*
X56026174Y-118209907D01*
X56007173Y-118201326D01*
X55879933Y-118145730D01*
X55784146Y-118109767D01*
X55713997Y-118092984D01*
X55663675Y-118094926D01*
X55627367Y-118115141D01*
X55599261Y-118153174D01*
X55591137Y-118168854D01*
X55574257Y-118216101D01*
X55576248Y-118257680D01*
X55601019Y-118297291D01*
X55652478Y-118338631D01*
X55734533Y-118385397D01*
X55851091Y-118441288D01*
X55904500Y-118465357D01*
X56005385Y-118510448D01*
X56091634Y-118549248D01*
X56156282Y-118578604D01*
X56192362Y-118595362D01*
X56197429Y-118597959D01*
X56196836Y-118619596D01*
X56188843Y-118672290D01*
X56175072Y-118745740D01*
X56170971Y-118765874D01*
X56150902Y-118867915D01*
X56140971Y-118937869D01*
X56141456Y-118984817D01*
X56152633Y-119017843D01*
X56174780Y-119046026D01*
X56179667Y-119051000D01*
X56243153Y-119087908D01*
X56314868Y-119085760D01*
X56363505Y-119061750D01*
X56393377Y-119027054D01*
X56416947Y-118965320D01*
X56435105Y-118881834D01*
X56450059Y-118809137D01*
X56464680Y-118756250D01*
X56476012Y-118733685D01*
X56476805Y-118733500D01*
X56537968Y-118750048D01*
X56608871Y-118793872D01*
X56676994Y-118856240D01*
X56708665Y-118895180D01*
X56755447Y-118957832D01*
X56798295Y-119011084D01*
X56819333Y-119034499D01*
X56876162Y-119065653D01*
X56943401Y-119068529D01*
X57002160Y-119043230D01*
X57012470Y-119033458D01*
X57035794Y-119002517D01*
X57047512Y-118969611D01*
X57045551Y-118930354D01*
X57027839Y-118880355D01*
X56992302Y-118815228D01*
X56936867Y-118730583D01*
X56859463Y-118622032D01*
X56758017Y-118485187D01*
X56745824Y-118468917D01*
X56649565Y-118341071D01*
X56574626Y-118243283D01*
X56517292Y-118171473D01*
X56473849Y-118121560D01*
X56440581Y-118089465D01*
X56413774Y-118071107D01*
X56389714Y-118062408D01*
X56373479Y-118059969D01*
X56299295Y-118069752D01*
G37*
X56299295Y-118069752D02*
X56247320Y-118108874D01*
X56222614Y-118167971D01*
X56230240Y-118237676D01*
X56253419Y-118282104D01*
X56258591Y-118296625D01*
X56242480Y-118297986D01*
X56201059Y-118284868D01*
X56130300Y-118255949D01*
X56026174Y-118209907D01*
X56007173Y-118201326D01*
X55879933Y-118145730D01*
X55784146Y-118109767D01*
X55713997Y-118092984D01*
X55663675Y-118094926D01*
X55627367Y-118115141D01*
X55599261Y-118153174D01*
X55591137Y-118168854D01*
X55574257Y-118216101D01*
X55576248Y-118257680D01*
X55601019Y-118297291D01*
X55652478Y-118338631D01*
X55734533Y-118385397D01*
X55851091Y-118441288D01*
X55904500Y-118465357D01*
X56005385Y-118510448D01*
X56091634Y-118549248D01*
X56156282Y-118578604D01*
X56192362Y-118595362D01*
X56197429Y-118597959D01*
X56196836Y-118619596D01*
X56188843Y-118672290D01*
X56175072Y-118745740D01*
X56170971Y-118765874D01*
X56150902Y-118867915D01*
X56140971Y-118937869D01*
X56141456Y-118984817D01*
X56152633Y-119017843D01*
X56174780Y-119046026D01*
X56179667Y-119051000D01*
X56243153Y-119087908D01*
X56314868Y-119085760D01*
X56363505Y-119061750D01*
X56393377Y-119027054D01*
X56416947Y-118965320D01*
X56435105Y-118881834D01*
X56450059Y-118809137D01*
X56464680Y-118756250D01*
X56476012Y-118733685D01*
X56476805Y-118733500D01*
X56537968Y-118750048D01*
X56608871Y-118793872D01*
X56676994Y-118856240D01*
X56708665Y-118895180D01*
X56755447Y-118957832D01*
X56798295Y-119011084D01*
X56819333Y-119034499D01*
X56876162Y-119065653D01*
X56943401Y-119068529D01*
X57002160Y-119043230D01*
X57012470Y-119033458D01*
X57035794Y-119002517D01*
X57047512Y-118969611D01*
X57045551Y-118930354D01*
X57027839Y-118880355D01*
X56992302Y-118815228D01*
X56936867Y-118730583D01*
X56859463Y-118622032D01*
X56758017Y-118485187D01*
X56745824Y-118468917D01*
X56649565Y-118341071D01*
X56574626Y-118243283D01*
X56517292Y-118171473D01*
X56473849Y-118121560D01*
X56440581Y-118089465D01*
X56413774Y-118071107D01*
X56389714Y-118062408D01*
X56373479Y-118059969D01*
X56299295Y-118069752D01*
G36*
X50532480Y-119224447D02*
G01*
X50396740Y-119243429D01*
X50270709Y-119281703D01*
X50164482Y-119335093D01*
X50088158Y-119399420D01*
X50077916Y-119412471D01*
X50036095Y-119495391D01*
X50014767Y-119590452D01*
X50018099Y-119677656D01*
X50020588Y-119687467D01*
X50038378Y-119749500D01*
X49759398Y-119749824D01*
X49653690Y-119751072D01*
X49562663Y-119754257D01*
X49495015Y-119758921D01*
X49459444Y-119764608D01*
X49457127Y-119765699D01*
X49415117Y-119814203D01*
X49396901Y-119878083D01*
X49402938Y-119942566D01*
X49433689Y-119992881D01*
X49449710Y-120004058D01*
X49482281Y-120010515D01*
X49549865Y-120016143D01*
X49645144Y-120020604D01*
X49760798Y-120023558D01*
X49889511Y-120024665D01*
X49893801Y-120024667D01*
X50039760Y-120025182D01*
X50149692Y-120027050D01*
X50229897Y-120030754D01*
X50286673Y-120036775D01*
X50326319Y-120045598D01*
X50355133Y-120057704D01*
X50359848Y-120060383D01*
X50420310Y-120096099D01*
X50320780Y-120161065D01*
X50259778Y-120205710D01*
X50227723Y-120245104D01*
X50215015Y-120291491D01*
X50214470Y-120296662D01*
X50223806Y-120371317D01*
X50263256Y-120424374D01*
X50326164Y-120447598D01*
X50336751Y-120448000D01*
X50371483Y-120437136D01*
X50439080Y-120405655D01*
X50536414Y-120355225D01*
X50660355Y-120287513D01*
X50807774Y-120204186D01*
X50963096Y-120114203D01*
X51150272Y-120004245D01*
X51302058Y-119912677D01*
X51419625Y-119836555D01*
X51504147Y-119772935D01*
X51556796Y-119718871D01*
X51572891Y-119684072D01*
X51120396Y-119684072D01*
X51103323Y-119698220D01*
X51058315Y-119728031D01*
X50994215Y-119768199D01*
X50919862Y-119813418D01*
X50844098Y-119858382D01*
X50775763Y-119897784D01*
X50723697Y-119926319D01*
X50696742Y-119938680D01*
X50695977Y-119938807D01*
X50674249Y-119928197D01*
X50626300Y-119898793D01*
X50560688Y-119855944D01*
X50526644Y-119832995D01*
X50417876Y-119755604D01*
X50344966Y-119694317D01*
X50306244Y-119645642D01*
X50300043Y-119606089D01*
X50324694Y-119572167D01*
X50378529Y-119540385D01*
X50385292Y-119537263D01*
X50506712Y-119503270D01*
X50647398Y-119499797D01*
X50797076Y-119527039D01*
X50804783Y-119529261D01*
X50875084Y-119553458D01*
X50951496Y-119585221D01*
X51023860Y-119619567D01*
X51082018Y-119651513D01*
X51115811Y-119676077D01*
X51120396Y-119684072D01*
X51572891Y-119684072D01*
X51578745Y-119671418D01*
X51571166Y-119627632D01*
X51535233Y-119584568D01*
X51472117Y-119539280D01*
X51382992Y-119488825D01*
X51269030Y-119430257D01*
X51241066Y-119416153D01*
X51087149Y-119341405D01*
X50959700Y-119287077D01*
X50849575Y-119250695D01*
X50747631Y-119229785D01*
X50644727Y-119221875D01*
X50532480Y-119224447D01*
G37*
X50532480Y-119224447D02*
X50396740Y-119243429D01*
X50270709Y-119281703D01*
X50164482Y-119335093D01*
X50088158Y-119399420D01*
X50077916Y-119412471D01*
X50036095Y-119495391D01*
X50014767Y-119590452D01*
X50018099Y-119677656D01*
X50020588Y-119687467D01*
X50038378Y-119749500D01*
X49759398Y-119749824D01*
X49653690Y-119751072D01*
X49562663Y-119754257D01*
X49495015Y-119758921D01*
X49459444Y-119764608D01*
X49457127Y-119765699D01*
X49415117Y-119814203D01*
X49396901Y-119878083D01*
X49402938Y-119942566D01*
X49433689Y-119992881D01*
X49449710Y-120004058D01*
X49482281Y-120010515D01*
X49549865Y-120016143D01*
X49645144Y-120020604D01*
X49760798Y-120023558D01*
X49889511Y-120024665D01*
X49893801Y-120024667D01*
X50039760Y-120025182D01*
X50149692Y-120027050D01*
X50229897Y-120030754D01*
X50286673Y-120036775D01*
X50326319Y-120045598D01*
X50355133Y-120057704D01*
X50359848Y-120060383D01*
X50420310Y-120096099D01*
X50320780Y-120161065D01*
X50259778Y-120205710D01*
X50227723Y-120245104D01*
X50215015Y-120291491D01*
X50214470Y-120296662D01*
X50223806Y-120371317D01*
X50263256Y-120424374D01*
X50326164Y-120447598D01*
X50336751Y-120448000D01*
X50371483Y-120437136D01*
X50439080Y-120405655D01*
X50536414Y-120355225D01*
X50660355Y-120287513D01*
X50807774Y-120204186D01*
X50963096Y-120114203D01*
X51150272Y-120004245D01*
X51302058Y-119912677D01*
X51419625Y-119836555D01*
X51504147Y-119772935D01*
X51556796Y-119718871D01*
X51572891Y-119684072D01*
X51120396Y-119684072D01*
X51103323Y-119698220D01*
X51058315Y-119728031D01*
X50994215Y-119768199D01*
X50919862Y-119813418D01*
X50844098Y-119858382D01*
X50775763Y-119897784D01*
X50723697Y-119926319D01*
X50696742Y-119938680D01*
X50695977Y-119938807D01*
X50674249Y-119928197D01*
X50626300Y-119898793D01*
X50560688Y-119855944D01*
X50526644Y-119832995D01*
X50417876Y-119755604D01*
X50344966Y-119694317D01*
X50306244Y-119645642D01*
X50300043Y-119606089D01*
X50324694Y-119572167D01*
X50378529Y-119540385D01*
X50385292Y-119537263D01*
X50506712Y-119503270D01*
X50647398Y-119499797D01*
X50797076Y-119527039D01*
X50804783Y-119529261D01*
X50875084Y-119553458D01*
X50951496Y-119585221D01*
X51023860Y-119619567D01*
X51082018Y-119651513D01*
X51115811Y-119676077D01*
X51120396Y-119684072D01*
X51572891Y-119684072D01*
X51578745Y-119671418D01*
X51571166Y-119627632D01*
X51535233Y-119584568D01*
X51472117Y-119539280D01*
X51382992Y-119488825D01*
X51269030Y-119430257D01*
X51241066Y-119416153D01*
X51087149Y-119341405D01*
X50959700Y-119287077D01*
X50849575Y-119250695D01*
X50747631Y-119229785D01*
X50644727Y-119221875D01*
X50532480Y-119224447D01*
G36*
X53937272Y-121474012D02*
G01*
X53900770Y-121478169D01*
X53875591Y-121486215D01*
X53861001Y-121494403D01*
X53808812Y-121548925D01*
X53796784Y-121616014D01*
X53812974Y-121669211D01*
X53831169Y-121698356D01*
X53858018Y-121720296D01*
X53899984Y-121736676D01*
X53963529Y-121749143D01*
X54055114Y-121759345D01*
X54181202Y-121768927D01*
X54212411Y-121770998D01*
X54441317Y-121785951D01*
X54352700Y-121921957D01*
X54264083Y-122057962D01*
X53986711Y-122044038D01*
X53873861Y-122038624D01*
X53795688Y-122036289D01*
X53744595Y-122037904D01*
X53712982Y-122044341D01*
X53693251Y-122056471D01*
X53677804Y-122075166D01*
X53674503Y-122079850D01*
X53640405Y-122152561D01*
X53646266Y-122214188D01*
X53690843Y-122263366D01*
X53772891Y-122298730D01*
X53891168Y-122318916D01*
X53892427Y-122319028D01*
X53969296Y-122326716D01*
X54027821Y-122334312D01*
X54056933Y-122340345D01*
X54058105Y-122341049D01*
X54050563Y-122360862D01*
X54023704Y-122407762D01*
X53982178Y-122473940D01*
X53948220Y-122525545D01*
X53888800Y-122620666D01*
X53848417Y-122698906D01*
X53830680Y-122753089D01*
X53830167Y-122760270D01*
X53847437Y-122826864D01*
X53891551Y-122875659D01*
X53950960Y-122900420D01*
X54014120Y-122894910D01*
X54046073Y-122876875D01*
X54065685Y-122853233D01*
X54105479Y-122798701D01*
X54162362Y-122717750D01*
X54233241Y-122614851D01*
X54315025Y-122494476D01*
X54404619Y-122361095D01*
X54452285Y-122289563D01*
X54564934Y-122119185D01*
X54655164Y-121980016D01*
X54724598Y-121868421D01*
X54774860Y-121780766D01*
X54807574Y-121713416D01*
X54824362Y-121662736D01*
X54826848Y-121625092D01*
X54816655Y-121596849D01*
X54795407Y-121574372D01*
X54777375Y-121561726D01*
X54734980Y-121547562D01*
X54652192Y-121532635D01*
X54530939Y-121517217D01*
X54373149Y-121501581D01*
X54319771Y-121496956D01*
X54176346Y-121485216D01*
X54068897Y-121477501D01*
X53991260Y-121473778D01*
X53937272Y-121474012D01*
G37*
X53937272Y-121474012D02*
X53900770Y-121478169D01*
X53875591Y-121486215D01*
X53861001Y-121494403D01*
X53808812Y-121548925D01*
X53796784Y-121616014D01*
X53812974Y-121669211D01*
X53831169Y-121698356D01*
X53858018Y-121720296D01*
X53899984Y-121736676D01*
X53963529Y-121749143D01*
X54055114Y-121759345D01*
X54181202Y-121768927D01*
X54212411Y-121770998D01*
X54441317Y-121785951D01*
X54352700Y-121921957D01*
X54264083Y-122057962D01*
X53986711Y-122044038D01*
X53873861Y-122038624D01*
X53795688Y-122036289D01*
X53744595Y-122037904D01*
X53712982Y-122044341D01*
X53693251Y-122056471D01*
X53677804Y-122075166D01*
X53674503Y-122079850D01*
X53640405Y-122152561D01*
X53646266Y-122214188D01*
X53690843Y-122263366D01*
X53772891Y-122298730D01*
X53891168Y-122318916D01*
X53892427Y-122319028D01*
X53969296Y-122326716D01*
X54027821Y-122334312D01*
X54056933Y-122340345D01*
X54058105Y-122341049D01*
X54050563Y-122360862D01*
X54023704Y-122407762D01*
X53982178Y-122473940D01*
X53948220Y-122525545D01*
X53888800Y-122620666D01*
X53848417Y-122698906D01*
X53830680Y-122753089D01*
X53830167Y-122760270D01*
X53847437Y-122826864D01*
X53891551Y-122875659D01*
X53950960Y-122900420D01*
X54014120Y-122894910D01*
X54046073Y-122876875D01*
X54065685Y-122853233D01*
X54105479Y-122798701D01*
X54162362Y-122717750D01*
X54233241Y-122614851D01*
X54315025Y-122494476D01*
X54404619Y-122361095D01*
X54452285Y-122289563D01*
X54564934Y-122119185D01*
X54655164Y-121980016D01*
X54724598Y-121868421D01*
X54774860Y-121780766D01*
X54807574Y-121713416D01*
X54824362Y-121662736D01*
X54826848Y-121625092D01*
X54816655Y-121596849D01*
X54795407Y-121574372D01*
X54777375Y-121561726D01*
X54734980Y-121547562D01*
X54652192Y-121532635D01*
X54530939Y-121517217D01*
X54373149Y-121501581D01*
X54319771Y-121496956D01*
X54176346Y-121485216D01*
X54068897Y-121477501D01*
X53991260Y-121473778D01*
X53937272Y-121474012D01*
G36*
X56956613Y-116259997D02*
G01*
X56887006Y-116265974D01*
X56786476Y-116277157D01*
X56714674Y-116285583D01*
X56558316Y-116303733D01*
X56419592Y-116318952D01*
X56292439Y-116331560D01*
X56170792Y-116341878D01*
X56048585Y-116350226D01*
X55919754Y-116356925D01*
X55778235Y-116362296D01*
X55617963Y-116366660D01*
X55432872Y-116370336D01*
X55216900Y-116373645D01*
X54994333Y-116376536D01*
X54010083Y-116388697D01*
X53565583Y-116826162D01*
X53450143Y-116939732D01*
X53310746Y-117076798D01*
X53153655Y-117231207D01*
X52985131Y-117396807D01*
X52811435Y-117567446D01*
X52638828Y-117736969D01*
X52473573Y-117899226D01*
X52436525Y-117935595D01*
X51751966Y-118607562D01*
X51674525Y-118561092D01*
X51601105Y-118514734D01*
X51503151Y-118449637D01*
X51390089Y-118372338D01*
X51271345Y-118289369D01*
X51156345Y-118207268D01*
X51054517Y-118132568D01*
X51032125Y-118115741D01*
X50930544Y-118044569D01*
X50854055Y-118003399D01*
X50810942Y-117992667D01*
X50785016Y-118002901D01*
X50725751Y-118032343D01*
X50636509Y-118079099D01*
X50520651Y-118141273D01*
X50381539Y-118216973D01*
X50222534Y-118304305D01*
X50046998Y-118401374D01*
X49858290Y-118506287D01*
X49659774Y-118617150D01*
X49454809Y-118732069D01*
X49246758Y-118849149D01*
X49038982Y-118966498D01*
X48834842Y-119082221D01*
X48637698Y-119194424D01*
X48450914Y-119301214D01*
X48277849Y-119400696D01*
X48121865Y-119490976D01*
X47986324Y-119570162D01*
X47874586Y-119636358D01*
X47790013Y-119687671D01*
X47735967Y-119722206D01*
X47718292Y-119735209D01*
X47683851Y-119777536D01*
X47670667Y-119814526D01*
X47660137Y-119849643D01*
X47632372Y-119908329D01*
X47593115Y-119978596D01*
X47588213Y-119986729D01*
X47526213Y-120093735D01*
X47456732Y-120223381D01*
X47378098Y-120379054D01*
X47288635Y-120564141D01*
X47186670Y-120782031D01*
X47080339Y-121014463D01*
X46984124Y-121228040D01*
X46890927Y-121437660D01*
X46802326Y-121639576D01*
X46719901Y-121830041D01*
X46645230Y-122005309D01*
X46579891Y-122161633D01*
X46525463Y-122295266D01*
X46483525Y-122402461D01*
X46455655Y-122479471D01*
X46443433Y-122522551D01*
X46443000Y-122527145D01*
X46458174Y-122578476D01*
X46490625Y-122621961D01*
X46522093Y-122646207D01*
X46584471Y-122690446D01*
X46673166Y-122751617D01*
X46783582Y-122826657D01*
X46911126Y-122912504D01*
X47051204Y-123006096D01*
X47199221Y-123104372D01*
X47350583Y-123204270D01*
X47500697Y-123302727D01*
X47644967Y-123396681D01*
X47778799Y-123483071D01*
X47871750Y-123542449D01*
X48147884Y-123716436D01*
X48418130Y-123884007D01*
X48679936Y-124043719D01*
X48930746Y-124194129D01*
X49168007Y-124333791D01*
X49389164Y-124461262D01*
X49591663Y-124575098D01*
X49772950Y-124673855D01*
X49930471Y-124756088D01*
X50061671Y-124820353D01*
X50163997Y-124865207D01*
X50234894Y-124889206D01*
X50260478Y-124893000D01*
X50294589Y-124883430D01*
X50360104Y-124856547D01*
X50451144Y-124815088D01*
X50561830Y-124761789D01*
X50686282Y-124699390D01*
X50777222Y-124652398D01*
X50912090Y-124581944D01*
X51040938Y-124514790D01*
X51156921Y-124454492D01*
X51253192Y-124404606D01*
X51322905Y-124368688D01*
X51349067Y-124355358D01*
X51460884Y-124298919D01*
X51458766Y-125331501D01*
X51458629Y-125537592D01*
X51459049Y-125731469D01*
X51459979Y-125908881D01*
X51461371Y-126065575D01*
X51463176Y-126197298D01*
X51465347Y-126299799D01*
X51467836Y-126368826D01*
X51470594Y-126400125D01*
X51470834Y-126400895D01*
X51479831Y-126416563D01*
X51496638Y-126430558D01*
X51525399Y-126443765D01*
X51570258Y-126457066D01*
X51635361Y-126471346D01*
X51724850Y-126487488D01*
X51842872Y-126506375D01*
X51993569Y-126528892D01*
X52181087Y-126555920D01*
X52232083Y-126563184D01*
X52448870Y-126593641D01*
X52656300Y-126621924D01*
X52859859Y-126648676D01*
X53065031Y-126674539D01*
X53277304Y-126700156D01*
X53502164Y-126726170D01*
X53745095Y-126753223D01*
X54011584Y-126781958D01*
X54307117Y-126813018D01*
X54637179Y-126847045D01*
X54776584Y-126861273D01*
X55028291Y-126886834D01*
X55241262Y-126908254D01*
X55418868Y-126925787D01*
X55564479Y-126939682D01*
X55681464Y-126950193D01*
X55773193Y-126957569D01*
X55843036Y-126962064D01*
X55894363Y-126963927D01*
X55930544Y-126963412D01*
X55954948Y-126960769D01*
X55970945Y-126956250D01*
X55980432Y-126951134D01*
X55995516Y-126932128D01*
X56033474Y-126880802D01*
X56092715Y-126799382D01*
X56171642Y-126690095D01*
X56197145Y-126654627D01*
X55668687Y-126654627D01*
X55655048Y-126664356D01*
X55609507Y-126664608D01*
X55584020Y-126661810D01*
X55542889Y-126656971D01*
X55464750Y-126648468D01*
X55354720Y-126636831D01*
X55217916Y-126622592D01*
X55059456Y-126606284D01*
X54884456Y-126588437D01*
X54698034Y-126569584D01*
X54645083Y-126564257D01*
X54380026Y-126537034D01*
X54106335Y-126507831D01*
X53828360Y-126477183D01*
X53550453Y-126445624D01*
X53276964Y-126413690D01*
X53012244Y-126381914D01*
X52760644Y-126350833D01*
X52526515Y-126320980D01*
X52314208Y-126292891D01*
X52128073Y-126267100D01*
X51972462Y-126244143D01*
X51851724Y-126224553D01*
X51792875Y-126213653D01*
X51734667Y-126201970D01*
X51734722Y-125319943D01*
X51735094Y-125109604D01*
X51736127Y-124894555D01*
X51737740Y-124682527D01*
X51739851Y-124481251D01*
X51742377Y-124298458D01*
X51745237Y-124141878D01*
X51748349Y-124019242D01*
X51748623Y-124010616D01*
X51762467Y-123583315D01*
X51859692Y-123631973D01*
X52066170Y-123719248D01*
X52308676Y-123793304D01*
X52582726Y-123853197D01*
X52883833Y-123897982D01*
X53207512Y-123926717D01*
X53279833Y-123930718D01*
X53394005Y-123933692D01*
X53535481Y-123933269D01*
X53694141Y-123929874D01*
X53859864Y-123923930D01*
X54022529Y-123915861D01*
X54172016Y-123906091D01*
X54298205Y-123895042D01*
X54381982Y-123884592D01*
X54457548Y-123872808D01*
X55059316Y-125253887D01*
X55158764Y-125482154D01*
X55253291Y-125699187D01*
X55341534Y-125901846D01*
X55422126Y-126086995D01*
X55493702Y-126251496D01*
X55554898Y-126392210D01*
X55604348Y-126506000D01*
X55640688Y-126589728D01*
X55662551Y-126640257D01*
X55668687Y-126654627D01*
X56197145Y-126654627D01*
X56268664Y-126555167D01*
X56382186Y-126396823D01*
X56510615Y-126217290D01*
X56652356Y-126018793D01*
X56805817Y-125803559D01*
X56969404Y-125573813D01*
X57141522Y-125331782D01*
X57320578Y-125079692D01*
X57355435Y-125030583D01*
X57588656Y-124701614D01*
X57797750Y-124405918D01*
X57983416Y-124142480D01*
X58146355Y-123910284D01*
X58287267Y-123708315D01*
X58406852Y-123535558D01*
X58505810Y-123390997D01*
X58584841Y-123273617D01*
X58644645Y-123182402D01*
X58685923Y-123116338D01*
X58709374Y-123074409D01*
X58712975Y-123064986D01*
X58386077Y-123064986D01*
X58374091Y-123084445D01*
X58339226Y-123136071D01*
X58283124Y-123217523D01*
X58207427Y-123326461D01*
X58113778Y-123460542D01*
X58003819Y-123617427D01*
X57879191Y-123794774D01*
X57741538Y-123990242D01*
X57592502Y-124201490D01*
X57433724Y-124426177D01*
X57266847Y-124661963D01*
X57161166Y-124811103D01*
X56960050Y-125094691D01*
X56781919Y-125345586D01*
X56625361Y-125565690D01*
X56488964Y-125756907D01*
X56371316Y-125921139D01*
X56271004Y-126060288D01*
X56186616Y-126176256D01*
X56116740Y-126270948D01*
X56059963Y-126346264D01*
X56014873Y-126404108D01*
X55980057Y-126446383D01*
X55954104Y-126474990D01*
X55935601Y-126491833D01*
X55923135Y-126498813D01*
X55915295Y-126497835D01*
X55912021Y-126493853D01*
X55899637Y-126467203D01*
X55871814Y-126405025D01*
X55829999Y-126310611D01*
X55775637Y-126187254D01*
X55710173Y-126038245D01*
X55635053Y-125866878D01*
X55551722Y-125676445D01*
X55461626Y-125470238D01*
X55366211Y-125251550D01*
X55311417Y-125125833D01*
X55213989Y-124902035D01*
X55121454Y-124689135D01*
X55035219Y-124490392D01*
X54956689Y-124309060D01*
X54887272Y-124148396D01*
X54828371Y-124011658D01*
X54781395Y-123902101D01*
X54747748Y-123822981D01*
X54728836Y-123777556D01*
X54725193Y-123768007D01*
X54735173Y-123743835D01*
X54768466Y-123686414D01*
X54824125Y-123597186D01*
X54901201Y-123477593D01*
X54998747Y-123329078D01*
X55115812Y-123153082D01*
X55251449Y-122951046D01*
X55404710Y-122724414D01*
X55574646Y-122474627D01*
X55609250Y-122423924D01*
X55753401Y-122212873D01*
X55890755Y-122011907D01*
X56019424Y-121823778D01*
X56137520Y-121651241D01*
X56243157Y-121497047D01*
X56334446Y-121363950D01*
X56409502Y-121254704D01*
X56466435Y-121172061D01*
X56503360Y-121118776D01*
X56518389Y-121097601D01*
X56518505Y-121097463D01*
X56534832Y-121109737D01*
X56577067Y-121149836D01*
X56642241Y-121214635D01*
X56727386Y-121301004D01*
X56829532Y-121405816D01*
X56945709Y-121525943D01*
X57072950Y-121658257D01*
X57208285Y-121799629D01*
X57348744Y-121946932D01*
X57491359Y-122097038D01*
X57633161Y-122246818D01*
X57771180Y-122393145D01*
X57902447Y-122532891D01*
X58023994Y-122662927D01*
X58132851Y-122780126D01*
X58226048Y-122881360D01*
X58300618Y-122963501D01*
X58353591Y-123023420D01*
X58381997Y-123057990D01*
X58386077Y-123064986D01*
X58712975Y-123064986D01*
X58715752Y-123057721D01*
X58716503Y-123033019D01*
X58710108Y-123007094D01*
X58693030Y-122975308D01*
X58661737Y-122933022D01*
X58612692Y-122875599D01*
X58542360Y-122798400D01*
X58447209Y-122696788D01*
X58413291Y-122660846D01*
X58302986Y-122542319D01*
X58219867Y-122449145D01*
X58164790Y-122382356D01*
X58138612Y-122342984D01*
X58140103Y-122331833D01*
X58204901Y-122329717D01*
X58294619Y-122323983D01*
X58399808Y-122315554D01*
X58511023Y-122305353D01*
X58618813Y-122294300D01*
X58713733Y-122283320D01*
X58786333Y-122273335D01*
X58827166Y-122265266D01*
X58829271Y-122264550D01*
X58875851Y-122237212D01*
X58899842Y-122208187D01*
X58902709Y-122181038D01*
X58905981Y-122115688D01*
X58909580Y-122016267D01*
X58913430Y-121886904D01*
X58917454Y-121731729D01*
X58921574Y-121554872D01*
X58925714Y-121360461D01*
X58929796Y-121152627D01*
X58933744Y-120935500D01*
X58937480Y-120713208D01*
X58940927Y-120489882D01*
X58944009Y-120269651D01*
X58946647Y-120056644D01*
X58948766Y-119854992D01*
X58950288Y-119668824D01*
X58951135Y-119502269D01*
X58951253Y-119453167D01*
X58951285Y-119432917D01*
X58668575Y-119432917D01*
X58668216Y-119526174D01*
X58667294Y-119648603D01*
X58665872Y-119795820D01*
X58664014Y-119963439D01*
X58661784Y-120147077D01*
X58659246Y-120342348D01*
X58656463Y-120544868D01*
X58653499Y-120750251D01*
X58650418Y-120954114D01*
X58647283Y-121152071D01*
X58644159Y-121339738D01*
X58641109Y-121512729D01*
X58638196Y-121666661D01*
X58635485Y-121797148D01*
X58633039Y-121899805D01*
X58630922Y-121970249D01*
X58629198Y-122004094D01*
X58628760Y-122006463D01*
X58606442Y-122010559D01*
X58550346Y-122017120D01*
X58468905Y-122025407D01*
X58370552Y-122034683D01*
X58263722Y-122044208D01*
X58156848Y-122053244D01*
X58058362Y-122061052D01*
X57976700Y-122066894D01*
X57920294Y-122070032D01*
X57900522Y-122070234D01*
X57874568Y-122055579D01*
X57824386Y-122012979D01*
X57749321Y-121941782D01*
X57648716Y-121841335D01*
X57521914Y-121710986D01*
X57368259Y-121550082D01*
X57227045Y-121400500D01*
X57093660Y-121259406D01*
X56967846Y-121127791D01*
X56852824Y-121008917D01*
X56829155Y-120984811D01*
X56236700Y-120984811D01*
X56226277Y-121003055D01*
X56193752Y-121053486D01*
X56140960Y-121133379D01*
X56069739Y-121240008D01*
X55981927Y-121370645D01*
X55879359Y-121522566D01*
X55763873Y-121693043D01*
X55637307Y-121879351D01*
X55501496Y-122078763D01*
X55358278Y-122288554D01*
X55353681Y-122295280D01*
X54463118Y-123598204D01*
X54278934Y-123611833D01*
X54191696Y-123618919D01*
X54118549Y-123626013D01*
X54071396Y-123631918D01*
X54063000Y-123633542D01*
X54034153Y-123635401D01*
X53968782Y-123636572D01*
X53872687Y-123637048D01*
X53751673Y-123636825D01*
X53611542Y-123635896D01*
X53458097Y-123634256D01*
X53449167Y-123634143D01*
X53238124Y-123630507D01*
X53064625Y-123625374D01*
X52923898Y-123618481D01*
X52811172Y-123609567D01*
X52721676Y-123598372D01*
X52687167Y-123592417D01*
X52574688Y-123568356D01*
X52448236Y-123537314D01*
X52333983Y-123505741D01*
X52327333Y-123503743D01*
X52246146Y-123476982D01*
X52153972Y-123443155D01*
X52059133Y-123405768D01*
X51969951Y-123368326D01*
X51894746Y-123334336D01*
X51841842Y-123307303D01*
X51819558Y-123290732D01*
X51819333Y-123289728D01*
X51831424Y-123271871D01*
X51866114Y-123223090D01*
X51921030Y-123146647D01*
X51993800Y-123045802D01*
X52082049Y-122923814D01*
X52183406Y-122783945D01*
X52295497Y-122629453D01*
X52415949Y-122463601D01*
X52542389Y-122289647D01*
X52672444Y-122110852D01*
X52803740Y-121930477D01*
X52933906Y-121751781D01*
X53060568Y-121578025D01*
X53181353Y-121412470D01*
X53293887Y-121258374D01*
X53395798Y-121119000D01*
X53484713Y-120997606D01*
X53558259Y-120897454D01*
X53614062Y-120821803D01*
X53649750Y-120773914D01*
X53662397Y-120757582D01*
X53687707Y-120754981D01*
X53748345Y-120759191D01*
X53837986Y-120769487D01*
X53950300Y-120785143D01*
X54077268Y-120805154D01*
X54318074Y-120842463D01*
X54556352Y-120873689D01*
X54800906Y-120899651D01*
X55060537Y-120921168D01*
X55344047Y-120939060D01*
X55660240Y-120954147D01*
X55691120Y-120955417D01*
X55837479Y-120961633D01*
X55969284Y-120967753D01*
X56080813Y-120973470D01*
X56166346Y-120978473D01*
X56220163Y-120982456D01*
X56236700Y-120984811D01*
X56829155Y-120984811D01*
X56751813Y-120906045D01*
X56668032Y-120822437D01*
X56604702Y-120761354D01*
X56565041Y-120726057D01*
X56553940Y-120718612D01*
X56520122Y-120713574D01*
X56450631Y-120707748D01*
X56352112Y-120701529D01*
X56231210Y-120695312D01*
X56094568Y-120689493D01*
X56017203Y-120686676D01*
X55877305Y-120681379D01*
X55751852Y-120675664D01*
X55646932Y-120669886D01*
X55568632Y-120664402D01*
X55523040Y-120659568D01*
X55513987Y-120657209D01*
X55520190Y-120636800D01*
X55541336Y-120583860D01*
X55574771Y-120504363D01*
X55617843Y-120404280D01*
X55667897Y-120289585D01*
X55722281Y-120166249D01*
X55778340Y-120040246D01*
X55833422Y-119917548D01*
X55884873Y-119804126D01*
X55930040Y-119705955D01*
X55966269Y-119629007D01*
X55990907Y-119579253D01*
X55999623Y-119564087D01*
X56020657Y-119565750D01*
X56074096Y-119574634D01*
X56150940Y-119589157D01*
X56210480Y-119601140D01*
X56511608Y-119653522D01*
X56816807Y-119688598D01*
X57116379Y-119705896D01*
X57400630Y-119704941D01*
X57659862Y-119685260D01*
X57732055Y-119675519D01*
X57893103Y-119644130D01*
X58066851Y-119598188D01*
X58239536Y-119542154D01*
X58397394Y-119480491D01*
X58525473Y-119418325D01*
X58591607Y-119382935D01*
X58641906Y-119358988D01*
X58666572Y-119351103D01*
X58667349Y-119351460D01*
X58668308Y-119373217D01*
X58668575Y-119432917D01*
X58951285Y-119432917D01*
X58951953Y-119017341D01*
X58618570Y-119017341D01*
X58557994Y-119066008D01*
X58489994Y-119111498D01*
X58393209Y-119164399D01*
X58279195Y-119219282D01*
X58159505Y-119270714D01*
X58045692Y-119313266D01*
X58002143Y-119327269D01*
X57775319Y-119381191D01*
X57521206Y-119415953D01*
X57250634Y-119430801D01*
X56974437Y-119424983D01*
X56804083Y-119410551D01*
X56671588Y-119393797D01*
X56605907Y-119383760D01*
X55743229Y-119383760D01*
X55738553Y-119409062D01*
X55717869Y-119467518D01*
X55683289Y-119554025D01*
X55636928Y-119663480D01*
X55580898Y-119790779D01*
X55517314Y-119930818D01*
X55510922Y-119944676D01*
X55444297Y-120088995D01*
X55381665Y-120224808D01*
X55325768Y-120346160D01*
X55279348Y-120447093D01*
X55245146Y-120521650D01*
X55225905Y-120563875D01*
X55225662Y-120564417D01*
X55187551Y-120649083D01*
X55075067Y-120643066D01*
X55010726Y-120638357D01*
X54916545Y-120629861D01*
X54804730Y-120618743D01*
X54687485Y-120606173D01*
X54676833Y-120604982D01*
X54505030Y-120584462D01*
X54352281Y-120563776D01*
X54223137Y-120543696D01*
X54122153Y-120524994D01*
X54053880Y-120508443D01*
X54022872Y-120494815D01*
X54022162Y-120493912D01*
X54007218Y-120472499D01*
X53970984Y-120421116D01*
X53968117Y-120417060D01*
X53606335Y-120417060D01*
X53604688Y-120430489D01*
X53593790Y-120437920D01*
X53576124Y-120444150D01*
X53571984Y-120445679D01*
X53550451Y-120466258D01*
X53505339Y-120519885D01*
X53437696Y-120605174D01*
X53348569Y-120720737D01*
X53239005Y-120865189D01*
X53110051Y-121037145D01*
X52962755Y-121235217D01*
X52798163Y-121458019D01*
X52617323Y-121704165D01*
X52496667Y-121869035D01*
X51470083Y-123273750D01*
X51456793Y-123976324D01*
X50944855Y-124243864D01*
X50809581Y-124314223D01*
X50686349Y-124377678D01*
X50580190Y-124431691D01*
X50496137Y-124473721D01*
X50439221Y-124501228D01*
X50414476Y-124511673D01*
X50414173Y-124511702D01*
X50409966Y-124491288D01*
X50406972Y-124432569D01*
X50405215Y-124339556D01*
X50404716Y-124216259D01*
X50405497Y-124066690D01*
X50407581Y-123894859D01*
X50409984Y-123755292D01*
X50415842Y-123474950D01*
X50422485Y-123199765D01*
X50429778Y-122933021D01*
X50437588Y-122678002D01*
X50445778Y-122437990D01*
X50454215Y-122216269D01*
X50462764Y-122016124D01*
X50471290Y-121840837D01*
X50479659Y-121693692D01*
X50487735Y-121577973D01*
X50495384Y-121496963D01*
X50499722Y-121470627D01*
X50214637Y-121470627D01*
X50201437Y-121652522D01*
X50189589Y-121838838D01*
X50178232Y-122062922D01*
X50167520Y-122320209D01*
X50157610Y-122606134D01*
X50148656Y-122916132D01*
X50140816Y-123245638D01*
X50134245Y-123590088D01*
X50133270Y-123649457D01*
X50119110Y-124533164D01*
X49852680Y-124392234D01*
X49734612Y-124328591D01*
X49595460Y-124251723D01*
X49450463Y-124170149D01*
X49314857Y-124092388D01*
X49279333Y-124071690D01*
X48882573Y-123835380D01*
X48456763Y-123573899D01*
X48005258Y-123289314D01*
X47903500Y-123224251D01*
X47775539Y-123141902D01*
X47638428Y-123053087D01*
X47496913Y-122960936D01*
X47355738Y-122868578D01*
X47219647Y-122779140D01*
X47093384Y-122695752D01*
X46981696Y-122621542D01*
X46889326Y-122559640D01*
X46821018Y-122513174D01*
X46781518Y-122485272D01*
X46774672Y-122479854D01*
X46776673Y-122455219D01*
X46795175Y-122396462D01*
X46828345Y-122307621D01*
X46874353Y-122192730D01*
X46931366Y-122055827D01*
X46997553Y-121900948D01*
X47071081Y-121732130D01*
X47150120Y-121553408D01*
X47232838Y-121368819D01*
X47317402Y-121182399D01*
X47401980Y-120998186D01*
X47484742Y-120820215D01*
X47563856Y-120652523D01*
X47637489Y-120499145D01*
X47703809Y-120364119D01*
X47760986Y-120251481D01*
X47807188Y-120165267D01*
X47840582Y-120109514D01*
X47859337Y-120088258D01*
X47860043Y-120088167D01*
X47878926Y-120102387D01*
X47921076Y-120141130D01*
X47980302Y-120198521D01*
X48050409Y-120268681D01*
X48052134Y-120270433D01*
X48366785Y-120565234D01*
X48691078Y-120820459D01*
X49023849Y-121035242D01*
X49218550Y-121140077D01*
X49372533Y-121210653D01*
X49549261Y-121281164D01*
X49734128Y-121346475D01*
X49912532Y-121401449D01*
X50069866Y-121440952D01*
X50080360Y-121443138D01*
X50214637Y-121470627D01*
X50499722Y-121470627D01*
X50502471Y-121453945D01*
X50504598Y-121448741D01*
X50524741Y-121434213D01*
X50577499Y-121399885D01*
X50659410Y-121347883D01*
X50767009Y-121280333D01*
X50896832Y-121199362D01*
X51045415Y-121107096D01*
X51209293Y-121005660D01*
X51385002Y-120897181D01*
X51569079Y-120783785D01*
X51758059Y-120667598D01*
X51948478Y-120550747D01*
X52136872Y-120435357D01*
X52319777Y-120323555D01*
X52493728Y-120217467D01*
X52655262Y-120119219D01*
X52800915Y-120030937D01*
X52927221Y-119954748D01*
X53030718Y-119892777D01*
X53107941Y-119847151D01*
X53155426Y-119819996D01*
X53169684Y-119813000D01*
X53188539Y-119829437D01*
X53226909Y-119874868D01*
X53280223Y-119943473D01*
X53343911Y-120029433D01*
X53388896Y-120092124D01*
X53470751Y-120207468D01*
X53530940Y-120292838D01*
X53571944Y-120353030D01*
X53596248Y-120392839D01*
X53606335Y-120417060D01*
X53968117Y-120417060D01*
X53916678Y-120344309D01*
X53847519Y-120246626D01*
X53766725Y-120132614D01*
X53677512Y-120006821D01*
X53661180Y-119983802D01*
X53393062Y-119605931D01*
X52942646Y-119605931D01*
X51645448Y-120405876D01*
X51396733Y-120559159D01*
X51181410Y-120691591D01*
X50996909Y-120804653D01*
X50840655Y-120899824D01*
X50710078Y-120978584D01*
X50602605Y-121042413D01*
X50515664Y-121092789D01*
X50446681Y-121131193D01*
X50393086Y-121159104D01*
X50352306Y-121178002D01*
X50321768Y-121189367D01*
X50298901Y-121194677D01*
X50281131Y-121195413D01*
X50274167Y-121194654D01*
X50220308Y-121184356D01*
X50139600Y-121166367D01*
X50046102Y-121143879D01*
X50006442Y-121133871D01*
X49679964Y-121032447D01*
X49366450Y-120898047D01*
X49062698Y-120728723D01*
X48765510Y-120522526D01*
X48471686Y-120277505D01*
X48246033Y-120061474D01*
X48048815Y-119862257D01*
X49420783Y-119078452D01*
X50792750Y-118294647D01*
X50888000Y-118366750D01*
X51108512Y-118525697D01*
X51368534Y-118698634D01*
X51667702Y-118885337D01*
X52005649Y-119085583D01*
X52382012Y-119299147D01*
X52640281Y-119441301D01*
X52942646Y-119605931D01*
X53393062Y-119605931D01*
X53312276Y-119492076D01*
X53036763Y-119336953D01*
X52907963Y-119264750D01*
X52760119Y-119182370D01*
X52611364Y-119099892D01*
X52479827Y-119027391D01*
X52478123Y-119026456D01*
X52356370Y-118957879D01*
X52266551Y-118902650D01*
X52202216Y-118856252D01*
X52156919Y-118814169D01*
X52132941Y-118784658D01*
X52070887Y-118698232D01*
X52670068Y-118107442D01*
X52822644Y-117957014D01*
X52983841Y-117798106D01*
X53146941Y-117637337D01*
X53305227Y-117481330D01*
X53451982Y-117336705D01*
X53580487Y-117210082D01*
X53662810Y-117128981D01*
X54056370Y-116741311D01*
X54892378Y-118049614D01*
X55028649Y-118262905D01*
X55158414Y-118466081D01*
X55279849Y-118656281D01*
X55391129Y-118830642D01*
X55490428Y-118986305D01*
X55575922Y-119120406D01*
X55645785Y-119230085D01*
X55698194Y-119312481D01*
X55731322Y-119364730D01*
X55743229Y-119383760D01*
X56605907Y-119383760D01*
X56534146Y-119372794D01*
X56398829Y-119349007D01*
X56272705Y-119323901D01*
X56162842Y-119298940D01*
X56076311Y-119275590D01*
X56020181Y-119255315D01*
X56003506Y-119244663D01*
X55987256Y-119221421D01*
X55950126Y-119165427D01*
X55894011Y-119079613D01*
X55820805Y-118966912D01*
X55732403Y-118830257D01*
X55630700Y-118672581D01*
X55517591Y-118496815D01*
X55394970Y-118305894D01*
X55264733Y-118102748D01*
X55158625Y-117936986D01*
X54344446Y-116664221D01*
X55203848Y-116653190D01*
X55453592Y-116649485D01*
X55667196Y-116645120D01*
X55850851Y-116639823D01*
X56010747Y-116633322D01*
X56153077Y-116625348D01*
X56284031Y-116615630D01*
X56409800Y-116603895D01*
X56465417Y-116597988D01*
X56592347Y-116584172D01*
X56705440Y-116572097D01*
X56797717Y-116562490D01*
X56862196Y-116556077D01*
X56891898Y-116553584D01*
X56892307Y-116553575D01*
X56908131Y-116570525D01*
X56945928Y-116619602D01*
X57003722Y-116698025D01*
X57079535Y-116803014D01*
X57171392Y-116931789D01*
X57277316Y-117081568D01*
X57395332Y-117249572D01*
X57523462Y-117433019D01*
X57659730Y-117629130D01*
X57767801Y-117785337D01*
X58618570Y-119017341D01*
X58951953Y-119017341D01*
X58951985Y-118998083D01*
X58030885Y-117664583D01*
X57883285Y-117451136D01*
X57741936Y-117247185D01*
X57608784Y-117055510D01*
X57485773Y-116878892D01*
X57374850Y-116720109D01*
X57277960Y-116581942D01*
X57197050Y-116467169D01*
X57134065Y-116378572D01*
X57090950Y-116318928D01*
X57069652Y-116291018D01*
X57068608Y-116289886D01*
X57051294Y-116274171D01*
X57031617Y-116264008D01*
X57002437Y-116259313D01*
X56956613Y-116259997D01*
G37*
X56956613Y-116259997D02*
X56887006Y-116265974D01*
X56786476Y-116277157D01*
X56714674Y-116285583D01*
X56558316Y-116303733D01*
X56419592Y-116318952D01*
X56292439Y-116331560D01*
X56170792Y-116341878D01*
X56048585Y-116350226D01*
X55919754Y-116356925D01*
X55778235Y-116362296D01*
X55617963Y-116366660D01*
X55432872Y-116370336D01*
X55216900Y-116373645D01*
X54994333Y-116376536D01*
X54010083Y-116388697D01*
X53565583Y-116826162D01*
X53450143Y-116939732D01*
X53310746Y-117076798D01*
X53153655Y-117231207D01*
X52985131Y-117396807D01*
X52811435Y-117567446D01*
X52638828Y-117736969D01*
X52473573Y-117899226D01*
X52436525Y-117935595D01*
X51751966Y-118607562D01*
X51674525Y-118561092D01*
X51601105Y-118514734D01*
X51503151Y-118449637D01*
X51390089Y-118372338D01*
X51271345Y-118289369D01*
X51156345Y-118207268D01*
X51054517Y-118132568D01*
X51032125Y-118115741D01*
X50930544Y-118044569D01*
X50854055Y-118003399D01*
X50810942Y-117992667D01*
X50785016Y-118002901D01*
X50725751Y-118032343D01*
X50636509Y-118079099D01*
X50520651Y-118141273D01*
X50381539Y-118216973D01*
X50222534Y-118304305D01*
X50046998Y-118401374D01*
X49858290Y-118506287D01*
X49659774Y-118617150D01*
X49454809Y-118732069D01*
X49246758Y-118849149D01*
X49038982Y-118966498D01*
X48834842Y-119082221D01*
X48637698Y-119194424D01*
X48450914Y-119301214D01*
X48277849Y-119400696D01*
X48121865Y-119490976D01*
X47986324Y-119570162D01*
X47874586Y-119636358D01*
X47790013Y-119687671D01*
X47735967Y-119722206D01*
X47718292Y-119735209D01*
X47683851Y-119777536D01*
X47670667Y-119814526D01*
X47660137Y-119849643D01*
X47632372Y-119908329D01*
X47593115Y-119978596D01*
X47588213Y-119986729D01*
X47526213Y-120093735D01*
X47456732Y-120223381D01*
X47378098Y-120379054D01*
X47288635Y-120564141D01*
X47186670Y-120782031D01*
X47080339Y-121014463D01*
X46984124Y-121228040D01*
X46890927Y-121437660D01*
X46802326Y-121639576D01*
X46719901Y-121830041D01*
X46645230Y-122005309D01*
X46579891Y-122161633D01*
X46525463Y-122295266D01*
X46483525Y-122402461D01*
X46455655Y-122479471D01*
X46443433Y-122522551D01*
X46443000Y-122527145D01*
X46458174Y-122578476D01*
X46490625Y-122621961D01*
X46522093Y-122646207D01*
X46584471Y-122690446D01*
X46673166Y-122751617D01*
X46783582Y-122826657D01*
X46911126Y-122912504D01*
X47051204Y-123006096D01*
X47199221Y-123104372D01*
X47350583Y-123204270D01*
X47500697Y-123302727D01*
X47644967Y-123396681D01*
X47778799Y-123483071D01*
X47871750Y-123542449D01*
X48147884Y-123716436D01*
X48418130Y-123884007D01*
X48679936Y-124043719D01*
X48930746Y-124194129D01*
X49168007Y-124333791D01*
X49389164Y-124461262D01*
X49591663Y-124575098D01*
X49772950Y-124673855D01*
X49930471Y-124756088D01*
X50061671Y-124820353D01*
X50163997Y-124865207D01*
X50234894Y-124889206D01*
X50260478Y-124893000D01*
X50294589Y-124883430D01*
X50360104Y-124856547D01*
X50451144Y-124815088D01*
X50561830Y-124761789D01*
X50686282Y-124699390D01*
X50777222Y-124652398D01*
X50912090Y-124581944D01*
X51040938Y-124514790D01*
X51156921Y-124454492D01*
X51253192Y-124404606D01*
X51322905Y-124368688D01*
X51349067Y-124355358D01*
X51460884Y-124298919D01*
X51458766Y-125331501D01*
X51458629Y-125537592D01*
X51459049Y-125731469D01*
X51459979Y-125908881D01*
X51461371Y-126065575D01*
X51463176Y-126197298D01*
X51465347Y-126299799D01*
X51467836Y-126368826D01*
X51470594Y-126400125D01*
X51470834Y-126400895D01*
X51479831Y-126416563D01*
X51496638Y-126430558D01*
X51525399Y-126443765D01*
X51570258Y-126457066D01*
X51635361Y-126471346D01*
X51724850Y-126487488D01*
X51842872Y-126506375D01*
X51993569Y-126528892D01*
X52181087Y-126555920D01*
X52232083Y-126563184D01*
X52448870Y-126593641D01*
X52656300Y-126621924D01*
X52859859Y-126648676D01*
X53065031Y-126674539D01*
X53277304Y-126700156D01*
X53502164Y-126726170D01*
X53745095Y-126753223D01*
X54011584Y-126781958D01*
X54307117Y-126813018D01*
X54637179Y-126847045D01*
X54776584Y-126861273D01*
X55028291Y-126886834D01*
X55241262Y-126908254D01*
X55418868Y-126925787D01*
X55564479Y-126939682D01*
X55681464Y-126950193D01*
X55773193Y-126957569D01*
X55843036Y-126962064D01*
X55894363Y-126963927D01*
X55930544Y-126963412D01*
X55954948Y-126960769D01*
X55970945Y-126956250D01*
X55980432Y-126951134D01*
X55995516Y-126932128D01*
X56033474Y-126880802D01*
X56092715Y-126799382D01*
X56171642Y-126690095D01*
X56197145Y-126654627D01*
X55668687Y-126654627D01*
X55655048Y-126664356D01*
X55609507Y-126664608D01*
X55584020Y-126661810D01*
X55542889Y-126656971D01*
X55464750Y-126648468D01*
X55354720Y-126636831D01*
X55217916Y-126622592D01*
X55059456Y-126606284D01*
X54884456Y-126588437D01*
X54698034Y-126569584D01*
X54645083Y-126564257D01*
X54380026Y-126537034D01*
X54106335Y-126507831D01*
X53828360Y-126477183D01*
X53550453Y-126445624D01*
X53276964Y-126413690D01*
X53012244Y-126381914D01*
X52760644Y-126350833D01*
X52526515Y-126320980D01*
X52314208Y-126292891D01*
X52128073Y-126267100D01*
X51972462Y-126244143D01*
X51851724Y-126224553D01*
X51792875Y-126213653D01*
X51734667Y-126201970D01*
X51734722Y-125319943D01*
X51735094Y-125109604D01*
X51736127Y-124894555D01*
X51737740Y-124682527D01*
X51739851Y-124481251D01*
X51742377Y-124298458D01*
X51745237Y-124141878D01*
X51748349Y-124019242D01*
X51748623Y-124010616D01*
X51762467Y-123583315D01*
X51859692Y-123631973D01*
X52066170Y-123719248D01*
X52308676Y-123793304D01*
X52582726Y-123853197D01*
X52883833Y-123897982D01*
X53207512Y-123926717D01*
X53279833Y-123930718D01*
X53394005Y-123933692D01*
X53535481Y-123933269D01*
X53694141Y-123929874D01*
X53859864Y-123923930D01*
X54022529Y-123915861D01*
X54172016Y-123906091D01*
X54298205Y-123895042D01*
X54381982Y-123884592D01*
X54457548Y-123872808D01*
X55059316Y-125253887D01*
X55158764Y-125482154D01*
X55253291Y-125699187D01*
X55341534Y-125901846D01*
X55422126Y-126086995D01*
X55493702Y-126251496D01*
X55554898Y-126392210D01*
X55604348Y-126506000D01*
X55640688Y-126589728D01*
X55662551Y-126640257D01*
X55668687Y-126654627D01*
X56197145Y-126654627D01*
X56268664Y-126555167D01*
X56382186Y-126396823D01*
X56510615Y-126217290D01*
X56652356Y-126018793D01*
X56805817Y-125803559D01*
X56969404Y-125573813D01*
X57141522Y-125331782D01*
X57320578Y-125079692D01*
X57355435Y-125030583D01*
X57588656Y-124701614D01*
X57797750Y-124405918D01*
X57983416Y-124142480D01*
X58146355Y-123910284D01*
X58287267Y-123708315D01*
X58406852Y-123535558D01*
X58505810Y-123390997D01*
X58584841Y-123273617D01*
X58644645Y-123182402D01*
X58685923Y-123116338D01*
X58709374Y-123074409D01*
X58712975Y-123064986D01*
X58386077Y-123064986D01*
X58374091Y-123084445D01*
X58339226Y-123136071D01*
X58283124Y-123217523D01*
X58207427Y-123326461D01*
X58113778Y-123460542D01*
X58003819Y-123617427D01*
X57879191Y-123794774D01*
X57741538Y-123990242D01*
X57592502Y-124201490D01*
X57433724Y-124426177D01*
X57266847Y-124661963D01*
X57161166Y-124811103D01*
X56960050Y-125094691D01*
X56781919Y-125345586D01*
X56625361Y-125565690D01*
X56488964Y-125756907D01*
X56371316Y-125921139D01*
X56271004Y-126060288D01*
X56186616Y-126176256D01*
X56116740Y-126270948D01*
X56059963Y-126346264D01*
X56014873Y-126404108D01*
X55980057Y-126446383D01*
X55954104Y-126474990D01*
X55935601Y-126491833D01*
X55923135Y-126498813D01*
X55915295Y-126497835D01*
X55912021Y-126493853D01*
X55899637Y-126467203D01*
X55871814Y-126405025D01*
X55829999Y-126310611D01*
X55775637Y-126187254D01*
X55710173Y-126038245D01*
X55635053Y-125866878D01*
X55551722Y-125676445D01*
X55461626Y-125470238D01*
X55366211Y-125251550D01*
X55311417Y-125125833D01*
X55213989Y-124902035D01*
X55121454Y-124689135D01*
X55035219Y-124490392D01*
X54956689Y-124309060D01*
X54887272Y-124148396D01*
X54828371Y-124011658D01*
X54781395Y-123902101D01*
X54747748Y-123822981D01*
X54728836Y-123777556D01*
X54725193Y-123768007D01*
X54735173Y-123743835D01*
X54768466Y-123686414D01*
X54824125Y-123597186D01*
X54901201Y-123477593D01*
X54998747Y-123329078D01*
X55115812Y-123153082D01*
X55251449Y-122951046D01*
X55404710Y-122724414D01*
X55574646Y-122474627D01*
X55609250Y-122423924D01*
X55753401Y-122212873D01*
X55890755Y-122011907D01*
X56019424Y-121823778D01*
X56137520Y-121651241D01*
X56243157Y-121497047D01*
X56334446Y-121363950D01*
X56409502Y-121254704D01*
X56466435Y-121172061D01*
X56503360Y-121118776D01*
X56518389Y-121097601D01*
X56518505Y-121097463D01*
X56534832Y-121109737D01*
X56577067Y-121149836D01*
X56642241Y-121214635D01*
X56727386Y-121301004D01*
X56829532Y-121405816D01*
X56945709Y-121525943D01*
X57072950Y-121658257D01*
X57208285Y-121799629D01*
X57348744Y-121946932D01*
X57491359Y-122097038D01*
X57633161Y-122246818D01*
X57771180Y-122393145D01*
X57902447Y-122532891D01*
X58023994Y-122662927D01*
X58132851Y-122780126D01*
X58226048Y-122881360D01*
X58300618Y-122963501D01*
X58353591Y-123023420D01*
X58381997Y-123057990D01*
X58386077Y-123064986D01*
X58712975Y-123064986D01*
X58715752Y-123057721D01*
X58716503Y-123033019D01*
X58710108Y-123007094D01*
X58693030Y-122975308D01*
X58661737Y-122933022D01*
X58612692Y-122875599D01*
X58542360Y-122798400D01*
X58447209Y-122696788D01*
X58413291Y-122660846D01*
X58302986Y-122542319D01*
X58219867Y-122449145D01*
X58164790Y-122382356D01*
X58138612Y-122342984D01*
X58140103Y-122331833D01*
X58204901Y-122329717D01*
X58294619Y-122323983D01*
X58399808Y-122315554D01*
X58511023Y-122305353D01*
X58618813Y-122294300D01*
X58713733Y-122283320D01*
X58786333Y-122273335D01*
X58827166Y-122265266D01*
X58829271Y-122264550D01*
X58875851Y-122237212D01*
X58899842Y-122208187D01*
X58902709Y-122181038D01*
X58905981Y-122115688D01*
X58909580Y-122016267D01*
X58913430Y-121886904D01*
X58917454Y-121731729D01*
X58921574Y-121554872D01*
X58925714Y-121360461D01*
X58929796Y-121152627D01*
X58933744Y-120935500D01*
X58937480Y-120713208D01*
X58940927Y-120489882D01*
X58944009Y-120269651D01*
X58946647Y-120056644D01*
X58948766Y-119854992D01*
X58950288Y-119668824D01*
X58951135Y-119502269D01*
X58951253Y-119453167D01*
X58951285Y-119432917D01*
X58668575Y-119432917D01*
X58668216Y-119526174D01*
X58667294Y-119648603D01*
X58665872Y-119795820D01*
X58664014Y-119963439D01*
X58661784Y-120147077D01*
X58659246Y-120342348D01*
X58656463Y-120544868D01*
X58653499Y-120750251D01*
X58650418Y-120954114D01*
X58647283Y-121152071D01*
X58644159Y-121339738D01*
X58641109Y-121512729D01*
X58638196Y-121666661D01*
X58635485Y-121797148D01*
X58633039Y-121899805D01*
X58630922Y-121970249D01*
X58629198Y-122004094D01*
X58628760Y-122006463D01*
X58606442Y-122010559D01*
X58550346Y-122017120D01*
X58468905Y-122025407D01*
X58370552Y-122034683D01*
X58263722Y-122044208D01*
X58156848Y-122053244D01*
X58058362Y-122061052D01*
X57976700Y-122066894D01*
X57920294Y-122070032D01*
X57900522Y-122070234D01*
X57874568Y-122055579D01*
X57824386Y-122012979D01*
X57749321Y-121941782D01*
X57648716Y-121841335D01*
X57521914Y-121710986D01*
X57368259Y-121550082D01*
X57227045Y-121400500D01*
X57093660Y-121259406D01*
X56967846Y-121127791D01*
X56852824Y-121008917D01*
X56829155Y-120984811D01*
X56236700Y-120984811D01*
X56226277Y-121003055D01*
X56193752Y-121053486D01*
X56140960Y-121133379D01*
X56069739Y-121240008D01*
X55981927Y-121370645D01*
X55879359Y-121522566D01*
X55763873Y-121693043D01*
X55637307Y-121879351D01*
X55501496Y-122078763D01*
X55358278Y-122288554D01*
X55353681Y-122295280D01*
X54463118Y-123598204D01*
X54278934Y-123611833D01*
X54191696Y-123618919D01*
X54118549Y-123626013D01*
X54071396Y-123631918D01*
X54063000Y-123633542D01*
X54034153Y-123635401D01*
X53968782Y-123636572D01*
X53872687Y-123637048D01*
X53751673Y-123636825D01*
X53611542Y-123635896D01*
X53458097Y-123634256D01*
X53449167Y-123634143D01*
X53238124Y-123630507D01*
X53064625Y-123625374D01*
X52923898Y-123618481D01*
X52811172Y-123609567D01*
X52721676Y-123598372D01*
X52687167Y-123592417D01*
X52574688Y-123568356D01*
X52448236Y-123537314D01*
X52333983Y-123505741D01*
X52327333Y-123503743D01*
X52246146Y-123476982D01*
X52153972Y-123443155D01*
X52059133Y-123405768D01*
X51969951Y-123368326D01*
X51894746Y-123334336D01*
X51841842Y-123307303D01*
X51819558Y-123290732D01*
X51819333Y-123289728D01*
X51831424Y-123271871D01*
X51866114Y-123223090D01*
X51921030Y-123146647D01*
X51993800Y-123045802D01*
X52082049Y-122923814D01*
X52183406Y-122783945D01*
X52295497Y-122629453D01*
X52415949Y-122463601D01*
X52542389Y-122289647D01*
X52672444Y-122110852D01*
X52803740Y-121930477D01*
X52933906Y-121751781D01*
X53060568Y-121578025D01*
X53181353Y-121412470D01*
X53293887Y-121258374D01*
X53395798Y-121119000D01*
X53484713Y-120997606D01*
X53558259Y-120897454D01*
X53614062Y-120821803D01*
X53649750Y-120773914D01*
X53662397Y-120757582D01*
X53687707Y-120754981D01*
X53748345Y-120759191D01*
X53837986Y-120769487D01*
X53950300Y-120785143D01*
X54077268Y-120805154D01*
X54318074Y-120842463D01*
X54556352Y-120873689D01*
X54800906Y-120899651D01*
X55060537Y-120921168D01*
X55344047Y-120939060D01*
X55660240Y-120954147D01*
X55691120Y-120955417D01*
X55837479Y-120961633D01*
X55969284Y-120967753D01*
X56080813Y-120973470D01*
X56166346Y-120978473D01*
X56220163Y-120982456D01*
X56236700Y-120984811D01*
X56829155Y-120984811D01*
X56751813Y-120906045D01*
X56668032Y-120822437D01*
X56604702Y-120761354D01*
X56565041Y-120726057D01*
X56553940Y-120718612D01*
X56520122Y-120713574D01*
X56450631Y-120707748D01*
X56352112Y-120701529D01*
X56231210Y-120695312D01*
X56094568Y-120689493D01*
X56017203Y-120686676D01*
X55877305Y-120681379D01*
X55751852Y-120675664D01*
X55646932Y-120669886D01*
X55568632Y-120664402D01*
X55523040Y-120659568D01*
X55513987Y-120657209D01*
X55520190Y-120636800D01*
X55541336Y-120583860D01*
X55574771Y-120504363D01*
X55617843Y-120404280D01*
X55667897Y-120289585D01*
X55722281Y-120166249D01*
X55778340Y-120040246D01*
X55833422Y-119917548D01*
X55884873Y-119804126D01*
X55930040Y-119705955D01*
X55966269Y-119629007D01*
X55990907Y-119579253D01*
X55999623Y-119564087D01*
X56020657Y-119565750D01*
X56074096Y-119574634D01*
X56150940Y-119589157D01*
X56210480Y-119601140D01*
X56511608Y-119653522D01*
X56816807Y-119688598D01*
X57116379Y-119705896D01*
X57400630Y-119704941D01*
X57659862Y-119685260D01*
X57732055Y-119675519D01*
X57893103Y-119644130D01*
X58066851Y-119598188D01*
X58239536Y-119542154D01*
X58397394Y-119480491D01*
X58525473Y-119418325D01*
X58591607Y-119382935D01*
X58641906Y-119358988D01*
X58666572Y-119351103D01*
X58667349Y-119351460D01*
X58668308Y-119373217D01*
X58668575Y-119432917D01*
X58951285Y-119432917D01*
X58951953Y-119017341D01*
X58618570Y-119017341D01*
X58557994Y-119066008D01*
X58489994Y-119111498D01*
X58393209Y-119164399D01*
X58279195Y-119219282D01*
X58159505Y-119270714D01*
X58045692Y-119313266D01*
X58002143Y-119327269D01*
X57775319Y-119381191D01*
X57521206Y-119415953D01*
X57250634Y-119430801D01*
X56974437Y-119424983D01*
X56804083Y-119410551D01*
X56671588Y-119393797D01*
X56605907Y-119383760D01*
X55743229Y-119383760D01*
X55738553Y-119409062D01*
X55717869Y-119467518D01*
X55683289Y-119554025D01*
X55636928Y-119663480D01*
X55580898Y-119790779D01*
X55517314Y-119930818D01*
X55510922Y-119944676D01*
X55444297Y-120088995D01*
X55381665Y-120224808D01*
X55325768Y-120346160D01*
X55279348Y-120447093D01*
X55245146Y-120521650D01*
X55225905Y-120563875D01*
X55225662Y-120564417D01*
X55187551Y-120649083D01*
X55075067Y-120643066D01*
X55010726Y-120638357D01*
X54916545Y-120629861D01*
X54804730Y-120618743D01*
X54687485Y-120606173D01*
X54676833Y-120604982D01*
X54505030Y-120584462D01*
X54352281Y-120563776D01*
X54223137Y-120543696D01*
X54122153Y-120524994D01*
X54053880Y-120508443D01*
X54022872Y-120494815D01*
X54022162Y-120493912D01*
X54007218Y-120472499D01*
X53970984Y-120421116D01*
X53968117Y-120417060D01*
X53606335Y-120417060D01*
X53604688Y-120430489D01*
X53593790Y-120437920D01*
X53576124Y-120444150D01*
X53571984Y-120445679D01*
X53550451Y-120466258D01*
X53505339Y-120519885D01*
X53437696Y-120605174D01*
X53348569Y-120720737D01*
X53239005Y-120865189D01*
X53110051Y-121037145D01*
X52962755Y-121235217D01*
X52798163Y-121458019D01*
X52617323Y-121704165D01*
X52496667Y-121869035D01*
X51470083Y-123273750D01*
X51456793Y-123976324D01*
X50944855Y-124243864D01*
X50809581Y-124314223D01*
X50686349Y-124377678D01*
X50580190Y-124431691D01*
X50496137Y-124473721D01*
X50439221Y-124501228D01*
X50414476Y-124511673D01*
X50414173Y-124511702D01*
X50409966Y-124491288D01*
X50406972Y-124432569D01*
X50405215Y-124339556D01*
X50404716Y-124216259D01*
X50405497Y-124066690D01*
X50407581Y-123894859D01*
X50409984Y-123755292D01*
X50415842Y-123474950D01*
X50422485Y-123199765D01*
X50429778Y-122933021D01*
X50437588Y-122678002D01*
X50445778Y-122437990D01*
X50454215Y-122216269D01*
X50462764Y-122016124D01*
X50471290Y-121840837D01*
X50479659Y-121693692D01*
X50487735Y-121577973D01*
X50495384Y-121496963D01*
X50499722Y-121470627D01*
X50214637Y-121470627D01*
X50201437Y-121652522D01*
X50189589Y-121838838D01*
X50178232Y-122062922D01*
X50167520Y-122320209D01*
X50157610Y-122606134D01*
X50148656Y-122916132D01*
X50140816Y-123245638D01*
X50134245Y-123590088D01*
X50133270Y-123649457D01*
X50119110Y-124533164D01*
X49852680Y-124392234D01*
X49734612Y-124328591D01*
X49595460Y-124251723D01*
X49450463Y-124170149D01*
X49314857Y-124092388D01*
X49279333Y-124071690D01*
X48882573Y-123835380D01*
X48456763Y-123573899D01*
X48005258Y-123289314D01*
X47903500Y-123224251D01*
X47775539Y-123141902D01*
X47638428Y-123053087D01*
X47496913Y-122960936D01*
X47355738Y-122868578D01*
X47219647Y-122779140D01*
X47093384Y-122695752D01*
X46981696Y-122621542D01*
X46889326Y-122559640D01*
X46821018Y-122513174D01*
X46781518Y-122485272D01*
X46774672Y-122479854D01*
X46776673Y-122455219D01*
X46795175Y-122396462D01*
X46828345Y-122307621D01*
X46874353Y-122192730D01*
X46931366Y-122055827D01*
X46997553Y-121900948D01*
X47071081Y-121732130D01*
X47150120Y-121553408D01*
X47232838Y-121368819D01*
X47317402Y-121182399D01*
X47401980Y-120998186D01*
X47484742Y-120820215D01*
X47563856Y-120652523D01*
X47637489Y-120499145D01*
X47703809Y-120364119D01*
X47760986Y-120251481D01*
X47807188Y-120165267D01*
X47840582Y-120109514D01*
X47859337Y-120088258D01*
X47860043Y-120088167D01*
X47878926Y-120102387D01*
X47921076Y-120141130D01*
X47980302Y-120198521D01*
X48050409Y-120268681D01*
X48052134Y-120270433D01*
X48366785Y-120565234D01*
X48691078Y-120820459D01*
X49023849Y-121035242D01*
X49218550Y-121140077D01*
X49372533Y-121210653D01*
X49549261Y-121281164D01*
X49734128Y-121346475D01*
X49912532Y-121401449D01*
X50069866Y-121440952D01*
X50080360Y-121443138D01*
X50214637Y-121470627D01*
X50499722Y-121470627D01*
X50502471Y-121453945D01*
X50504598Y-121448741D01*
X50524741Y-121434213D01*
X50577499Y-121399885D01*
X50659410Y-121347883D01*
X50767009Y-121280333D01*
X50896832Y-121199362D01*
X51045415Y-121107096D01*
X51209293Y-121005660D01*
X51385002Y-120897181D01*
X51569079Y-120783785D01*
X51758059Y-120667598D01*
X51948478Y-120550747D01*
X52136872Y-120435357D01*
X52319777Y-120323555D01*
X52493728Y-120217467D01*
X52655262Y-120119219D01*
X52800915Y-120030937D01*
X52927221Y-119954748D01*
X53030718Y-119892777D01*
X53107941Y-119847151D01*
X53155426Y-119819996D01*
X53169684Y-119813000D01*
X53188539Y-119829437D01*
X53226909Y-119874868D01*
X53280223Y-119943473D01*
X53343911Y-120029433D01*
X53388896Y-120092124D01*
X53470751Y-120207468D01*
X53530940Y-120292838D01*
X53571944Y-120353030D01*
X53596248Y-120392839D01*
X53606335Y-120417060D01*
X53968117Y-120417060D01*
X53916678Y-120344309D01*
X53847519Y-120246626D01*
X53766725Y-120132614D01*
X53677512Y-120006821D01*
X53661180Y-119983802D01*
X53393062Y-119605931D01*
X52942646Y-119605931D01*
X51645448Y-120405876D01*
X51396733Y-120559159D01*
X51181410Y-120691591D01*
X50996909Y-120804653D01*
X50840655Y-120899824D01*
X50710078Y-120978584D01*
X50602605Y-121042413D01*
X50515664Y-121092789D01*
X50446681Y-121131193D01*
X50393086Y-121159104D01*
X50352306Y-121178002D01*
X50321768Y-121189367D01*
X50298901Y-121194677D01*
X50281131Y-121195413D01*
X50274167Y-121194654D01*
X50220308Y-121184356D01*
X50139600Y-121166367D01*
X50046102Y-121143879D01*
X50006442Y-121133871D01*
X49679964Y-121032447D01*
X49366450Y-120898047D01*
X49062698Y-120728723D01*
X48765510Y-120522526D01*
X48471686Y-120277505D01*
X48246033Y-120061474D01*
X48048815Y-119862257D01*
X49420783Y-119078452D01*
X50792750Y-118294647D01*
X50888000Y-118366750D01*
X51108512Y-118525697D01*
X51368534Y-118698634D01*
X51667702Y-118885337D01*
X52005649Y-119085583D01*
X52382012Y-119299147D01*
X52640281Y-119441301D01*
X52942646Y-119605931D01*
X53393062Y-119605931D01*
X53312276Y-119492076D01*
X53036763Y-119336953D01*
X52907963Y-119264750D01*
X52760119Y-119182370D01*
X52611364Y-119099892D01*
X52479827Y-119027391D01*
X52478123Y-119026456D01*
X52356370Y-118957879D01*
X52266551Y-118902650D01*
X52202216Y-118856252D01*
X52156919Y-118814169D01*
X52132941Y-118784658D01*
X52070887Y-118698232D01*
X52670068Y-118107442D01*
X52822644Y-117957014D01*
X52983841Y-117798106D01*
X53146941Y-117637337D01*
X53305227Y-117481330D01*
X53451982Y-117336705D01*
X53580487Y-117210082D01*
X53662810Y-117128981D01*
X54056370Y-116741311D01*
X54892378Y-118049614D01*
X55028649Y-118262905D01*
X55158414Y-118466081D01*
X55279849Y-118656281D01*
X55391129Y-118830642D01*
X55490428Y-118986305D01*
X55575922Y-119120406D01*
X55645785Y-119230085D01*
X55698194Y-119312481D01*
X55731322Y-119364730D01*
X55743229Y-119383760D01*
X56605907Y-119383760D01*
X56534146Y-119372794D01*
X56398829Y-119349007D01*
X56272705Y-119323901D01*
X56162842Y-119298940D01*
X56076311Y-119275590D01*
X56020181Y-119255315D01*
X56003506Y-119244663D01*
X55987256Y-119221421D01*
X55950126Y-119165427D01*
X55894011Y-119079613D01*
X55820805Y-118966912D01*
X55732403Y-118830257D01*
X55630700Y-118672581D01*
X55517591Y-118496815D01*
X55394970Y-118305894D01*
X55264733Y-118102748D01*
X55158625Y-117936986D01*
X54344446Y-116664221D01*
X55203848Y-116653190D01*
X55453592Y-116649485D01*
X55667196Y-116645120D01*
X55850851Y-116639823D01*
X56010747Y-116633322D01*
X56153077Y-116625348D01*
X56284031Y-116615630D01*
X56409800Y-116603895D01*
X56465417Y-116597988D01*
X56592347Y-116584172D01*
X56705440Y-116572097D01*
X56797717Y-116562490D01*
X56862196Y-116556077D01*
X56891898Y-116553584D01*
X56892307Y-116553575D01*
X56908131Y-116570525D01*
X56945928Y-116619602D01*
X57003722Y-116698025D01*
X57079535Y-116803014D01*
X57171392Y-116931789D01*
X57277316Y-117081568D01*
X57395332Y-117249572D01*
X57523462Y-117433019D01*
X57659730Y-117629130D01*
X57767801Y-117785337D01*
X58618570Y-119017341D01*
X58951953Y-119017341D01*
X58951985Y-118998083D01*
X58030885Y-117664583D01*
X57883285Y-117451136D01*
X57741936Y-117247185D01*
X57608784Y-117055510D01*
X57485773Y-116878892D01*
X57374850Y-116720109D01*
X57277960Y-116581942D01*
X57197050Y-116467169D01*
X57134065Y-116378572D01*
X57090950Y-116318928D01*
X57069652Y-116291018D01*
X57068608Y-116289886D01*
X57051294Y-116274171D01*
X57031617Y-116264008D01*
X57002437Y-116259313D01*
X56956613Y-116259997D01*
M02*
