G04 #@! TF.GenerationSoftware,KiCad,Pcbnew,(5.1.9)-1*
G04 #@! TF.CreationDate,2021-08-16T01:56:16+02:00*
G04 #@! TF.ProjectId,romeo-pcb,726f6d65-6f2d-4706-9362-2e6b69636164,rev?*
G04 #@! TF.SameCoordinates,Original*
G04 #@! TF.FileFunction,Soldermask,Top*
G04 #@! TF.FilePolarity,Negative*
%FSLAX46Y46*%
G04 Gerber Fmt 4.6, Leading zero omitted, Abs format (unit mm)*
G04 Created by KiCad (PCBNEW (5.1.9)-1) date 2021-08-16 01:56:16*
%MOMM*%
%LPD*%
G01*
G04 APERTURE LIST*
%ADD10C,1.500000*%
%ADD11C,0.010000*%
%ADD12C,2.250000*%
%ADD13C,3.987800*%
%ADD14C,1.750000*%
%ADD15C,3.048000*%
%ADD16C,4.400000*%
%ADD17C,2.200000*%
%ADD18C,4.000000*%
%ADD19C,1.700000*%
%ADD20C,3.050000*%
%ADD21O,1.600000X1.600000*%
%ADD22R,1.600000X1.600000*%
%ADD23C,1.600000*%
%ADD24R,1.200000X1.200000*%
%ADD25C,1.200000*%
%ADD26C,2.000000*%
%ADD27C,1.500000*%
%ADD28O,0.650000X1.000000*%
%ADD29O,0.900000X2.400000*%
%ADD30O,0.900000X1.700000*%
%ADD31O,1.400000X1.400000*%
%ADD32C,1.400000*%
%ADD33C,1.800000*%
%ADD34R,1.800000X1.800000*%
%ADD35R,1.700000X1.700000*%
G04 APERTURE END LIST*
D10*
X75680000Y-47630000D02*
X92075000Y-47625000D01*
X75380000Y-50013270D02*
X92075000Y-50006250D01*
X75980000Y-45250000D02*
X92100000Y-45250000D01*
X211809350Y-49973560D02*
X263569450Y-49973560D01*
X211809350Y-47490290D02*
X263569450Y-47490290D01*
X211809350Y-45007020D02*
X263569450Y-45007020D01*
X31246750Y-49973560D02*
X47780000Y-49973560D01*
X31246750Y-47490290D02*
X48110000Y-47500000D01*
X31246750Y-45007020D02*
X48420000Y-45000000D01*
D11*
G36*
X71506205Y-46483734D02*
G01*
X71666610Y-46806913D01*
X71809256Y-47093377D01*
X71934853Y-47344502D01*
X72044111Y-47561666D01*
X72137740Y-47746245D01*
X72216448Y-47899616D01*
X72280947Y-48023156D01*
X72331946Y-48118243D01*
X72370154Y-48186252D01*
X72396282Y-48228561D01*
X72411040Y-48246547D01*
X72414756Y-48246175D01*
X72419748Y-48219526D01*
X72429522Y-48154083D01*
X72443655Y-48053066D01*
X72461723Y-47919693D01*
X72483304Y-47757183D01*
X72507975Y-47568755D01*
X72535313Y-47357627D01*
X72564894Y-47127019D01*
X72596297Y-46880149D01*
X72629098Y-46620236D01*
X72643790Y-46503167D01*
X72677059Y-46238013D01*
X72709019Y-45984085D01*
X72739250Y-45744650D01*
X72767338Y-45522973D01*
X72792864Y-45322319D01*
X72815413Y-45145956D01*
X72834566Y-44997148D01*
X72849908Y-44879161D01*
X72861021Y-44795262D01*
X72867488Y-44748715D01*
X72868729Y-44741042D01*
X72880197Y-44682833D01*
X73502932Y-44682833D01*
X73683474Y-44683057D01*
X73826014Y-44683878D01*
X73934880Y-44685520D01*
X74014401Y-44688207D01*
X74068906Y-44692164D01*
X74102725Y-44697615D01*
X74120186Y-44704783D01*
X74125617Y-44713893D01*
X74125667Y-44715081D01*
X74123052Y-44739560D01*
X74115411Y-44803620D01*
X74103046Y-44904843D01*
X74086258Y-45040812D01*
X74065352Y-45209112D01*
X74040629Y-45407325D01*
X74012393Y-45633034D01*
X73980945Y-45883824D01*
X73946588Y-46157278D01*
X73909625Y-46450978D01*
X73870358Y-46762509D01*
X73829091Y-47089453D01*
X73786125Y-47429395D01*
X73755250Y-47673403D01*
X73711286Y-48020873D01*
X73668809Y-48356958D01*
X73628121Y-48679248D01*
X73589523Y-48985333D01*
X73553318Y-49272804D01*
X73519810Y-49539250D01*
X73489299Y-49782261D01*
X73462089Y-49999427D01*
X73438481Y-50188338D01*
X73418779Y-50346584D01*
X73403285Y-50471755D01*
X73392300Y-50561442D01*
X73386128Y-50613233D01*
X73384833Y-50625655D01*
X73375380Y-50633496D01*
X73344669Y-50639717D01*
X73289169Y-50644463D01*
X73205352Y-50647879D01*
X73089688Y-50650110D01*
X72938649Y-50651303D01*
X72755125Y-50651605D01*
X72125417Y-50651377D01*
X71227613Y-48841839D01*
X71099362Y-48583545D01*
X70976453Y-48336401D01*
X70860183Y-48102992D01*
X70751851Y-47885907D01*
X70652756Y-47687735D01*
X70564194Y-47511063D01*
X70487463Y-47358479D01*
X70423863Y-47232571D01*
X70374690Y-47135928D01*
X70341243Y-47071137D01*
X70324819Y-47040786D01*
X70323330Y-47038780D01*
X70319763Y-47060272D01*
X70311325Y-47120695D01*
X70298416Y-47216980D01*
X70281432Y-47346053D01*
X70260770Y-47504843D01*
X70236826Y-47690279D01*
X70209999Y-47899288D01*
X70180685Y-48128798D01*
X70149282Y-48375737D01*
X70116185Y-48637034D01*
X70092822Y-48822088D01*
X70058730Y-49091984D01*
X70026015Y-49350024D01*
X69995078Y-49593090D01*
X69966322Y-49818065D01*
X69940149Y-50021830D01*
X69916963Y-50201267D01*
X69897165Y-50353259D01*
X69881157Y-50474688D01*
X69869343Y-50562435D01*
X69862125Y-50613382D01*
X69860061Y-50625375D01*
X69847769Y-50633357D01*
X69814345Y-50639688D01*
X69756198Y-50644518D01*
X69669734Y-50647998D01*
X69551364Y-50650277D01*
X69397494Y-50651504D01*
X69225518Y-50651833D01*
X68599708Y-50651833D01*
X68612887Y-50551292D01*
X68617095Y-50518469D01*
X68626297Y-50446162D01*
X68640175Y-50336885D01*
X68658409Y-50193152D01*
X68680682Y-50017478D01*
X68706674Y-49812376D01*
X68736069Y-49580362D01*
X68768546Y-49323949D01*
X68803787Y-49045652D01*
X68841474Y-48747985D01*
X68881289Y-48433462D01*
X68922913Y-48104598D01*
X68966027Y-47763906D01*
X68990299Y-47572083D01*
X69354531Y-44693417D01*
X70613217Y-44682201D01*
X71506205Y-46483734D01*
G37*
X71506205Y-46483734D02*
X71666610Y-46806913D01*
X71809256Y-47093377D01*
X71934853Y-47344502D01*
X72044111Y-47561666D01*
X72137740Y-47746245D01*
X72216448Y-47899616D01*
X72280947Y-48023156D01*
X72331946Y-48118243D01*
X72370154Y-48186252D01*
X72396282Y-48228561D01*
X72411040Y-48246547D01*
X72414756Y-48246175D01*
X72419748Y-48219526D01*
X72429522Y-48154083D01*
X72443655Y-48053066D01*
X72461723Y-47919693D01*
X72483304Y-47757183D01*
X72507975Y-47568755D01*
X72535313Y-47357627D01*
X72564894Y-47127019D01*
X72596297Y-46880149D01*
X72629098Y-46620236D01*
X72643790Y-46503167D01*
X72677059Y-46238013D01*
X72709019Y-45984085D01*
X72739250Y-45744650D01*
X72767338Y-45522973D01*
X72792864Y-45322319D01*
X72815413Y-45145956D01*
X72834566Y-44997148D01*
X72849908Y-44879161D01*
X72861021Y-44795262D01*
X72867488Y-44748715D01*
X72868729Y-44741042D01*
X72880197Y-44682833D01*
X73502932Y-44682833D01*
X73683474Y-44683057D01*
X73826014Y-44683878D01*
X73934880Y-44685520D01*
X74014401Y-44688207D01*
X74068906Y-44692164D01*
X74102725Y-44697615D01*
X74120186Y-44704783D01*
X74125617Y-44713893D01*
X74125667Y-44715081D01*
X74123052Y-44739560D01*
X74115411Y-44803620D01*
X74103046Y-44904843D01*
X74086258Y-45040812D01*
X74065352Y-45209112D01*
X74040629Y-45407325D01*
X74012393Y-45633034D01*
X73980945Y-45883824D01*
X73946588Y-46157278D01*
X73909625Y-46450978D01*
X73870358Y-46762509D01*
X73829091Y-47089453D01*
X73786125Y-47429395D01*
X73755250Y-47673403D01*
X73711286Y-48020873D01*
X73668809Y-48356958D01*
X73628121Y-48679248D01*
X73589523Y-48985333D01*
X73553318Y-49272804D01*
X73519810Y-49539250D01*
X73489299Y-49782261D01*
X73462089Y-49999427D01*
X73438481Y-50188338D01*
X73418779Y-50346584D01*
X73403285Y-50471755D01*
X73392300Y-50561442D01*
X73386128Y-50613233D01*
X73384833Y-50625655D01*
X73375380Y-50633496D01*
X73344669Y-50639717D01*
X73289169Y-50644463D01*
X73205352Y-50647879D01*
X73089688Y-50650110D01*
X72938649Y-50651303D01*
X72755125Y-50651605D01*
X72125417Y-50651377D01*
X71227613Y-48841839D01*
X71099362Y-48583545D01*
X70976453Y-48336401D01*
X70860183Y-48102992D01*
X70751851Y-47885907D01*
X70652756Y-47687735D01*
X70564194Y-47511063D01*
X70487463Y-47358479D01*
X70423863Y-47232571D01*
X70374690Y-47135928D01*
X70341243Y-47071137D01*
X70324819Y-47040786D01*
X70323330Y-47038780D01*
X70319763Y-47060272D01*
X70311325Y-47120695D01*
X70298416Y-47216980D01*
X70281432Y-47346053D01*
X70260770Y-47504843D01*
X70236826Y-47690279D01*
X70209999Y-47899288D01*
X70180685Y-48128798D01*
X70149282Y-48375737D01*
X70116185Y-48637034D01*
X70092822Y-48822088D01*
X70058730Y-49091984D01*
X70026015Y-49350024D01*
X69995078Y-49593090D01*
X69966322Y-49818065D01*
X69940149Y-50021830D01*
X69916963Y-50201267D01*
X69897165Y-50353259D01*
X69881157Y-50474688D01*
X69869343Y-50562435D01*
X69862125Y-50613382D01*
X69860061Y-50625375D01*
X69847769Y-50633357D01*
X69814345Y-50639688D01*
X69756198Y-50644518D01*
X69669734Y-50647998D01*
X69551364Y-50650277D01*
X69397494Y-50651504D01*
X69225518Y-50651833D01*
X68599708Y-50651833D01*
X68612887Y-50551292D01*
X68617095Y-50518469D01*
X68626297Y-50446162D01*
X68640175Y-50336885D01*
X68658409Y-50193152D01*
X68680682Y-50017478D01*
X68706674Y-49812376D01*
X68736069Y-49580362D01*
X68768546Y-49323949D01*
X68803787Y-49045652D01*
X68841474Y-48747985D01*
X68881289Y-48433462D01*
X68922913Y-48104598D01*
X68966027Y-47763906D01*
X68990299Y-47572083D01*
X69354531Y-44693417D01*
X70613217Y-44682201D01*
X71506205Y-46483734D01*
G36*
X68116090Y-44683059D02*
G01*
X68258794Y-44683884D01*
X68367809Y-44685531D01*
X68447456Y-44688224D01*
X68502057Y-44692184D01*
X68535932Y-44697636D01*
X68553404Y-44704800D01*
X68558792Y-44713901D01*
X68558833Y-44714973D01*
X68556220Y-44739440D01*
X68548581Y-44803487D01*
X68536218Y-44904698D01*
X68519436Y-45040657D01*
X68498535Y-45208949D01*
X68473819Y-45407156D01*
X68445589Y-45632863D01*
X68414149Y-45883654D01*
X68379800Y-46157111D01*
X68342846Y-46450820D01*
X68303588Y-46762364D01*
X68262329Y-47089327D01*
X68219372Y-47429293D01*
X68188417Y-47674004D01*
X68144460Y-48021509D01*
X68101990Y-48357621D01*
X68061307Y-48679931D01*
X68022714Y-48986029D01*
X67986514Y-49273507D01*
X67953008Y-49539955D01*
X67922499Y-49782966D01*
X67895289Y-50000129D01*
X67871680Y-50189037D01*
X67851975Y-50347280D01*
X67836476Y-50472449D01*
X67825484Y-50562135D01*
X67819303Y-50613929D01*
X67818000Y-50626363D01*
X67807452Y-50634043D01*
X67773621Y-50640154D01*
X67713224Y-50644831D01*
X67622976Y-50648204D01*
X67499596Y-50650404D01*
X67339800Y-50651565D01*
X67183529Y-50651833D01*
X66549058Y-50651833D01*
X66559315Y-50593625D01*
X66563151Y-50565933D01*
X66571946Y-50498714D01*
X66585388Y-50394445D01*
X66603160Y-50255601D01*
X66624951Y-50084659D01*
X66650445Y-49884095D01*
X66679330Y-49656387D01*
X66711289Y-49404010D01*
X66746011Y-49129440D01*
X66783180Y-48835155D01*
X66822484Y-48523630D01*
X66863607Y-48197343D01*
X66906236Y-47858768D01*
X66928989Y-47677917D01*
X66972308Y-47333693D01*
X67014305Y-47000327D01*
X67054664Y-46680304D01*
X67093069Y-46376115D01*
X67129205Y-46090248D01*
X67162756Y-45825191D01*
X67193407Y-45583433D01*
X67220842Y-45367461D01*
X67244744Y-45179766D01*
X67264800Y-45022834D01*
X67280692Y-44899156D01*
X67292106Y-44811218D01*
X67298725Y-44761510D01*
X67300163Y-44751625D01*
X67311918Y-44682833D01*
X67935376Y-44682833D01*
X68116090Y-44683059D01*
G37*
X68116090Y-44683059D02*
X68258794Y-44683884D01*
X68367809Y-44685531D01*
X68447456Y-44688224D01*
X68502057Y-44692184D01*
X68535932Y-44697636D01*
X68553404Y-44704800D01*
X68558792Y-44713901D01*
X68558833Y-44714973D01*
X68556220Y-44739440D01*
X68548581Y-44803487D01*
X68536218Y-44904698D01*
X68519436Y-45040657D01*
X68498535Y-45208949D01*
X68473819Y-45407156D01*
X68445589Y-45632863D01*
X68414149Y-45883654D01*
X68379800Y-46157111D01*
X68342846Y-46450820D01*
X68303588Y-46762364D01*
X68262329Y-47089327D01*
X68219372Y-47429293D01*
X68188417Y-47674004D01*
X68144460Y-48021509D01*
X68101990Y-48357621D01*
X68061307Y-48679931D01*
X68022714Y-48986029D01*
X67986514Y-49273507D01*
X67953008Y-49539955D01*
X67922499Y-49782966D01*
X67895289Y-50000129D01*
X67871680Y-50189037D01*
X67851975Y-50347280D01*
X67836476Y-50472449D01*
X67825484Y-50562135D01*
X67819303Y-50613929D01*
X67818000Y-50626363D01*
X67807452Y-50634043D01*
X67773621Y-50640154D01*
X67713224Y-50644831D01*
X67622976Y-50648204D01*
X67499596Y-50650404D01*
X67339800Y-50651565D01*
X67183529Y-50651833D01*
X66549058Y-50651833D01*
X66559315Y-50593625D01*
X66563151Y-50565933D01*
X66571946Y-50498714D01*
X66585388Y-50394445D01*
X66603160Y-50255601D01*
X66624951Y-50084659D01*
X66650445Y-49884095D01*
X66679330Y-49656387D01*
X66711289Y-49404010D01*
X66746011Y-49129440D01*
X66783180Y-48835155D01*
X66822484Y-48523630D01*
X66863607Y-48197343D01*
X66906236Y-47858768D01*
X66928989Y-47677917D01*
X66972308Y-47333693D01*
X67014305Y-47000327D01*
X67054664Y-46680304D01*
X67093069Y-46376115D01*
X67129205Y-46090248D01*
X67162756Y-45825191D01*
X67193407Y-45583433D01*
X67220842Y-45367461D01*
X67244744Y-45179766D01*
X67264800Y-45022834D01*
X67280692Y-44899156D01*
X67292106Y-44811218D01*
X67298725Y-44761510D01*
X67300163Y-44751625D01*
X67311918Y-44682833D01*
X67935376Y-44682833D01*
X68116090Y-44683059D01*
G36*
X64793094Y-44687312D02*
G01*
X64926723Y-44688754D01*
X65033049Y-44691221D01*
X65107739Y-44694628D01*
X65146459Y-44698893D01*
X65151000Y-44701154D01*
X65154595Y-44723863D01*
X65165107Y-44785902D01*
X65182122Y-44884906D01*
X65205228Y-45018510D01*
X65234014Y-45184352D01*
X65268066Y-45380065D01*
X65306972Y-45603285D01*
X65350320Y-45851649D01*
X65397698Y-46122791D01*
X65448693Y-46414348D01*
X65502892Y-46723954D01*
X65559884Y-47049245D01*
X65619256Y-47387856D01*
X65669583Y-47674685D01*
X65730587Y-48022332D01*
X65789551Y-48358509D01*
X65846064Y-48680859D01*
X65899712Y-48987025D01*
X65950086Y-49274651D01*
X65996771Y-49541380D01*
X66039357Y-49784857D01*
X66077431Y-50002725D01*
X66110581Y-50192627D01*
X66138396Y-50352207D01*
X66160462Y-50479108D01*
X66176369Y-50570975D01*
X66185704Y-50625450D01*
X66188167Y-50640575D01*
X66167842Y-50643331D01*
X66110235Y-50645842D01*
X66020396Y-50648024D01*
X65903375Y-50649791D01*
X65764224Y-50651058D01*
X65607993Y-50651739D01*
X65521820Y-50651833D01*
X64855473Y-50651833D01*
X64843741Y-50604208D01*
X64836883Y-50569970D01*
X64824239Y-50500730D01*
X64806997Y-50403240D01*
X64786345Y-50284253D01*
X64763474Y-50150520D01*
X64753379Y-50090917D01*
X64674750Y-49625250D01*
X63828083Y-49619908D01*
X62981417Y-49614567D01*
X62750478Y-50133200D01*
X62519540Y-50651833D01*
X61853718Y-50651833D01*
X61668220Y-50651709D01*
X61520810Y-50651177D01*
X61407238Y-50649996D01*
X61323260Y-50647927D01*
X61264629Y-50644728D01*
X61227097Y-50640160D01*
X61206418Y-50633983D01*
X61198346Y-50625957D01*
X61198634Y-50615840D01*
X61198933Y-50614792D01*
X61208507Y-50591466D01*
X61234061Y-50531477D01*
X61274664Y-50436969D01*
X61329385Y-50310088D01*
X61397295Y-50152978D01*
X61477462Y-49967786D01*
X61568958Y-49756657D01*
X61670851Y-49521736D01*
X61782212Y-49265169D01*
X61902110Y-48989100D01*
X62029615Y-48695676D01*
X62154611Y-48408167D01*
X63479176Y-48408167D01*
X63976421Y-48408167D01*
X64152036Y-48407264D01*
X64290980Y-48404598D01*
X64391842Y-48400229D01*
X64453207Y-48394217D01*
X64473667Y-48386717D01*
X64470815Y-48361157D01*
X64462765Y-48299096D01*
X64450272Y-48205948D01*
X64434092Y-48087125D01*
X64414981Y-47948040D01*
X64393695Y-47794106D01*
X64370989Y-47630734D01*
X64347620Y-47463338D01*
X64324343Y-47297331D01*
X64301914Y-47138124D01*
X64281090Y-46991130D01*
X64262625Y-46861763D01*
X64247276Y-46755434D01*
X64235799Y-46677555D01*
X64228950Y-46633541D01*
X64228363Y-46630167D01*
X64223882Y-46615243D01*
X64216600Y-46611960D01*
X64205133Y-46623374D01*
X64188094Y-46652543D01*
X64164101Y-46702522D01*
X64131768Y-46776369D01*
X64089710Y-46877140D01*
X64036544Y-47007891D01*
X63970883Y-47171680D01*
X63891343Y-47371563D01*
X63883163Y-47392167D01*
X63811198Y-47573432D01*
X63742896Y-47745436D01*
X63680100Y-47903539D01*
X63624653Y-48043098D01*
X63578400Y-48159474D01*
X63543184Y-48248027D01*
X63520850Y-48304115D01*
X63515220Y-48318208D01*
X63479176Y-48408167D01*
X62154611Y-48408167D01*
X62163796Y-48387042D01*
X62303723Y-48065343D01*
X62448467Y-47732724D01*
X62490751Y-47635583D01*
X63771532Y-44693417D01*
X64461266Y-44687836D01*
X64636497Y-44686978D01*
X64793094Y-44687312D01*
G37*
X64793094Y-44687312D02*
X64926723Y-44688754D01*
X65033049Y-44691221D01*
X65107739Y-44694628D01*
X65146459Y-44698893D01*
X65151000Y-44701154D01*
X65154595Y-44723863D01*
X65165107Y-44785902D01*
X65182122Y-44884906D01*
X65205228Y-45018510D01*
X65234014Y-45184352D01*
X65268066Y-45380065D01*
X65306972Y-45603285D01*
X65350320Y-45851649D01*
X65397698Y-46122791D01*
X65448693Y-46414348D01*
X65502892Y-46723954D01*
X65559884Y-47049245D01*
X65619256Y-47387856D01*
X65669583Y-47674685D01*
X65730587Y-48022332D01*
X65789551Y-48358509D01*
X65846064Y-48680859D01*
X65899712Y-48987025D01*
X65950086Y-49274651D01*
X65996771Y-49541380D01*
X66039357Y-49784857D01*
X66077431Y-50002725D01*
X66110581Y-50192627D01*
X66138396Y-50352207D01*
X66160462Y-50479108D01*
X66176369Y-50570975D01*
X66185704Y-50625450D01*
X66188167Y-50640575D01*
X66167842Y-50643331D01*
X66110235Y-50645842D01*
X66020396Y-50648024D01*
X65903375Y-50649791D01*
X65764224Y-50651058D01*
X65607993Y-50651739D01*
X65521820Y-50651833D01*
X64855473Y-50651833D01*
X64843741Y-50604208D01*
X64836883Y-50569970D01*
X64824239Y-50500730D01*
X64806997Y-50403240D01*
X64786345Y-50284253D01*
X64763474Y-50150520D01*
X64753379Y-50090917D01*
X64674750Y-49625250D01*
X63828083Y-49619908D01*
X62981417Y-49614567D01*
X62750478Y-50133200D01*
X62519540Y-50651833D01*
X61853718Y-50651833D01*
X61668220Y-50651709D01*
X61520810Y-50651177D01*
X61407238Y-50649996D01*
X61323260Y-50647927D01*
X61264629Y-50644728D01*
X61227097Y-50640160D01*
X61206418Y-50633983D01*
X61198346Y-50625957D01*
X61198634Y-50615840D01*
X61198933Y-50614792D01*
X61208507Y-50591466D01*
X61234061Y-50531477D01*
X61274664Y-50436969D01*
X61329385Y-50310088D01*
X61397295Y-50152978D01*
X61477462Y-49967786D01*
X61568958Y-49756657D01*
X61670851Y-49521736D01*
X61782212Y-49265169D01*
X61902110Y-48989100D01*
X62029615Y-48695676D01*
X62154611Y-48408167D01*
X63479176Y-48408167D01*
X63976421Y-48408167D01*
X64152036Y-48407264D01*
X64290980Y-48404598D01*
X64391842Y-48400229D01*
X64453207Y-48394217D01*
X64473667Y-48386717D01*
X64470815Y-48361157D01*
X64462765Y-48299096D01*
X64450272Y-48205948D01*
X64434092Y-48087125D01*
X64414981Y-47948040D01*
X64393695Y-47794106D01*
X64370989Y-47630734D01*
X64347620Y-47463338D01*
X64324343Y-47297331D01*
X64301914Y-47138124D01*
X64281090Y-46991130D01*
X64262625Y-46861763D01*
X64247276Y-46755434D01*
X64235799Y-46677555D01*
X64228950Y-46633541D01*
X64228363Y-46630167D01*
X64223882Y-46615243D01*
X64216600Y-46611960D01*
X64205133Y-46623374D01*
X64188094Y-46652543D01*
X64164101Y-46702522D01*
X64131768Y-46776369D01*
X64089710Y-46877140D01*
X64036544Y-47007891D01*
X63970883Y-47171680D01*
X63891343Y-47371563D01*
X63883163Y-47392167D01*
X63811198Y-47573432D01*
X63742896Y-47745436D01*
X63680100Y-47903539D01*
X63624653Y-48043098D01*
X63578400Y-48159474D01*
X63543184Y-48248027D01*
X63520850Y-48304115D01*
X63515220Y-48318208D01*
X63479176Y-48408167D01*
X62154611Y-48408167D01*
X62163796Y-48387042D01*
X62303723Y-48065343D01*
X62448467Y-47732724D01*
X62490751Y-47635583D01*
X63771532Y-44693417D01*
X64461266Y-44687836D01*
X64636497Y-44686978D01*
X64793094Y-44687312D01*
G36*
X62399174Y-44741042D02*
G01*
X62396528Y-44776896D01*
X62389145Y-44848660D01*
X62377725Y-44950264D01*
X62362969Y-45075635D01*
X62345579Y-45218702D01*
X62326256Y-45373392D01*
X62325250Y-45381333D01*
X62305960Y-45534429D01*
X62288542Y-45674359D01*
X62273683Y-45795458D01*
X62262073Y-45892057D01*
X62254399Y-45958492D01*
X62251350Y-45989094D01*
X62251326Y-45989875D01*
X62241798Y-45998515D01*
X62210733Y-46005195D01*
X62154231Y-46010112D01*
X62068392Y-46013467D01*
X61949318Y-46015457D01*
X61793110Y-46016283D01*
X61732583Y-46016333D01*
X61568822Y-46016642D01*
X61442731Y-46017754D01*
X61349649Y-46019952D01*
X61284917Y-46023516D01*
X61243874Y-46028726D01*
X61221861Y-46035864D01*
X61214216Y-46045209D01*
X61214000Y-46047577D01*
X61211385Y-46072405D01*
X61203770Y-46136462D01*
X61191502Y-46236983D01*
X61174926Y-46371204D01*
X61154390Y-46536359D01*
X61130237Y-46729684D01*
X61102816Y-46948413D01*
X61072472Y-47189781D01*
X61039551Y-47451024D01*
X61004399Y-47729376D01*
X60967362Y-48022072D01*
X60928786Y-48326348D01*
X60928250Y-48330573D01*
X60889649Y-48635071D01*
X60852583Y-48928085D01*
X60817398Y-49206843D01*
X60784439Y-49468576D01*
X60754054Y-49710511D01*
X60726589Y-49929880D01*
X60702390Y-50123911D01*
X60681803Y-50289833D01*
X60665174Y-50424876D01*
X60652850Y-50526268D01*
X60645176Y-50591241D01*
X60642500Y-50617021D01*
X60642500Y-50617080D01*
X60639292Y-50627005D01*
X60626753Y-50634857D01*
X60600510Y-50640872D01*
X60556188Y-50645292D01*
X60489415Y-50648354D01*
X60395817Y-50650298D01*
X60271021Y-50651362D01*
X60110653Y-50651786D01*
X60006541Y-50651833D01*
X59370582Y-50651833D01*
X59382295Y-50583042D01*
X59386512Y-50552898D01*
X59395643Y-50483628D01*
X59409320Y-50378109D01*
X59427177Y-50239218D01*
X59448849Y-50069832D01*
X59473968Y-49872827D01*
X59502168Y-49651081D01*
X59533083Y-49407470D01*
X59566346Y-49144872D01*
X59601591Y-48866162D01*
X59638452Y-48574219D01*
X59668729Y-48334083D01*
X59706616Y-48033655D01*
X59743181Y-47744169D01*
X59778057Y-47468503D01*
X59810879Y-47209532D01*
X59841279Y-46970133D01*
X59868892Y-46753185D01*
X59893350Y-46561562D01*
X59914287Y-46398144D01*
X59931336Y-46265805D01*
X59944131Y-46167424D01*
X59952306Y-46105877D01*
X59955267Y-46085125D01*
X59967085Y-46016333D01*
X59458126Y-46016333D01*
X59298088Y-46016136D01*
X59175452Y-46015306D01*
X59085284Y-46013484D01*
X59022654Y-46010312D01*
X58982631Y-46005431D01*
X58960281Y-45998482D01*
X58950674Y-45989106D01*
X58948846Y-45979292D01*
X58951298Y-45949545D01*
X58958390Y-45883342D01*
X58969474Y-45786226D01*
X58983904Y-45663744D01*
X59001031Y-45521441D01*
X59020209Y-45364860D01*
X59026686Y-45312542D01*
X59104846Y-44682833D01*
X62399333Y-44682833D01*
X62399174Y-44741042D01*
G37*
X62399174Y-44741042D02*
X62396528Y-44776896D01*
X62389145Y-44848660D01*
X62377725Y-44950264D01*
X62362969Y-45075635D01*
X62345579Y-45218702D01*
X62326256Y-45373392D01*
X62325250Y-45381333D01*
X62305960Y-45534429D01*
X62288542Y-45674359D01*
X62273683Y-45795458D01*
X62262073Y-45892057D01*
X62254399Y-45958492D01*
X62251350Y-45989094D01*
X62251326Y-45989875D01*
X62241798Y-45998515D01*
X62210733Y-46005195D01*
X62154231Y-46010112D01*
X62068392Y-46013467D01*
X61949318Y-46015457D01*
X61793110Y-46016283D01*
X61732583Y-46016333D01*
X61568822Y-46016642D01*
X61442731Y-46017754D01*
X61349649Y-46019952D01*
X61284917Y-46023516D01*
X61243874Y-46028726D01*
X61221861Y-46035864D01*
X61214216Y-46045209D01*
X61214000Y-46047577D01*
X61211385Y-46072405D01*
X61203770Y-46136462D01*
X61191502Y-46236983D01*
X61174926Y-46371204D01*
X61154390Y-46536359D01*
X61130237Y-46729684D01*
X61102816Y-46948413D01*
X61072472Y-47189781D01*
X61039551Y-47451024D01*
X61004399Y-47729376D01*
X60967362Y-48022072D01*
X60928786Y-48326348D01*
X60928250Y-48330573D01*
X60889649Y-48635071D01*
X60852583Y-48928085D01*
X60817398Y-49206843D01*
X60784439Y-49468576D01*
X60754054Y-49710511D01*
X60726589Y-49929880D01*
X60702390Y-50123911D01*
X60681803Y-50289833D01*
X60665174Y-50424876D01*
X60652850Y-50526268D01*
X60645176Y-50591241D01*
X60642500Y-50617021D01*
X60642500Y-50617080D01*
X60639292Y-50627005D01*
X60626753Y-50634857D01*
X60600510Y-50640872D01*
X60556188Y-50645292D01*
X60489415Y-50648354D01*
X60395817Y-50650298D01*
X60271021Y-50651362D01*
X60110653Y-50651786D01*
X60006541Y-50651833D01*
X59370582Y-50651833D01*
X59382295Y-50583042D01*
X59386512Y-50552898D01*
X59395643Y-50483628D01*
X59409320Y-50378109D01*
X59427177Y-50239218D01*
X59448849Y-50069832D01*
X59473968Y-49872827D01*
X59502168Y-49651081D01*
X59533083Y-49407470D01*
X59566346Y-49144872D01*
X59601591Y-48866162D01*
X59638452Y-48574219D01*
X59668729Y-48334083D01*
X59706616Y-48033655D01*
X59743181Y-47744169D01*
X59778057Y-47468503D01*
X59810879Y-47209532D01*
X59841279Y-46970133D01*
X59868892Y-46753185D01*
X59893350Y-46561562D01*
X59914287Y-46398144D01*
X59931336Y-46265805D01*
X59944131Y-46167424D01*
X59952306Y-46105877D01*
X59955267Y-46085125D01*
X59967085Y-46016333D01*
X59458126Y-46016333D01*
X59298088Y-46016136D01*
X59175452Y-46015306D01*
X59085284Y-46013484D01*
X59022654Y-46010312D01*
X58982631Y-46005431D01*
X58960281Y-45998482D01*
X58950674Y-45989106D01*
X58948846Y-45979292D01*
X58951298Y-45949545D01*
X58958390Y-45883342D01*
X58969474Y-45786226D01*
X58983904Y-45663744D01*
X59001031Y-45521441D01*
X59020209Y-45364860D01*
X59026686Y-45312542D01*
X59104846Y-44682833D01*
X62399333Y-44682833D01*
X62399174Y-44741042D01*
G36*
X51525696Y-44687851D02*
G01*
X51773793Y-44689605D01*
X51983426Y-44691311D01*
X52158464Y-44693127D01*
X52302776Y-44695215D01*
X52420230Y-44697737D01*
X52514696Y-44700852D01*
X52590042Y-44704721D01*
X52650138Y-44709505D01*
X52698852Y-44715365D01*
X52740052Y-44722462D01*
X52777609Y-44730955D01*
X52815390Y-44741007D01*
X52817193Y-44741509D01*
X53048825Y-44825152D01*
X53250483Y-44938491D01*
X53421909Y-45081071D01*
X53562844Y-45252436D01*
X53673030Y-45452131D01*
X53752207Y-45679700D01*
X53800118Y-45934687D01*
X53816504Y-46216637D01*
X53805061Y-46481801D01*
X53763136Y-46821788D01*
X53697739Y-47138346D01*
X53609936Y-47428999D01*
X53500792Y-47691271D01*
X53371374Y-47922689D01*
X53222747Y-48120776D01*
X53055977Y-48283059D01*
X53015729Y-48314635D01*
X52875018Y-48411733D01*
X52731752Y-48491508D01*
X52580344Y-48555325D01*
X52415208Y-48604549D01*
X52230757Y-48640542D01*
X52021404Y-48664671D01*
X51781564Y-48678299D01*
X51508278Y-48682787D01*
X51147639Y-48683333D01*
X51022591Y-49667583D01*
X50897542Y-50651833D01*
X49631122Y-50651833D01*
X49643410Y-50583042D01*
X49647492Y-50554072D01*
X49656531Y-50485582D01*
X49670213Y-50380056D01*
X49688221Y-50239977D01*
X49710240Y-50067829D01*
X49735955Y-49866095D01*
X49765050Y-49637259D01*
X49797210Y-49383805D01*
X49832118Y-49108216D01*
X49869459Y-48812977D01*
X49908918Y-48500569D01*
X49950179Y-48173478D01*
X49992926Y-47834186D01*
X50016592Y-47646167D01*
X50050185Y-47379400D01*
X51309188Y-47379400D01*
X51310979Y-47395079D01*
X51321714Y-47405646D01*
X51347801Y-47411711D01*
X51395647Y-47413881D01*
X51471660Y-47412765D01*
X51582247Y-47408972D01*
X51609625Y-47407924D01*
X51744766Y-47401359D01*
X51847383Y-47392689D01*
X51927276Y-47380566D01*
X51994246Y-47363643D01*
X52035727Y-47349342D01*
X52178778Y-47274750D01*
X52293940Y-47169229D01*
X52381399Y-47032426D01*
X52441341Y-46863986D01*
X52473952Y-46663555D01*
X52480618Y-46503167D01*
X52473707Y-46361924D01*
X52450858Y-46252047D01*
X52408812Y-46164507D01*
X52344306Y-46090278D01*
X52325466Y-46073731D01*
X52270492Y-46033448D01*
X52210436Y-46004089D01*
X52137606Y-45984062D01*
X52044312Y-45971776D01*
X51922863Y-45965638D01*
X51795591Y-45964075D01*
X51489432Y-45963417D01*
X51399904Y-46651333D01*
X51378241Y-46818712D01*
X51358394Y-46973827D01*
X51341023Y-47111381D01*
X51326788Y-47226077D01*
X51316350Y-47312620D01*
X51310367Y-47365713D01*
X51309188Y-47379400D01*
X50050185Y-47379400D01*
X50059970Y-47301706D01*
X50102016Y-46968357D01*
X50142416Y-46648580D01*
X50180856Y-46344837D01*
X50217023Y-46059588D01*
X50250602Y-45795295D01*
X50281281Y-45554420D01*
X50308745Y-45339422D01*
X50332681Y-45152764D01*
X50352776Y-44996906D01*
X50368714Y-44874310D01*
X50380183Y-44787437D01*
X50386870Y-44738748D01*
X50388398Y-44729124D01*
X50399309Y-44680166D01*
X51525696Y-44687851D01*
G37*
X51525696Y-44687851D02*
X51773793Y-44689605D01*
X51983426Y-44691311D01*
X52158464Y-44693127D01*
X52302776Y-44695215D01*
X52420230Y-44697737D01*
X52514696Y-44700852D01*
X52590042Y-44704721D01*
X52650138Y-44709505D01*
X52698852Y-44715365D01*
X52740052Y-44722462D01*
X52777609Y-44730955D01*
X52815390Y-44741007D01*
X52817193Y-44741509D01*
X53048825Y-44825152D01*
X53250483Y-44938491D01*
X53421909Y-45081071D01*
X53562844Y-45252436D01*
X53673030Y-45452131D01*
X53752207Y-45679700D01*
X53800118Y-45934687D01*
X53816504Y-46216637D01*
X53805061Y-46481801D01*
X53763136Y-46821788D01*
X53697739Y-47138346D01*
X53609936Y-47428999D01*
X53500792Y-47691271D01*
X53371374Y-47922689D01*
X53222747Y-48120776D01*
X53055977Y-48283059D01*
X53015729Y-48314635D01*
X52875018Y-48411733D01*
X52731752Y-48491508D01*
X52580344Y-48555325D01*
X52415208Y-48604549D01*
X52230757Y-48640542D01*
X52021404Y-48664671D01*
X51781564Y-48678299D01*
X51508278Y-48682787D01*
X51147639Y-48683333D01*
X51022591Y-49667583D01*
X50897542Y-50651833D01*
X49631122Y-50651833D01*
X49643410Y-50583042D01*
X49647492Y-50554072D01*
X49656531Y-50485582D01*
X49670213Y-50380056D01*
X49688221Y-50239977D01*
X49710240Y-50067829D01*
X49735955Y-49866095D01*
X49765050Y-49637259D01*
X49797210Y-49383805D01*
X49832118Y-49108216D01*
X49869459Y-48812977D01*
X49908918Y-48500569D01*
X49950179Y-48173478D01*
X49992926Y-47834186D01*
X50016592Y-47646167D01*
X50050185Y-47379400D01*
X51309188Y-47379400D01*
X51310979Y-47395079D01*
X51321714Y-47405646D01*
X51347801Y-47411711D01*
X51395647Y-47413881D01*
X51471660Y-47412765D01*
X51582247Y-47408972D01*
X51609625Y-47407924D01*
X51744766Y-47401359D01*
X51847383Y-47392689D01*
X51927276Y-47380566D01*
X51994246Y-47363643D01*
X52035727Y-47349342D01*
X52178778Y-47274750D01*
X52293940Y-47169229D01*
X52381399Y-47032426D01*
X52441341Y-46863986D01*
X52473952Y-46663555D01*
X52480618Y-46503167D01*
X52473707Y-46361924D01*
X52450858Y-46252047D01*
X52408812Y-46164507D01*
X52344306Y-46090278D01*
X52325466Y-46073731D01*
X52270492Y-46033448D01*
X52210436Y-46004089D01*
X52137606Y-45984062D01*
X52044312Y-45971776D01*
X51922863Y-45965638D01*
X51795591Y-45964075D01*
X51489432Y-45963417D01*
X51399904Y-46651333D01*
X51378241Y-46818712D01*
X51358394Y-46973827D01*
X51341023Y-47111381D01*
X51326788Y-47226077D01*
X51316350Y-47312620D01*
X51310367Y-47365713D01*
X51309188Y-47379400D01*
X50050185Y-47379400D01*
X50059970Y-47301706D01*
X50102016Y-46968357D01*
X50142416Y-46648580D01*
X50180856Y-46344837D01*
X50217023Y-46059588D01*
X50250602Y-45795295D01*
X50281281Y-45554420D01*
X50308745Y-45339422D01*
X50332681Y-45152764D01*
X50352776Y-44996906D01*
X50368714Y-44874310D01*
X50380183Y-44787437D01*
X50386870Y-44738748D01*
X50388398Y-44729124D01*
X50399309Y-44680166D01*
X51525696Y-44687851D01*
G36*
X55786700Y-44761890D02*
G01*
X55782049Y-44795357D01*
X55772473Y-44867375D01*
X55758418Y-44974506D01*
X55740329Y-45113309D01*
X55718651Y-45280345D01*
X55693831Y-45472174D01*
X55666314Y-45685357D01*
X55636545Y-45916454D01*
X55604971Y-46162026D01*
X55572037Y-46418632D01*
X55569339Y-46439667D01*
X55531003Y-46739065D01*
X55497756Y-47000036D01*
X55469234Y-47226133D01*
X55445073Y-47420910D01*
X55424907Y-47587919D01*
X55408371Y-47730714D01*
X55395102Y-47852847D01*
X55384733Y-47957873D01*
X55376901Y-48049345D01*
X55371241Y-48130815D01*
X55367388Y-48205837D01*
X55364978Y-48277965D01*
X55363644Y-48350750D01*
X55363024Y-48427748D01*
X55362928Y-48450500D01*
X55362927Y-48599901D01*
X55364532Y-48714482D01*
X55368294Y-48801746D01*
X55374765Y-48869192D01*
X55384497Y-48924321D01*
X55398042Y-48974635D01*
X55402508Y-48988623D01*
X55470378Y-49139706D01*
X55565379Y-49259224D01*
X55689491Y-49349665D01*
X55690252Y-49350083D01*
X55745747Y-49378876D01*
X55793855Y-49397356D01*
X55846647Y-49407789D01*
X55916195Y-49412441D01*
X56014569Y-49413576D01*
X56028637Y-49413583D01*
X56131548Y-49412683D01*
X56205230Y-49408312D01*
X56262776Y-49397965D01*
X56317279Y-49379136D01*
X56381832Y-49349321D01*
X56392917Y-49343881D01*
X56531047Y-49256497D01*
X56651529Y-49138150D01*
X56755434Y-48986946D01*
X56843833Y-48800991D01*
X56917797Y-48578389D01*
X56978398Y-48317246D01*
X56980950Y-48303913D01*
X56988804Y-48255752D01*
X57001445Y-48169647D01*
X57018345Y-48049655D01*
X57038972Y-47899829D01*
X57062797Y-47724226D01*
X57089291Y-47526899D01*
X57117922Y-47311905D01*
X57148160Y-47083297D01*
X57179477Y-46845132D01*
X57211341Y-46601463D01*
X57243223Y-46356347D01*
X57274593Y-46113837D01*
X57304920Y-45877989D01*
X57333675Y-45652858D01*
X57360328Y-45442499D01*
X57384347Y-45250967D01*
X57405205Y-45082317D01*
X57422370Y-44940603D01*
X57435312Y-44829882D01*
X57436977Y-44815125D01*
X57451801Y-44682833D01*
X58718251Y-44682833D01*
X58706668Y-44751625D01*
X58702302Y-44782785D01*
X58693078Y-44852723D01*
X58679408Y-44958213D01*
X58661703Y-45096029D01*
X58640374Y-45262944D01*
X58615831Y-45455733D01*
X58588486Y-45671169D01*
X58558750Y-45906026D01*
X58527033Y-46157078D01*
X58493747Y-46421099D01*
X58472760Y-46587833D01*
X58437729Y-46864761D01*
X58403114Y-47135427D01*
X58369420Y-47396051D01*
X58337152Y-47642855D01*
X58306816Y-47872059D01*
X58278917Y-48079884D01*
X58253959Y-48262551D01*
X58232450Y-48416280D01*
X58214893Y-48537294D01*
X58201794Y-48621811D01*
X58197404Y-48647393D01*
X58116181Y-49009408D01*
X58009980Y-49337386D01*
X57878533Y-49631663D01*
X57721571Y-49892577D01*
X57538829Y-50120462D01*
X57330037Y-50315655D01*
X57094928Y-50478492D01*
X56833235Y-50609310D01*
X56559464Y-50704318D01*
X56317813Y-50758090D01*
X56058646Y-50790107D01*
X55797832Y-50799283D01*
X55551239Y-50784532D01*
X55495062Y-50777182D01*
X55214173Y-50718853D01*
X54963238Y-50630616D01*
X54742161Y-50512382D01*
X54550845Y-50364060D01*
X54389192Y-50185560D01*
X54257106Y-49976791D01*
X54154490Y-49737663D01*
X54081247Y-49468086D01*
X54078776Y-49455917D01*
X54063128Y-49343318D01*
X54053368Y-49196760D01*
X54049373Y-49024187D01*
X54051022Y-48833545D01*
X54058193Y-48632780D01*
X54070764Y-48429835D01*
X54088613Y-48232658D01*
X54098872Y-48143583D01*
X54109532Y-48058219D01*
X54124966Y-47935330D01*
X54144610Y-47779384D01*
X54167898Y-47594852D01*
X54194266Y-47386202D01*
X54223149Y-47157905D01*
X54253981Y-46914429D01*
X54286197Y-46660245D01*
X54319233Y-46399822D01*
X54341046Y-46228000D01*
X54535917Y-44693417D01*
X55167539Y-44687807D01*
X55799162Y-44682197D01*
X55786700Y-44761890D01*
G37*
X55786700Y-44761890D02*
X55782049Y-44795357D01*
X55772473Y-44867375D01*
X55758418Y-44974506D01*
X55740329Y-45113309D01*
X55718651Y-45280345D01*
X55693831Y-45472174D01*
X55666314Y-45685357D01*
X55636545Y-45916454D01*
X55604971Y-46162026D01*
X55572037Y-46418632D01*
X55569339Y-46439667D01*
X55531003Y-46739065D01*
X55497756Y-47000036D01*
X55469234Y-47226133D01*
X55445073Y-47420910D01*
X55424907Y-47587919D01*
X55408371Y-47730714D01*
X55395102Y-47852847D01*
X55384733Y-47957873D01*
X55376901Y-48049345D01*
X55371241Y-48130815D01*
X55367388Y-48205837D01*
X55364978Y-48277965D01*
X55363644Y-48350750D01*
X55363024Y-48427748D01*
X55362928Y-48450500D01*
X55362927Y-48599901D01*
X55364532Y-48714482D01*
X55368294Y-48801746D01*
X55374765Y-48869192D01*
X55384497Y-48924321D01*
X55398042Y-48974635D01*
X55402508Y-48988623D01*
X55470378Y-49139706D01*
X55565379Y-49259224D01*
X55689491Y-49349665D01*
X55690252Y-49350083D01*
X55745747Y-49378876D01*
X55793855Y-49397356D01*
X55846647Y-49407789D01*
X55916195Y-49412441D01*
X56014569Y-49413576D01*
X56028637Y-49413583D01*
X56131548Y-49412683D01*
X56205230Y-49408312D01*
X56262776Y-49397965D01*
X56317279Y-49379136D01*
X56381832Y-49349321D01*
X56392917Y-49343881D01*
X56531047Y-49256497D01*
X56651529Y-49138150D01*
X56755434Y-48986946D01*
X56843833Y-48800991D01*
X56917797Y-48578389D01*
X56978398Y-48317246D01*
X56980950Y-48303913D01*
X56988804Y-48255752D01*
X57001445Y-48169647D01*
X57018345Y-48049655D01*
X57038972Y-47899829D01*
X57062797Y-47724226D01*
X57089291Y-47526899D01*
X57117922Y-47311905D01*
X57148160Y-47083297D01*
X57179477Y-46845132D01*
X57211341Y-46601463D01*
X57243223Y-46356347D01*
X57274593Y-46113837D01*
X57304920Y-45877989D01*
X57333675Y-45652858D01*
X57360328Y-45442499D01*
X57384347Y-45250967D01*
X57405205Y-45082317D01*
X57422370Y-44940603D01*
X57435312Y-44829882D01*
X57436977Y-44815125D01*
X57451801Y-44682833D01*
X58718251Y-44682833D01*
X58706668Y-44751625D01*
X58702302Y-44782785D01*
X58693078Y-44852723D01*
X58679408Y-44958213D01*
X58661703Y-45096029D01*
X58640374Y-45262944D01*
X58615831Y-45455733D01*
X58588486Y-45671169D01*
X58558750Y-45906026D01*
X58527033Y-46157078D01*
X58493747Y-46421099D01*
X58472760Y-46587833D01*
X58437729Y-46864761D01*
X58403114Y-47135427D01*
X58369420Y-47396051D01*
X58337152Y-47642855D01*
X58306816Y-47872059D01*
X58278917Y-48079884D01*
X58253959Y-48262551D01*
X58232450Y-48416280D01*
X58214893Y-48537294D01*
X58201794Y-48621811D01*
X58197404Y-48647393D01*
X58116181Y-49009408D01*
X58009980Y-49337386D01*
X57878533Y-49631663D01*
X57721571Y-49892577D01*
X57538829Y-50120462D01*
X57330037Y-50315655D01*
X57094928Y-50478492D01*
X56833235Y-50609310D01*
X56559464Y-50704318D01*
X56317813Y-50758090D01*
X56058646Y-50790107D01*
X55797832Y-50799283D01*
X55551239Y-50784532D01*
X55495062Y-50777182D01*
X55214173Y-50718853D01*
X54963238Y-50630616D01*
X54742161Y-50512382D01*
X54550845Y-50364060D01*
X54389192Y-50185560D01*
X54257106Y-49976791D01*
X54154490Y-49737663D01*
X54081247Y-49468086D01*
X54078776Y-49455917D01*
X54063128Y-49343318D01*
X54053368Y-49196760D01*
X54049373Y-49024187D01*
X54051022Y-48833545D01*
X54058193Y-48632780D01*
X54070764Y-48429835D01*
X54088613Y-48232658D01*
X54098872Y-48143583D01*
X54109532Y-48058219D01*
X54124966Y-47935330D01*
X54144610Y-47779384D01*
X54167898Y-47594852D01*
X54194266Y-47386202D01*
X54223149Y-47157905D01*
X54253981Y-46914429D01*
X54286197Y-46660245D01*
X54319233Y-46399822D01*
X54341046Y-46228000D01*
X54535917Y-44693417D01*
X55167539Y-44687807D01*
X55799162Y-44682197D01*
X55786700Y-44761890D01*
G36*
X185827743Y-116587748D02*
G01*
X185871550Y-116626043D01*
X185901672Y-116703349D01*
X185894323Y-116785864D01*
X185882588Y-116813224D01*
X185843851Y-116846836D01*
X185788875Y-116853899D01*
X185733937Y-116834970D01*
X185704617Y-116807123D01*
X185674564Y-116734322D01*
X185684151Y-116664200D01*
X185714000Y-116621333D01*
X185772013Y-116584431D01*
X185827743Y-116587748D01*
G37*
X185827743Y-116587748D02*
X185871550Y-116626043D01*
X185901672Y-116703349D01*
X185894323Y-116785864D01*
X185882588Y-116813224D01*
X185843851Y-116846836D01*
X185788875Y-116853899D01*
X185733937Y-116834970D01*
X185704617Y-116807123D01*
X185674564Y-116734322D01*
X185684151Y-116664200D01*
X185714000Y-116621333D01*
X185772013Y-116584431D01*
X185827743Y-116587748D01*
G36*
X182507622Y-116589695D02*
G01*
X182512805Y-116591391D01*
X182568603Y-116629133D01*
X182595744Y-116684797D01*
X182595659Y-116746531D01*
X182569783Y-116802482D01*
X182519546Y-116840797D01*
X182481537Y-116850111D01*
X182425580Y-116846121D01*
X182393320Y-116816432D01*
X182392239Y-116814461D01*
X182369683Y-116742468D01*
X182374877Y-116674868D01*
X182402887Y-116620787D01*
X182448780Y-116589353D01*
X182507622Y-116589695D01*
G37*
X182507622Y-116589695D02*
X182512805Y-116591391D01*
X182568603Y-116629133D01*
X182595744Y-116684797D01*
X182595659Y-116746531D01*
X182569783Y-116802482D01*
X182519546Y-116840797D01*
X182481537Y-116850111D01*
X182425580Y-116846121D01*
X182393320Y-116816432D01*
X182392239Y-116814461D01*
X182369683Y-116742468D01*
X182374877Y-116674868D01*
X182402887Y-116620787D01*
X182448780Y-116589353D01*
X182507622Y-116589695D01*
G36*
X188735412Y-116697168D02*
G01*
X188831157Y-116741214D01*
X188911788Y-116817968D01*
X188971092Y-116926541D01*
X188982189Y-116959664D01*
X189007905Y-117084863D01*
X189009373Y-117212027D01*
X188985144Y-117345894D01*
X188933770Y-117491201D01*
X188853801Y-117652683D01*
X188743789Y-117835077D01*
X188689132Y-117917791D01*
X188549835Y-118124166D01*
X189079500Y-118124166D01*
X189079500Y-118314666D01*
X188296333Y-118314666D01*
X188296333Y-118239982D01*
X188301030Y-118203421D01*
X188317429Y-118159439D01*
X188348994Y-118101847D01*
X188399188Y-118024457D01*
X188471476Y-117921083D01*
X188486905Y-117899511D01*
X188616982Y-117708574D01*
X188718353Y-117538962D01*
X188790026Y-117392553D01*
X188831013Y-117271226D01*
X188838243Y-117232772D01*
X188839955Y-117119330D01*
X188815330Y-117020023D01*
X188768344Y-116941712D01*
X188702967Y-116891256D01*
X188631239Y-116875333D01*
X188576845Y-116888748D01*
X188511787Y-116931826D01*
X188469797Y-116968768D01*
X188369907Y-117062203D01*
X188323082Y-116996293D01*
X188276258Y-116930382D01*
X188325564Y-116865816D01*
X188419629Y-116770153D01*
X188523435Y-116710749D01*
X188630767Y-116686717D01*
X188735412Y-116697168D01*
G37*
X188735412Y-116697168D02*
X188831157Y-116741214D01*
X188911788Y-116817968D01*
X188971092Y-116926541D01*
X188982189Y-116959664D01*
X189007905Y-117084863D01*
X189009373Y-117212027D01*
X188985144Y-117345894D01*
X188933770Y-117491201D01*
X188853801Y-117652683D01*
X188743789Y-117835077D01*
X188689132Y-117917791D01*
X188549835Y-118124166D01*
X189079500Y-118124166D01*
X189079500Y-118314666D01*
X188296333Y-118314666D01*
X188296333Y-118239982D01*
X188301030Y-118203421D01*
X188317429Y-118159439D01*
X188348994Y-118101847D01*
X188399188Y-118024457D01*
X188471476Y-117921083D01*
X188486905Y-117899511D01*
X188616982Y-117708574D01*
X188718353Y-117538962D01*
X188790026Y-117392553D01*
X188831013Y-117271226D01*
X188838243Y-117232772D01*
X188839955Y-117119330D01*
X188815330Y-117020023D01*
X188768344Y-116941712D01*
X188702967Y-116891256D01*
X188631239Y-116875333D01*
X188576845Y-116888748D01*
X188511787Y-116931826D01*
X188469797Y-116968768D01*
X188369907Y-117062203D01*
X188323082Y-116996293D01*
X188276258Y-116930382D01*
X188325564Y-116865816D01*
X188419629Y-116770153D01*
X188523435Y-116710749D01*
X188630767Y-116686717D01*
X188735412Y-116697168D01*
G36*
X186901832Y-116697100D02*
G01*
X186995520Y-116737753D01*
X187002293Y-116742589D01*
X187075896Y-116820723D01*
X187131647Y-116928410D01*
X187164433Y-117054831D01*
X187169095Y-117095626D01*
X187168080Y-117221380D01*
X187143692Y-117352255D01*
X187093985Y-117493239D01*
X187017011Y-117649321D01*
X186910823Y-117825487D01*
X186846305Y-117922455D01*
X186708587Y-118124166D01*
X187238000Y-118124166D01*
X187238000Y-118314666D01*
X186454833Y-118314666D01*
X186454833Y-118240411D01*
X186459692Y-118203044D01*
X186476680Y-118158447D01*
X186509411Y-118100177D01*
X186561503Y-118021793D01*
X186636013Y-117917619D01*
X186759600Y-117738717D01*
X186859938Y-117573714D01*
X186934996Y-117426519D01*
X186982741Y-117301042D01*
X187000061Y-117217351D01*
X186997527Y-117100658D01*
X186968572Y-117002355D01*
X186916885Y-116928390D01*
X186846155Y-116884708D01*
X186787860Y-116875333D01*
X186737850Y-116885896D01*
X186682481Y-116921523D01*
X186628808Y-116970954D01*
X186579291Y-117019168D01*
X186543505Y-117051550D01*
X186529699Y-117060913D01*
X186515913Y-117042019D01*
X186486488Y-117002830D01*
X186480179Y-116994492D01*
X186434147Y-116933735D01*
X186497866Y-116853283D01*
X186584785Y-116770468D01*
X186687237Y-116715482D01*
X186795995Y-116690351D01*
X186901832Y-116697100D01*
G37*
X186901832Y-116697100D02*
X186995520Y-116737753D01*
X187002293Y-116742589D01*
X187075896Y-116820723D01*
X187131647Y-116928410D01*
X187164433Y-117054831D01*
X187169095Y-117095626D01*
X187168080Y-117221380D01*
X187143692Y-117352255D01*
X187093985Y-117493239D01*
X187017011Y-117649321D01*
X186910823Y-117825487D01*
X186846305Y-117922455D01*
X186708587Y-118124166D01*
X187238000Y-118124166D01*
X187238000Y-118314666D01*
X186454833Y-118314666D01*
X186454833Y-118240411D01*
X186459692Y-118203044D01*
X186476680Y-118158447D01*
X186509411Y-118100177D01*
X186561503Y-118021793D01*
X186636013Y-117917619D01*
X186759600Y-117738717D01*
X186859938Y-117573714D01*
X186934996Y-117426519D01*
X186982741Y-117301042D01*
X187000061Y-117217351D01*
X186997527Y-117100658D01*
X186968572Y-117002355D01*
X186916885Y-116928390D01*
X186846155Y-116884708D01*
X186787860Y-116875333D01*
X186737850Y-116885896D01*
X186682481Y-116921523D01*
X186628808Y-116970954D01*
X186579291Y-117019168D01*
X186543505Y-117051550D01*
X186529699Y-117060913D01*
X186515913Y-117042019D01*
X186486488Y-117002830D01*
X186480179Y-116994492D01*
X186434147Y-116933735D01*
X186497866Y-116853283D01*
X186584785Y-116770468D01*
X186687237Y-116715482D01*
X186795995Y-116690351D01*
X186901832Y-116697100D01*
G36*
X185883333Y-118314666D02*
G01*
X185692833Y-118314666D01*
X185692833Y-117087000D01*
X185883333Y-117087000D01*
X185883333Y-118314666D01*
G37*
X185883333Y-118314666D02*
X185692833Y-118314666D01*
X185692833Y-117087000D01*
X185883333Y-117087000D01*
X185883333Y-118314666D01*
G36*
X182560167Y-118314666D02*
G01*
X182390833Y-118314666D01*
X182390833Y-117087000D01*
X182560167Y-117087000D01*
X182560167Y-118314666D01*
G37*
X182560167Y-118314666D02*
X182390833Y-118314666D01*
X182390833Y-117087000D01*
X182560167Y-117087000D01*
X182560167Y-118314666D01*
G36*
X181914136Y-117070228D02*
G01*
X181963745Y-117087923D01*
X182009436Y-117125679D01*
X182009466Y-117125709D01*
X182041070Y-117161771D01*
X182065808Y-117202952D01*
X182084492Y-117254672D01*
X182097934Y-117322351D01*
X182106947Y-117411408D01*
X182112345Y-117527264D01*
X182114939Y-117675338D01*
X182115548Y-117833125D01*
X182115667Y-118314666D01*
X181946333Y-118314666D01*
X181946333Y-117869486D01*
X181945321Y-117694986D01*
X181941694Y-117558074D01*
X181934567Y-117454038D01*
X181923053Y-117378169D01*
X181906269Y-117325756D01*
X181883327Y-117292088D01*
X181853343Y-117272455D01*
X181832839Y-117265758D01*
X181768582Y-117260486D01*
X181709029Y-117282779D01*
X181644276Y-117337166D01*
X181619896Y-117363131D01*
X181544167Y-117446955D01*
X181544167Y-118314666D01*
X181374833Y-118314666D01*
X181374833Y-117087000D01*
X181446561Y-117087000D01*
X181495273Y-117091326D01*
X181519199Y-117112744D01*
X181532476Y-117162627D01*
X181546664Y-117238255D01*
X181640192Y-117152044D01*
X181698014Y-117102506D01*
X181744547Y-117076628D01*
X181797207Y-117066958D01*
X181841655Y-117065833D01*
X181914136Y-117070228D01*
G37*
X181914136Y-117070228D02*
X181963745Y-117087923D01*
X182009436Y-117125679D01*
X182009466Y-117125709D01*
X182041070Y-117161771D01*
X182065808Y-117202952D01*
X182084492Y-117254672D01*
X182097934Y-117322351D01*
X182106947Y-117411408D01*
X182112345Y-117527264D01*
X182114939Y-117675338D01*
X182115548Y-117833125D01*
X182115667Y-118314666D01*
X181946333Y-118314666D01*
X181946333Y-117869486D01*
X181945321Y-117694986D01*
X181941694Y-117558074D01*
X181934567Y-117454038D01*
X181923053Y-117378169D01*
X181906269Y-117325756D01*
X181883327Y-117292088D01*
X181853343Y-117272455D01*
X181832839Y-117265758D01*
X181768582Y-117260486D01*
X181709029Y-117282779D01*
X181644276Y-117337166D01*
X181619896Y-117363131D01*
X181544167Y-117446955D01*
X181544167Y-118314666D01*
X181374833Y-118314666D01*
X181374833Y-117087000D01*
X181446561Y-117087000D01*
X181495273Y-117091326D01*
X181519199Y-117112744D01*
X181532476Y-117162627D01*
X181546664Y-117238255D01*
X181640192Y-117152044D01*
X181698014Y-117102506D01*
X181744547Y-117076628D01*
X181797207Y-117066958D01*
X181841655Y-117065833D01*
X181914136Y-117070228D01*
G36*
X180898136Y-117070228D02*
G01*
X180947745Y-117087923D01*
X180993436Y-117125679D01*
X180993466Y-117125709D01*
X181025070Y-117161771D01*
X181049808Y-117202952D01*
X181068492Y-117254672D01*
X181081934Y-117322351D01*
X181090947Y-117411408D01*
X181096345Y-117527264D01*
X181098939Y-117675338D01*
X181099548Y-117833125D01*
X181099667Y-118314666D01*
X180930333Y-118314666D01*
X180930333Y-117858532D01*
X180929719Y-117697564D01*
X180927664Y-117573590D01*
X180923847Y-117481285D01*
X180917951Y-117415323D01*
X180909654Y-117370381D01*
X180899366Y-117342513D01*
X180850054Y-117279231D01*
X180788995Y-117256419D01*
X180716951Y-117274106D01*
X180634683Y-117332318D01*
X180634061Y-117332879D01*
X180549333Y-117409426D01*
X180549333Y-118314666D01*
X180464002Y-118314666D01*
X180405147Y-118308430D01*
X180371142Y-118292353D01*
X180368403Y-118287907D01*
X180365906Y-118260414D01*
X180364035Y-118196333D01*
X180362833Y-118101404D01*
X180362345Y-117981368D01*
X180362614Y-117841966D01*
X180363684Y-117688940D01*
X180363776Y-117679366D01*
X180369417Y-117097583D01*
X180430620Y-117090596D01*
X180488667Y-117097139D01*
X180520094Y-117135059D01*
X180527842Y-117190237D01*
X180530150Y-117215861D01*
X180541350Y-117220709D01*
X180568530Y-117202019D01*
X180618782Y-117157029D01*
X180622944Y-117153195D01*
X180680992Y-117103317D01*
X180727347Y-117077076D01*
X180779127Y-117067096D01*
X180825655Y-117065833D01*
X180898136Y-117070228D01*
G37*
X180898136Y-117070228D02*
X180947745Y-117087923D01*
X180993436Y-117125679D01*
X180993466Y-117125709D01*
X181025070Y-117161771D01*
X181049808Y-117202952D01*
X181068492Y-117254672D01*
X181081934Y-117322351D01*
X181090947Y-117411408D01*
X181096345Y-117527264D01*
X181098939Y-117675338D01*
X181099548Y-117833125D01*
X181099667Y-118314666D01*
X180930333Y-118314666D01*
X180930333Y-117858532D01*
X180929719Y-117697564D01*
X180927664Y-117573590D01*
X180923847Y-117481285D01*
X180917951Y-117415323D01*
X180909654Y-117370381D01*
X180899366Y-117342513D01*
X180850054Y-117279231D01*
X180788995Y-117256419D01*
X180716951Y-117274106D01*
X180634683Y-117332318D01*
X180634061Y-117332879D01*
X180549333Y-117409426D01*
X180549333Y-118314666D01*
X180464002Y-118314666D01*
X180405147Y-118308430D01*
X180371142Y-118292353D01*
X180368403Y-118287907D01*
X180365906Y-118260414D01*
X180364035Y-118196333D01*
X180362833Y-118101404D01*
X180362345Y-117981368D01*
X180362614Y-117841966D01*
X180363684Y-117688940D01*
X180363776Y-117679366D01*
X180369417Y-117097583D01*
X180430620Y-117090596D01*
X180488667Y-117097139D01*
X180520094Y-117135059D01*
X180527842Y-117190237D01*
X180530150Y-117215861D01*
X180541350Y-117220709D01*
X180568530Y-117202019D01*
X180618782Y-117157029D01*
X180622944Y-117153195D01*
X180680992Y-117103317D01*
X180727347Y-117077076D01*
X180779127Y-117067096D01*
X180825655Y-117065833D01*
X180898136Y-117070228D01*
G36*
X179304001Y-116516444D02*
G01*
X179305138Y-116516748D01*
X179358375Y-116533668D01*
X179380055Y-116553459D01*
X179379973Y-116588060D01*
X179376939Y-116604262D01*
X179367728Y-116656568D01*
X179364000Y-116689834D01*
X179345725Y-116700971D01*
X179298781Y-116698438D01*
X179294180Y-116697613D01*
X179229472Y-116692874D01*
X179184822Y-116710647D01*
X179156420Y-116756133D01*
X179140457Y-116834535D01*
X179134459Y-116915783D01*
X179126684Y-117087000D01*
X179321667Y-117087000D01*
X179321667Y-117277500D01*
X179131167Y-117277500D01*
X179131167Y-118314666D01*
X178961833Y-118314666D01*
X178961833Y-117277500D01*
X178898333Y-117277500D01*
X178857706Y-117274189D01*
X178839582Y-117256193D01*
X178834943Y-117211414D01*
X178834833Y-117192304D01*
X178838049Y-117136695D01*
X178853770Y-117109242D01*
X178891105Y-117095900D01*
X178898333Y-117094408D01*
X178961833Y-117081708D01*
X178961833Y-116908922D01*
X178971811Y-116761591D01*
X179002369Y-116649702D01*
X179054446Y-116571193D01*
X179128980Y-116524006D01*
X179138740Y-116520590D01*
X179220606Y-116504754D01*
X179304001Y-116516444D01*
G37*
X179304001Y-116516444D02*
X179305138Y-116516748D01*
X179358375Y-116533668D01*
X179380055Y-116553459D01*
X179379973Y-116588060D01*
X179376939Y-116604262D01*
X179367728Y-116656568D01*
X179364000Y-116689834D01*
X179345725Y-116700971D01*
X179298781Y-116698438D01*
X179294180Y-116697613D01*
X179229472Y-116692874D01*
X179184822Y-116710647D01*
X179156420Y-116756133D01*
X179140457Y-116834535D01*
X179134459Y-116915783D01*
X179126684Y-117087000D01*
X179321667Y-117087000D01*
X179321667Y-117277500D01*
X179131167Y-117277500D01*
X179131167Y-118314666D01*
X178961833Y-118314666D01*
X178961833Y-117277500D01*
X178898333Y-117277500D01*
X178857706Y-117274189D01*
X178839582Y-117256193D01*
X178834943Y-117211414D01*
X178834833Y-117192304D01*
X178838049Y-117136695D01*
X178853770Y-117109242D01*
X178891105Y-117095900D01*
X178898333Y-117094408D01*
X178961833Y-117081708D01*
X178961833Y-116908922D01*
X178971811Y-116761591D01*
X179002369Y-116649702D01*
X179054446Y-116571193D01*
X179128980Y-116524006D01*
X179138740Y-116520590D01*
X179220606Y-116504754D01*
X179304001Y-116516444D01*
G36*
X189699633Y-116707546D02*
G01*
X189780406Y-116747683D01*
X189846082Y-116821451D01*
X189878491Y-116877519D01*
X189930090Y-117003951D01*
X189964445Y-117151661D01*
X189982409Y-117326395D01*
X189984834Y-117533895D01*
X189983371Y-117584416D01*
X189968520Y-117797526D01*
X189939943Y-117972324D01*
X189896964Y-118110770D01*
X189838905Y-118214824D01*
X189765093Y-118286446D01*
X189735049Y-118304402D01*
X189650154Y-118329856D01*
X189555446Y-118331210D01*
X189492250Y-118315524D01*
X189415481Y-118261791D01*
X189348999Y-118171911D01*
X189294190Y-118051122D01*
X189252445Y-117904665D01*
X189225152Y-117737778D01*
X189213700Y-117555702D01*
X189216245Y-117471062D01*
X189389941Y-117471062D01*
X189391005Y-117611068D01*
X189396884Y-117741828D01*
X189407579Y-117850516D01*
X189415644Y-117896836D01*
X189449208Y-117999475D01*
X189496669Y-118078120D01*
X189552888Y-118128966D01*
X189612720Y-118148210D01*
X189671024Y-118132047D01*
X189700079Y-118107240D01*
X189736876Y-118058356D01*
X189764606Y-117999697D01*
X189784396Y-117924991D01*
X189797374Y-117827967D01*
X189804671Y-117702355D01*
X189807413Y-117541881D01*
X189807508Y-117510333D01*
X189805937Y-117343964D01*
X189799923Y-117213455D01*
X189788324Y-117112465D01*
X189770000Y-117034648D01*
X189743808Y-116973662D01*
X189708607Y-116923164D01*
X189700079Y-116913425D01*
X189644740Y-116876549D01*
X189585095Y-116877135D01*
X189526286Y-116911378D01*
X189473454Y-116975475D01*
X189431742Y-117065621D01*
X189415644Y-117123830D01*
X189402261Y-117214617D01*
X189393693Y-117334636D01*
X189389941Y-117471062D01*
X189216245Y-117471062D01*
X189219476Y-117363677D01*
X189224671Y-117305929D01*
X189246186Y-117141952D01*
X189274185Y-117012645D01*
X189311131Y-116910536D01*
X189359487Y-116828152D01*
X189397041Y-116782882D01*
X189447462Y-116732381D01*
X189488820Y-116706316D01*
X189539243Y-116696680D01*
X189595012Y-116695416D01*
X189699633Y-116707546D01*
G37*
X189699633Y-116707546D02*
X189780406Y-116747683D01*
X189846082Y-116821451D01*
X189878491Y-116877519D01*
X189930090Y-117003951D01*
X189964445Y-117151661D01*
X189982409Y-117326395D01*
X189984834Y-117533895D01*
X189983371Y-117584416D01*
X189968520Y-117797526D01*
X189939943Y-117972324D01*
X189896964Y-118110770D01*
X189838905Y-118214824D01*
X189765093Y-118286446D01*
X189735049Y-118304402D01*
X189650154Y-118329856D01*
X189555446Y-118331210D01*
X189492250Y-118315524D01*
X189415481Y-118261791D01*
X189348999Y-118171911D01*
X189294190Y-118051122D01*
X189252445Y-117904665D01*
X189225152Y-117737778D01*
X189213700Y-117555702D01*
X189216245Y-117471062D01*
X189389941Y-117471062D01*
X189391005Y-117611068D01*
X189396884Y-117741828D01*
X189407579Y-117850516D01*
X189415644Y-117896836D01*
X189449208Y-117999475D01*
X189496669Y-118078120D01*
X189552888Y-118128966D01*
X189612720Y-118148210D01*
X189671024Y-118132047D01*
X189700079Y-118107240D01*
X189736876Y-118058356D01*
X189764606Y-117999697D01*
X189784396Y-117924991D01*
X189797374Y-117827967D01*
X189804671Y-117702355D01*
X189807413Y-117541881D01*
X189807508Y-117510333D01*
X189805937Y-117343964D01*
X189799923Y-117213455D01*
X189788324Y-117112465D01*
X189770000Y-117034648D01*
X189743808Y-116973662D01*
X189708607Y-116923164D01*
X189700079Y-116913425D01*
X189644740Y-116876549D01*
X189585095Y-116877135D01*
X189526286Y-116911378D01*
X189473454Y-116975475D01*
X189431742Y-117065621D01*
X189415644Y-117123830D01*
X189402261Y-117214617D01*
X189393693Y-117334636D01*
X189389941Y-117471062D01*
X189216245Y-117471062D01*
X189219476Y-117363677D01*
X189224671Y-117305929D01*
X189246186Y-117141952D01*
X189274185Y-117012645D01*
X189311131Y-116910536D01*
X189359487Y-116828152D01*
X189397041Y-116782882D01*
X189447462Y-116732381D01*
X189488820Y-116706316D01*
X189539243Y-116696680D01*
X189595012Y-116695416D01*
X189699633Y-116707546D01*
G36*
X187827643Y-116692032D02*
G01*
X187917495Y-116733277D01*
X187998914Y-116810630D01*
X188062204Y-116921497D01*
X188107754Y-117067187D01*
X188135950Y-117249010D01*
X188147181Y-117468276D01*
X188147431Y-117510333D01*
X188139112Y-117736245D01*
X188113894Y-117924487D01*
X188071390Y-118076367D01*
X188011213Y-118193197D01*
X187932975Y-118276285D01*
X187917495Y-118287389D01*
X187825394Y-118326162D01*
X187722567Y-118332871D01*
X187649023Y-118315325D01*
X187586660Y-118271453D01*
X187524156Y-118194167D01*
X187467783Y-118091898D01*
X187448060Y-118045121D01*
X187428804Y-117988995D01*
X187414782Y-117929582D01*
X187404852Y-117857825D01*
X187397870Y-117764667D01*
X187392693Y-117641049D01*
X187391273Y-117595000D01*
X187390065Y-117510333D01*
X187554582Y-117510333D01*
X187560439Y-117709654D01*
X187578084Y-117869656D01*
X187607790Y-117991756D01*
X187649827Y-118077373D01*
X187667002Y-118098450D01*
X187727840Y-118136680D01*
X187795262Y-118137583D01*
X187857946Y-118102191D01*
X187878365Y-118079175D01*
X187922484Y-117991290D01*
X187953928Y-117863899D01*
X187972534Y-117697939D01*
X187978172Y-117510333D01*
X187971625Y-117307288D01*
X187951886Y-117144063D01*
X187918809Y-117020206D01*
X187872250Y-116935264D01*
X187812061Y-116888783D01*
X187774991Y-116879628D01*
X187705812Y-116891344D01*
X187649756Y-116942036D01*
X187606720Y-117032000D01*
X187576600Y-117161529D01*
X187559294Y-117330917D01*
X187554582Y-117510333D01*
X187390065Y-117510333D01*
X187388697Y-117414549D01*
X187393357Y-117267940D01*
X187406355Y-117147127D01*
X187428791Y-117044064D01*
X187461764Y-116950707D01*
X187486818Y-116896500D01*
X187556244Y-116791142D01*
X187639351Y-116720747D01*
X187731397Y-116687111D01*
X187827643Y-116692032D01*
G37*
X187827643Y-116692032D02*
X187917495Y-116733277D01*
X187998914Y-116810630D01*
X188062204Y-116921497D01*
X188107754Y-117067187D01*
X188135950Y-117249010D01*
X188147181Y-117468276D01*
X188147431Y-117510333D01*
X188139112Y-117736245D01*
X188113894Y-117924487D01*
X188071390Y-118076367D01*
X188011213Y-118193197D01*
X187932975Y-118276285D01*
X187917495Y-118287389D01*
X187825394Y-118326162D01*
X187722567Y-118332871D01*
X187649023Y-118315325D01*
X187586660Y-118271453D01*
X187524156Y-118194167D01*
X187467783Y-118091898D01*
X187448060Y-118045121D01*
X187428804Y-117988995D01*
X187414782Y-117929582D01*
X187404852Y-117857825D01*
X187397870Y-117764667D01*
X187392693Y-117641049D01*
X187391273Y-117595000D01*
X187390065Y-117510333D01*
X187554582Y-117510333D01*
X187560439Y-117709654D01*
X187578084Y-117869656D01*
X187607790Y-117991756D01*
X187649827Y-118077373D01*
X187667002Y-118098450D01*
X187727840Y-118136680D01*
X187795262Y-118137583D01*
X187857946Y-118102191D01*
X187878365Y-118079175D01*
X187922484Y-117991290D01*
X187953928Y-117863899D01*
X187972534Y-117697939D01*
X187978172Y-117510333D01*
X187971625Y-117307288D01*
X187951886Y-117144063D01*
X187918809Y-117020206D01*
X187872250Y-116935264D01*
X187812061Y-116888783D01*
X187774991Y-116879628D01*
X187705812Y-116891344D01*
X187649756Y-116942036D01*
X187606720Y-117032000D01*
X187576600Y-117161529D01*
X187559294Y-117330917D01*
X187554582Y-117510333D01*
X187390065Y-117510333D01*
X187388697Y-117414549D01*
X187393357Y-117267940D01*
X187406355Y-117147127D01*
X187428791Y-117044064D01*
X187461764Y-116950707D01*
X187486818Y-116896500D01*
X187556244Y-116791142D01*
X187639351Y-116720747D01*
X187731397Y-116687111D01*
X187827643Y-116692032D01*
G36*
X185269500Y-117087000D02*
G01*
X185523500Y-117087000D01*
X185523500Y-117277500D01*
X185269500Y-117277500D01*
X185270695Y-117632041D01*
X185272879Y-117781805D01*
X185278122Y-117906281D01*
X185286080Y-117999974D01*
X185296409Y-118057385D01*
X185297471Y-118060666D01*
X185316073Y-118105843D01*
X185340175Y-118127298D01*
X185384239Y-118133516D01*
X185421683Y-118133519D01*
X185481990Y-118134620D01*
X185512929Y-118145399D01*
X185527440Y-118174101D01*
X185533966Y-118205068D01*
X185538460Y-118262737D01*
X185521044Y-118298850D01*
X185474999Y-118319323D01*
X185393610Y-118330077D01*
X185391953Y-118330205D01*
X185306005Y-118330388D01*
X185247584Y-118313745D01*
X185232337Y-118304265D01*
X185194253Y-118273192D01*
X185164928Y-118238040D01*
X185143102Y-118192940D01*
X185127515Y-118132026D01*
X185116906Y-118049429D01*
X185110014Y-117939282D01*
X185105579Y-117795718D01*
X185103828Y-117706125D01*
X185096404Y-117277500D01*
X185034785Y-117277500D01*
X184995095Y-117273913D01*
X184977564Y-117255043D01*
X184973236Y-117208720D01*
X184973167Y-117193792D01*
X184976218Y-117139140D01*
X184992679Y-117112309D01*
X185033511Y-117098858D01*
X185047250Y-117096186D01*
X185121333Y-117082288D01*
X185121333Y-116748333D01*
X185269500Y-116748333D01*
X185269500Y-117087000D01*
G37*
X185269500Y-117087000D02*
X185523500Y-117087000D01*
X185523500Y-117277500D01*
X185269500Y-117277500D01*
X185270695Y-117632041D01*
X185272879Y-117781805D01*
X185278122Y-117906281D01*
X185286080Y-117999974D01*
X185296409Y-118057385D01*
X185297471Y-118060666D01*
X185316073Y-118105843D01*
X185340175Y-118127298D01*
X185384239Y-118133516D01*
X185421683Y-118133519D01*
X185481990Y-118134620D01*
X185512929Y-118145399D01*
X185527440Y-118174101D01*
X185533966Y-118205068D01*
X185538460Y-118262737D01*
X185521044Y-118298850D01*
X185474999Y-118319323D01*
X185393610Y-118330077D01*
X185391953Y-118330205D01*
X185306005Y-118330388D01*
X185247584Y-118313745D01*
X185232337Y-118304265D01*
X185194253Y-118273192D01*
X185164928Y-118238040D01*
X185143102Y-118192940D01*
X185127515Y-118132026D01*
X185116906Y-118049429D01*
X185110014Y-117939282D01*
X185105579Y-117795718D01*
X185103828Y-117706125D01*
X185096404Y-117277500D01*
X185034785Y-117277500D01*
X184995095Y-117273913D01*
X184977564Y-117255043D01*
X184973236Y-117208720D01*
X184973167Y-117193792D01*
X184976218Y-117139140D01*
X184992679Y-117112309D01*
X185033511Y-117098858D01*
X185047250Y-117096186D01*
X185121333Y-117082288D01*
X185121333Y-116748333D01*
X185269500Y-116748333D01*
X185269500Y-117087000D01*
G36*
X184676833Y-117087000D02*
G01*
X184930833Y-117087000D01*
X184930833Y-117277500D01*
X184672192Y-117277500D01*
X184680574Y-117663791D01*
X184684652Y-117820461D01*
X184690254Y-117939646D01*
X184698962Y-118026195D01*
X184712356Y-118084954D01*
X184732017Y-118120774D01*
X184759526Y-118138501D01*
X184796462Y-118142985D01*
X184835846Y-118140073D01*
X184893022Y-118135451D01*
X184921620Y-118144134D01*
X184935079Y-118174264D01*
X184941064Y-118203813D01*
X184944911Y-118260133D01*
X184935209Y-118297331D01*
X184933555Y-118299244D01*
X184893453Y-118317417D01*
X184828108Y-118327501D01*
X184753951Y-118328854D01*
X184687413Y-118320834D01*
X184655667Y-118310102D01*
X184612965Y-118273934D01*
X184570971Y-118217252D01*
X184560417Y-118198082D01*
X184545519Y-118164017D01*
X184534270Y-118124992D01*
X184526010Y-118074304D01*
X184520078Y-118005254D01*
X184515814Y-117911141D01*
X184512557Y-117785262D01*
X184510877Y-117695541D01*
X184503672Y-117277500D01*
X184442086Y-117277500D01*
X184402416Y-117273910D01*
X184384895Y-117255030D01*
X184380569Y-117208692D01*
X184380500Y-117193792D01*
X184383569Y-117139122D01*
X184399999Y-117112294D01*
X184440623Y-117098895D01*
X184453732Y-117096346D01*
X184526965Y-117082607D01*
X184533107Y-116920762D01*
X184539250Y-116758916D01*
X184608042Y-116752283D01*
X184676833Y-116745651D01*
X184676833Y-117087000D01*
G37*
X184676833Y-117087000D02*
X184930833Y-117087000D01*
X184930833Y-117277500D01*
X184672192Y-117277500D01*
X184680574Y-117663791D01*
X184684652Y-117820461D01*
X184690254Y-117939646D01*
X184698962Y-118026195D01*
X184712356Y-118084954D01*
X184732017Y-118120774D01*
X184759526Y-118138501D01*
X184796462Y-118142985D01*
X184835846Y-118140073D01*
X184893022Y-118135451D01*
X184921620Y-118144134D01*
X184935079Y-118174264D01*
X184941064Y-118203813D01*
X184944911Y-118260133D01*
X184935209Y-118297331D01*
X184933555Y-118299244D01*
X184893453Y-118317417D01*
X184828108Y-118327501D01*
X184753951Y-118328854D01*
X184687413Y-118320834D01*
X184655667Y-118310102D01*
X184612965Y-118273934D01*
X184570971Y-118217252D01*
X184560417Y-118198082D01*
X184545519Y-118164017D01*
X184534270Y-118124992D01*
X184526010Y-118074304D01*
X184520078Y-118005254D01*
X184515814Y-117911141D01*
X184512557Y-117785262D01*
X184510877Y-117695541D01*
X184503672Y-117277500D01*
X184442086Y-117277500D01*
X184402416Y-117273910D01*
X184384895Y-117255030D01*
X184380569Y-117208692D01*
X184380500Y-117193792D01*
X184383569Y-117139122D01*
X184399999Y-117112294D01*
X184440623Y-117098895D01*
X184453732Y-117096346D01*
X184526965Y-117082607D01*
X184533107Y-116920762D01*
X184539250Y-116758916D01*
X184608042Y-116752283D01*
X184676833Y-116745651D01*
X184676833Y-117087000D01*
G36*
X183639785Y-117515625D02*
G01*
X183640895Y-117651593D01*
X183643920Y-117777957D01*
X183648515Y-117886776D01*
X183654333Y-117970105D01*
X183661029Y-118020003D01*
X183661877Y-118023375D01*
X183698109Y-118099977D01*
X183751105Y-118139324D01*
X183816501Y-118140842D01*
X183889930Y-118103958D01*
X183939277Y-118059775D01*
X184020667Y-117974217D01*
X184020667Y-117087000D01*
X184211816Y-117087000D01*
X184206199Y-117695541D01*
X184200583Y-118304083D01*
X184132251Y-118310681D01*
X184087724Y-118311642D01*
X184065438Y-118295589D01*
X184053477Y-118251391D01*
X184050678Y-118234482D01*
X184037438Y-118151684D01*
X183958876Y-118235907D01*
X183903973Y-118288326D01*
X183853607Y-118315724D01*
X183788367Y-118327993D01*
X183775865Y-118329160D01*
X183693014Y-118329284D01*
X183628839Y-118309840D01*
X183603738Y-118295666D01*
X183565115Y-118265820D01*
X183534517Y-118226999D01*
X183511067Y-118174364D01*
X183493888Y-118103076D01*
X183482103Y-118008294D01*
X183474836Y-117885179D01*
X183471210Y-117728892D01*
X183470333Y-117559408D01*
X183470333Y-117087000D01*
X183639667Y-117087000D01*
X183639785Y-117515625D01*
G37*
X183639785Y-117515625D02*
X183640895Y-117651593D01*
X183643920Y-117777957D01*
X183648515Y-117886776D01*
X183654333Y-117970105D01*
X183661029Y-118020003D01*
X183661877Y-118023375D01*
X183698109Y-118099977D01*
X183751105Y-118139324D01*
X183816501Y-118140842D01*
X183889930Y-118103958D01*
X183939277Y-118059775D01*
X184020667Y-117974217D01*
X184020667Y-117087000D01*
X184211816Y-117087000D01*
X184206199Y-117695541D01*
X184200583Y-118304083D01*
X184132251Y-118310681D01*
X184087724Y-118311642D01*
X184065438Y-118295589D01*
X184053477Y-118251391D01*
X184050678Y-118234482D01*
X184037438Y-118151684D01*
X183958876Y-118235907D01*
X183903973Y-118288326D01*
X183853607Y-118315724D01*
X183788367Y-118327993D01*
X183775865Y-118329160D01*
X183693014Y-118329284D01*
X183628839Y-118309840D01*
X183603738Y-118295666D01*
X183565115Y-118265820D01*
X183534517Y-118226999D01*
X183511067Y-118174364D01*
X183493888Y-118103076D01*
X183482103Y-118008294D01*
X183474836Y-117885179D01*
X183471210Y-117728892D01*
X183470333Y-117559408D01*
X183470333Y-117087000D01*
X183639667Y-117087000D01*
X183639785Y-117515625D01*
G36*
X183047000Y-117087000D02*
G01*
X183301000Y-117087000D01*
X183301000Y-117277500D01*
X183043701Y-117277500D01*
X183050642Y-117676467D01*
X183053872Y-117830992D01*
X183058585Y-117948065D01*
X183066440Y-118032566D01*
X183079098Y-118089376D01*
X183098220Y-118123374D01*
X183125465Y-118139443D01*
X183162493Y-118142463D01*
X183207576Y-118137781D01*
X183263324Y-118131947D01*
X183290648Y-118140756D01*
X183303058Y-118173057D01*
X183308384Y-118203804D01*
X183311795Y-118259942D01*
X183303937Y-118298071D01*
X183301191Y-118301775D01*
X183270276Y-118314490D01*
X183212055Y-118325933D01*
X183165078Y-118331283D01*
X183095025Y-118334760D01*
X183049983Y-118327236D01*
X183013059Y-118303722D01*
X182986412Y-118278502D01*
X182950977Y-118237295D01*
X182923976Y-118189636D01*
X182904331Y-118129432D01*
X182890967Y-118050591D01*
X182882807Y-117947022D01*
X182878774Y-117812632D01*
X182877785Y-117663791D01*
X182877667Y-117277500D01*
X182814167Y-117277500D01*
X182773539Y-117274189D01*
X182755415Y-117256193D01*
X182750777Y-117211414D01*
X182750667Y-117192304D01*
X182753942Y-117136617D01*
X182769650Y-117109152D01*
X182806608Y-117095952D01*
X182812292Y-117094783D01*
X182852662Y-117080290D01*
X182878363Y-117050980D01*
X182892461Y-116998867D01*
X182898019Y-116915966D01*
X182898544Y-116870041D01*
X182898833Y-116748333D01*
X183047000Y-116748333D01*
X183047000Y-117087000D01*
G37*
X183047000Y-117087000D02*
X183301000Y-117087000D01*
X183301000Y-117277500D01*
X183043701Y-117277500D01*
X183050642Y-117676467D01*
X183053872Y-117830992D01*
X183058585Y-117948065D01*
X183066440Y-118032566D01*
X183079098Y-118089376D01*
X183098220Y-118123374D01*
X183125465Y-118139443D01*
X183162493Y-118142463D01*
X183207576Y-118137781D01*
X183263324Y-118131947D01*
X183290648Y-118140756D01*
X183303058Y-118173057D01*
X183308384Y-118203804D01*
X183311795Y-118259942D01*
X183303937Y-118298071D01*
X183301191Y-118301775D01*
X183270276Y-118314490D01*
X183212055Y-118325933D01*
X183165078Y-118331283D01*
X183095025Y-118334760D01*
X183049983Y-118327236D01*
X183013059Y-118303722D01*
X182986412Y-118278502D01*
X182950977Y-118237295D01*
X182923976Y-118189636D01*
X182904331Y-118129432D01*
X182890967Y-118050591D01*
X182882807Y-117947022D01*
X182878774Y-117812632D01*
X182877785Y-117663791D01*
X182877667Y-117277500D01*
X182814167Y-117277500D01*
X182773539Y-117274189D01*
X182755415Y-117256193D01*
X182750777Y-117211414D01*
X182750667Y-117192304D01*
X182753942Y-117136617D01*
X182769650Y-117109152D01*
X182806608Y-117095952D01*
X182812292Y-117094783D01*
X182852662Y-117080290D01*
X182878363Y-117050980D01*
X182892461Y-116998867D01*
X182898019Y-116915966D01*
X182898544Y-116870041D01*
X182898833Y-116748333D01*
X183047000Y-116748333D01*
X183047000Y-117087000D01*
G36*
X179885898Y-117081392D02*
G01*
X179971268Y-117130157D01*
X180036945Y-117215262D01*
X180047074Y-117234704D01*
X180062257Y-117267995D01*
X180073932Y-117302477D01*
X180082665Y-117344293D01*
X180089024Y-117399582D01*
X180093574Y-117474488D01*
X180096880Y-117575152D01*
X180099509Y-117707716D01*
X180101247Y-117822541D01*
X180108244Y-118314666D01*
X180032455Y-118314666D01*
X179981942Y-118311338D01*
X179960923Y-118294204D01*
X179956668Y-118252541D01*
X179956667Y-118250815D01*
X179956667Y-118186964D01*
X179848458Y-118261398D01*
X179738264Y-118319384D01*
X179635868Y-118336066D01*
X179540396Y-118311578D01*
X179535374Y-118309062D01*
X179463666Y-118254819D01*
X179417080Y-118175869D01*
X179392687Y-118066452D01*
X179388919Y-118021112D01*
X179390847Y-117974144D01*
X179554500Y-117974144D01*
X179568106Y-118062844D01*
X179609120Y-118119373D01*
X179677836Y-118144074D01*
X179702360Y-118145333D01*
X179766673Y-118136853D01*
X179823289Y-118105723D01*
X179859909Y-118074042D01*
X179898490Y-118035570D01*
X179921040Y-118002006D01*
X179931858Y-117960232D01*
X179935245Y-117897131D01*
X179935500Y-117843458D01*
X179935500Y-117684166D01*
X179848610Y-117703689D01*
X179722144Y-117745855D01*
X179629521Y-117806910D01*
X179572922Y-117884850D01*
X179554500Y-117974144D01*
X179390847Y-117974144D01*
X179394287Y-117890384D01*
X179428504Y-117783779D01*
X179494352Y-117698147D01*
X179594616Y-117630332D01*
X179732078Y-117577184D01*
X179796168Y-117559800D01*
X179938912Y-117524574D01*
X179925523Y-117448662D01*
X179892644Y-117350313D01*
X179837280Y-117286487D01*
X179763425Y-117258677D01*
X179675079Y-117268381D01*
X179576237Y-117317092D01*
X179575388Y-117317661D01*
X179481126Y-117380968D01*
X179451738Y-117307287D01*
X179434433Y-117255191D01*
X179437200Y-117222560D01*
X179456465Y-117195910D01*
X179525642Y-117142006D01*
X179619235Y-117097896D01*
X179719400Y-117070849D01*
X179775802Y-117065833D01*
X179885898Y-117081392D01*
G37*
X179885898Y-117081392D02*
X179971268Y-117130157D01*
X180036945Y-117215262D01*
X180047074Y-117234704D01*
X180062257Y-117267995D01*
X180073932Y-117302477D01*
X180082665Y-117344293D01*
X180089024Y-117399582D01*
X180093574Y-117474488D01*
X180096880Y-117575152D01*
X180099509Y-117707716D01*
X180101247Y-117822541D01*
X180108244Y-118314666D01*
X180032455Y-118314666D01*
X179981942Y-118311338D01*
X179960923Y-118294204D01*
X179956668Y-118252541D01*
X179956667Y-118250815D01*
X179956667Y-118186964D01*
X179848458Y-118261398D01*
X179738264Y-118319384D01*
X179635868Y-118336066D01*
X179540396Y-118311578D01*
X179535374Y-118309062D01*
X179463666Y-118254819D01*
X179417080Y-118175869D01*
X179392687Y-118066452D01*
X179388919Y-118021112D01*
X179390847Y-117974144D01*
X179554500Y-117974144D01*
X179568106Y-118062844D01*
X179609120Y-118119373D01*
X179677836Y-118144074D01*
X179702360Y-118145333D01*
X179766673Y-118136853D01*
X179823289Y-118105723D01*
X179859909Y-118074042D01*
X179898490Y-118035570D01*
X179921040Y-118002006D01*
X179931858Y-117960232D01*
X179935245Y-117897131D01*
X179935500Y-117843458D01*
X179935500Y-117684166D01*
X179848610Y-117703689D01*
X179722144Y-117745855D01*
X179629521Y-117806910D01*
X179572922Y-117884850D01*
X179554500Y-117974144D01*
X179390847Y-117974144D01*
X179394287Y-117890384D01*
X179428504Y-117783779D01*
X179494352Y-117698147D01*
X179594616Y-117630332D01*
X179732078Y-117577184D01*
X179796168Y-117559800D01*
X179938912Y-117524574D01*
X179925523Y-117448662D01*
X179892644Y-117350313D01*
X179837280Y-117286487D01*
X179763425Y-117258677D01*
X179675079Y-117268381D01*
X179576237Y-117317092D01*
X179575388Y-117317661D01*
X179481126Y-117380968D01*
X179451738Y-117307287D01*
X179434433Y-117255191D01*
X179437200Y-117222560D01*
X179456465Y-117195910D01*
X179525642Y-117142006D01*
X179619235Y-117097896D01*
X179719400Y-117070849D01*
X179775802Y-117065833D01*
X179885898Y-117081392D01*
G36*
X177575661Y-117078772D02*
G01*
X177666495Y-117122960D01*
X177741059Y-117205121D01*
X177774075Y-117262943D01*
X177807709Y-117354869D01*
X177832939Y-117469370D01*
X177846697Y-117587211D01*
X177845919Y-117689154D01*
X177844206Y-117702939D01*
X177835195Y-117764333D01*
X177247333Y-117764333D01*
X177247798Y-117822541D01*
X177263289Y-117904406D01*
X177302231Y-117993445D01*
X177355045Y-118070350D01*
X177385112Y-118099372D01*
X177463987Y-118136580D01*
X177558066Y-118143694D01*
X177652616Y-118120553D01*
X177687459Y-118102673D01*
X177757169Y-118060172D01*
X177786199Y-118129211D01*
X177801937Y-118183599D01*
X177791986Y-118224595D01*
X177751143Y-118260490D01*
X177681250Y-118296389D01*
X177556576Y-118331139D01*
X177430409Y-118324070D01*
X177334568Y-118289923D01*
X177232879Y-118216426D01*
X177156855Y-118109455D01*
X177106602Y-117969279D01*
X177082224Y-117796169D01*
X177081428Y-117634009D01*
X177091646Y-117547375D01*
X177247798Y-117547375D01*
X177249423Y-117568573D01*
X177259808Y-117582315D01*
X177286471Y-117590215D01*
X177336928Y-117593887D01*
X177418699Y-117594946D01*
X177469583Y-117595000D01*
X177691833Y-117595000D01*
X177691368Y-117526208D01*
X177682049Y-117463329D01*
X177659319Y-117389613D01*
X177649999Y-117367301D01*
X177597259Y-117288760D01*
X177530740Y-117248149D01*
X177455837Y-117246824D01*
X177377947Y-117286144D01*
X177366052Y-117295878D01*
X177325329Y-117346431D01*
X177286110Y-117418976D01*
X177257347Y-117494476D01*
X177247798Y-117547375D01*
X177091646Y-117547375D01*
X177102181Y-117458059D01*
X177147052Y-117312952D01*
X177214998Y-117200214D01*
X177304978Y-117121371D01*
X177415949Y-117077949D01*
X177465818Y-117070854D01*
X177575661Y-117078772D01*
G37*
X177575661Y-117078772D02*
X177666495Y-117122960D01*
X177741059Y-117205121D01*
X177774075Y-117262943D01*
X177807709Y-117354869D01*
X177832939Y-117469370D01*
X177846697Y-117587211D01*
X177845919Y-117689154D01*
X177844206Y-117702939D01*
X177835195Y-117764333D01*
X177247333Y-117764333D01*
X177247798Y-117822541D01*
X177263289Y-117904406D01*
X177302231Y-117993445D01*
X177355045Y-118070350D01*
X177385112Y-118099372D01*
X177463987Y-118136580D01*
X177558066Y-118143694D01*
X177652616Y-118120553D01*
X177687459Y-118102673D01*
X177757169Y-118060172D01*
X177786199Y-118129211D01*
X177801937Y-118183599D01*
X177791986Y-118224595D01*
X177751143Y-118260490D01*
X177681250Y-118296389D01*
X177556576Y-118331139D01*
X177430409Y-118324070D01*
X177334568Y-118289923D01*
X177232879Y-118216426D01*
X177156855Y-118109455D01*
X177106602Y-117969279D01*
X177082224Y-117796169D01*
X177081428Y-117634009D01*
X177091646Y-117547375D01*
X177247798Y-117547375D01*
X177249423Y-117568573D01*
X177259808Y-117582315D01*
X177286471Y-117590215D01*
X177336928Y-117593887D01*
X177418699Y-117594946D01*
X177469583Y-117595000D01*
X177691833Y-117595000D01*
X177691368Y-117526208D01*
X177682049Y-117463329D01*
X177659319Y-117389613D01*
X177649999Y-117367301D01*
X177597259Y-117288760D01*
X177530740Y-117248149D01*
X177455837Y-117246824D01*
X177377947Y-117286144D01*
X177366052Y-117295878D01*
X177325329Y-117346431D01*
X177286110Y-117418976D01*
X177257347Y-117494476D01*
X177247798Y-117547375D01*
X177091646Y-117547375D01*
X177102181Y-117458059D01*
X177147052Y-117312952D01*
X177214998Y-117200214D01*
X177304978Y-117121371D01*
X177415949Y-117077949D01*
X177465818Y-117070854D01*
X177575661Y-117078772D01*
G36*
X176698670Y-117075672D02*
G01*
X176780518Y-117101882D01*
X176845799Y-117139690D01*
X176887048Y-117184246D01*
X176896801Y-117230697D01*
X176889896Y-117249280D01*
X176856313Y-117304807D01*
X176830409Y-117327334D01*
X176798954Y-117320673D01*
X176750089Y-117289566D01*
X176666296Y-117245909D01*
X176595657Y-117240113D01*
X176532508Y-117272120D01*
X176516121Y-117287121D01*
X176470969Y-117350092D01*
X176464070Y-117412210D01*
X176496329Y-117475218D01*
X176568648Y-117540859D01*
X176681930Y-117610877D01*
X176684554Y-117612299D01*
X176760803Y-117657602D01*
X176826337Y-117703810D01*
X176868281Y-117741743D01*
X176871168Y-117745370D01*
X176917038Y-117838599D01*
X176936383Y-117950052D01*
X176929163Y-118064926D01*
X176895340Y-118168421D01*
X176872386Y-118206042D01*
X176797314Y-118275188D01*
X176698694Y-118319196D01*
X176589250Y-118334755D01*
X176481708Y-118318555D01*
X176464167Y-118312261D01*
X176416334Y-118288707D01*
X176359440Y-118254465D01*
X176305327Y-118217557D01*
X176265835Y-118186006D01*
X176252579Y-118168912D01*
X176262680Y-118144055D01*
X176287611Y-118098790D01*
X176295111Y-118086287D01*
X176337563Y-118016657D01*
X176416740Y-118079523D01*
X176513391Y-118139379D01*
X176601347Y-118159233D01*
X176679095Y-118138883D01*
X176708599Y-118118078D01*
X176754278Y-118064131D01*
X176768837Y-117999301D01*
X176768967Y-117990379D01*
X176758288Y-117923455D01*
X176722453Y-117866345D01*
X176655760Y-117812576D01*
X176569922Y-117764345D01*
X176450726Y-117692418D01*
X176369316Y-117614623D01*
X176321164Y-117526351D01*
X176314329Y-117504129D01*
X176300195Y-117385562D01*
X176320111Y-117276614D01*
X176369663Y-117183875D01*
X176444439Y-117113939D01*
X176540024Y-117073396D01*
X176607721Y-117065912D01*
X176698670Y-117075672D01*
G37*
X176698670Y-117075672D02*
X176780518Y-117101882D01*
X176845799Y-117139690D01*
X176887048Y-117184246D01*
X176896801Y-117230697D01*
X176889896Y-117249280D01*
X176856313Y-117304807D01*
X176830409Y-117327334D01*
X176798954Y-117320673D01*
X176750089Y-117289566D01*
X176666296Y-117245909D01*
X176595657Y-117240113D01*
X176532508Y-117272120D01*
X176516121Y-117287121D01*
X176470969Y-117350092D01*
X176464070Y-117412210D01*
X176496329Y-117475218D01*
X176568648Y-117540859D01*
X176681930Y-117610877D01*
X176684554Y-117612299D01*
X176760803Y-117657602D01*
X176826337Y-117703810D01*
X176868281Y-117741743D01*
X176871168Y-117745370D01*
X176917038Y-117838599D01*
X176936383Y-117950052D01*
X176929163Y-118064926D01*
X176895340Y-118168421D01*
X176872386Y-118206042D01*
X176797314Y-118275188D01*
X176698694Y-118319196D01*
X176589250Y-118334755D01*
X176481708Y-118318555D01*
X176464167Y-118312261D01*
X176416334Y-118288707D01*
X176359440Y-118254465D01*
X176305327Y-118217557D01*
X176265835Y-118186006D01*
X176252579Y-118168912D01*
X176262680Y-118144055D01*
X176287611Y-118098790D01*
X176295111Y-118086287D01*
X176337563Y-118016657D01*
X176416740Y-118079523D01*
X176513391Y-118139379D01*
X176601347Y-118159233D01*
X176679095Y-118138883D01*
X176708599Y-118118078D01*
X176754278Y-118064131D01*
X176768837Y-117999301D01*
X176768967Y-117990379D01*
X176758288Y-117923455D01*
X176722453Y-117866345D01*
X176655760Y-117812576D01*
X176569922Y-117764345D01*
X176450726Y-117692418D01*
X176369316Y-117614623D01*
X176321164Y-117526351D01*
X176314329Y-117504129D01*
X176300195Y-117385562D01*
X176320111Y-117276614D01*
X176369663Y-117183875D01*
X176444439Y-117113939D01*
X176540024Y-117073396D01*
X176607721Y-117065912D01*
X176698670Y-117075672D01*
G36*
X175813771Y-117085059D02*
G01*
X175906432Y-117125829D01*
X175922639Y-117137125D01*
X176005792Y-117225515D01*
X176068602Y-117343157D01*
X176110488Y-117481867D01*
X176130869Y-117633461D01*
X176129164Y-117789755D01*
X176104793Y-117942563D01*
X176057176Y-118083701D01*
X175997284Y-118189373D01*
X175920900Y-118264096D01*
X175823053Y-118313105D01*
X175715872Y-118333227D01*
X175611483Y-118321290D01*
X175564583Y-118302546D01*
X175487788Y-118253646D01*
X175427766Y-118191305D01*
X175374595Y-118103998D01*
X175350348Y-118053690D01*
X175322725Y-117988986D01*
X175305212Y-117932175D01*
X175295606Y-117870114D01*
X175291706Y-117789663D01*
X175291222Y-117700833D01*
X175469333Y-117700833D01*
X175478022Y-117849202D01*
X175505287Y-117965095D01*
X175552924Y-118054902D01*
X175577020Y-118083818D01*
X175648736Y-118135259D01*
X175725505Y-118145875D01*
X175801103Y-118115644D01*
X175836996Y-118084707D01*
X175895458Y-117996842D01*
X175934031Y-117883207D01*
X175952717Y-117754539D01*
X175951517Y-117621576D01*
X175930431Y-117495056D01*
X175889462Y-117385716D01*
X175836916Y-117312189D01*
X175763776Y-117264375D01*
X175685401Y-117256669D01*
X175609594Y-117288899D01*
X175577020Y-117317848D01*
X175521079Y-117399334D01*
X175486201Y-117504450D01*
X175470588Y-117639587D01*
X175469333Y-117700833D01*
X175291222Y-117700833D01*
X175292754Y-117594830D01*
X175298170Y-117517788D01*
X175309750Y-117456363D01*
X175329779Y-117397212D01*
X175351988Y-117345721D01*
X175414339Y-117235289D01*
X175488709Y-117147378D01*
X175567849Y-117089663D01*
X175608564Y-117074111D01*
X175707574Y-117066434D01*
X175813771Y-117085059D01*
G37*
X175813771Y-117085059D02*
X175906432Y-117125829D01*
X175922639Y-117137125D01*
X176005792Y-117225515D01*
X176068602Y-117343157D01*
X176110488Y-117481867D01*
X176130869Y-117633461D01*
X176129164Y-117789755D01*
X176104793Y-117942563D01*
X176057176Y-118083701D01*
X175997284Y-118189373D01*
X175920900Y-118264096D01*
X175823053Y-118313105D01*
X175715872Y-118333227D01*
X175611483Y-118321290D01*
X175564583Y-118302546D01*
X175487788Y-118253646D01*
X175427766Y-118191305D01*
X175374595Y-118103998D01*
X175350348Y-118053690D01*
X175322725Y-117988986D01*
X175305212Y-117932175D01*
X175295606Y-117870114D01*
X175291706Y-117789663D01*
X175291222Y-117700833D01*
X175469333Y-117700833D01*
X175478022Y-117849202D01*
X175505287Y-117965095D01*
X175552924Y-118054902D01*
X175577020Y-118083818D01*
X175648736Y-118135259D01*
X175725505Y-118145875D01*
X175801103Y-118115644D01*
X175836996Y-118084707D01*
X175895458Y-117996842D01*
X175934031Y-117883207D01*
X175952717Y-117754539D01*
X175951517Y-117621576D01*
X175930431Y-117495056D01*
X175889462Y-117385716D01*
X175836916Y-117312189D01*
X175763776Y-117264375D01*
X175685401Y-117256669D01*
X175609594Y-117288899D01*
X175577020Y-117317848D01*
X175521079Y-117399334D01*
X175486201Y-117504450D01*
X175470588Y-117639587D01*
X175469333Y-117700833D01*
X175291222Y-117700833D01*
X175292754Y-117594830D01*
X175298170Y-117517788D01*
X175309750Y-117456363D01*
X175329779Y-117397212D01*
X175351988Y-117345721D01*
X175414339Y-117235289D01*
X175488709Y-117147378D01*
X175567849Y-117089663D01*
X175608564Y-117074111D01*
X175707574Y-117066434D01*
X175813771Y-117085059D01*
G36*
X174998408Y-117075574D02*
G01*
X175096126Y-117115294D01*
X175158714Y-117167575D01*
X175183010Y-117199912D01*
X175184001Y-117229933D01*
X175163412Y-117275575D01*
X175134789Y-117323597D01*
X175108456Y-117336627D01*
X175070675Y-117317366D01*
X175046000Y-117298666D01*
X174969149Y-117261598D01*
X174889169Y-117262457D01*
X174812913Y-117298032D01*
X174747232Y-117365111D01*
X174698981Y-117460482D01*
X174698640Y-117461477D01*
X174674047Y-117574521D01*
X174666327Y-117706557D01*
X174675479Y-117837751D01*
X174698640Y-117940188D01*
X174747761Y-118038180D01*
X174814324Y-118105768D01*
X174891930Y-118140278D01*
X174974177Y-118139040D01*
X175054666Y-118099381D01*
X175063306Y-118092416D01*
X175106483Y-118058502D01*
X175135097Y-118040420D01*
X175138470Y-118039500D01*
X175155347Y-118056313D01*
X175180682Y-118097549D01*
X175184700Y-118105159D01*
X175205445Y-118151743D01*
X175202368Y-118183087D01*
X175172707Y-118220673D01*
X175169369Y-118224304D01*
X175080240Y-118291631D01*
X174971843Y-118328413D01*
X174856612Y-118332158D01*
X174759856Y-118306336D01*
X174660128Y-118240247D01*
X174581993Y-118139729D01*
X174526647Y-118007446D01*
X174495286Y-117846064D01*
X174488249Y-117700833D01*
X174495640Y-117551790D01*
X174518201Y-117430092D01*
X174559472Y-117322381D01*
X174612930Y-117230293D01*
X174690078Y-117146689D01*
X174786178Y-117092330D01*
X174892023Y-117068272D01*
X174998408Y-117075574D01*
G37*
X174998408Y-117075574D02*
X175096126Y-117115294D01*
X175158714Y-117167575D01*
X175183010Y-117199912D01*
X175184001Y-117229933D01*
X175163412Y-117275575D01*
X175134789Y-117323597D01*
X175108456Y-117336627D01*
X175070675Y-117317366D01*
X175046000Y-117298666D01*
X174969149Y-117261598D01*
X174889169Y-117262457D01*
X174812913Y-117298032D01*
X174747232Y-117365111D01*
X174698981Y-117460482D01*
X174698640Y-117461477D01*
X174674047Y-117574521D01*
X174666327Y-117706557D01*
X174675479Y-117837751D01*
X174698640Y-117940188D01*
X174747761Y-118038180D01*
X174814324Y-118105768D01*
X174891930Y-118140278D01*
X174974177Y-118139040D01*
X175054666Y-118099381D01*
X175063306Y-118092416D01*
X175106483Y-118058502D01*
X175135097Y-118040420D01*
X175138470Y-118039500D01*
X175155347Y-118056313D01*
X175180682Y-118097549D01*
X175184700Y-118105159D01*
X175205445Y-118151743D01*
X175202368Y-118183087D01*
X175172707Y-118220673D01*
X175169369Y-118224304D01*
X175080240Y-118291631D01*
X174971843Y-118328413D01*
X174856612Y-118332158D01*
X174759856Y-118306336D01*
X174660128Y-118240247D01*
X174581993Y-118139729D01*
X174526647Y-118007446D01*
X174495286Y-117846064D01*
X174488249Y-117700833D01*
X174495640Y-117551790D01*
X174518201Y-117430092D01*
X174559472Y-117322381D01*
X174612930Y-117230293D01*
X174690078Y-117146689D01*
X174786178Y-117092330D01*
X174892023Y-117068272D01*
X174998408Y-117075574D01*
G36*
X178195353Y-117399208D02*
G01*
X178230268Y-117526381D01*
X178265727Y-117656394D01*
X178298081Y-117775813D01*
X178323680Y-117871200D01*
X178328555Y-117889562D01*
X178375704Y-118067707D01*
X178445126Y-117773145D01*
X178475297Y-117645188D01*
X178506898Y-117511273D01*
X178536285Y-117386834D01*
X178559815Y-117287305D01*
X178560883Y-117282791D01*
X178607218Y-117087000D01*
X178691570Y-117087000D01*
X178745086Y-117088962D01*
X178766389Y-117100414D01*
X178765585Y-117129697D01*
X178762069Y-117145208D01*
X178730239Y-117275553D01*
X178692746Y-117423512D01*
X178651164Y-117583380D01*
X178607067Y-117749453D01*
X178562028Y-117916025D01*
X178517621Y-118077393D01*
X178475420Y-118227851D01*
X178436999Y-118361695D01*
X178403932Y-118473220D01*
X178377792Y-118556721D01*
X178360152Y-118606495D01*
X178356990Y-118613534D01*
X178288721Y-118719022D01*
X178209464Y-118789100D01*
X178122947Y-118820768D01*
X178097667Y-118822342D01*
X178038547Y-118817657D01*
X177996077Y-118806613D01*
X177992741Y-118804775D01*
X177973715Y-118772675D01*
X177975098Y-118757474D01*
X177986727Y-118714562D01*
X177997198Y-118669955D01*
X178015170Y-118628428D01*
X178041346Y-118624613D01*
X178106605Y-118630053D01*
X178166640Y-118593985D01*
X178221882Y-118516127D01*
X178229649Y-118501092D01*
X178260299Y-118429249D01*
X178280207Y-118362749D01*
X178284500Y-118330873D01*
X178278537Y-118295242D01*
X178261714Y-118225042D01*
X178235632Y-118126162D01*
X178201889Y-118004491D01*
X178162086Y-117865919D01*
X178117822Y-117716333D01*
X178115167Y-117707492D01*
X178070940Y-117559389D01*
X178031022Y-117423803D01*
X177996986Y-117306228D01*
X177970403Y-117212159D01*
X177952846Y-117147092D01*
X177945886Y-117116523D01*
X177945833Y-117115629D01*
X177965663Y-117094347D01*
X178025285Y-117087005D01*
X178027567Y-117087000D01*
X178109301Y-117087000D01*
X178195353Y-117399208D01*
G37*
X178195353Y-117399208D02*
X178230268Y-117526381D01*
X178265727Y-117656394D01*
X178298081Y-117775813D01*
X178323680Y-117871200D01*
X178328555Y-117889562D01*
X178375704Y-118067707D01*
X178445126Y-117773145D01*
X178475297Y-117645188D01*
X178506898Y-117511273D01*
X178536285Y-117386834D01*
X178559815Y-117287305D01*
X178560883Y-117282791D01*
X178607218Y-117087000D01*
X178691570Y-117087000D01*
X178745086Y-117088962D01*
X178766389Y-117100414D01*
X178765585Y-117129697D01*
X178762069Y-117145208D01*
X178730239Y-117275553D01*
X178692746Y-117423512D01*
X178651164Y-117583380D01*
X178607067Y-117749453D01*
X178562028Y-117916025D01*
X178517621Y-118077393D01*
X178475420Y-118227851D01*
X178436999Y-118361695D01*
X178403932Y-118473220D01*
X178377792Y-118556721D01*
X178360152Y-118606495D01*
X178356990Y-118613534D01*
X178288721Y-118719022D01*
X178209464Y-118789100D01*
X178122947Y-118820768D01*
X178097667Y-118822342D01*
X178038547Y-118817657D01*
X177996077Y-118806613D01*
X177992741Y-118804775D01*
X177973715Y-118772675D01*
X177975098Y-118757474D01*
X177986727Y-118714562D01*
X177997198Y-118669955D01*
X178015170Y-118628428D01*
X178041346Y-118624613D01*
X178106605Y-118630053D01*
X178166640Y-118593985D01*
X178221882Y-118516127D01*
X178229649Y-118501092D01*
X178260299Y-118429249D01*
X178280207Y-118362749D01*
X178284500Y-118330873D01*
X178278537Y-118295242D01*
X178261714Y-118225042D01*
X178235632Y-118126162D01*
X178201889Y-118004491D01*
X178162086Y-117865919D01*
X178117822Y-117716333D01*
X178115167Y-117707492D01*
X178070940Y-117559389D01*
X178031022Y-117423803D01*
X177996986Y-117306228D01*
X177970403Y-117212159D01*
X177952846Y-117147092D01*
X177945886Y-117116523D01*
X177945833Y-117115629D01*
X177965663Y-117094347D01*
X178025285Y-117087005D01*
X178027567Y-117087000D01*
X178109301Y-117087000D01*
X178195353Y-117399208D01*
G36*
X185767116Y-119472240D02*
G01*
X185801015Y-119506652D01*
X185835572Y-119546938D01*
X185858377Y-119579132D01*
X185861498Y-119587277D01*
X185849828Y-119606838D01*
X185818467Y-119651238D01*
X185773560Y-119712367D01*
X185721256Y-119782114D01*
X185667699Y-119852368D01*
X185619038Y-119915019D01*
X185581418Y-119961955D01*
X185560986Y-119985066D01*
X185559203Y-119986168D01*
X185545470Y-119970623D01*
X185517700Y-119933947D01*
X185516374Y-119932129D01*
X185492123Y-119886001D01*
X185488459Y-119850192D01*
X185505571Y-119817360D01*
X185538617Y-119762329D01*
X185581792Y-119693936D01*
X185629291Y-119621020D01*
X185675310Y-119552419D01*
X185714042Y-119496971D01*
X185739682Y-119463513D01*
X185746290Y-119457666D01*
X185767116Y-119472240D01*
G37*
X185767116Y-119472240D02*
X185801015Y-119506652D01*
X185835572Y-119546938D01*
X185858377Y-119579132D01*
X185861498Y-119587277D01*
X185849828Y-119606838D01*
X185818467Y-119651238D01*
X185773560Y-119712367D01*
X185721256Y-119782114D01*
X185667699Y-119852368D01*
X185619038Y-119915019D01*
X185581418Y-119961955D01*
X185560986Y-119985066D01*
X185559203Y-119986168D01*
X185545470Y-119970623D01*
X185517700Y-119933947D01*
X185516374Y-119932129D01*
X185492123Y-119886001D01*
X185488459Y-119850192D01*
X185505571Y-119817360D01*
X185538617Y-119762329D01*
X185581792Y-119693936D01*
X185629291Y-119621020D01*
X185675310Y-119552419D01*
X185714042Y-119496971D01*
X185739682Y-119463513D01*
X185746290Y-119457666D01*
X185767116Y-119472240D01*
G36*
X189714500Y-121214500D02*
G01*
X189968500Y-121214500D01*
X189968500Y-121383833D01*
X189270000Y-121383833D01*
X189270000Y-121214500D01*
X189545167Y-121214500D01*
X189545167Y-120071500D01*
X189333500Y-120071500D01*
X189333500Y-119995435D01*
X189339424Y-119940515D01*
X189361664Y-119913809D01*
X189378766Y-119907532D01*
X189424209Y-119890653D01*
X189487215Y-119861530D01*
X189517469Y-119846014D01*
X189583326Y-119816443D01*
X189642705Y-119798657D01*
X189662703Y-119796333D01*
X189714500Y-119796333D01*
X189714500Y-121214500D01*
G37*
X189714500Y-121214500D02*
X189968500Y-121214500D01*
X189968500Y-121383833D01*
X189270000Y-121383833D01*
X189270000Y-121214500D01*
X189545167Y-121214500D01*
X189545167Y-120071500D01*
X189333500Y-120071500D01*
X189333500Y-119995435D01*
X189339424Y-119940515D01*
X189361664Y-119913809D01*
X189378766Y-119907532D01*
X189424209Y-119890653D01*
X189487215Y-119861530D01*
X189517469Y-119846014D01*
X189583326Y-119816443D01*
X189642705Y-119798657D01*
X189662703Y-119796333D01*
X189714500Y-119796333D01*
X189714500Y-121214500D01*
G36*
X188765502Y-119794391D02*
G01*
X188860964Y-119849972D01*
X188935555Y-119938770D01*
X188986457Y-120057644D01*
X189008217Y-120172176D01*
X189007883Y-120306006D01*
X188978805Y-120449954D01*
X188919618Y-120607565D01*
X188828958Y-120782385D01*
X188705460Y-120977958D01*
X188688477Y-121002833D01*
X188638711Y-121075513D01*
X188597802Y-121135846D01*
X188571941Y-121174675D01*
X188566829Y-121182750D01*
X188581052Y-121191988D01*
X188636107Y-121197150D01*
X188730680Y-121198165D01*
X188816929Y-121196448D01*
X189079500Y-121188980D01*
X189079500Y-121383833D01*
X188296333Y-121383833D01*
X188296333Y-121312906D01*
X188305600Y-121260207D01*
X188336332Y-121196985D01*
X188392927Y-121114457D01*
X188401186Y-121103472D01*
X188485240Y-120988426D01*
X188569187Y-120866410D01*
X188647337Y-120746311D01*
X188713999Y-120637014D01*
X188763483Y-120547406D01*
X188781212Y-120509976D01*
X188824960Y-120373976D01*
X188839165Y-120244483D01*
X188824122Y-120129000D01*
X188780128Y-120035030D01*
X188761539Y-120012382D01*
X188708763Y-119976728D01*
X188633283Y-119965673D01*
X188630898Y-119965666D01*
X188574144Y-119970529D01*
X188528889Y-119990584D01*
X188479077Y-120034028D01*
X188461485Y-120052174D01*
X188411958Y-120100851D01*
X188379796Y-120121294D01*
X188355870Y-120118291D01*
X188347190Y-120112124D01*
X188303592Y-120066595D01*
X188293243Y-120023071D01*
X188316413Y-119971424D01*
X188352171Y-119925657D01*
X188434860Y-119843598D01*
X188517693Y-119795922D01*
X188612963Y-119776456D01*
X188651985Y-119775166D01*
X188765502Y-119794391D01*
G37*
X188765502Y-119794391D02*
X188860964Y-119849972D01*
X188935555Y-119938770D01*
X188986457Y-120057644D01*
X189008217Y-120172176D01*
X189007883Y-120306006D01*
X188978805Y-120449954D01*
X188919618Y-120607565D01*
X188828958Y-120782385D01*
X188705460Y-120977958D01*
X188688477Y-121002833D01*
X188638711Y-121075513D01*
X188597802Y-121135846D01*
X188571941Y-121174675D01*
X188566829Y-121182750D01*
X188581052Y-121191988D01*
X188636107Y-121197150D01*
X188730680Y-121198165D01*
X188816929Y-121196448D01*
X189079500Y-121188980D01*
X189079500Y-121383833D01*
X188296333Y-121383833D01*
X188296333Y-121312906D01*
X188305600Y-121260207D01*
X188336332Y-121196985D01*
X188392927Y-121114457D01*
X188401186Y-121103472D01*
X188485240Y-120988426D01*
X188569187Y-120866410D01*
X188647337Y-120746311D01*
X188713999Y-120637014D01*
X188763483Y-120547406D01*
X188781212Y-120509976D01*
X188824960Y-120373976D01*
X188839165Y-120244483D01*
X188824122Y-120129000D01*
X188780128Y-120035030D01*
X188761539Y-120012382D01*
X188708763Y-119976728D01*
X188633283Y-119965673D01*
X188630898Y-119965666D01*
X188574144Y-119970529D01*
X188528889Y-119990584D01*
X188479077Y-120034028D01*
X188461485Y-120052174D01*
X188411958Y-120100851D01*
X188379796Y-120121294D01*
X188355870Y-120118291D01*
X188347190Y-120112124D01*
X188303592Y-120066595D01*
X188293243Y-120023071D01*
X188316413Y-119971424D01*
X188352171Y-119925657D01*
X188434860Y-119843598D01*
X188517693Y-119795922D01*
X188612963Y-119776456D01*
X188651985Y-119775166D01*
X188765502Y-119794391D01*
G36*
X186903906Y-119782383D02*
G01*
X186908269Y-119783445D01*
X186997908Y-119826768D01*
X187073354Y-119904188D01*
X187130542Y-120008698D01*
X187165409Y-120133292D01*
X187174500Y-120242445D01*
X187158490Y-120374044D01*
X187112114Y-120526727D01*
X187037856Y-120694875D01*
X186938199Y-120872868D01*
X186815626Y-121055086D01*
X186815142Y-121055750D01*
X186772254Y-121115084D01*
X186739262Y-121161868D01*
X186725345Y-121182750D01*
X186739560Y-121191988D01*
X186794608Y-121197150D01*
X186889180Y-121198165D01*
X186975429Y-121196448D01*
X187238000Y-121188980D01*
X187238000Y-121383833D01*
X186454833Y-121383833D01*
X186454833Y-121319732D01*
X186463115Y-121280700D01*
X186489687Y-121224456D01*
X186537139Y-121146512D01*
X186608062Y-121042378D01*
X186644321Y-120991357D01*
X186772695Y-120804510D01*
X186871190Y-120642536D01*
X186941176Y-120501748D01*
X186984025Y-120378461D01*
X187001106Y-120268989D01*
X186993790Y-120169644D01*
X186974505Y-120103153D01*
X186935848Y-120025951D01*
X186886645Y-119983111D01*
X186815871Y-119966663D01*
X186784285Y-119965666D01*
X186732137Y-119972355D01*
X186684698Y-119997543D01*
X186628041Y-120048910D01*
X186621842Y-120055256D01*
X186534899Y-120144845D01*
X186485642Y-120083072D01*
X186436386Y-120021298D01*
X186478836Y-119961684D01*
X186566503Y-119869403D01*
X186672951Y-119806111D01*
X186788609Y-119775781D01*
X186903906Y-119782383D01*
G37*
X186903906Y-119782383D02*
X186908269Y-119783445D01*
X186997908Y-119826768D01*
X187073354Y-119904188D01*
X187130542Y-120008698D01*
X187165409Y-120133292D01*
X187174500Y-120242445D01*
X187158490Y-120374044D01*
X187112114Y-120526727D01*
X187037856Y-120694875D01*
X186938199Y-120872868D01*
X186815626Y-121055086D01*
X186815142Y-121055750D01*
X186772254Y-121115084D01*
X186739262Y-121161868D01*
X186725345Y-121182750D01*
X186739560Y-121191988D01*
X186794608Y-121197150D01*
X186889180Y-121198165D01*
X186975429Y-121196448D01*
X187238000Y-121188980D01*
X187238000Y-121383833D01*
X186454833Y-121383833D01*
X186454833Y-121319732D01*
X186463115Y-121280700D01*
X186489687Y-121224456D01*
X186537139Y-121146512D01*
X186608062Y-121042378D01*
X186644321Y-120991357D01*
X186772695Y-120804510D01*
X186871190Y-120642536D01*
X186941176Y-120501748D01*
X186984025Y-120378461D01*
X187001106Y-120268989D01*
X186993790Y-120169644D01*
X186974505Y-120103153D01*
X186935848Y-120025951D01*
X186886645Y-119983111D01*
X186815871Y-119966663D01*
X186784285Y-119965666D01*
X186732137Y-119972355D01*
X186684698Y-119997543D01*
X186628041Y-120048910D01*
X186621842Y-120055256D01*
X186534899Y-120144845D01*
X186485642Y-120083072D01*
X186436386Y-120021298D01*
X186478836Y-119961684D01*
X186566503Y-119869403D01*
X186672951Y-119806111D01*
X186788609Y-119775781D01*
X186903906Y-119782383D01*
G36*
X185073708Y-120153729D02*
G01*
X185109377Y-120165276D01*
X185120834Y-120202712D01*
X185121044Y-120214375D01*
X185115243Y-120296140D01*
X185096815Y-120341906D01*
X185062715Y-120356907D01*
X185039410Y-120354623D01*
X184973618Y-120361796D01*
X184907419Y-120404537D01*
X184848440Y-120476849D01*
X184822806Y-120524919D01*
X184808440Y-120562039D01*
X184797970Y-120605411D01*
X184790802Y-120662124D01*
X184786339Y-120739266D01*
X184783988Y-120843924D01*
X184783152Y-120983185D01*
X184783131Y-120997541D01*
X184782667Y-121383833D01*
X184613333Y-121383833D01*
X184613333Y-120177333D01*
X184761500Y-120177333D01*
X184761608Y-120277875D01*
X184761717Y-120378416D01*
X184809736Y-120299097D01*
X184869774Y-120217488D01*
X184934998Y-120171150D01*
X185017271Y-120153548D01*
X185073708Y-120153729D01*
G37*
X185073708Y-120153729D02*
X185109377Y-120165276D01*
X185120834Y-120202712D01*
X185121044Y-120214375D01*
X185115243Y-120296140D01*
X185096815Y-120341906D01*
X185062715Y-120356907D01*
X185039410Y-120354623D01*
X184973618Y-120361796D01*
X184907419Y-120404537D01*
X184848440Y-120476849D01*
X184822806Y-120524919D01*
X184808440Y-120562039D01*
X184797970Y-120605411D01*
X184790802Y-120662124D01*
X184786339Y-120739266D01*
X184783988Y-120843924D01*
X184783152Y-120983185D01*
X184783131Y-120997541D01*
X184782667Y-121383833D01*
X184613333Y-121383833D01*
X184613333Y-120177333D01*
X184761500Y-120177333D01*
X184761608Y-120277875D01*
X184761717Y-120378416D01*
X184809736Y-120299097D01*
X184869774Y-120217488D01*
X184934998Y-120171150D01*
X185017271Y-120153548D01*
X185073708Y-120153729D01*
G36*
X183097796Y-120158104D02*
G01*
X183180980Y-120201117D01*
X183248128Y-120279680D01*
X183279442Y-120346666D01*
X183289847Y-120397703D01*
X183299112Y-120488239D01*
X183307047Y-120615450D01*
X183313461Y-120776513D01*
X183316821Y-120902291D01*
X183327560Y-121383833D01*
X183133918Y-121383833D01*
X183127500Y-120909757D01*
X183125132Y-120754709D01*
X183122433Y-120636354D01*
X183118896Y-120549051D01*
X183114012Y-120487160D01*
X183107272Y-120445040D01*
X183098168Y-120417052D01*
X183086192Y-120397554D01*
X183080761Y-120391174D01*
X183020946Y-120351822D01*
X182950549Y-120352788D01*
X182871207Y-120393860D01*
X182835394Y-120423213D01*
X182750667Y-120499759D01*
X182750667Y-121383833D01*
X182581333Y-121383833D01*
X182581333Y-120177333D01*
X182655417Y-120177333D01*
X182704126Y-120180292D01*
X182724815Y-120197608D01*
X182729447Y-120241939D01*
X182729500Y-120255712D01*
X182729500Y-120334091D01*
X182811414Y-120254104D01*
X182907075Y-120183422D01*
X183004515Y-120151814D01*
X183097796Y-120158104D01*
G37*
X183097796Y-120158104D02*
X183180980Y-120201117D01*
X183248128Y-120279680D01*
X183279442Y-120346666D01*
X183289847Y-120397703D01*
X183299112Y-120488239D01*
X183307047Y-120615450D01*
X183313461Y-120776513D01*
X183316821Y-120902291D01*
X183327560Y-121383833D01*
X183133918Y-121383833D01*
X183127500Y-120909757D01*
X183125132Y-120754709D01*
X183122433Y-120636354D01*
X183118896Y-120549051D01*
X183114012Y-120487160D01*
X183107272Y-120445040D01*
X183098168Y-120417052D01*
X183086192Y-120397554D01*
X183080761Y-120391174D01*
X183020946Y-120351822D01*
X182950549Y-120352788D01*
X182871207Y-120393860D01*
X182835394Y-120423213D01*
X182750667Y-120499759D01*
X182750667Y-121383833D01*
X182581333Y-121383833D01*
X182581333Y-120177333D01*
X182655417Y-120177333D01*
X182704126Y-120180292D01*
X182724815Y-120197608D01*
X182729447Y-120241939D01*
X182729500Y-120255712D01*
X182729500Y-120334091D01*
X182811414Y-120254104D01*
X182907075Y-120183422D01*
X183004515Y-120151814D01*
X183097796Y-120158104D01*
G36*
X182220171Y-120542458D02*
G01*
X182264884Y-120719114D01*
X182306566Y-120883334D01*
X182344034Y-121030483D01*
X182376102Y-121155927D01*
X182401585Y-121255032D01*
X182419297Y-121323165D01*
X182428055Y-121355692D01*
X182428577Y-121357375D01*
X182419730Y-121374999D01*
X182374884Y-121383032D01*
X182342250Y-121383833D01*
X182246805Y-121383833D01*
X182190200Y-121140416D01*
X182133594Y-120897000D01*
X181715490Y-120897000D01*
X181693460Y-120976375D01*
X181677871Y-121036528D01*
X181657412Y-121120738D01*
X181636276Y-121211707D01*
X181634449Y-121219791D01*
X181597468Y-121383833D01*
X181505053Y-121383833D01*
X181444193Y-121379492D01*
X181421209Y-121365699D01*
X181421772Y-121357375D01*
X181428854Y-121331539D01*
X181445107Y-121269290D01*
X181469345Y-121175261D01*
X181500383Y-121054087D01*
X181537032Y-120910400D01*
X181578108Y-120748834D01*
X181588839Y-120706500D01*
X181755027Y-120706500D01*
X182088144Y-120706500D01*
X182011371Y-120369021D01*
X181984872Y-120254995D01*
X181960778Y-120155884D01*
X181940922Y-120078876D01*
X181927135Y-120031157D01*
X181922180Y-120019124D01*
X181912268Y-120031459D01*
X181898409Y-120075808D01*
X181884203Y-120139645D01*
X181865427Y-120231261D01*
X181841640Y-120339200D01*
X181820085Y-120431333D01*
X181799475Y-120516660D01*
X181781217Y-120593073D01*
X181768985Y-120645191D01*
X181768276Y-120648291D01*
X181755027Y-120706500D01*
X181588839Y-120706500D01*
X181622424Y-120574022D01*
X181630412Y-120542462D01*
X181829917Y-119754008D01*
X181925400Y-119754004D01*
X182020884Y-119754000D01*
X182220171Y-120542458D01*
G37*
X182220171Y-120542458D02*
X182264884Y-120719114D01*
X182306566Y-120883334D01*
X182344034Y-121030483D01*
X182376102Y-121155927D01*
X182401585Y-121255032D01*
X182419297Y-121323165D01*
X182428055Y-121355692D01*
X182428577Y-121357375D01*
X182419730Y-121374999D01*
X182374884Y-121383032D01*
X182342250Y-121383833D01*
X182246805Y-121383833D01*
X182190200Y-121140416D01*
X182133594Y-120897000D01*
X181715490Y-120897000D01*
X181693460Y-120976375D01*
X181677871Y-121036528D01*
X181657412Y-121120738D01*
X181636276Y-121211707D01*
X181634449Y-121219791D01*
X181597468Y-121383833D01*
X181505053Y-121383833D01*
X181444193Y-121379492D01*
X181421209Y-121365699D01*
X181421772Y-121357375D01*
X181428854Y-121331539D01*
X181445107Y-121269290D01*
X181469345Y-121175261D01*
X181500383Y-121054087D01*
X181537032Y-120910400D01*
X181578108Y-120748834D01*
X181588839Y-120706500D01*
X181755027Y-120706500D01*
X182088144Y-120706500D01*
X182011371Y-120369021D01*
X181984872Y-120254995D01*
X181960778Y-120155884D01*
X181940922Y-120078876D01*
X181927135Y-120031157D01*
X181922180Y-120019124D01*
X181912268Y-120031459D01*
X181898409Y-120075808D01*
X181884203Y-120139645D01*
X181865427Y-120231261D01*
X181841640Y-120339200D01*
X181820085Y-120431333D01*
X181799475Y-120516660D01*
X181781217Y-120593073D01*
X181768985Y-120645191D01*
X181768276Y-120648291D01*
X181755027Y-120706500D01*
X181588839Y-120706500D01*
X181622424Y-120574022D01*
X181630412Y-120542462D01*
X181829917Y-119754008D01*
X181925400Y-119754004D01*
X182020884Y-119754000D01*
X182220171Y-120542458D01*
G36*
X187841168Y-119781213D02*
G01*
X187899043Y-119803770D01*
X187935804Y-119830745D01*
X188014971Y-119921101D01*
X188075249Y-120043874D01*
X188117090Y-120200693D01*
X188140949Y-120393184D01*
X188147431Y-120590083D01*
X188139016Y-120802410D01*
X188114369Y-120988139D01*
X188074387Y-121143993D01*
X188019969Y-121266692D01*
X187952014Y-121352958D01*
X187934536Y-121367322D01*
X187846036Y-121409007D01*
X187745329Y-121418479D01*
X187649132Y-121394435D01*
X187640588Y-121390233D01*
X187553905Y-121321996D01*
X187482886Y-121215005D01*
X187433231Y-121088829D01*
X187419031Y-121033412D01*
X187408841Y-120967924D01*
X187402109Y-120884827D01*
X187398284Y-120776582D01*
X187396814Y-120635651D01*
X187396755Y-120593559D01*
X187551502Y-120593559D01*
X187556539Y-120764668D01*
X187558169Y-120791166D01*
X187578253Y-120960313D01*
X187613885Y-121091236D01*
X187665443Y-121185235D01*
X187676934Y-121198877D01*
X187729472Y-121228946D01*
X187793069Y-121227570D01*
X187852834Y-121196750D01*
X187875728Y-121172166D01*
X187919970Y-121089517D01*
X187951139Y-120978727D01*
X187969770Y-120836295D01*
X187976401Y-120658724D01*
X187974654Y-120527106D01*
X187969991Y-120395545D01*
X187963902Y-120297757D01*
X187955290Y-120225182D01*
X187943058Y-120169262D01*
X187926111Y-120121436D01*
X187921272Y-120110326D01*
X187867554Y-120019548D01*
X187808111Y-119968868D01*
X187746454Y-119958570D01*
X187686094Y-119988942D01*
X187630541Y-120060267D01*
X187617295Y-120085606D01*
X187589306Y-120170007D01*
X187568561Y-120288171D01*
X187555734Y-120432041D01*
X187551502Y-120593559D01*
X187396755Y-120593559D01*
X187396750Y-120590083D01*
X187398667Y-120411445D01*
X187405413Y-120268605D01*
X187418476Y-120155159D01*
X187439347Y-120064702D01*
X187469515Y-119990831D01*
X187510470Y-119927143D01*
X187563701Y-119867232D01*
X187565273Y-119865656D01*
X187620113Y-119814277D01*
X187663613Y-119787143D01*
X187712340Y-119776663D01*
X187762757Y-119775166D01*
X187841168Y-119781213D01*
G37*
X187841168Y-119781213D02*
X187899043Y-119803770D01*
X187935804Y-119830745D01*
X188014971Y-119921101D01*
X188075249Y-120043874D01*
X188117090Y-120200693D01*
X188140949Y-120393184D01*
X188147431Y-120590083D01*
X188139016Y-120802410D01*
X188114369Y-120988139D01*
X188074387Y-121143993D01*
X188019969Y-121266692D01*
X187952014Y-121352958D01*
X187934536Y-121367322D01*
X187846036Y-121409007D01*
X187745329Y-121418479D01*
X187649132Y-121394435D01*
X187640588Y-121390233D01*
X187553905Y-121321996D01*
X187482886Y-121215005D01*
X187433231Y-121088829D01*
X187419031Y-121033412D01*
X187408841Y-120967924D01*
X187402109Y-120884827D01*
X187398284Y-120776582D01*
X187396814Y-120635651D01*
X187396755Y-120593559D01*
X187551502Y-120593559D01*
X187556539Y-120764668D01*
X187558169Y-120791166D01*
X187578253Y-120960313D01*
X187613885Y-121091236D01*
X187665443Y-121185235D01*
X187676934Y-121198877D01*
X187729472Y-121228946D01*
X187793069Y-121227570D01*
X187852834Y-121196750D01*
X187875728Y-121172166D01*
X187919970Y-121089517D01*
X187951139Y-120978727D01*
X187969770Y-120836295D01*
X187976401Y-120658724D01*
X187974654Y-120527106D01*
X187969991Y-120395545D01*
X187963902Y-120297757D01*
X187955290Y-120225182D01*
X187943058Y-120169262D01*
X187926111Y-120121436D01*
X187921272Y-120110326D01*
X187867554Y-120019548D01*
X187808111Y-119968868D01*
X187746454Y-119958570D01*
X187686094Y-119988942D01*
X187630541Y-120060267D01*
X187617295Y-120085606D01*
X187589306Y-120170007D01*
X187568561Y-120288171D01*
X187555734Y-120432041D01*
X187551502Y-120593559D01*
X187396755Y-120593559D01*
X187396750Y-120590083D01*
X187398667Y-120411445D01*
X187405413Y-120268605D01*
X187418476Y-120155159D01*
X187439347Y-120064702D01*
X187469515Y-119990831D01*
X187510470Y-119927143D01*
X187563701Y-119867232D01*
X187565273Y-119865656D01*
X187620113Y-119814277D01*
X187663613Y-119787143D01*
X187712340Y-119776663D01*
X187762757Y-119775166D01*
X187841168Y-119781213D01*
G36*
X185659758Y-120156036D02*
G01*
X185753448Y-120198111D01*
X185837360Y-120276641D01*
X185889311Y-120357250D01*
X185915053Y-120422010D01*
X185931807Y-120505114D01*
X185941676Y-120617608D01*
X185942693Y-120637708D01*
X185951883Y-120833500D01*
X185354167Y-120833500D01*
X185354631Y-120902291D01*
X185370438Y-120992792D01*
X185410692Y-121086971D01*
X185466317Y-121165830D01*
X185491945Y-121189705D01*
X185574127Y-121228547D01*
X185670727Y-121230008D01*
X185776157Y-121194016D01*
X185777191Y-121193490D01*
X185831945Y-121168650D01*
X185863955Y-121169776D01*
X185886785Y-121202220D01*
X185903360Y-121243252D01*
X185912962Y-121279304D01*
X185902992Y-121306056D01*
X185866340Y-121335679D01*
X185839069Y-121353302D01*
X185737097Y-121397928D01*
X185621519Y-121417827D01*
X185511429Y-121410211D01*
X185489267Y-121404390D01*
X185413671Y-121363157D01*
X185338016Y-121291321D01*
X185271252Y-121199640D01*
X185222329Y-121098874D01*
X185213853Y-121073252D01*
X185185679Y-120930035D01*
X185178092Y-120771742D01*
X185185050Y-120685333D01*
X185337500Y-120685333D01*
X185798667Y-120685333D01*
X185798667Y-120615734D01*
X185786400Y-120539218D01*
X185754572Y-120459476D01*
X185710637Y-120390177D01*
X185662050Y-120344990D01*
X185647190Y-120338008D01*
X185568802Y-120331354D01*
X185494847Y-120362575D01*
X185430322Y-120427219D01*
X185380228Y-120520833D01*
X185357570Y-120596006D01*
X185337500Y-120685333D01*
X185185050Y-120685333D01*
X185190692Y-120615274D01*
X185223081Y-120477535D01*
X185228272Y-120463083D01*
X185292150Y-120335484D01*
X185372485Y-120240140D01*
X185464029Y-120177890D01*
X185561536Y-120149576D01*
X185659758Y-120156036D01*
G37*
X185659758Y-120156036D02*
X185753448Y-120198111D01*
X185837360Y-120276641D01*
X185889311Y-120357250D01*
X185915053Y-120422010D01*
X185931807Y-120505114D01*
X185941676Y-120617608D01*
X185942693Y-120637708D01*
X185951883Y-120833500D01*
X185354167Y-120833500D01*
X185354631Y-120902291D01*
X185370438Y-120992792D01*
X185410692Y-121086971D01*
X185466317Y-121165830D01*
X185491945Y-121189705D01*
X185574127Y-121228547D01*
X185670727Y-121230008D01*
X185776157Y-121194016D01*
X185777191Y-121193490D01*
X185831945Y-121168650D01*
X185863955Y-121169776D01*
X185886785Y-121202220D01*
X185903360Y-121243252D01*
X185912962Y-121279304D01*
X185902992Y-121306056D01*
X185866340Y-121335679D01*
X185839069Y-121353302D01*
X185737097Y-121397928D01*
X185621519Y-121417827D01*
X185511429Y-121410211D01*
X185489267Y-121404390D01*
X185413671Y-121363157D01*
X185338016Y-121291321D01*
X185271252Y-121199640D01*
X185222329Y-121098874D01*
X185213853Y-121073252D01*
X185185679Y-120930035D01*
X185178092Y-120771742D01*
X185185050Y-120685333D01*
X185337500Y-120685333D01*
X185798667Y-120685333D01*
X185798667Y-120615734D01*
X185786400Y-120539218D01*
X185754572Y-120459476D01*
X185710637Y-120390177D01*
X185662050Y-120344990D01*
X185647190Y-120338008D01*
X185568802Y-120331354D01*
X185494847Y-120362575D01*
X185430322Y-120427219D01*
X185380228Y-120520833D01*
X185357570Y-120596006D01*
X185337500Y-120685333D01*
X185185050Y-120685333D01*
X185190692Y-120615274D01*
X185223081Y-120477535D01*
X185228272Y-120463083D01*
X185292150Y-120335484D01*
X185372485Y-120240140D01*
X185464029Y-120177890D01*
X185561536Y-120149576D01*
X185659758Y-120156036D01*
G36*
X184338167Y-121383833D02*
G01*
X184264486Y-121383833D01*
X184211974Y-121378295D01*
X184186126Y-121355497D01*
X184177169Y-121329496D01*
X184163531Y-121275159D01*
X184107974Y-121328149D01*
X184011691Y-121396103D01*
X183909708Y-121422483D01*
X183803527Y-121406980D01*
X183776200Y-121396393D01*
X183684254Y-121333577D01*
X183612488Y-121235114D01*
X183561752Y-121103019D01*
X183532890Y-120939305D01*
X183527078Y-120821108D01*
X183709749Y-120821108D01*
X183717437Y-120942224D01*
X183737746Y-121046027D01*
X183757993Y-121098083D01*
X183818443Y-121179675D01*
X183891138Y-121222220D01*
X183971148Y-121224835D01*
X184053545Y-121186639D01*
X184088692Y-121157247D01*
X184147667Y-121100746D01*
X184147667Y-120434215D01*
X184086080Y-120390362D01*
X183998404Y-120347900D01*
X183915609Y-120346772D01*
X183840731Y-120386016D01*
X183776803Y-120464674D01*
X183761586Y-120493005D01*
X183731907Y-120582585D01*
X183714600Y-120696591D01*
X183709749Y-120821108D01*
X183527078Y-120821108D01*
X183526125Y-120801750D01*
X183534678Y-120630397D01*
X183563783Y-120489510D01*
X183616002Y-120371231D01*
X183693895Y-120267706D01*
X183703609Y-120257433D01*
X183767074Y-120197449D01*
X183822764Y-120164491D01*
X183886948Y-120152538D01*
X183975897Y-120155568D01*
X183978333Y-120155764D01*
X184030485Y-120171351D01*
X184088991Y-120203949D01*
X184096727Y-120209572D01*
X184162204Y-120259097D01*
X184152059Y-119943048D01*
X184141914Y-119627000D01*
X184338167Y-119627000D01*
X184338167Y-121383833D01*
G37*
X184338167Y-121383833D02*
X184264486Y-121383833D01*
X184211974Y-121378295D01*
X184186126Y-121355497D01*
X184177169Y-121329496D01*
X184163531Y-121275159D01*
X184107974Y-121328149D01*
X184011691Y-121396103D01*
X183909708Y-121422483D01*
X183803527Y-121406980D01*
X183776200Y-121396393D01*
X183684254Y-121333577D01*
X183612488Y-121235114D01*
X183561752Y-121103019D01*
X183532890Y-120939305D01*
X183527078Y-120821108D01*
X183709749Y-120821108D01*
X183717437Y-120942224D01*
X183737746Y-121046027D01*
X183757993Y-121098083D01*
X183818443Y-121179675D01*
X183891138Y-121222220D01*
X183971148Y-121224835D01*
X184053545Y-121186639D01*
X184088692Y-121157247D01*
X184147667Y-121100746D01*
X184147667Y-120434215D01*
X184086080Y-120390362D01*
X183998404Y-120347900D01*
X183915609Y-120346772D01*
X183840731Y-120386016D01*
X183776803Y-120464674D01*
X183761586Y-120493005D01*
X183731907Y-120582585D01*
X183714600Y-120696591D01*
X183709749Y-120821108D01*
X183527078Y-120821108D01*
X183526125Y-120801750D01*
X183534678Y-120630397D01*
X183563783Y-120489510D01*
X183616002Y-120371231D01*
X183693895Y-120267706D01*
X183703609Y-120257433D01*
X183767074Y-120197449D01*
X183822764Y-120164491D01*
X183886948Y-120152538D01*
X183975897Y-120155568D01*
X183978333Y-120155764D01*
X184030485Y-120171351D01*
X184088991Y-120203949D01*
X184096727Y-120209572D01*
X184162204Y-120259097D01*
X184152059Y-119943048D01*
X184141914Y-119627000D01*
X184338167Y-119627000D01*
X184338167Y-121383833D01*
G36*
X27919506Y-52712973D02*
G01*
X28488889Y-52715150D01*
X29058272Y-52717326D01*
X29058272Y-53123726D01*
X27919506Y-53128078D01*
X27919506Y-53788359D01*
X28639173Y-53788359D01*
X28639173Y-54220159D01*
X27919506Y-54220159D01*
X27919506Y-54897373D01*
X28488889Y-54899550D01*
X29058272Y-54901726D01*
X29060535Y-55115509D01*
X29062797Y-55329292D01*
X27919506Y-55329292D01*
X27919506Y-55947359D01*
X27479239Y-55947359D01*
X27479239Y-55329292D01*
X26344706Y-55329292D01*
X26344706Y-54897493D01*
X27479239Y-54897493D01*
X27479239Y-54220159D01*
X26768039Y-54220159D01*
X26768039Y-53788359D01*
X27479239Y-53788359D01*
X27479239Y-53127959D01*
X26344706Y-53127959D01*
X26344706Y-52713093D01*
X27479020Y-52713093D01*
X27483472Y-52124659D01*
X27701489Y-52122400D01*
X27919506Y-52120140D01*
X27919506Y-52712973D01*
G37*
X27919506Y-52712973D02*
X28488889Y-52715150D01*
X29058272Y-52717326D01*
X29058272Y-53123726D01*
X27919506Y-53128078D01*
X27919506Y-53788359D01*
X28639173Y-53788359D01*
X28639173Y-54220159D01*
X27919506Y-54220159D01*
X27919506Y-54897373D01*
X28488889Y-54899550D01*
X29058272Y-54901726D01*
X29060535Y-55115509D01*
X29062797Y-55329292D01*
X27919506Y-55329292D01*
X27919506Y-55947359D01*
X27479239Y-55947359D01*
X27479239Y-55329292D01*
X26344706Y-55329292D01*
X26344706Y-54897493D01*
X27479239Y-54897493D01*
X27479239Y-54220159D01*
X26768039Y-54220159D01*
X26768039Y-53788359D01*
X27479239Y-53788359D01*
X27479239Y-53127959D01*
X26344706Y-53127959D01*
X26344706Y-52713093D01*
X27479020Y-52713093D01*
X27483472Y-52124659D01*
X27701489Y-52122400D01*
X27919506Y-52120140D01*
X27919506Y-52712973D01*
G36*
X267569504Y-52712973D02*
G01*
X268138887Y-52715150D01*
X268708270Y-52717326D01*
X268708270Y-53123726D01*
X267569504Y-53128078D01*
X267569504Y-53788359D01*
X268289171Y-53788359D01*
X268289171Y-54220159D01*
X267569504Y-54220159D01*
X267569504Y-54897373D01*
X268138887Y-54899550D01*
X268708270Y-54901726D01*
X268710533Y-55115509D01*
X268712795Y-55329292D01*
X267569504Y-55329292D01*
X267569504Y-55947359D01*
X267129237Y-55947359D01*
X267129237Y-55329292D01*
X265994704Y-55329292D01*
X265994704Y-54897493D01*
X267129237Y-54897493D01*
X267129237Y-54220159D01*
X266418037Y-54220159D01*
X266418037Y-53788359D01*
X267129237Y-53788359D01*
X267129237Y-53127959D01*
X265994704Y-53127959D01*
X265994704Y-52713093D01*
X267129018Y-52713093D01*
X267133470Y-52124659D01*
X267351487Y-52122400D01*
X267569504Y-52120140D01*
X267569504Y-52712973D01*
G37*
X267569504Y-52712973D02*
X268138887Y-52715150D01*
X268708270Y-52717326D01*
X268708270Y-53123726D01*
X267569504Y-53128078D01*
X267569504Y-53788359D01*
X268289171Y-53788359D01*
X268289171Y-54220159D01*
X267569504Y-54220159D01*
X267569504Y-54897373D01*
X268138887Y-54899550D01*
X268708270Y-54901726D01*
X268710533Y-55115509D01*
X268712795Y-55329292D01*
X267569504Y-55329292D01*
X267569504Y-55947359D01*
X267129237Y-55947359D01*
X267129237Y-55329292D01*
X265994704Y-55329292D01*
X265994704Y-54897493D01*
X267129237Y-54897493D01*
X267129237Y-54220159D01*
X266418037Y-54220159D01*
X266418037Y-53788359D01*
X267129237Y-53788359D01*
X267129237Y-53127959D01*
X265994704Y-53127959D01*
X265994704Y-52713093D01*
X267129018Y-52713093D01*
X267133470Y-52124659D01*
X267351487Y-52122400D01*
X267569504Y-52120140D01*
X267569504Y-52712973D01*
D12*
X171496250Y-127825000D03*
D13*
X168956250Y-132905000D03*
D12*
X165146250Y-130365000D03*
D14*
X163876250Y-132905000D03*
X174036250Y-132905000D03*
D15*
X157050000Y-139890000D03*
X180862500Y-139890000D03*
D13*
X157050000Y-124650000D03*
X180862500Y-124650000D03*
D12*
X147646150Y-127793750D03*
D13*
X145106150Y-132873750D03*
D12*
X141296150Y-130333750D03*
D14*
X140026150Y-132873750D03*
X150186150Y-132873750D03*
D15*
X95106250Y-139858750D03*
X195106050Y-139858750D03*
D13*
X95106250Y-124618750D03*
X195106050Y-124618750D03*
D16*
X267353749Y-46896249D03*
X244226550Y-85221250D03*
X267353749Y-61171250D03*
X229367550Y-123321250D03*
X50830950Y-85221250D03*
X27703751Y-47171250D03*
X27703751Y-61171250D03*
X65689950Y-123321250D03*
X147491249Y-85221250D03*
D17*
X78581250Y-127793750D03*
X72231250Y-130333750D03*
D18*
X76041250Y-132873750D03*
D19*
X70961250Y-132873750D03*
X81121250Y-132873750D03*
D17*
X59531250Y-127793750D03*
X53181250Y-130333750D03*
D18*
X56991250Y-132873750D03*
D19*
X51911250Y-132873750D03*
X62071250Y-132873750D03*
D17*
X38100000Y-127793750D03*
X31750000Y-130333750D03*
D18*
X35560000Y-132873750D03*
D19*
X30480000Y-132873750D03*
X40640000Y-132873750D03*
D17*
X261937500Y-127793750D03*
X255587500Y-130333750D03*
D18*
X259397500Y-132873750D03*
D19*
X254317500Y-132873750D03*
X264477500Y-132873750D03*
D17*
X240506250Y-127793750D03*
X234156250Y-130333750D03*
D18*
X237966250Y-132873750D03*
D19*
X232886250Y-132873750D03*
X243046250Y-132873750D03*
D17*
X219075000Y-127793750D03*
X212725000Y-130333750D03*
D18*
X216535000Y-132873750D03*
D19*
X211455000Y-132873750D03*
X221615000Y-132873750D03*
D17*
X264318750Y-70643750D03*
X257968750Y-73183750D03*
D18*
X261778750Y-75723750D03*
D19*
X256698750Y-75723750D03*
X266858750Y-75723750D03*
X262096250Y-132873750D03*
X251936250Y-132873750D03*
D18*
X257016250Y-132873750D03*
D17*
X253206250Y-130333750D03*
X259556250Y-127793750D03*
X235743750Y-127793750D03*
X229393750Y-130333750D03*
D18*
X233203750Y-132873750D03*
D19*
X228123750Y-132873750D03*
X238283750Y-132873750D03*
X214471250Y-132873750D03*
X204311250Y-132873750D03*
D18*
X209391250Y-132873750D03*
D17*
X205581250Y-130333750D03*
X211931250Y-127793750D03*
D19*
X90646250Y-132873750D03*
X80486250Y-132873750D03*
D18*
X85566250Y-132873750D03*
D17*
X81756250Y-130333750D03*
X88106250Y-127793750D03*
D19*
X43021250Y-132873750D03*
X32861250Y-132873750D03*
D18*
X37941250Y-132873750D03*
D17*
X34131250Y-130333750D03*
X40481250Y-127793750D03*
X261937500Y-108743750D03*
X255587500Y-111283750D03*
D18*
X259397500Y-113823750D03*
D19*
X254317500Y-113823750D03*
X264477500Y-113823750D03*
D17*
X42862500Y-108743750D03*
X36512500Y-111283750D03*
D18*
X40322500Y-113823750D03*
D19*
X35242500Y-113823750D03*
X45402500Y-113823750D03*
D17*
X257175000Y-89693750D03*
X250825000Y-92233750D03*
D18*
X254635000Y-94773750D03*
D19*
X249555000Y-94773750D03*
X259715000Y-94773750D03*
D17*
X38100000Y-89693750D03*
X31750000Y-92233750D03*
D18*
X35560000Y-94773750D03*
D19*
X30480000Y-94773750D03*
X40640000Y-94773750D03*
D17*
X230981250Y-89693750D03*
X224631250Y-92233750D03*
D18*
X228441250Y-94773750D03*
D19*
X223361250Y-94773750D03*
X233521250Y-94773750D03*
D17*
X254793750Y-70643750D03*
X248443750Y-73183750D03*
D18*
X252253750Y-75723750D03*
D19*
X247173750Y-75723750D03*
X257333750Y-75723750D03*
D18*
X264153750Y-83963750D03*
X240353750Y-83963750D03*
D20*
X240353750Y-68723750D03*
X264153750Y-68723750D03*
D17*
X245268750Y-70643750D03*
X238918750Y-73183750D03*
D18*
X242728750Y-75723750D03*
D19*
X237648750Y-75723750D03*
X247808750Y-75723750D03*
D17*
X35718750Y-70643750D03*
X29368750Y-73183750D03*
D18*
X33178750Y-75723750D03*
D19*
X28098750Y-75723750D03*
X38258750Y-75723750D03*
D21*
X262350000Y-60030000D03*
D22*
X262350000Y-54950000D03*
D21*
X70203380Y-60026550D03*
D22*
X70203380Y-54946550D03*
D17*
X69056250Y-108743750D03*
X62706250Y-111283750D03*
D18*
X66516250Y-113823750D03*
D19*
X61436250Y-113823750D03*
X71596250Y-113823750D03*
D21*
X53286715Y-60026550D03*
D22*
X53286715Y-54946550D03*
D17*
X130968750Y-70643750D03*
X124618750Y-73183750D03*
D18*
X128428750Y-75723750D03*
D19*
X123348750Y-75723750D03*
X133508750Y-75723750D03*
D23*
X189651150Y-57499250D03*
X184651150Y-57499250D03*
D21*
X230587450Y-60026550D03*
D22*
X230587450Y-54946550D03*
D23*
X190791600Y-44723050D03*
X195791600Y-44723050D03*
D24*
X155721050Y-53689250D03*
D25*
X155721050Y-52189250D03*
D23*
X206698350Y-58123450D03*
X206698350Y-60623450D03*
X191991750Y-58123450D03*
X191991750Y-60623450D03*
D26*
X113832901Y-45446950D03*
X113832901Y-49946950D03*
X107332901Y-45446950D03*
X107332901Y-49946950D03*
D20*
X109385000Y-139873750D03*
X133185000Y-139873750D03*
D18*
X133185000Y-124633750D03*
X109385000Y-124633750D03*
D19*
X126365000Y-132873750D03*
X116205000Y-132873750D03*
D18*
X121285000Y-132873750D03*
D17*
X117475000Y-130333750D03*
X123825000Y-127793750D03*
D27*
X196893950Y-58870850D03*
X201773950Y-58870850D03*
D28*
X148716249Y-51826350D03*
X150416249Y-51826350D03*
X149566249Y-51826350D03*
X147866249Y-51826350D03*
X147016249Y-51826350D03*
X146166249Y-51826350D03*
X145316249Y-51826350D03*
X144466249Y-51826350D03*
X150416249Y-50501350D03*
X149561249Y-50501350D03*
X148711249Y-50501350D03*
X147861249Y-50501350D03*
X147011249Y-50501350D03*
X146161249Y-50501350D03*
X145311249Y-50501350D03*
X144461249Y-50501350D03*
D29*
X151766249Y-50846350D03*
X143116249Y-50846350D03*
D30*
X151766249Y-47466350D03*
X143116249Y-47466350D03*
D21*
X175551600Y-47294800D03*
X208571600Y-54914800D03*
X178091600Y-47294800D03*
X206031600Y-54914800D03*
X180631600Y-47294800D03*
X203491600Y-54914800D03*
X183171600Y-47294800D03*
X200951600Y-54914800D03*
X185711600Y-47294800D03*
X198411600Y-54914800D03*
X188251600Y-47294800D03*
X195871600Y-54914800D03*
X190791600Y-47294800D03*
X193331600Y-54914800D03*
X193331600Y-47294800D03*
X190791600Y-54914800D03*
X195871600Y-47294800D03*
X188251600Y-54914800D03*
X198411600Y-47294800D03*
X185711600Y-54914800D03*
X200951600Y-47294800D03*
X183171600Y-54914800D03*
X203491600Y-47294800D03*
X180631600Y-54914800D03*
X206031600Y-47294800D03*
X178091600Y-54914800D03*
X208571600Y-47294800D03*
D22*
X175551600Y-54914800D03*
D17*
X64293750Y-127793750D03*
X57943750Y-130333750D03*
D18*
X61753750Y-132873750D03*
D19*
X56673750Y-132873750D03*
X66833750Y-132873750D03*
D17*
X240506250Y-108743750D03*
X234156250Y-111283750D03*
D18*
X237966250Y-113823750D03*
D19*
X232886250Y-113823750D03*
X243046250Y-113823750D03*
D17*
X221456250Y-108743750D03*
X215106250Y-111283750D03*
D18*
X218916250Y-113823750D03*
D19*
X213836250Y-113823750D03*
X223996250Y-113823750D03*
D17*
X202406250Y-108743750D03*
X196056250Y-111283750D03*
D18*
X199866250Y-113823750D03*
D19*
X194786250Y-113823750D03*
X204946250Y-113823750D03*
D17*
X183356250Y-108743750D03*
X177006250Y-111283750D03*
D18*
X180816250Y-113823750D03*
D19*
X175736250Y-113823750D03*
X185896250Y-113823750D03*
D17*
X164306250Y-108743750D03*
X157956250Y-111283750D03*
D18*
X161766250Y-113823750D03*
D19*
X156686250Y-113823750D03*
X166846250Y-113823750D03*
D17*
X145256250Y-108743750D03*
X138906250Y-111283750D03*
D18*
X142716250Y-113823750D03*
D19*
X137636250Y-113823750D03*
X147796250Y-113823750D03*
D17*
X126206250Y-108743750D03*
X119856250Y-111283750D03*
D18*
X123666250Y-113823750D03*
D19*
X118586250Y-113823750D03*
X128746250Y-113823750D03*
D17*
X107156250Y-108743750D03*
X100806250Y-111283750D03*
D18*
X104616250Y-113823750D03*
D19*
X99536250Y-113823750D03*
X109696250Y-113823750D03*
D17*
X88106250Y-108743750D03*
X81756250Y-111283750D03*
D18*
X85566250Y-113823750D03*
D19*
X80486250Y-113823750D03*
X90646250Y-113823750D03*
D17*
X211931250Y-89693750D03*
X205581250Y-92233750D03*
D18*
X209391250Y-94773750D03*
D19*
X204311250Y-94773750D03*
X214471250Y-94773750D03*
D17*
X192881250Y-89693750D03*
X186531250Y-92233750D03*
D18*
X190341250Y-94773750D03*
D19*
X185261250Y-94773750D03*
X195421250Y-94773750D03*
D17*
X173831250Y-89693750D03*
X167481250Y-92233750D03*
D18*
X171291250Y-94773750D03*
D19*
X166211250Y-94773750D03*
X176371250Y-94773750D03*
D17*
X154781250Y-89693750D03*
X148431250Y-92233750D03*
D18*
X152241250Y-94773750D03*
D19*
X147161250Y-94773750D03*
X157321250Y-94773750D03*
D17*
X135731250Y-89693750D03*
X129381250Y-92233750D03*
D18*
X133191250Y-94773750D03*
D19*
X128111250Y-94773750D03*
X138271250Y-94773750D03*
D17*
X116681250Y-89693750D03*
X110331250Y-92233750D03*
D18*
X114141250Y-94773750D03*
D19*
X109061250Y-94773750D03*
X119221250Y-94773750D03*
D17*
X97631250Y-89693750D03*
X91281250Y-92233750D03*
D18*
X95091250Y-94773750D03*
D19*
X90011250Y-94773750D03*
X100171250Y-94773750D03*
D17*
X78581250Y-89693750D03*
X72231250Y-92233750D03*
D18*
X76041250Y-94773750D03*
D19*
X70961250Y-94773750D03*
X81121250Y-94773750D03*
D17*
X59531250Y-89693750D03*
X53181250Y-92233750D03*
D18*
X56991250Y-94773750D03*
D19*
X51911250Y-94773750D03*
X62071250Y-94773750D03*
D17*
X226218750Y-70643750D03*
X219868750Y-73183750D03*
D18*
X223678750Y-75723750D03*
D19*
X218598750Y-75723750D03*
X228758750Y-75723750D03*
D17*
X207168750Y-70643750D03*
X200818750Y-73183750D03*
D18*
X204628750Y-75723750D03*
D19*
X199548750Y-75723750D03*
X209708750Y-75723750D03*
D17*
X188118750Y-70643750D03*
X181768750Y-73183750D03*
D18*
X185578750Y-75723750D03*
D19*
X180498750Y-75723750D03*
X190658750Y-75723750D03*
D17*
X169068750Y-70643750D03*
X162718750Y-73183750D03*
D18*
X166528750Y-75723750D03*
D19*
X161448750Y-75723750D03*
X171608750Y-75723750D03*
D17*
X150018750Y-70643750D03*
X143668750Y-73183750D03*
D18*
X147478750Y-75723750D03*
D19*
X142398750Y-75723750D03*
X152558750Y-75723750D03*
D17*
X111918750Y-70643750D03*
X105568750Y-73183750D03*
D18*
X109378750Y-75723750D03*
D19*
X104298750Y-75723750D03*
X114458750Y-75723750D03*
D17*
X92868750Y-70643750D03*
X86518750Y-73183750D03*
D18*
X90328750Y-75723750D03*
D19*
X85248750Y-75723750D03*
X95408750Y-75723750D03*
D17*
X73818750Y-70643750D03*
X67468750Y-73183750D03*
D18*
X71278750Y-75723750D03*
D19*
X66198750Y-75723750D03*
X76358750Y-75723750D03*
D17*
X54768750Y-70643750D03*
X48418750Y-73183750D03*
D18*
X52228750Y-75723750D03*
D19*
X47148750Y-75723750D03*
X57308750Y-75723750D03*
D26*
X101892152Y-45446950D03*
X101892152Y-49946950D03*
X95392152Y-45446950D03*
X95392152Y-49946950D03*
D31*
X170846250Y-47987750D03*
D32*
X165766250Y-47987750D03*
D31*
X165766250Y-45497750D03*
D32*
X170846250Y-45497750D03*
D31*
X165766250Y-57947750D03*
D32*
X170846250Y-57947750D03*
D31*
X170846250Y-55457750D03*
D32*
X165766250Y-55457750D03*
D31*
X170846250Y-52967750D03*
D32*
X165766250Y-52967750D03*
D31*
X165766250Y-50477750D03*
D32*
X170846250Y-50477750D03*
D31*
X165766250Y-60437750D03*
D32*
X170846250Y-60437750D03*
D33*
X157295850Y-46704250D03*
D34*
X154755850Y-46704250D03*
D35*
X124200250Y-46272450D03*
D19*
X124200250Y-48812450D03*
X121660250Y-46272450D03*
X121660250Y-48812450D03*
X119120250Y-46272450D03*
X119120250Y-48812450D03*
D32*
X139160250Y-45551250D03*
X139160250Y-50651250D03*
D21*
X153028650Y-57677050D03*
D22*
X158108650Y-57677050D03*
D21*
X153041350Y-60445650D03*
D22*
X158121350Y-60445650D03*
D21*
X227087450Y-60026550D03*
D22*
X227087450Y-54946550D03*
D21*
X223587450Y-60026550D03*
D22*
X223587450Y-54946550D03*
D21*
X107420043Y-60026550D03*
D22*
X107420043Y-54946550D03*
D21*
X104036710Y-60026550D03*
D22*
X104036710Y-54946550D03*
D21*
X87120045Y-60026550D03*
D22*
X87120045Y-54946550D03*
D21*
X63436714Y-60026550D03*
D22*
X63436714Y-54946550D03*
D21*
X49903382Y-60026550D03*
D22*
X49903382Y-54946550D03*
D21*
X43136716Y-60026550D03*
D22*
X43136716Y-54946550D03*
D21*
X241087450Y-60026550D03*
D22*
X241087450Y-54946550D03*
D21*
X237587450Y-60026550D03*
D22*
X237587450Y-54946550D03*
D21*
X234087450Y-60026550D03*
D22*
X234087450Y-54946550D03*
D21*
X117570042Y-60026550D03*
D22*
X117570042Y-54946550D03*
D21*
X114186709Y-60026550D03*
D22*
X114186709Y-54946550D03*
D21*
X110803376Y-60026550D03*
D22*
X110803376Y-54946550D03*
D21*
X93886711Y-60026550D03*
D22*
X93886711Y-54946550D03*
D21*
X90503378Y-60026550D03*
D22*
X90503378Y-54946550D03*
D21*
X66820047Y-60026550D03*
D22*
X66820047Y-54946550D03*
D21*
X46520049Y-60026550D03*
D22*
X46520049Y-54946550D03*
D21*
X248087450Y-60026550D03*
D22*
X248087450Y-54946550D03*
D21*
X244587450Y-60026550D03*
D22*
X244587450Y-54946550D03*
D21*
X131103374Y-60026550D03*
D22*
X131103374Y-54946550D03*
D21*
X127720041Y-60026550D03*
D22*
X127720041Y-54946550D03*
D21*
X124336708Y-60026550D03*
D22*
X124336708Y-54946550D03*
D21*
X120953375Y-60026550D03*
D22*
X120953375Y-54946550D03*
D21*
X97270044Y-60026550D03*
D22*
X97270044Y-54946550D03*
D21*
X83736712Y-60026550D03*
D22*
X83736712Y-54946550D03*
D21*
X73586713Y-60026550D03*
D22*
X73586713Y-54946550D03*
D21*
X60053381Y-60026550D03*
D22*
X60053381Y-54946550D03*
D21*
X39753383Y-60026550D03*
D22*
X39753383Y-54946550D03*
D21*
X258587450Y-60026550D03*
D22*
X258587450Y-54946550D03*
D21*
X255087450Y-60026550D03*
D22*
X255087450Y-54946550D03*
D21*
X251587450Y-60026550D03*
D22*
X251587450Y-54946550D03*
D21*
X220087450Y-60026550D03*
D22*
X220087450Y-54946550D03*
D21*
X141253383Y-60026550D03*
D22*
X141253383Y-54946550D03*
D21*
X137870040Y-60026550D03*
D22*
X137870040Y-54946550D03*
D21*
X134486707Y-60026550D03*
D22*
X134486707Y-54946550D03*
D21*
X100653377Y-60026550D03*
D22*
X100653377Y-54946550D03*
D21*
X80353379Y-60026550D03*
D22*
X80353379Y-54946550D03*
D21*
X76970046Y-60026550D03*
D22*
X76970046Y-54946550D03*
D21*
X56670048Y-60026550D03*
D22*
X56670048Y-54946550D03*
D21*
X36370050Y-60026550D03*
D22*
X36370050Y-54946550D03*
M02*
