M48
; DRILL file {KiCad (5.1.10)-1} date 08/26/21 15:08:39
; FORMAT={-:-/ absolute / inch / decimal}
; #@! TF.CreationDate,2021-08-26T15:08:39+02:00
; #@! TF.GenerationSoftware,Kicad,Pcbnew,(5.1.10)-1
; #@! TF.FileFunction,NonPlated,1,2,NPTH
FMAT,2
INCH
T1C0.0669
T2C0.0689
T3C0.1200
T4C0.1201
T5C0.1570
T6C0.1575
%
G90
G05
T1
X1.1062Y-2.9812
X1.2Y-3.7312
X1.2Y-5.2313
X1.2937Y-5.2313
X1.3875Y-4.4813
X1.5062Y-2.9812
X1.6Y-3.7312
X1.6Y-5.2313
X1.6937Y-5.2313
X1.7875Y-4.4813
X1.8562Y-2.9812
X2.0437Y-3.7312
X2.0437Y-5.2313
X2.2312Y-5.2313
X2.2563Y-2.9812
X2.4187Y-4.4813
X2.4438Y-3.7312
X2.4438Y-5.2313
X2.6062Y-2.9812
X2.6313Y-5.2313
X2.7937Y-3.7312
X2.7937Y-5.2313
X2.8188Y-4.4813
X3.0063Y-2.9812
X3.1687Y-4.4813
X3.1687Y-5.2313
X3.1938Y-3.7312
X3.1938Y-5.2313
X3.3562Y-2.9812
X3.5437Y-3.7312
X3.5688Y-4.4813
X3.5688Y-5.2313
X3.7563Y-2.9812
X3.9187Y-4.4813
X3.9438Y-3.7312
X4.1063Y-2.9812
X4.2938Y-3.7312
X4.3187Y-4.4813
X4.5062Y-2.9812
X4.575Y-5.2313
X4.6688Y-4.4813
X4.6937Y-3.7312
X4.8563Y-2.9812
X4.975Y-5.2313
X5.0438Y-3.7312
X5.0687Y-4.4813
X5.2562Y-2.9812
X5.4188Y-4.4813
X5.4437Y-3.7312
X5.6063Y-2.9812
X5.7938Y-3.7312
X5.8187Y-4.4813
X6.0062Y-2.9812
X6.1688Y-4.4813
X6.1937Y-3.7312
X6.3563Y-2.9812
X6.5438Y-3.7312
X6.5687Y-4.4813
X6.7562Y-2.9812
X6.9188Y-4.4813
X6.9437Y-3.7312
X7.1063Y-2.9812
X7.2938Y-3.7312
X7.3187Y-4.4813
X7.5062Y-2.9812
X7.6688Y-4.4813
X7.6937Y-3.7312
X7.8563Y-2.9812
X8.0437Y-3.7312
X8.0437Y-5.2313
X8.0687Y-4.4813
X8.2562Y-2.9812
X8.325Y-5.2313
X8.4187Y-4.4813
X8.4437Y-3.7312
X8.4437Y-5.2313
X8.6062Y-2.9812
X8.725Y-5.2313
X8.7937Y-3.7312
X8.8187Y-4.4813
X8.9812Y-5.2313
X9.0062Y-2.9812
X9.1687Y-4.4813
X9.1687Y-5.2313
X9.1937Y-3.7312
X9.3562Y-2.9812
X9.3812Y-5.2313
X9.5687Y-4.4813
X9.5687Y-5.2313
X9.7312Y-2.9812
X9.7562Y-2.9812
X9.825Y-3.7312
X9.9187Y-5.2313
X10.0125Y-4.4813
X10.0125Y-5.2313
X10.1062Y-2.9812
X10.1312Y-2.9812
X10.225Y-3.7312
X10.3187Y-5.2313
X10.4125Y-4.4813
X10.4125Y-5.2313
X10.5062Y-2.9812
T2
X5.5128Y-5.2313
X5.9128Y-5.2313
X6.4518Y-5.2325
X6.8518Y-5.2325
T3
X3.7443Y-5.5062
X6.1831Y-5.5075
X7.1206Y-5.5075
X7.6813Y-5.5062
T4
X4.3065Y-5.5068
X5.2435Y-5.5068
X9.4627Y-2.7057
X10.3998Y-2.7057
T5
X3.7443Y-4.9062
X5.7128Y-5.2313
X6.1831Y-4.9075
X6.6518Y-5.2325
X7.1206Y-4.9075
X7.6813Y-4.9062
T6
X1.3062Y-2.9812
X1.4Y-3.7312
X1.4Y-5.2313
X1.4937Y-5.2313
X1.5875Y-4.4813
X2.0562Y-2.9812
X2.2437Y-3.7312
X2.2437Y-5.2313
X2.4312Y-5.2313
X2.6187Y-4.4813
X2.8062Y-2.9812
X2.9937Y-3.7312
X2.9937Y-5.2313
X3.3687Y-4.4813
X3.3687Y-5.2313
X3.5562Y-2.9812
X3.7437Y-3.7312
X4.1187Y-4.4813
X4.3062Y-2.9812
X4.3065Y-4.9068
X4.4937Y-3.7312
X4.775Y-5.2313
X4.8687Y-4.4813
X5.0562Y-2.9812
X5.2435Y-4.9068
X5.2437Y-3.7312
X5.6187Y-4.4813
X5.8062Y-2.9812
X5.9937Y-3.7312
X6.3687Y-4.4813
X6.5562Y-2.9812
X6.7437Y-3.7312
X7.1187Y-4.4813
X7.3062Y-2.9812
X7.4937Y-3.7312
X7.8687Y-4.4813
X8.0563Y-2.9812
X8.2438Y-3.7312
X8.2438Y-5.2313
X8.525Y-5.2313
X8.6188Y-4.4813
X8.8063Y-2.9812
X8.9938Y-3.7312
X9.1813Y-5.2313
X9.3688Y-4.4813
X9.3688Y-5.2313
X9.4627Y-3.3057
X9.5563Y-2.9812
X9.9313Y-2.9812
X10.025Y-3.7312
X10.1188Y-5.2313
X10.2125Y-4.4813
X10.2125Y-5.2313
X10.3063Y-2.9812
X10.3998Y-3.3057
T0
M30
