G04 #@! TF.GenerationSoftware,KiCad,Pcbnew,(5.1.9)-1*
G04 #@! TF.CreationDate,2021-08-16T01:56:16+02:00*
G04 #@! TF.ProjectId,romeo-pcb,726f6d65-6f2d-4706-9362-2e6b69636164,rev?*
G04 #@! TF.SameCoordinates,Original*
G04 #@! TF.FileFunction,Soldermask,Bot*
G04 #@! TF.FilePolarity,Negative*
%FSLAX46Y46*%
G04 Gerber Fmt 4.6, Leading zero omitted, Abs format (unit mm)*
G04 Created by KiCad (PCBNEW (5.1.9)-1) date 2021-08-16 01:56:16*
%MOMM*%
%LPD*%
G01*
G04 APERTURE LIST*
%ADD10C,0.010000*%
%ADD11C,2.250000*%
%ADD12C,3.987800*%
%ADD13C,1.750000*%
%ADD14C,3.048000*%
%ADD15C,4.400000*%
%ADD16C,2.200000*%
%ADD17C,4.000000*%
%ADD18C,1.700000*%
%ADD19C,3.050000*%
%ADD20O,1.600000X1.600000*%
%ADD21R,1.600000X1.600000*%
%ADD22C,1.600000*%
%ADD23R,1.200000X1.200000*%
%ADD24C,1.200000*%
%ADD25C,2.000000*%
%ADD26C,1.500000*%
%ADD27O,0.650000X1.000000*%
%ADD28O,0.900000X2.400000*%
%ADD29O,0.900000X1.700000*%
%ADD30O,1.400000X1.400000*%
%ADD31C,1.400000*%
%ADD32C,1.800000*%
%ADD33R,1.800000X1.800000*%
%ADD34R,1.700000X1.700000*%
G04 APERTURE END LIST*
D10*
G36*
X232500045Y-46483734D02*
G01*
X232339640Y-46806913D01*
X232196994Y-47093377D01*
X232071397Y-47344502D01*
X231962139Y-47561666D01*
X231868510Y-47746245D01*
X231789802Y-47899616D01*
X231725303Y-48023156D01*
X231674304Y-48118243D01*
X231636096Y-48186252D01*
X231609968Y-48228561D01*
X231595210Y-48246547D01*
X231591494Y-48246175D01*
X231586502Y-48219526D01*
X231576728Y-48154083D01*
X231562595Y-48053066D01*
X231544527Y-47919693D01*
X231522946Y-47757183D01*
X231498275Y-47568755D01*
X231470937Y-47357627D01*
X231441356Y-47127019D01*
X231409953Y-46880149D01*
X231377152Y-46620236D01*
X231362460Y-46503167D01*
X231329191Y-46238013D01*
X231297231Y-45984085D01*
X231267000Y-45744650D01*
X231238912Y-45522973D01*
X231213386Y-45322319D01*
X231190837Y-45145956D01*
X231171684Y-44997148D01*
X231156342Y-44879161D01*
X231145229Y-44795262D01*
X231138762Y-44748715D01*
X231137521Y-44741042D01*
X231126053Y-44682833D01*
X230503318Y-44682833D01*
X230322776Y-44683057D01*
X230180236Y-44683878D01*
X230071370Y-44685520D01*
X229991849Y-44688207D01*
X229937344Y-44692164D01*
X229903525Y-44697615D01*
X229886064Y-44704783D01*
X229880633Y-44713893D01*
X229880583Y-44715081D01*
X229883198Y-44739560D01*
X229890839Y-44803620D01*
X229903204Y-44904843D01*
X229919992Y-45040812D01*
X229940898Y-45209112D01*
X229965621Y-45407325D01*
X229993857Y-45633034D01*
X230025305Y-45883824D01*
X230059662Y-46157278D01*
X230096625Y-46450978D01*
X230135892Y-46762509D01*
X230177159Y-47089453D01*
X230220125Y-47429395D01*
X230251000Y-47673403D01*
X230294964Y-48020873D01*
X230337441Y-48356958D01*
X230378129Y-48679248D01*
X230416727Y-48985333D01*
X230452932Y-49272804D01*
X230486440Y-49539250D01*
X230516951Y-49782261D01*
X230544161Y-49999427D01*
X230567769Y-50188338D01*
X230587471Y-50346584D01*
X230602965Y-50471755D01*
X230613950Y-50561442D01*
X230620122Y-50613233D01*
X230621417Y-50625655D01*
X230630870Y-50633496D01*
X230661581Y-50639717D01*
X230717081Y-50644463D01*
X230800898Y-50647879D01*
X230916562Y-50650110D01*
X231067601Y-50651303D01*
X231251125Y-50651605D01*
X231880833Y-50651377D01*
X232778637Y-48841839D01*
X232906888Y-48583545D01*
X233029797Y-48336401D01*
X233146067Y-48102992D01*
X233254399Y-47885907D01*
X233353494Y-47687735D01*
X233442056Y-47511063D01*
X233518787Y-47358479D01*
X233582387Y-47232571D01*
X233631560Y-47135928D01*
X233665007Y-47071137D01*
X233681431Y-47040786D01*
X233682920Y-47038780D01*
X233686487Y-47060272D01*
X233694925Y-47120695D01*
X233707834Y-47216980D01*
X233724818Y-47346053D01*
X233745480Y-47504843D01*
X233769424Y-47690279D01*
X233796251Y-47899288D01*
X233825565Y-48128798D01*
X233856968Y-48375737D01*
X233890065Y-48637034D01*
X233913428Y-48822088D01*
X233947520Y-49091984D01*
X233980235Y-49350024D01*
X234011172Y-49593090D01*
X234039928Y-49818065D01*
X234066101Y-50021830D01*
X234089287Y-50201267D01*
X234109085Y-50353259D01*
X234125093Y-50474688D01*
X234136907Y-50562435D01*
X234144125Y-50613382D01*
X234146189Y-50625375D01*
X234158481Y-50633357D01*
X234191905Y-50639688D01*
X234250052Y-50644518D01*
X234336516Y-50647998D01*
X234454886Y-50650277D01*
X234608756Y-50651504D01*
X234780732Y-50651833D01*
X235406542Y-50651833D01*
X235393363Y-50551292D01*
X235389155Y-50518469D01*
X235379953Y-50446162D01*
X235366075Y-50336885D01*
X235347841Y-50193152D01*
X235325568Y-50017478D01*
X235299576Y-49812376D01*
X235270181Y-49580362D01*
X235237704Y-49323949D01*
X235202463Y-49045652D01*
X235164776Y-48747985D01*
X235124961Y-48433462D01*
X235083337Y-48104598D01*
X235040223Y-47763906D01*
X235015951Y-47572083D01*
X234651719Y-44693417D01*
X233393033Y-44682201D01*
X232500045Y-46483734D01*
G37*
X232500045Y-46483734D02*
X232339640Y-46806913D01*
X232196994Y-47093377D01*
X232071397Y-47344502D01*
X231962139Y-47561666D01*
X231868510Y-47746245D01*
X231789802Y-47899616D01*
X231725303Y-48023156D01*
X231674304Y-48118243D01*
X231636096Y-48186252D01*
X231609968Y-48228561D01*
X231595210Y-48246547D01*
X231591494Y-48246175D01*
X231586502Y-48219526D01*
X231576728Y-48154083D01*
X231562595Y-48053066D01*
X231544527Y-47919693D01*
X231522946Y-47757183D01*
X231498275Y-47568755D01*
X231470937Y-47357627D01*
X231441356Y-47127019D01*
X231409953Y-46880149D01*
X231377152Y-46620236D01*
X231362460Y-46503167D01*
X231329191Y-46238013D01*
X231297231Y-45984085D01*
X231267000Y-45744650D01*
X231238912Y-45522973D01*
X231213386Y-45322319D01*
X231190837Y-45145956D01*
X231171684Y-44997148D01*
X231156342Y-44879161D01*
X231145229Y-44795262D01*
X231138762Y-44748715D01*
X231137521Y-44741042D01*
X231126053Y-44682833D01*
X230503318Y-44682833D01*
X230322776Y-44683057D01*
X230180236Y-44683878D01*
X230071370Y-44685520D01*
X229991849Y-44688207D01*
X229937344Y-44692164D01*
X229903525Y-44697615D01*
X229886064Y-44704783D01*
X229880633Y-44713893D01*
X229880583Y-44715081D01*
X229883198Y-44739560D01*
X229890839Y-44803620D01*
X229903204Y-44904843D01*
X229919992Y-45040812D01*
X229940898Y-45209112D01*
X229965621Y-45407325D01*
X229993857Y-45633034D01*
X230025305Y-45883824D01*
X230059662Y-46157278D01*
X230096625Y-46450978D01*
X230135892Y-46762509D01*
X230177159Y-47089453D01*
X230220125Y-47429395D01*
X230251000Y-47673403D01*
X230294964Y-48020873D01*
X230337441Y-48356958D01*
X230378129Y-48679248D01*
X230416727Y-48985333D01*
X230452932Y-49272804D01*
X230486440Y-49539250D01*
X230516951Y-49782261D01*
X230544161Y-49999427D01*
X230567769Y-50188338D01*
X230587471Y-50346584D01*
X230602965Y-50471755D01*
X230613950Y-50561442D01*
X230620122Y-50613233D01*
X230621417Y-50625655D01*
X230630870Y-50633496D01*
X230661581Y-50639717D01*
X230717081Y-50644463D01*
X230800898Y-50647879D01*
X230916562Y-50650110D01*
X231067601Y-50651303D01*
X231251125Y-50651605D01*
X231880833Y-50651377D01*
X232778637Y-48841839D01*
X232906888Y-48583545D01*
X233029797Y-48336401D01*
X233146067Y-48102992D01*
X233254399Y-47885907D01*
X233353494Y-47687735D01*
X233442056Y-47511063D01*
X233518787Y-47358479D01*
X233582387Y-47232571D01*
X233631560Y-47135928D01*
X233665007Y-47071137D01*
X233681431Y-47040786D01*
X233682920Y-47038780D01*
X233686487Y-47060272D01*
X233694925Y-47120695D01*
X233707834Y-47216980D01*
X233724818Y-47346053D01*
X233745480Y-47504843D01*
X233769424Y-47690279D01*
X233796251Y-47899288D01*
X233825565Y-48128798D01*
X233856968Y-48375737D01*
X233890065Y-48637034D01*
X233913428Y-48822088D01*
X233947520Y-49091984D01*
X233980235Y-49350024D01*
X234011172Y-49593090D01*
X234039928Y-49818065D01*
X234066101Y-50021830D01*
X234089287Y-50201267D01*
X234109085Y-50353259D01*
X234125093Y-50474688D01*
X234136907Y-50562435D01*
X234144125Y-50613382D01*
X234146189Y-50625375D01*
X234158481Y-50633357D01*
X234191905Y-50639688D01*
X234250052Y-50644518D01*
X234336516Y-50647998D01*
X234454886Y-50650277D01*
X234608756Y-50651504D01*
X234780732Y-50651833D01*
X235406542Y-50651833D01*
X235393363Y-50551292D01*
X235389155Y-50518469D01*
X235379953Y-50446162D01*
X235366075Y-50336885D01*
X235347841Y-50193152D01*
X235325568Y-50017478D01*
X235299576Y-49812376D01*
X235270181Y-49580362D01*
X235237704Y-49323949D01*
X235202463Y-49045652D01*
X235164776Y-48747985D01*
X235124961Y-48433462D01*
X235083337Y-48104598D01*
X235040223Y-47763906D01*
X235015951Y-47572083D01*
X234651719Y-44693417D01*
X233393033Y-44682201D01*
X232500045Y-46483734D01*
G36*
X235890160Y-44683059D02*
G01*
X235747456Y-44683884D01*
X235638441Y-44685531D01*
X235558794Y-44688224D01*
X235504193Y-44692184D01*
X235470318Y-44697636D01*
X235452846Y-44704800D01*
X235447458Y-44713901D01*
X235447417Y-44714973D01*
X235450030Y-44739440D01*
X235457669Y-44803487D01*
X235470032Y-44904698D01*
X235486814Y-45040657D01*
X235507715Y-45208949D01*
X235532431Y-45407156D01*
X235560661Y-45632863D01*
X235592101Y-45883654D01*
X235626450Y-46157111D01*
X235663404Y-46450820D01*
X235702662Y-46762364D01*
X235743921Y-47089327D01*
X235786878Y-47429293D01*
X235817833Y-47674004D01*
X235861790Y-48021509D01*
X235904260Y-48357621D01*
X235944943Y-48679931D01*
X235983536Y-48986029D01*
X236019736Y-49273507D01*
X236053242Y-49539955D01*
X236083751Y-49782966D01*
X236110961Y-50000129D01*
X236134570Y-50189037D01*
X236154275Y-50347280D01*
X236169774Y-50472449D01*
X236180766Y-50562135D01*
X236186947Y-50613929D01*
X236188250Y-50626363D01*
X236198798Y-50634043D01*
X236232629Y-50640154D01*
X236293026Y-50644831D01*
X236383274Y-50648204D01*
X236506654Y-50650404D01*
X236666450Y-50651565D01*
X236822721Y-50651833D01*
X237457192Y-50651833D01*
X237446935Y-50593625D01*
X237443099Y-50565933D01*
X237434304Y-50498714D01*
X237420862Y-50394445D01*
X237403090Y-50255601D01*
X237381299Y-50084659D01*
X237355805Y-49884095D01*
X237326920Y-49656387D01*
X237294961Y-49404010D01*
X237260239Y-49129440D01*
X237223070Y-48835155D01*
X237183766Y-48523630D01*
X237142643Y-48197343D01*
X237100014Y-47858768D01*
X237077261Y-47677917D01*
X237033942Y-47333693D01*
X236991945Y-47000327D01*
X236951586Y-46680304D01*
X236913181Y-46376115D01*
X236877045Y-46090248D01*
X236843494Y-45825191D01*
X236812843Y-45583433D01*
X236785408Y-45367461D01*
X236761506Y-45179766D01*
X236741450Y-45022834D01*
X236725558Y-44899156D01*
X236714144Y-44811218D01*
X236707525Y-44761510D01*
X236706087Y-44751625D01*
X236694332Y-44682833D01*
X236070874Y-44682833D01*
X235890160Y-44683059D01*
G37*
X235890160Y-44683059D02*
X235747456Y-44683884D01*
X235638441Y-44685531D01*
X235558794Y-44688224D01*
X235504193Y-44692184D01*
X235470318Y-44697636D01*
X235452846Y-44704800D01*
X235447458Y-44713901D01*
X235447417Y-44714973D01*
X235450030Y-44739440D01*
X235457669Y-44803487D01*
X235470032Y-44904698D01*
X235486814Y-45040657D01*
X235507715Y-45208949D01*
X235532431Y-45407156D01*
X235560661Y-45632863D01*
X235592101Y-45883654D01*
X235626450Y-46157111D01*
X235663404Y-46450820D01*
X235702662Y-46762364D01*
X235743921Y-47089327D01*
X235786878Y-47429293D01*
X235817833Y-47674004D01*
X235861790Y-48021509D01*
X235904260Y-48357621D01*
X235944943Y-48679931D01*
X235983536Y-48986029D01*
X236019736Y-49273507D01*
X236053242Y-49539955D01*
X236083751Y-49782966D01*
X236110961Y-50000129D01*
X236134570Y-50189037D01*
X236154275Y-50347280D01*
X236169774Y-50472449D01*
X236180766Y-50562135D01*
X236186947Y-50613929D01*
X236188250Y-50626363D01*
X236198798Y-50634043D01*
X236232629Y-50640154D01*
X236293026Y-50644831D01*
X236383274Y-50648204D01*
X236506654Y-50650404D01*
X236666450Y-50651565D01*
X236822721Y-50651833D01*
X237457192Y-50651833D01*
X237446935Y-50593625D01*
X237443099Y-50565933D01*
X237434304Y-50498714D01*
X237420862Y-50394445D01*
X237403090Y-50255601D01*
X237381299Y-50084659D01*
X237355805Y-49884095D01*
X237326920Y-49656387D01*
X237294961Y-49404010D01*
X237260239Y-49129440D01*
X237223070Y-48835155D01*
X237183766Y-48523630D01*
X237142643Y-48197343D01*
X237100014Y-47858768D01*
X237077261Y-47677917D01*
X237033942Y-47333693D01*
X236991945Y-47000327D01*
X236951586Y-46680304D01*
X236913181Y-46376115D01*
X236877045Y-46090248D01*
X236843494Y-45825191D01*
X236812843Y-45583433D01*
X236785408Y-45367461D01*
X236761506Y-45179766D01*
X236741450Y-45022834D01*
X236725558Y-44899156D01*
X236714144Y-44811218D01*
X236707525Y-44761510D01*
X236706087Y-44751625D01*
X236694332Y-44682833D01*
X236070874Y-44682833D01*
X235890160Y-44683059D01*
G36*
X239213156Y-44687312D02*
G01*
X239079527Y-44688754D01*
X238973201Y-44691221D01*
X238898511Y-44694628D01*
X238859791Y-44698893D01*
X238855250Y-44701154D01*
X238851655Y-44723863D01*
X238841143Y-44785902D01*
X238824128Y-44884906D01*
X238801022Y-45018510D01*
X238772236Y-45184352D01*
X238738184Y-45380065D01*
X238699278Y-45603285D01*
X238655930Y-45851649D01*
X238608552Y-46122791D01*
X238557557Y-46414348D01*
X238503358Y-46723954D01*
X238446366Y-47049245D01*
X238386994Y-47387856D01*
X238336667Y-47674685D01*
X238275663Y-48022332D01*
X238216699Y-48358509D01*
X238160186Y-48680859D01*
X238106538Y-48987025D01*
X238056164Y-49274651D01*
X238009479Y-49541380D01*
X237966893Y-49784857D01*
X237928819Y-50002725D01*
X237895669Y-50192627D01*
X237867854Y-50352207D01*
X237845788Y-50479108D01*
X237829881Y-50570975D01*
X237820546Y-50625450D01*
X237818083Y-50640575D01*
X237838408Y-50643331D01*
X237896015Y-50645842D01*
X237985854Y-50648024D01*
X238102875Y-50649791D01*
X238242026Y-50651058D01*
X238398257Y-50651739D01*
X238484430Y-50651833D01*
X239150777Y-50651833D01*
X239162509Y-50604208D01*
X239169367Y-50569970D01*
X239182011Y-50500730D01*
X239199253Y-50403240D01*
X239219905Y-50284253D01*
X239242776Y-50150520D01*
X239252871Y-50090917D01*
X239331500Y-49625250D01*
X240178167Y-49619908D01*
X241024833Y-49614567D01*
X241255772Y-50133200D01*
X241486710Y-50651833D01*
X242152532Y-50651833D01*
X242338030Y-50651709D01*
X242485440Y-50651177D01*
X242599012Y-50649996D01*
X242682990Y-50647927D01*
X242741621Y-50644728D01*
X242779153Y-50640160D01*
X242799832Y-50633983D01*
X242807904Y-50625957D01*
X242807616Y-50615840D01*
X242807317Y-50614792D01*
X242797743Y-50591466D01*
X242772189Y-50531477D01*
X242731586Y-50436969D01*
X242676865Y-50310088D01*
X242608955Y-50152978D01*
X242528788Y-49967786D01*
X242437292Y-49756657D01*
X242335399Y-49521736D01*
X242224038Y-49265169D01*
X242104140Y-48989100D01*
X241976635Y-48695676D01*
X241851639Y-48408167D01*
X240527074Y-48408167D01*
X240029829Y-48408167D01*
X239854214Y-48407264D01*
X239715270Y-48404598D01*
X239614408Y-48400229D01*
X239553043Y-48394217D01*
X239532583Y-48386717D01*
X239535435Y-48361157D01*
X239543485Y-48299096D01*
X239555978Y-48205948D01*
X239572158Y-48087125D01*
X239591269Y-47948040D01*
X239612555Y-47794106D01*
X239635261Y-47630734D01*
X239658630Y-47463338D01*
X239681907Y-47297331D01*
X239704336Y-47138124D01*
X239725160Y-46991130D01*
X239743625Y-46861763D01*
X239758974Y-46755434D01*
X239770451Y-46677555D01*
X239777300Y-46633541D01*
X239777887Y-46630167D01*
X239782368Y-46615243D01*
X239789650Y-46611960D01*
X239801117Y-46623374D01*
X239818156Y-46652543D01*
X239842149Y-46702522D01*
X239874482Y-46776369D01*
X239916540Y-46877140D01*
X239969706Y-47007891D01*
X240035367Y-47171680D01*
X240114907Y-47371563D01*
X240123087Y-47392167D01*
X240195052Y-47573432D01*
X240263354Y-47745436D01*
X240326150Y-47903539D01*
X240381597Y-48043098D01*
X240427850Y-48159474D01*
X240463066Y-48248027D01*
X240485400Y-48304115D01*
X240491030Y-48318208D01*
X240527074Y-48408167D01*
X241851639Y-48408167D01*
X241842454Y-48387042D01*
X241702527Y-48065343D01*
X241557783Y-47732724D01*
X241515499Y-47635583D01*
X240234718Y-44693417D01*
X239544984Y-44687836D01*
X239369753Y-44686978D01*
X239213156Y-44687312D01*
G37*
X239213156Y-44687312D02*
X239079527Y-44688754D01*
X238973201Y-44691221D01*
X238898511Y-44694628D01*
X238859791Y-44698893D01*
X238855250Y-44701154D01*
X238851655Y-44723863D01*
X238841143Y-44785902D01*
X238824128Y-44884906D01*
X238801022Y-45018510D01*
X238772236Y-45184352D01*
X238738184Y-45380065D01*
X238699278Y-45603285D01*
X238655930Y-45851649D01*
X238608552Y-46122791D01*
X238557557Y-46414348D01*
X238503358Y-46723954D01*
X238446366Y-47049245D01*
X238386994Y-47387856D01*
X238336667Y-47674685D01*
X238275663Y-48022332D01*
X238216699Y-48358509D01*
X238160186Y-48680859D01*
X238106538Y-48987025D01*
X238056164Y-49274651D01*
X238009479Y-49541380D01*
X237966893Y-49784857D01*
X237928819Y-50002725D01*
X237895669Y-50192627D01*
X237867854Y-50352207D01*
X237845788Y-50479108D01*
X237829881Y-50570975D01*
X237820546Y-50625450D01*
X237818083Y-50640575D01*
X237838408Y-50643331D01*
X237896015Y-50645842D01*
X237985854Y-50648024D01*
X238102875Y-50649791D01*
X238242026Y-50651058D01*
X238398257Y-50651739D01*
X238484430Y-50651833D01*
X239150777Y-50651833D01*
X239162509Y-50604208D01*
X239169367Y-50569970D01*
X239182011Y-50500730D01*
X239199253Y-50403240D01*
X239219905Y-50284253D01*
X239242776Y-50150520D01*
X239252871Y-50090917D01*
X239331500Y-49625250D01*
X240178167Y-49619908D01*
X241024833Y-49614567D01*
X241255772Y-50133200D01*
X241486710Y-50651833D01*
X242152532Y-50651833D01*
X242338030Y-50651709D01*
X242485440Y-50651177D01*
X242599012Y-50649996D01*
X242682990Y-50647927D01*
X242741621Y-50644728D01*
X242779153Y-50640160D01*
X242799832Y-50633983D01*
X242807904Y-50625957D01*
X242807616Y-50615840D01*
X242807317Y-50614792D01*
X242797743Y-50591466D01*
X242772189Y-50531477D01*
X242731586Y-50436969D01*
X242676865Y-50310088D01*
X242608955Y-50152978D01*
X242528788Y-49967786D01*
X242437292Y-49756657D01*
X242335399Y-49521736D01*
X242224038Y-49265169D01*
X242104140Y-48989100D01*
X241976635Y-48695676D01*
X241851639Y-48408167D01*
X240527074Y-48408167D01*
X240029829Y-48408167D01*
X239854214Y-48407264D01*
X239715270Y-48404598D01*
X239614408Y-48400229D01*
X239553043Y-48394217D01*
X239532583Y-48386717D01*
X239535435Y-48361157D01*
X239543485Y-48299096D01*
X239555978Y-48205948D01*
X239572158Y-48087125D01*
X239591269Y-47948040D01*
X239612555Y-47794106D01*
X239635261Y-47630734D01*
X239658630Y-47463338D01*
X239681907Y-47297331D01*
X239704336Y-47138124D01*
X239725160Y-46991130D01*
X239743625Y-46861763D01*
X239758974Y-46755434D01*
X239770451Y-46677555D01*
X239777300Y-46633541D01*
X239777887Y-46630167D01*
X239782368Y-46615243D01*
X239789650Y-46611960D01*
X239801117Y-46623374D01*
X239818156Y-46652543D01*
X239842149Y-46702522D01*
X239874482Y-46776369D01*
X239916540Y-46877140D01*
X239969706Y-47007891D01*
X240035367Y-47171680D01*
X240114907Y-47371563D01*
X240123087Y-47392167D01*
X240195052Y-47573432D01*
X240263354Y-47745436D01*
X240326150Y-47903539D01*
X240381597Y-48043098D01*
X240427850Y-48159474D01*
X240463066Y-48248027D01*
X240485400Y-48304115D01*
X240491030Y-48318208D01*
X240527074Y-48408167D01*
X241851639Y-48408167D01*
X241842454Y-48387042D01*
X241702527Y-48065343D01*
X241557783Y-47732724D01*
X241515499Y-47635583D01*
X240234718Y-44693417D01*
X239544984Y-44687836D01*
X239369753Y-44686978D01*
X239213156Y-44687312D01*
G36*
X241607076Y-44741042D02*
G01*
X241609722Y-44776896D01*
X241617105Y-44848660D01*
X241628525Y-44950264D01*
X241643281Y-45075635D01*
X241660671Y-45218702D01*
X241679994Y-45373392D01*
X241681000Y-45381333D01*
X241700290Y-45534429D01*
X241717708Y-45674359D01*
X241732567Y-45795458D01*
X241744177Y-45892057D01*
X241751851Y-45958492D01*
X241754900Y-45989094D01*
X241754924Y-45989875D01*
X241764452Y-45998515D01*
X241795517Y-46005195D01*
X241852019Y-46010112D01*
X241937858Y-46013467D01*
X242056932Y-46015457D01*
X242213140Y-46016283D01*
X242273667Y-46016333D01*
X242437428Y-46016642D01*
X242563519Y-46017754D01*
X242656601Y-46019952D01*
X242721333Y-46023516D01*
X242762376Y-46028726D01*
X242784389Y-46035864D01*
X242792034Y-46045209D01*
X242792250Y-46047577D01*
X242794865Y-46072405D01*
X242802480Y-46136462D01*
X242814748Y-46236983D01*
X242831324Y-46371204D01*
X242851860Y-46536359D01*
X242876013Y-46729684D01*
X242903434Y-46948413D01*
X242933778Y-47189781D01*
X242966699Y-47451024D01*
X243001851Y-47729376D01*
X243038888Y-48022072D01*
X243077464Y-48326348D01*
X243078000Y-48330573D01*
X243116601Y-48635071D01*
X243153667Y-48928085D01*
X243188852Y-49206843D01*
X243221811Y-49468576D01*
X243252196Y-49710511D01*
X243279661Y-49929880D01*
X243303860Y-50123911D01*
X243324447Y-50289833D01*
X243341076Y-50424876D01*
X243353400Y-50526268D01*
X243361074Y-50591241D01*
X243363750Y-50617021D01*
X243363750Y-50617080D01*
X243366958Y-50627005D01*
X243379497Y-50634857D01*
X243405740Y-50640872D01*
X243450062Y-50645292D01*
X243516835Y-50648354D01*
X243610433Y-50650298D01*
X243735229Y-50651362D01*
X243895597Y-50651786D01*
X243999709Y-50651833D01*
X244635668Y-50651833D01*
X244623955Y-50583042D01*
X244619738Y-50552898D01*
X244610607Y-50483628D01*
X244596930Y-50378109D01*
X244579073Y-50239218D01*
X244557401Y-50069832D01*
X244532282Y-49872827D01*
X244504082Y-49651081D01*
X244473167Y-49407470D01*
X244439904Y-49144872D01*
X244404659Y-48866162D01*
X244367798Y-48574219D01*
X244337521Y-48334083D01*
X244299634Y-48033655D01*
X244263069Y-47744169D01*
X244228193Y-47468503D01*
X244195371Y-47209532D01*
X244164971Y-46970133D01*
X244137358Y-46753185D01*
X244112900Y-46561562D01*
X244091963Y-46398144D01*
X244074914Y-46265805D01*
X244062119Y-46167424D01*
X244053944Y-46105877D01*
X244050983Y-46085125D01*
X244039165Y-46016333D01*
X244548124Y-46016333D01*
X244708162Y-46016136D01*
X244830798Y-46015306D01*
X244920966Y-46013484D01*
X244983596Y-46010312D01*
X245023619Y-46005431D01*
X245045969Y-45998482D01*
X245055576Y-45989106D01*
X245057404Y-45979292D01*
X245054952Y-45949545D01*
X245047860Y-45883342D01*
X245036776Y-45786226D01*
X245022346Y-45663744D01*
X245005219Y-45521441D01*
X244986041Y-45364860D01*
X244979564Y-45312542D01*
X244901404Y-44682833D01*
X241606917Y-44682833D01*
X241607076Y-44741042D01*
G37*
X241607076Y-44741042D02*
X241609722Y-44776896D01*
X241617105Y-44848660D01*
X241628525Y-44950264D01*
X241643281Y-45075635D01*
X241660671Y-45218702D01*
X241679994Y-45373392D01*
X241681000Y-45381333D01*
X241700290Y-45534429D01*
X241717708Y-45674359D01*
X241732567Y-45795458D01*
X241744177Y-45892057D01*
X241751851Y-45958492D01*
X241754900Y-45989094D01*
X241754924Y-45989875D01*
X241764452Y-45998515D01*
X241795517Y-46005195D01*
X241852019Y-46010112D01*
X241937858Y-46013467D01*
X242056932Y-46015457D01*
X242213140Y-46016283D01*
X242273667Y-46016333D01*
X242437428Y-46016642D01*
X242563519Y-46017754D01*
X242656601Y-46019952D01*
X242721333Y-46023516D01*
X242762376Y-46028726D01*
X242784389Y-46035864D01*
X242792034Y-46045209D01*
X242792250Y-46047577D01*
X242794865Y-46072405D01*
X242802480Y-46136462D01*
X242814748Y-46236983D01*
X242831324Y-46371204D01*
X242851860Y-46536359D01*
X242876013Y-46729684D01*
X242903434Y-46948413D01*
X242933778Y-47189781D01*
X242966699Y-47451024D01*
X243001851Y-47729376D01*
X243038888Y-48022072D01*
X243077464Y-48326348D01*
X243078000Y-48330573D01*
X243116601Y-48635071D01*
X243153667Y-48928085D01*
X243188852Y-49206843D01*
X243221811Y-49468576D01*
X243252196Y-49710511D01*
X243279661Y-49929880D01*
X243303860Y-50123911D01*
X243324447Y-50289833D01*
X243341076Y-50424876D01*
X243353400Y-50526268D01*
X243361074Y-50591241D01*
X243363750Y-50617021D01*
X243363750Y-50617080D01*
X243366958Y-50627005D01*
X243379497Y-50634857D01*
X243405740Y-50640872D01*
X243450062Y-50645292D01*
X243516835Y-50648354D01*
X243610433Y-50650298D01*
X243735229Y-50651362D01*
X243895597Y-50651786D01*
X243999709Y-50651833D01*
X244635668Y-50651833D01*
X244623955Y-50583042D01*
X244619738Y-50552898D01*
X244610607Y-50483628D01*
X244596930Y-50378109D01*
X244579073Y-50239218D01*
X244557401Y-50069832D01*
X244532282Y-49872827D01*
X244504082Y-49651081D01*
X244473167Y-49407470D01*
X244439904Y-49144872D01*
X244404659Y-48866162D01*
X244367798Y-48574219D01*
X244337521Y-48334083D01*
X244299634Y-48033655D01*
X244263069Y-47744169D01*
X244228193Y-47468503D01*
X244195371Y-47209532D01*
X244164971Y-46970133D01*
X244137358Y-46753185D01*
X244112900Y-46561562D01*
X244091963Y-46398144D01*
X244074914Y-46265805D01*
X244062119Y-46167424D01*
X244053944Y-46105877D01*
X244050983Y-46085125D01*
X244039165Y-46016333D01*
X244548124Y-46016333D01*
X244708162Y-46016136D01*
X244830798Y-46015306D01*
X244920966Y-46013484D01*
X244983596Y-46010312D01*
X245023619Y-46005431D01*
X245045969Y-45998482D01*
X245055576Y-45989106D01*
X245057404Y-45979292D01*
X245054952Y-45949545D01*
X245047860Y-45883342D01*
X245036776Y-45786226D01*
X245022346Y-45663744D01*
X245005219Y-45521441D01*
X244986041Y-45364860D01*
X244979564Y-45312542D01*
X244901404Y-44682833D01*
X241606917Y-44682833D01*
X241607076Y-44741042D01*
G36*
X252480554Y-44687851D02*
G01*
X252232457Y-44689605D01*
X252022824Y-44691311D01*
X251847786Y-44693127D01*
X251703474Y-44695215D01*
X251586020Y-44697737D01*
X251491554Y-44700852D01*
X251416208Y-44704721D01*
X251356112Y-44709505D01*
X251307398Y-44715365D01*
X251266198Y-44722462D01*
X251228641Y-44730955D01*
X251190860Y-44741007D01*
X251189057Y-44741509D01*
X250957425Y-44825152D01*
X250755767Y-44938491D01*
X250584341Y-45081071D01*
X250443406Y-45252436D01*
X250333220Y-45452131D01*
X250254043Y-45679700D01*
X250206132Y-45934687D01*
X250189746Y-46216637D01*
X250201189Y-46481801D01*
X250243114Y-46821788D01*
X250308511Y-47138346D01*
X250396314Y-47428999D01*
X250505458Y-47691271D01*
X250634876Y-47922689D01*
X250783503Y-48120776D01*
X250950273Y-48283059D01*
X250990521Y-48314635D01*
X251131232Y-48411733D01*
X251274498Y-48491508D01*
X251425906Y-48555325D01*
X251591042Y-48604549D01*
X251775493Y-48640542D01*
X251984846Y-48664671D01*
X252224686Y-48678299D01*
X252497972Y-48682787D01*
X252858611Y-48683333D01*
X252983659Y-49667583D01*
X253108708Y-50651833D01*
X254375128Y-50651833D01*
X254362840Y-50583042D01*
X254358758Y-50554072D01*
X254349719Y-50485582D01*
X254336037Y-50380056D01*
X254318029Y-50239977D01*
X254296010Y-50067829D01*
X254270295Y-49866095D01*
X254241200Y-49637259D01*
X254209040Y-49383805D01*
X254174132Y-49108216D01*
X254136791Y-48812977D01*
X254097332Y-48500569D01*
X254056071Y-48173478D01*
X254013324Y-47834186D01*
X253989658Y-47646167D01*
X253956065Y-47379400D01*
X252697062Y-47379400D01*
X252695271Y-47395079D01*
X252684536Y-47405646D01*
X252658449Y-47411711D01*
X252610603Y-47413881D01*
X252534590Y-47412765D01*
X252424003Y-47408972D01*
X252396625Y-47407924D01*
X252261484Y-47401359D01*
X252158867Y-47392689D01*
X252078974Y-47380566D01*
X252012004Y-47363643D01*
X251970523Y-47349342D01*
X251827472Y-47274750D01*
X251712310Y-47169229D01*
X251624851Y-47032426D01*
X251564909Y-46863986D01*
X251532298Y-46663555D01*
X251525632Y-46503167D01*
X251532543Y-46361924D01*
X251555392Y-46252047D01*
X251597438Y-46164507D01*
X251661944Y-46090278D01*
X251680784Y-46073731D01*
X251735758Y-46033448D01*
X251795814Y-46004089D01*
X251868644Y-45984062D01*
X251961938Y-45971776D01*
X252083387Y-45965638D01*
X252210659Y-45964075D01*
X252516818Y-45963417D01*
X252606346Y-46651333D01*
X252628009Y-46818712D01*
X252647856Y-46973827D01*
X252665227Y-47111381D01*
X252679462Y-47226077D01*
X252689900Y-47312620D01*
X252695883Y-47365713D01*
X252697062Y-47379400D01*
X253956065Y-47379400D01*
X253946280Y-47301706D01*
X253904234Y-46968357D01*
X253863834Y-46648580D01*
X253825394Y-46344837D01*
X253789227Y-46059588D01*
X253755648Y-45795295D01*
X253724969Y-45554420D01*
X253697505Y-45339422D01*
X253673569Y-45152764D01*
X253653474Y-44996906D01*
X253637536Y-44874310D01*
X253626067Y-44787437D01*
X253619380Y-44738748D01*
X253617852Y-44729124D01*
X253606941Y-44680166D01*
X252480554Y-44687851D01*
G37*
X252480554Y-44687851D02*
X252232457Y-44689605D01*
X252022824Y-44691311D01*
X251847786Y-44693127D01*
X251703474Y-44695215D01*
X251586020Y-44697737D01*
X251491554Y-44700852D01*
X251416208Y-44704721D01*
X251356112Y-44709505D01*
X251307398Y-44715365D01*
X251266198Y-44722462D01*
X251228641Y-44730955D01*
X251190860Y-44741007D01*
X251189057Y-44741509D01*
X250957425Y-44825152D01*
X250755767Y-44938491D01*
X250584341Y-45081071D01*
X250443406Y-45252436D01*
X250333220Y-45452131D01*
X250254043Y-45679700D01*
X250206132Y-45934687D01*
X250189746Y-46216637D01*
X250201189Y-46481801D01*
X250243114Y-46821788D01*
X250308511Y-47138346D01*
X250396314Y-47428999D01*
X250505458Y-47691271D01*
X250634876Y-47922689D01*
X250783503Y-48120776D01*
X250950273Y-48283059D01*
X250990521Y-48314635D01*
X251131232Y-48411733D01*
X251274498Y-48491508D01*
X251425906Y-48555325D01*
X251591042Y-48604549D01*
X251775493Y-48640542D01*
X251984846Y-48664671D01*
X252224686Y-48678299D01*
X252497972Y-48682787D01*
X252858611Y-48683333D01*
X252983659Y-49667583D01*
X253108708Y-50651833D01*
X254375128Y-50651833D01*
X254362840Y-50583042D01*
X254358758Y-50554072D01*
X254349719Y-50485582D01*
X254336037Y-50380056D01*
X254318029Y-50239977D01*
X254296010Y-50067829D01*
X254270295Y-49866095D01*
X254241200Y-49637259D01*
X254209040Y-49383805D01*
X254174132Y-49108216D01*
X254136791Y-48812977D01*
X254097332Y-48500569D01*
X254056071Y-48173478D01*
X254013324Y-47834186D01*
X253989658Y-47646167D01*
X253956065Y-47379400D01*
X252697062Y-47379400D01*
X252695271Y-47395079D01*
X252684536Y-47405646D01*
X252658449Y-47411711D01*
X252610603Y-47413881D01*
X252534590Y-47412765D01*
X252424003Y-47408972D01*
X252396625Y-47407924D01*
X252261484Y-47401359D01*
X252158867Y-47392689D01*
X252078974Y-47380566D01*
X252012004Y-47363643D01*
X251970523Y-47349342D01*
X251827472Y-47274750D01*
X251712310Y-47169229D01*
X251624851Y-47032426D01*
X251564909Y-46863986D01*
X251532298Y-46663555D01*
X251525632Y-46503167D01*
X251532543Y-46361924D01*
X251555392Y-46252047D01*
X251597438Y-46164507D01*
X251661944Y-46090278D01*
X251680784Y-46073731D01*
X251735758Y-46033448D01*
X251795814Y-46004089D01*
X251868644Y-45984062D01*
X251961938Y-45971776D01*
X252083387Y-45965638D01*
X252210659Y-45964075D01*
X252516818Y-45963417D01*
X252606346Y-46651333D01*
X252628009Y-46818712D01*
X252647856Y-46973827D01*
X252665227Y-47111381D01*
X252679462Y-47226077D01*
X252689900Y-47312620D01*
X252695883Y-47365713D01*
X252697062Y-47379400D01*
X253956065Y-47379400D01*
X253946280Y-47301706D01*
X253904234Y-46968357D01*
X253863834Y-46648580D01*
X253825394Y-46344837D01*
X253789227Y-46059588D01*
X253755648Y-45795295D01*
X253724969Y-45554420D01*
X253697505Y-45339422D01*
X253673569Y-45152764D01*
X253653474Y-44996906D01*
X253637536Y-44874310D01*
X253626067Y-44787437D01*
X253619380Y-44738748D01*
X253617852Y-44729124D01*
X253606941Y-44680166D01*
X252480554Y-44687851D01*
G36*
X248219550Y-44761890D02*
G01*
X248224201Y-44795357D01*
X248233777Y-44867375D01*
X248247832Y-44974506D01*
X248265921Y-45113309D01*
X248287599Y-45280345D01*
X248312419Y-45472174D01*
X248339936Y-45685357D01*
X248369705Y-45916454D01*
X248401279Y-46162026D01*
X248434213Y-46418632D01*
X248436911Y-46439667D01*
X248475247Y-46739065D01*
X248508494Y-47000036D01*
X248537016Y-47226133D01*
X248561177Y-47420910D01*
X248581343Y-47587919D01*
X248597879Y-47730714D01*
X248611148Y-47852847D01*
X248621517Y-47957873D01*
X248629349Y-48049345D01*
X248635009Y-48130815D01*
X248638862Y-48205837D01*
X248641272Y-48277965D01*
X248642606Y-48350750D01*
X248643226Y-48427748D01*
X248643322Y-48450500D01*
X248643323Y-48599901D01*
X248641718Y-48714482D01*
X248637956Y-48801746D01*
X248631485Y-48869192D01*
X248621753Y-48924321D01*
X248608208Y-48974635D01*
X248603742Y-48988623D01*
X248535872Y-49139706D01*
X248440871Y-49259224D01*
X248316759Y-49349665D01*
X248315998Y-49350083D01*
X248260503Y-49378876D01*
X248212395Y-49397356D01*
X248159603Y-49407789D01*
X248090055Y-49412441D01*
X247991681Y-49413576D01*
X247977613Y-49413583D01*
X247874702Y-49412683D01*
X247801020Y-49408312D01*
X247743474Y-49397965D01*
X247688971Y-49379136D01*
X247624418Y-49349321D01*
X247613333Y-49343881D01*
X247475203Y-49256497D01*
X247354721Y-49138150D01*
X247250816Y-48986946D01*
X247162417Y-48800991D01*
X247088453Y-48578389D01*
X247027852Y-48317246D01*
X247025300Y-48303913D01*
X247017446Y-48255752D01*
X247004805Y-48169647D01*
X246987905Y-48049655D01*
X246967278Y-47899829D01*
X246943453Y-47724226D01*
X246916959Y-47526899D01*
X246888328Y-47311905D01*
X246858090Y-47083297D01*
X246826773Y-46845132D01*
X246794909Y-46601463D01*
X246763027Y-46356347D01*
X246731657Y-46113837D01*
X246701330Y-45877989D01*
X246672575Y-45652858D01*
X246645922Y-45442499D01*
X246621903Y-45250967D01*
X246601045Y-45082317D01*
X246583880Y-44940603D01*
X246570938Y-44829882D01*
X246569273Y-44815125D01*
X246554449Y-44682833D01*
X245287999Y-44682833D01*
X245299582Y-44751625D01*
X245303948Y-44782785D01*
X245313172Y-44852723D01*
X245326842Y-44958213D01*
X245344547Y-45096029D01*
X245365876Y-45262944D01*
X245390419Y-45455733D01*
X245417764Y-45671169D01*
X245447500Y-45906026D01*
X245479217Y-46157078D01*
X245512503Y-46421099D01*
X245533490Y-46587833D01*
X245568521Y-46864761D01*
X245603136Y-47135427D01*
X245636830Y-47396051D01*
X245669098Y-47642855D01*
X245699434Y-47872059D01*
X245727333Y-48079884D01*
X245752291Y-48262551D01*
X245773800Y-48416280D01*
X245791357Y-48537294D01*
X245804456Y-48621811D01*
X245808846Y-48647393D01*
X245890069Y-49009408D01*
X245996270Y-49337386D01*
X246127717Y-49631663D01*
X246284679Y-49892577D01*
X246467421Y-50120462D01*
X246676213Y-50315655D01*
X246911322Y-50478492D01*
X247173015Y-50609310D01*
X247446786Y-50704318D01*
X247688437Y-50758090D01*
X247947604Y-50790107D01*
X248208418Y-50799283D01*
X248455011Y-50784532D01*
X248511188Y-50777182D01*
X248792077Y-50718853D01*
X249043012Y-50630616D01*
X249264089Y-50512382D01*
X249455405Y-50364060D01*
X249617058Y-50185560D01*
X249749144Y-49976791D01*
X249851760Y-49737663D01*
X249925003Y-49468086D01*
X249927474Y-49455917D01*
X249943122Y-49343318D01*
X249952882Y-49196760D01*
X249956877Y-49024187D01*
X249955228Y-48833545D01*
X249948057Y-48632780D01*
X249935486Y-48429835D01*
X249917637Y-48232658D01*
X249907378Y-48143583D01*
X249896718Y-48058219D01*
X249881284Y-47935330D01*
X249861640Y-47779384D01*
X249838352Y-47594852D01*
X249811984Y-47386202D01*
X249783101Y-47157905D01*
X249752269Y-46914429D01*
X249720053Y-46660245D01*
X249687017Y-46399822D01*
X249665204Y-46228000D01*
X249470333Y-44693417D01*
X248838711Y-44687807D01*
X248207088Y-44682197D01*
X248219550Y-44761890D01*
G37*
X248219550Y-44761890D02*
X248224201Y-44795357D01*
X248233777Y-44867375D01*
X248247832Y-44974506D01*
X248265921Y-45113309D01*
X248287599Y-45280345D01*
X248312419Y-45472174D01*
X248339936Y-45685357D01*
X248369705Y-45916454D01*
X248401279Y-46162026D01*
X248434213Y-46418632D01*
X248436911Y-46439667D01*
X248475247Y-46739065D01*
X248508494Y-47000036D01*
X248537016Y-47226133D01*
X248561177Y-47420910D01*
X248581343Y-47587919D01*
X248597879Y-47730714D01*
X248611148Y-47852847D01*
X248621517Y-47957873D01*
X248629349Y-48049345D01*
X248635009Y-48130815D01*
X248638862Y-48205837D01*
X248641272Y-48277965D01*
X248642606Y-48350750D01*
X248643226Y-48427748D01*
X248643322Y-48450500D01*
X248643323Y-48599901D01*
X248641718Y-48714482D01*
X248637956Y-48801746D01*
X248631485Y-48869192D01*
X248621753Y-48924321D01*
X248608208Y-48974635D01*
X248603742Y-48988623D01*
X248535872Y-49139706D01*
X248440871Y-49259224D01*
X248316759Y-49349665D01*
X248315998Y-49350083D01*
X248260503Y-49378876D01*
X248212395Y-49397356D01*
X248159603Y-49407789D01*
X248090055Y-49412441D01*
X247991681Y-49413576D01*
X247977613Y-49413583D01*
X247874702Y-49412683D01*
X247801020Y-49408312D01*
X247743474Y-49397965D01*
X247688971Y-49379136D01*
X247624418Y-49349321D01*
X247613333Y-49343881D01*
X247475203Y-49256497D01*
X247354721Y-49138150D01*
X247250816Y-48986946D01*
X247162417Y-48800991D01*
X247088453Y-48578389D01*
X247027852Y-48317246D01*
X247025300Y-48303913D01*
X247017446Y-48255752D01*
X247004805Y-48169647D01*
X246987905Y-48049655D01*
X246967278Y-47899829D01*
X246943453Y-47724226D01*
X246916959Y-47526899D01*
X246888328Y-47311905D01*
X246858090Y-47083297D01*
X246826773Y-46845132D01*
X246794909Y-46601463D01*
X246763027Y-46356347D01*
X246731657Y-46113837D01*
X246701330Y-45877989D01*
X246672575Y-45652858D01*
X246645922Y-45442499D01*
X246621903Y-45250967D01*
X246601045Y-45082317D01*
X246583880Y-44940603D01*
X246570938Y-44829882D01*
X246569273Y-44815125D01*
X246554449Y-44682833D01*
X245287999Y-44682833D01*
X245299582Y-44751625D01*
X245303948Y-44782785D01*
X245313172Y-44852723D01*
X245326842Y-44958213D01*
X245344547Y-45096029D01*
X245365876Y-45262944D01*
X245390419Y-45455733D01*
X245417764Y-45671169D01*
X245447500Y-45906026D01*
X245479217Y-46157078D01*
X245512503Y-46421099D01*
X245533490Y-46587833D01*
X245568521Y-46864761D01*
X245603136Y-47135427D01*
X245636830Y-47396051D01*
X245669098Y-47642855D01*
X245699434Y-47872059D01*
X245727333Y-48079884D01*
X245752291Y-48262551D01*
X245773800Y-48416280D01*
X245791357Y-48537294D01*
X245804456Y-48621811D01*
X245808846Y-48647393D01*
X245890069Y-49009408D01*
X245996270Y-49337386D01*
X246127717Y-49631663D01*
X246284679Y-49892577D01*
X246467421Y-50120462D01*
X246676213Y-50315655D01*
X246911322Y-50478492D01*
X247173015Y-50609310D01*
X247446786Y-50704318D01*
X247688437Y-50758090D01*
X247947604Y-50790107D01*
X248208418Y-50799283D01*
X248455011Y-50784532D01*
X248511188Y-50777182D01*
X248792077Y-50718853D01*
X249043012Y-50630616D01*
X249264089Y-50512382D01*
X249455405Y-50364060D01*
X249617058Y-50185560D01*
X249749144Y-49976791D01*
X249851760Y-49737663D01*
X249925003Y-49468086D01*
X249927474Y-49455917D01*
X249943122Y-49343318D01*
X249952882Y-49196760D01*
X249956877Y-49024187D01*
X249955228Y-48833545D01*
X249948057Y-48632780D01*
X249935486Y-48429835D01*
X249917637Y-48232658D01*
X249907378Y-48143583D01*
X249896718Y-48058219D01*
X249881284Y-47935330D01*
X249861640Y-47779384D01*
X249838352Y-47594852D01*
X249811984Y-47386202D01*
X249783101Y-47157905D01*
X249752269Y-46914429D01*
X249720053Y-46660245D01*
X249687017Y-46399822D01*
X249665204Y-46228000D01*
X249470333Y-44693417D01*
X248838711Y-44687807D01*
X248207088Y-44682197D01*
X248219550Y-44761890D01*
G36*
X99172257Y-129087748D02*
G01*
X99128450Y-129126043D01*
X99098328Y-129203349D01*
X99105677Y-129285864D01*
X99117412Y-129313224D01*
X99156149Y-129346836D01*
X99211125Y-129353899D01*
X99266063Y-129334970D01*
X99295383Y-129307123D01*
X99325436Y-129234322D01*
X99315849Y-129164200D01*
X99286000Y-129121333D01*
X99227987Y-129084431D01*
X99172257Y-129087748D01*
G37*
X99172257Y-129087748D02*
X99128450Y-129126043D01*
X99098328Y-129203349D01*
X99105677Y-129285864D01*
X99117412Y-129313224D01*
X99156149Y-129346836D01*
X99211125Y-129353899D01*
X99266063Y-129334970D01*
X99295383Y-129307123D01*
X99325436Y-129234322D01*
X99315849Y-129164200D01*
X99286000Y-129121333D01*
X99227987Y-129084431D01*
X99172257Y-129087748D01*
G36*
X102492378Y-129089695D02*
G01*
X102487195Y-129091391D01*
X102431397Y-129129133D01*
X102404256Y-129184797D01*
X102404341Y-129246531D01*
X102430217Y-129302482D01*
X102480454Y-129340797D01*
X102518463Y-129350111D01*
X102574420Y-129346121D01*
X102606680Y-129316432D01*
X102607761Y-129314461D01*
X102630317Y-129242468D01*
X102625123Y-129174868D01*
X102597113Y-129120787D01*
X102551220Y-129089353D01*
X102492378Y-129089695D01*
G37*
X102492378Y-129089695D02*
X102487195Y-129091391D01*
X102431397Y-129129133D01*
X102404256Y-129184797D01*
X102404341Y-129246531D01*
X102430217Y-129302482D01*
X102480454Y-129340797D01*
X102518463Y-129350111D01*
X102574420Y-129346121D01*
X102606680Y-129316432D01*
X102607761Y-129314461D01*
X102630317Y-129242468D01*
X102625123Y-129174868D01*
X102597113Y-129120787D01*
X102551220Y-129089353D01*
X102492378Y-129089695D01*
G36*
X96264588Y-129197168D02*
G01*
X96168843Y-129241214D01*
X96088212Y-129317968D01*
X96028908Y-129426541D01*
X96017811Y-129459664D01*
X95992095Y-129584863D01*
X95990627Y-129712027D01*
X96014856Y-129845894D01*
X96066230Y-129991201D01*
X96146199Y-130152683D01*
X96256211Y-130335077D01*
X96310868Y-130417791D01*
X96450165Y-130624166D01*
X95920500Y-130624166D01*
X95920500Y-130814666D01*
X96703667Y-130814666D01*
X96703667Y-130739982D01*
X96698970Y-130703421D01*
X96682571Y-130659439D01*
X96651006Y-130601847D01*
X96600812Y-130524457D01*
X96528524Y-130421083D01*
X96513095Y-130399511D01*
X96383018Y-130208574D01*
X96281647Y-130038962D01*
X96209974Y-129892553D01*
X96168987Y-129771226D01*
X96161757Y-129732772D01*
X96160045Y-129619330D01*
X96184670Y-129520023D01*
X96231656Y-129441712D01*
X96297033Y-129391256D01*
X96368761Y-129375333D01*
X96423155Y-129388748D01*
X96488213Y-129431826D01*
X96530203Y-129468768D01*
X96630093Y-129562203D01*
X96676918Y-129496293D01*
X96723742Y-129430382D01*
X96674436Y-129365816D01*
X96580371Y-129270153D01*
X96476565Y-129210749D01*
X96369233Y-129186717D01*
X96264588Y-129197168D01*
G37*
X96264588Y-129197168D02*
X96168843Y-129241214D01*
X96088212Y-129317968D01*
X96028908Y-129426541D01*
X96017811Y-129459664D01*
X95992095Y-129584863D01*
X95990627Y-129712027D01*
X96014856Y-129845894D01*
X96066230Y-129991201D01*
X96146199Y-130152683D01*
X96256211Y-130335077D01*
X96310868Y-130417791D01*
X96450165Y-130624166D01*
X95920500Y-130624166D01*
X95920500Y-130814666D01*
X96703667Y-130814666D01*
X96703667Y-130739982D01*
X96698970Y-130703421D01*
X96682571Y-130659439D01*
X96651006Y-130601847D01*
X96600812Y-130524457D01*
X96528524Y-130421083D01*
X96513095Y-130399511D01*
X96383018Y-130208574D01*
X96281647Y-130038962D01*
X96209974Y-129892553D01*
X96168987Y-129771226D01*
X96161757Y-129732772D01*
X96160045Y-129619330D01*
X96184670Y-129520023D01*
X96231656Y-129441712D01*
X96297033Y-129391256D01*
X96368761Y-129375333D01*
X96423155Y-129388748D01*
X96488213Y-129431826D01*
X96530203Y-129468768D01*
X96630093Y-129562203D01*
X96676918Y-129496293D01*
X96723742Y-129430382D01*
X96674436Y-129365816D01*
X96580371Y-129270153D01*
X96476565Y-129210749D01*
X96369233Y-129186717D01*
X96264588Y-129197168D01*
G36*
X98098168Y-129197100D02*
G01*
X98004480Y-129237753D01*
X97997707Y-129242589D01*
X97924104Y-129320723D01*
X97868353Y-129428410D01*
X97835567Y-129554831D01*
X97830905Y-129595626D01*
X97831920Y-129721380D01*
X97856308Y-129852255D01*
X97906015Y-129993239D01*
X97982989Y-130149321D01*
X98089177Y-130325487D01*
X98153695Y-130422455D01*
X98291413Y-130624166D01*
X97762000Y-130624166D01*
X97762000Y-130814666D01*
X98545167Y-130814666D01*
X98545167Y-130740411D01*
X98540308Y-130703044D01*
X98523320Y-130658447D01*
X98490589Y-130600177D01*
X98438497Y-130521793D01*
X98363987Y-130417619D01*
X98240400Y-130238717D01*
X98140062Y-130073714D01*
X98065004Y-129926519D01*
X98017259Y-129801042D01*
X97999939Y-129717351D01*
X98002473Y-129600658D01*
X98031428Y-129502355D01*
X98083115Y-129428390D01*
X98153845Y-129384708D01*
X98212140Y-129375333D01*
X98262150Y-129385896D01*
X98317519Y-129421523D01*
X98371192Y-129470954D01*
X98420709Y-129519168D01*
X98456495Y-129551550D01*
X98470301Y-129560913D01*
X98484087Y-129542019D01*
X98513512Y-129502830D01*
X98519821Y-129494492D01*
X98565853Y-129433735D01*
X98502134Y-129353283D01*
X98415215Y-129270468D01*
X98312763Y-129215482D01*
X98204005Y-129190351D01*
X98098168Y-129197100D01*
G37*
X98098168Y-129197100D02*
X98004480Y-129237753D01*
X97997707Y-129242589D01*
X97924104Y-129320723D01*
X97868353Y-129428410D01*
X97835567Y-129554831D01*
X97830905Y-129595626D01*
X97831920Y-129721380D01*
X97856308Y-129852255D01*
X97906015Y-129993239D01*
X97982989Y-130149321D01*
X98089177Y-130325487D01*
X98153695Y-130422455D01*
X98291413Y-130624166D01*
X97762000Y-130624166D01*
X97762000Y-130814666D01*
X98545167Y-130814666D01*
X98545167Y-130740411D01*
X98540308Y-130703044D01*
X98523320Y-130658447D01*
X98490589Y-130600177D01*
X98438497Y-130521793D01*
X98363987Y-130417619D01*
X98240400Y-130238717D01*
X98140062Y-130073714D01*
X98065004Y-129926519D01*
X98017259Y-129801042D01*
X97999939Y-129717351D01*
X98002473Y-129600658D01*
X98031428Y-129502355D01*
X98083115Y-129428390D01*
X98153845Y-129384708D01*
X98212140Y-129375333D01*
X98262150Y-129385896D01*
X98317519Y-129421523D01*
X98371192Y-129470954D01*
X98420709Y-129519168D01*
X98456495Y-129551550D01*
X98470301Y-129560913D01*
X98484087Y-129542019D01*
X98513512Y-129502830D01*
X98519821Y-129494492D01*
X98565853Y-129433735D01*
X98502134Y-129353283D01*
X98415215Y-129270468D01*
X98312763Y-129215482D01*
X98204005Y-129190351D01*
X98098168Y-129197100D01*
G36*
X99116667Y-130814666D02*
G01*
X99307167Y-130814666D01*
X99307167Y-129587000D01*
X99116667Y-129587000D01*
X99116667Y-130814666D01*
G37*
X99116667Y-130814666D02*
X99307167Y-130814666D01*
X99307167Y-129587000D01*
X99116667Y-129587000D01*
X99116667Y-130814666D01*
G36*
X102439833Y-130814666D02*
G01*
X102609167Y-130814666D01*
X102609167Y-129587000D01*
X102439833Y-129587000D01*
X102439833Y-130814666D01*
G37*
X102439833Y-130814666D02*
X102609167Y-130814666D01*
X102609167Y-129587000D01*
X102439833Y-129587000D01*
X102439833Y-130814666D01*
G36*
X103085864Y-129570228D02*
G01*
X103036255Y-129587923D01*
X102990564Y-129625679D01*
X102990534Y-129625709D01*
X102958930Y-129661771D01*
X102934192Y-129702952D01*
X102915508Y-129754672D01*
X102902066Y-129822351D01*
X102893053Y-129911408D01*
X102887655Y-130027264D01*
X102885061Y-130175338D01*
X102884452Y-130333125D01*
X102884333Y-130814666D01*
X103053667Y-130814666D01*
X103053667Y-130369486D01*
X103054679Y-130194986D01*
X103058306Y-130058074D01*
X103065433Y-129954038D01*
X103076947Y-129878169D01*
X103093731Y-129825756D01*
X103116673Y-129792088D01*
X103146657Y-129772455D01*
X103167161Y-129765758D01*
X103231418Y-129760486D01*
X103290971Y-129782779D01*
X103355724Y-129837166D01*
X103380104Y-129863131D01*
X103455833Y-129946955D01*
X103455833Y-130814666D01*
X103625167Y-130814666D01*
X103625167Y-129587000D01*
X103553439Y-129587000D01*
X103504727Y-129591326D01*
X103480801Y-129612744D01*
X103467524Y-129662627D01*
X103453336Y-129738255D01*
X103359808Y-129652044D01*
X103301986Y-129602506D01*
X103255453Y-129576628D01*
X103202793Y-129566958D01*
X103158345Y-129565833D01*
X103085864Y-129570228D01*
G37*
X103085864Y-129570228D02*
X103036255Y-129587923D01*
X102990564Y-129625679D01*
X102990534Y-129625709D01*
X102958930Y-129661771D01*
X102934192Y-129702952D01*
X102915508Y-129754672D01*
X102902066Y-129822351D01*
X102893053Y-129911408D01*
X102887655Y-130027264D01*
X102885061Y-130175338D01*
X102884452Y-130333125D01*
X102884333Y-130814666D01*
X103053667Y-130814666D01*
X103053667Y-130369486D01*
X103054679Y-130194986D01*
X103058306Y-130058074D01*
X103065433Y-129954038D01*
X103076947Y-129878169D01*
X103093731Y-129825756D01*
X103116673Y-129792088D01*
X103146657Y-129772455D01*
X103167161Y-129765758D01*
X103231418Y-129760486D01*
X103290971Y-129782779D01*
X103355724Y-129837166D01*
X103380104Y-129863131D01*
X103455833Y-129946955D01*
X103455833Y-130814666D01*
X103625167Y-130814666D01*
X103625167Y-129587000D01*
X103553439Y-129587000D01*
X103504727Y-129591326D01*
X103480801Y-129612744D01*
X103467524Y-129662627D01*
X103453336Y-129738255D01*
X103359808Y-129652044D01*
X103301986Y-129602506D01*
X103255453Y-129576628D01*
X103202793Y-129566958D01*
X103158345Y-129565833D01*
X103085864Y-129570228D01*
G36*
X104101864Y-129570228D02*
G01*
X104052255Y-129587923D01*
X104006564Y-129625679D01*
X104006534Y-129625709D01*
X103974930Y-129661771D01*
X103950192Y-129702952D01*
X103931508Y-129754672D01*
X103918066Y-129822351D01*
X103909053Y-129911408D01*
X103903655Y-130027264D01*
X103901061Y-130175338D01*
X103900452Y-130333125D01*
X103900333Y-130814666D01*
X104069667Y-130814666D01*
X104069667Y-130358532D01*
X104070281Y-130197564D01*
X104072336Y-130073590D01*
X104076153Y-129981285D01*
X104082049Y-129915323D01*
X104090346Y-129870381D01*
X104100634Y-129842513D01*
X104149946Y-129779231D01*
X104211005Y-129756419D01*
X104283049Y-129774106D01*
X104365317Y-129832318D01*
X104365939Y-129832879D01*
X104450667Y-129909426D01*
X104450667Y-130814666D01*
X104535998Y-130814666D01*
X104594853Y-130808430D01*
X104628858Y-130792353D01*
X104631597Y-130787907D01*
X104634094Y-130760414D01*
X104635965Y-130696333D01*
X104637167Y-130601404D01*
X104637655Y-130481368D01*
X104637386Y-130341966D01*
X104636316Y-130188940D01*
X104636224Y-130179366D01*
X104630583Y-129597583D01*
X104569380Y-129590596D01*
X104511333Y-129597139D01*
X104479906Y-129635059D01*
X104472158Y-129690237D01*
X104469850Y-129715861D01*
X104458650Y-129720709D01*
X104431470Y-129702019D01*
X104381218Y-129657029D01*
X104377056Y-129653195D01*
X104319008Y-129603317D01*
X104272653Y-129577076D01*
X104220873Y-129567096D01*
X104174345Y-129565833D01*
X104101864Y-129570228D01*
G37*
X104101864Y-129570228D02*
X104052255Y-129587923D01*
X104006564Y-129625679D01*
X104006534Y-129625709D01*
X103974930Y-129661771D01*
X103950192Y-129702952D01*
X103931508Y-129754672D01*
X103918066Y-129822351D01*
X103909053Y-129911408D01*
X103903655Y-130027264D01*
X103901061Y-130175338D01*
X103900452Y-130333125D01*
X103900333Y-130814666D01*
X104069667Y-130814666D01*
X104069667Y-130358532D01*
X104070281Y-130197564D01*
X104072336Y-130073590D01*
X104076153Y-129981285D01*
X104082049Y-129915323D01*
X104090346Y-129870381D01*
X104100634Y-129842513D01*
X104149946Y-129779231D01*
X104211005Y-129756419D01*
X104283049Y-129774106D01*
X104365317Y-129832318D01*
X104365939Y-129832879D01*
X104450667Y-129909426D01*
X104450667Y-130814666D01*
X104535998Y-130814666D01*
X104594853Y-130808430D01*
X104628858Y-130792353D01*
X104631597Y-130787907D01*
X104634094Y-130760414D01*
X104635965Y-130696333D01*
X104637167Y-130601404D01*
X104637655Y-130481368D01*
X104637386Y-130341966D01*
X104636316Y-130188940D01*
X104636224Y-130179366D01*
X104630583Y-129597583D01*
X104569380Y-129590596D01*
X104511333Y-129597139D01*
X104479906Y-129635059D01*
X104472158Y-129690237D01*
X104469850Y-129715861D01*
X104458650Y-129720709D01*
X104431470Y-129702019D01*
X104381218Y-129657029D01*
X104377056Y-129653195D01*
X104319008Y-129603317D01*
X104272653Y-129577076D01*
X104220873Y-129567096D01*
X104174345Y-129565833D01*
X104101864Y-129570228D01*
G36*
X105695999Y-129016444D02*
G01*
X105694862Y-129016748D01*
X105641625Y-129033668D01*
X105619945Y-129053459D01*
X105620027Y-129088060D01*
X105623061Y-129104262D01*
X105632272Y-129156568D01*
X105636000Y-129189834D01*
X105654275Y-129200971D01*
X105701219Y-129198438D01*
X105705820Y-129197613D01*
X105770528Y-129192874D01*
X105815178Y-129210647D01*
X105843580Y-129256133D01*
X105859543Y-129334535D01*
X105865541Y-129415783D01*
X105873316Y-129587000D01*
X105678333Y-129587000D01*
X105678333Y-129777500D01*
X105868833Y-129777500D01*
X105868833Y-130814666D01*
X106038167Y-130814666D01*
X106038167Y-129777500D01*
X106101667Y-129777500D01*
X106142294Y-129774189D01*
X106160418Y-129756193D01*
X106165057Y-129711414D01*
X106165167Y-129692304D01*
X106161951Y-129636695D01*
X106146230Y-129609242D01*
X106108895Y-129595900D01*
X106101667Y-129594408D01*
X106038167Y-129581708D01*
X106038167Y-129408922D01*
X106028189Y-129261591D01*
X105997631Y-129149702D01*
X105945554Y-129071193D01*
X105871020Y-129024006D01*
X105861260Y-129020590D01*
X105779394Y-129004754D01*
X105695999Y-129016444D01*
G37*
X105695999Y-129016444D02*
X105694862Y-129016748D01*
X105641625Y-129033668D01*
X105619945Y-129053459D01*
X105620027Y-129088060D01*
X105623061Y-129104262D01*
X105632272Y-129156568D01*
X105636000Y-129189834D01*
X105654275Y-129200971D01*
X105701219Y-129198438D01*
X105705820Y-129197613D01*
X105770528Y-129192874D01*
X105815178Y-129210647D01*
X105843580Y-129256133D01*
X105859543Y-129334535D01*
X105865541Y-129415783D01*
X105873316Y-129587000D01*
X105678333Y-129587000D01*
X105678333Y-129777500D01*
X105868833Y-129777500D01*
X105868833Y-130814666D01*
X106038167Y-130814666D01*
X106038167Y-129777500D01*
X106101667Y-129777500D01*
X106142294Y-129774189D01*
X106160418Y-129756193D01*
X106165057Y-129711414D01*
X106165167Y-129692304D01*
X106161951Y-129636695D01*
X106146230Y-129609242D01*
X106108895Y-129595900D01*
X106101667Y-129594408D01*
X106038167Y-129581708D01*
X106038167Y-129408922D01*
X106028189Y-129261591D01*
X105997631Y-129149702D01*
X105945554Y-129071193D01*
X105871020Y-129024006D01*
X105861260Y-129020590D01*
X105779394Y-129004754D01*
X105695999Y-129016444D01*
G36*
X95300367Y-129207546D02*
G01*
X95219594Y-129247683D01*
X95153918Y-129321451D01*
X95121509Y-129377519D01*
X95069910Y-129503951D01*
X95035555Y-129651661D01*
X95017591Y-129826395D01*
X95015166Y-130033895D01*
X95016629Y-130084416D01*
X95031480Y-130297526D01*
X95060057Y-130472324D01*
X95103036Y-130610770D01*
X95161095Y-130714824D01*
X95234907Y-130786446D01*
X95264951Y-130804402D01*
X95349846Y-130829856D01*
X95444554Y-130831210D01*
X95507750Y-130815524D01*
X95584519Y-130761791D01*
X95651001Y-130671911D01*
X95705810Y-130551122D01*
X95747555Y-130404665D01*
X95774848Y-130237778D01*
X95786300Y-130055702D01*
X95783755Y-129971062D01*
X95610059Y-129971062D01*
X95608995Y-130111068D01*
X95603116Y-130241828D01*
X95592421Y-130350516D01*
X95584356Y-130396836D01*
X95550792Y-130499475D01*
X95503331Y-130578120D01*
X95447112Y-130628966D01*
X95387280Y-130648210D01*
X95328976Y-130632047D01*
X95299921Y-130607240D01*
X95263124Y-130558356D01*
X95235394Y-130499697D01*
X95215604Y-130424991D01*
X95202626Y-130327967D01*
X95195329Y-130202355D01*
X95192587Y-130041881D01*
X95192492Y-130010333D01*
X95194063Y-129843964D01*
X95200077Y-129713455D01*
X95211676Y-129612465D01*
X95230000Y-129534648D01*
X95256192Y-129473662D01*
X95291393Y-129423164D01*
X95299921Y-129413425D01*
X95355260Y-129376549D01*
X95414905Y-129377135D01*
X95473714Y-129411378D01*
X95526546Y-129475475D01*
X95568258Y-129565621D01*
X95584356Y-129623830D01*
X95597739Y-129714617D01*
X95606307Y-129834636D01*
X95610059Y-129971062D01*
X95783755Y-129971062D01*
X95780524Y-129863677D01*
X95775329Y-129805929D01*
X95753814Y-129641952D01*
X95725815Y-129512645D01*
X95688869Y-129410536D01*
X95640513Y-129328152D01*
X95602959Y-129282882D01*
X95552538Y-129232381D01*
X95511180Y-129206316D01*
X95460757Y-129196680D01*
X95404988Y-129195416D01*
X95300367Y-129207546D01*
G37*
X95300367Y-129207546D02*
X95219594Y-129247683D01*
X95153918Y-129321451D01*
X95121509Y-129377519D01*
X95069910Y-129503951D01*
X95035555Y-129651661D01*
X95017591Y-129826395D01*
X95015166Y-130033895D01*
X95016629Y-130084416D01*
X95031480Y-130297526D01*
X95060057Y-130472324D01*
X95103036Y-130610770D01*
X95161095Y-130714824D01*
X95234907Y-130786446D01*
X95264951Y-130804402D01*
X95349846Y-130829856D01*
X95444554Y-130831210D01*
X95507750Y-130815524D01*
X95584519Y-130761791D01*
X95651001Y-130671911D01*
X95705810Y-130551122D01*
X95747555Y-130404665D01*
X95774848Y-130237778D01*
X95786300Y-130055702D01*
X95783755Y-129971062D01*
X95610059Y-129971062D01*
X95608995Y-130111068D01*
X95603116Y-130241828D01*
X95592421Y-130350516D01*
X95584356Y-130396836D01*
X95550792Y-130499475D01*
X95503331Y-130578120D01*
X95447112Y-130628966D01*
X95387280Y-130648210D01*
X95328976Y-130632047D01*
X95299921Y-130607240D01*
X95263124Y-130558356D01*
X95235394Y-130499697D01*
X95215604Y-130424991D01*
X95202626Y-130327967D01*
X95195329Y-130202355D01*
X95192587Y-130041881D01*
X95192492Y-130010333D01*
X95194063Y-129843964D01*
X95200077Y-129713455D01*
X95211676Y-129612465D01*
X95230000Y-129534648D01*
X95256192Y-129473662D01*
X95291393Y-129423164D01*
X95299921Y-129413425D01*
X95355260Y-129376549D01*
X95414905Y-129377135D01*
X95473714Y-129411378D01*
X95526546Y-129475475D01*
X95568258Y-129565621D01*
X95584356Y-129623830D01*
X95597739Y-129714617D01*
X95606307Y-129834636D01*
X95610059Y-129971062D01*
X95783755Y-129971062D01*
X95780524Y-129863677D01*
X95775329Y-129805929D01*
X95753814Y-129641952D01*
X95725815Y-129512645D01*
X95688869Y-129410536D01*
X95640513Y-129328152D01*
X95602959Y-129282882D01*
X95552538Y-129232381D01*
X95511180Y-129206316D01*
X95460757Y-129196680D01*
X95404988Y-129195416D01*
X95300367Y-129207546D01*
G36*
X97172357Y-129192032D02*
G01*
X97082505Y-129233277D01*
X97001086Y-129310630D01*
X96937796Y-129421497D01*
X96892246Y-129567187D01*
X96864050Y-129749010D01*
X96852819Y-129968276D01*
X96852569Y-130010333D01*
X96860888Y-130236245D01*
X96886106Y-130424487D01*
X96928610Y-130576367D01*
X96988787Y-130693197D01*
X97067025Y-130776285D01*
X97082505Y-130787389D01*
X97174606Y-130826162D01*
X97277433Y-130832871D01*
X97350977Y-130815325D01*
X97413340Y-130771453D01*
X97475844Y-130694167D01*
X97532217Y-130591898D01*
X97551940Y-130545121D01*
X97571196Y-130488995D01*
X97585218Y-130429582D01*
X97595148Y-130357825D01*
X97602130Y-130264667D01*
X97607307Y-130141049D01*
X97608727Y-130095000D01*
X97609935Y-130010333D01*
X97445418Y-130010333D01*
X97439561Y-130209654D01*
X97421916Y-130369656D01*
X97392210Y-130491756D01*
X97350173Y-130577373D01*
X97332998Y-130598450D01*
X97272160Y-130636680D01*
X97204738Y-130637583D01*
X97142054Y-130602191D01*
X97121635Y-130579175D01*
X97077516Y-130491290D01*
X97046072Y-130363899D01*
X97027466Y-130197939D01*
X97021828Y-130010333D01*
X97028375Y-129807288D01*
X97048114Y-129644063D01*
X97081191Y-129520206D01*
X97127750Y-129435264D01*
X97187939Y-129388783D01*
X97225009Y-129379628D01*
X97294188Y-129391344D01*
X97350244Y-129442036D01*
X97393280Y-129532000D01*
X97423400Y-129661529D01*
X97440706Y-129830917D01*
X97445418Y-130010333D01*
X97609935Y-130010333D01*
X97611303Y-129914549D01*
X97606643Y-129767940D01*
X97593645Y-129647127D01*
X97571209Y-129544064D01*
X97538236Y-129450707D01*
X97513182Y-129396500D01*
X97443756Y-129291142D01*
X97360649Y-129220747D01*
X97268603Y-129187111D01*
X97172357Y-129192032D01*
G37*
X97172357Y-129192032D02*
X97082505Y-129233277D01*
X97001086Y-129310630D01*
X96937796Y-129421497D01*
X96892246Y-129567187D01*
X96864050Y-129749010D01*
X96852819Y-129968276D01*
X96852569Y-130010333D01*
X96860888Y-130236245D01*
X96886106Y-130424487D01*
X96928610Y-130576367D01*
X96988787Y-130693197D01*
X97067025Y-130776285D01*
X97082505Y-130787389D01*
X97174606Y-130826162D01*
X97277433Y-130832871D01*
X97350977Y-130815325D01*
X97413340Y-130771453D01*
X97475844Y-130694167D01*
X97532217Y-130591898D01*
X97551940Y-130545121D01*
X97571196Y-130488995D01*
X97585218Y-130429582D01*
X97595148Y-130357825D01*
X97602130Y-130264667D01*
X97607307Y-130141049D01*
X97608727Y-130095000D01*
X97609935Y-130010333D01*
X97445418Y-130010333D01*
X97439561Y-130209654D01*
X97421916Y-130369656D01*
X97392210Y-130491756D01*
X97350173Y-130577373D01*
X97332998Y-130598450D01*
X97272160Y-130636680D01*
X97204738Y-130637583D01*
X97142054Y-130602191D01*
X97121635Y-130579175D01*
X97077516Y-130491290D01*
X97046072Y-130363899D01*
X97027466Y-130197939D01*
X97021828Y-130010333D01*
X97028375Y-129807288D01*
X97048114Y-129644063D01*
X97081191Y-129520206D01*
X97127750Y-129435264D01*
X97187939Y-129388783D01*
X97225009Y-129379628D01*
X97294188Y-129391344D01*
X97350244Y-129442036D01*
X97393280Y-129532000D01*
X97423400Y-129661529D01*
X97440706Y-129830917D01*
X97445418Y-130010333D01*
X97609935Y-130010333D01*
X97611303Y-129914549D01*
X97606643Y-129767940D01*
X97593645Y-129647127D01*
X97571209Y-129544064D01*
X97538236Y-129450707D01*
X97513182Y-129396500D01*
X97443756Y-129291142D01*
X97360649Y-129220747D01*
X97268603Y-129187111D01*
X97172357Y-129192032D01*
G36*
X99730500Y-129587000D02*
G01*
X99476500Y-129587000D01*
X99476500Y-129777500D01*
X99730500Y-129777500D01*
X99729305Y-130132041D01*
X99727121Y-130281805D01*
X99721878Y-130406281D01*
X99713920Y-130499974D01*
X99703591Y-130557385D01*
X99702529Y-130560666D01*
X99683927Y-130605843D01*
X99659825Y-130627298D01*
X99615761Y-130633516D01*
X99578317Y-130633519D01*
X99518010Y-130634620D01*
X99487071Y-130645399D01*
X99472560Y-130674101D01*
X99466034Y-130705068D01*
X99461540Y-130762737D01*
X99478956Y-130798850D01*
X99525001Y-130819323D01*
X99606390Y-130830077D01*
X99608047Y-130830205D01*
X99693995Y-130830388D01*
X99752416Y-130813745D01*
X99767663Y-130804265D01*
X99805747Y-130773192D01*
X99835072Y-130738040D01*
X99856898Y-130692940D01*
X99872485Y-130632026D01*
X99883094Y-130549429D01*
X99889986Y-130439282D01*
X99894421Y-130295718D01*
X99896172Y-130206125D01*
X99903596Y-129777500D01*
X99965215Y-129777500D01*
X100004905Y-129773913D01*
X100022436Y-129755043D01*
X100026764Y-129708720D01*
X100026833Y-129693792D01*
X100023782Y-129639140D01*
X100007321Y-129612309D01*
X99966489Y-129598858D01*
X99952750Y-129596186D01*
X99878667Y-129582288D01*
X99878667Y-129248333D01*
X99730500Y-129248333D01*
X99730500Y-129587000D01*
G37*
X99730500Y-129587000D02*
X99476500Y-129587000D01*
X99476500Y-129777500D01*
X99730500Y-129777500D01*
X99729305Y-130132041D01*
X99727121Y-130281805D01*
X99721878Y-130406281D01*
X99713920Y-130499974D01*
X99703591Y-130557385D01*
X99702529Y-130560666D01*
X99683927Y-130605843D01*
X99659825Y-130627298D01*
X99615761Y-130633516D01*
X99578317Y-130633519D01*
X99518010Y-130634620D01*
X99487071Y-130645399D01*
X99472560Y-130674101D01*
X99466034Y-130705068D01*
X99461540Y-130762737D01*
X99478956Y-130798850D01*
X99525001Y-130819323D01*
X99606390Y-130830077D01*
X99608047Y-130830205D01*
X99693995Y-130830388D01*
X99752416Y-130813745D01*
X99767663Y-130804265D01*
X99805747Y-130773192D01*
X99835072Y-130738040D01*
X99856898Y-130692940D01*
X99872485Y-130632026D01*
X99883094Y-130549429D01*
X99889986Y-130439282D01*
X99894421Y-130295718D01*
X99896172Y-130206125D01*
X99903596Y-129777500D01*
X99965215Y-129777500D01*
X100004905Y-129773913D01*
X100022436Y-129755043D01*
X100026764Y-129708720D01*
X100026833Y-129693792D01*
X100023782Y-129639140D01*
X100007321Y-129612309D01*
X99966489Y-129598858D01*
X99952750Y-129596186D01*
X99878667Y-129582288D01*
X99878667Y-129248333D01*
X99730500Y-129248333D01*
X99730500Y-129587000D01*
G36*
X100323167Y-129587000D02*
G01*
X100069167Y-129587000D01*
X100069167Y-129777500D01*
X100327808Y-129777500D01*
X100319426Y-130163791D01*
X100315348Y-130320461D01*
X100309746Y-130439646D01*
X100301038Y-130526195D01*
X100287644Y-130584954D01*
X100267983Y-130620774D01*
X100240474Y-130638501D01*
X100203538Y-130642985D01*
X100164154Y-130640073D01*
X100106978Y-130635451D01*
X100078380Y-130644134D01*
X100064921Y-130674264D01*
X100058936Y-130703813D01*
X100055089Y-130760133D01*
X100064791Y-130797331D01*
X100066445Y-130799244D01*
X100106547Y-130817417D01*
X100171892Y-130827501D01*
X100246049Y-130828854D01*
X100312587Y-130820834D01*
X100344333Y-130810102D01*
X100387035Y-130773934D01*
X100429029Y-130717252D01*
X100439583Y-130698082D01*
X100454481Y-130664017D01*
X100465730Y-130624992D01*
X100473990Y-130574304D01*
X100479922Y-130505254D01*
X100484186Y-130411141D01*
X100487443Y-130285262D01*
X100489123Y-130195541D01*
X100496328Y-129777500D01*
X100557914Y-129777500D01*
X100597584Y-129773910D01*
X100615105Y-129755030D01*
X100619431Y-129708692D01*
X100619500Y-129693792D01*
X100616431Y-129639122D01*
X100600001Y-129612294D01*
X100559377Y-129598895D01*
X100546268Y-129596346D01*
X100473035Y-129582607D01*
X100466893Y-129420762D01*
X100460750Y-129258916D01*
X100391958Y-129252283D01*
X100323167Y-129245651D01*
X100323167Y-129587000D01*
G37*
X100323167Y-129587000D02*
X100069167Y-129587000D01*
X100069167Y-129777500D01*
X100327808Y-129777500D01*
X100319426Y-130163791D01*
X100315348Y-130320461D01*
X100309746Y-130439646D01*
X100301038Y-130526195D01*
X100287644Y-130584954D01*
X100267983Y-130620774D01*
X100240474Y-130638501D01*
X100203538Y-130642985D01*
X100164154Y-130640073D01*
X100106978Y-130635451D01*
X100078380Y-130644134D01*
X100064921Y-130674264D01*
X100058936Y-130703813D01*
X100055089Y-130760133D01*
X100064791Y-130797331D01*
X100066445Y-130799244D01*
X100106547Y-130817417D01*
X100171892Y-130827501D01*
X100246049Y-130828854D01*
X100312587Y-130820834D01*
X100344333Y-130810102D01*
X100387035Y-130773934D01*
X100429029Y-130717252D01*
X100439583Y-130698082D01*
X100454481Y-130664017D01*
X100465730Y-130624992D01*
X100473990Y-130574304D01*
X100479922Y-130505254D01*
X100484186Y-130411141D01*
X100487443Y-130285262D01*
X100489123Y-130195541D01*
X100496328Y-129777500D01*
X100557914Y-129777500D01*
X100597584Y-129773910D01*
X100615105Y-129755030D01*
X100619431Y-129708692D01*
X100619500Y-129693792D01*
X100616431Y-129639122D01*
X100600001Y-129612294D01*
X100559377Y-129598895D01*
X100546268Y-129596346D01*
X100473035Y-129582607D01*
X100466893Y-129420762D01*
X100460750Y-129258916D01*
X100391958Y-129252283D01*
X100323167Y-129245651D01*
X100323167Y-129587000D01*
G36*
X101360215Y-130015625D02*
G01*
X101359105Y-130151593D01*
X101356080Y-130277957D01*
X101351485Y-130386776D01*
X101345667Y-130470105D01*
X101338971Y-130520003D01*
X101338123Y-130523375D01*
X101301891Y-130599977D01*
X101248895Y-130639324D01*
X101183499Y-130640842D01*
X101110070Y-130603958D01*
X101060723Y-130559775D01*
X100979333Y-130474217D01*
X100979333Y-129587000D01*
X100788184Y-129587000D01*
X100793801Y-130195541D01*
X100799417Y-130804083D01*
X100867749Y-130810681D01*
X100912276Y-130811642D01*
X100934562Y-130795589D01*
X100946523Y-130751391D01*
X100949322Y-130734482D01*
X100962562Y-130651684D01*
X101041124Y-130735907D01*
X101096027Y-130788326D01*
X101146393Y-130815724D01*
X101211633Y-130827993D01*
X101224135Y-130829160D01*
X101306986Y-130829284D01*
X101371161Y-130809840D01*
X101396262Y-130795666D01*
X101434885Y-130765820D01*
X101465483Y-130726999D01*
X101488933Y-130674364D01*
X101506112Y-130603076D01*
X101517897Y-130508294D01*
X101525164Y-130385179D01*
X101528790Y-130228892D01*
X101529667Y-130059408D01*
X101529667Y-129587000D01*
X101360333Y-129587000D01*
X101360215Y-130015625D01*
G37*
X101360215Y-130015625D02*
X101359105Y-130151593D01*
X101356080Y-130277957D01*
X101351485Y-130386776D01*
X101345667Y-130470105D01*
X101338971Y-130520003D01*
X101338123Y-130523375D01*
X101301891Y-130599977D01*
X101248895Y-130639324D01*
X101183499Y-130640842D01*
X101110070Y-130603958D01*
X101060723Y-130559775D01*
X100979333Y-130474217D01*
X100979333Y-129587000D01*
X100788184Y-129587000D01*
X100793801Y-130195541D01*
X100799417Y-130804083D01*
X100867749Y-130810681D01*
X100912276Y-130811642D01*
X100934562Y-130795589D01*
X100946523Y-130751391D01*
X100949322Y-130734482D01*
X100962562Y-130651684D01*
X101041124Y-130735907D01*
X101096027Y-130788326D01*
X101146393Y-130815724D01*
X101211633Y-130827993D01*
X101224135Y-130829160D01*
X101306986Y-130829284D01*
X101371161Y-130809840D01*
X101396262Y-130795666D01*
X101434885Y-130765820D01*
X101465483Y-130726999D01*
X101488933Y-130674364D01*
X101506112Y-130603076D01*
X101517897Y-130508294D01*
X101525164Y-130385179D01*
X101528790Y-130228892D01*
X101529667Y-130059408D01*
X101529667Y-129587000D01*
X101360333Y-129587000D01*
X101360215Y-130015625D01*
G36*
X101953000Y-129587000D02*
G01*
X101699000Y-129587000D01*
X101699000Y-129777500D01*
X101956299Y-129777500D01*
X101949358Y-130176467D01*
X101946128Y-130330992D01*
X101941415Y-130448065D01*
X101933560Y-130532566D01*
X101920902Y-130589376D01*
X101901780Y-130623374D01*
X101874535Y-130639443D01*
X101837507Y-130642463D01*
X101792424Y-130637781D01*
X101736676Y-130631947D01*
X101709352Y-130640756D01*
X101696942Y-130673057D01*
X101691616Y-130703804D01*
X101688205Y-130759942D01*
X101696063Y-130798071D01*
X101698809Y-130801775D01*
X101729724Y-130814490D01*
X101787945Y-130825933D01*
X101834922Y-130831283D01*
X101904975Y-130834760D01*
X101950017Y-130827236D01*
X101986941Y-130803722D01*
X102013588Y-130778502D01*
X102049023Y-130737295D01*
X102076024Y-130689636D01*
X102095669Y-130629432D01*
X102109033Y-130550591D01*
X102117193Y-130447022D01*
X102121226Y-130312632D01*
X102122215Y-130163791D01*
X102122333Y-129777500D01*
X102185833Y-129777500D01*
X102226461Y-129774189D01*
X102244585Y-129756193D01*
X102249223Y-129711414D01*
X102249333Y-129692304D01*
X102246058Y-129636617D01*
X102230350Y-129609152D01*
X102193392Y-129595952D01*
X102187708Y-129594783D01*
X102147338Y-129580290D01*
X102121637Y-129550980D01*
X102107539Y-129498867D01*
X102101981Y-129415966D01*
X102101456Y-129370041D01*
X102101167Y-129248333D01*
X101953000Y-129248333D01*
X101953000Y-129587000D01*
G37*
X101953000Y-129587000D02*
X101699000Y-129587000D01*
X101699000Y-129777500D01*
X101956299Y-129777500D01*
X101949358Y-130176467D01*
X101946128Y-130330992D01*
X101941415Y-130448065D01*
X101933560Y-130532566D01*
X101920902Y-130589376D01*
X101901780Y-130623374D01*
X101874535Y-130639443D01*
X101837507Y-130642463D01*
X101792424Y-130637781D01*
X101736676Y-130631947D01*
X101709352Y-130640756D01*
X101696942Y-130673057D01*
X101691616Y-130703804D01*
X101688205Y-130759942D01*
X101696063Y-130798071D01*
X101698809Y-130801775D01*
X101729724Y-130814490D01*
X101787945Y-130825933D01*
X101834922Y-130831283D01*
X101904975Y-130834760D01*
X101950017Y-130827236D01*
X101986941Y-130803722D01*
X102013588Y-130778502D01*
X102049023Y-130737295D01*
X102076024Y-130689636D01*
X102095669Y-130629432D01*
X102109033Y-130550591D01*
X102117193Y-130447022D01*
X102121226Y-130312632D01*
X102122215Y-130163791D01*
X102122333Y-129777500D01*
X102185833Y-129777500D01*
X102226461Y-129774189D01*
X102244585Y-129756193D01*
X102249223Y-129711414D01*
X102249333Y-129692304D01*
X102246058Y-129636617D01*
X102230350Y-129609152D01*
X102193392Y-129595952D01*
X102187708Y-129594783D01*
X102147338Y-129580290D01*
X102121637Y-129550980D01*
X102107539Y-129498867D01*
X102101981Y-129415966D01*
X102101456Y-129370041D01*
X102101167Y-129248333D01*
X101953000Y-129248333D01*
X101953000Y-129587000D01*
G36*
X105114102Y-129581392D02*
G01*
X105028732Y-129630157D01*
X104963055Y-129715262D01*
X104952926Y-129734704D01*
X104937743Y-129767995D01*
X104926068Y-129802477D01*
X104917335Y-129844293D01*
X104910976Y-129899582D01*
X104906426Y-129974488D01*
X104903120Y-130075152D01*
X104900491Y-130207716D01*
X104898753Y-130322541D01*
X104891756Y-130814666D01*
X104967545Y-130814666D01*
X105018058Y-130811338D01*
X105039077Y-130794204D01*
X105043332Y-130752541D01*
X105043333Y-130750815D01*
X105043333Y-130686964D01*
X105151542Y-130761398D01*
X105261736Y-130819384D01*
X105364132Y-130836066D01*
X105459604Y-130811578D01*
X105464626Y-130809062D01*
X105536334Y-130754819D01*
X105582920Y-130675869D01*
X105607313Y-130566452D01*
X105611081Y-130521112D01*
X105609153Y-130474144D01*
X105445500Y-130474144D01*
X105431894Y-130562844D01*
X105390880Y-130619373D01*
X105322164Y-130644074D01*
X105297640Y-130645333D01*
X105233327Y-130636853D01*
X105176711Y-130605723D01*
X105140091Y-130574042D01*
X105101510Y-130535570D01*
X105078960Y-130502006D01*
X105068142Y-130460232D01*
X105064755Y-130397131D01*
X105064500Y-130343458D01*
X105064500Y-130184166D01*
X105151390Y-130203689D01*
X105277856Y-130245855D01*
X105370479Y-130306910D01*
X105427078Y-130384850D01*
X105445500Y-130474144D01*
X105609153Y-130474144D01*
X105605713Y-130390384D01*
X105571496Y-130283779D01*
X105505648Y-130198147D01*
X105405384Y-130130332D01*
X105267922Y-130077184D01*
X105203832Y-130059800D01*
X105061088Y-130024574D01*
X105074477Y-129948662D01*
X105107356Y-129850313D01*
X105162720Y-129786487D01*
X105236575Y-129758677D01*
X105324921Y-129768381D01*
X105423763Y-129817092D01*
X105424612Y-129817661D01*
X105518874Y-129880968D01*
X105548262Y-129807287D01*
X105565567Y-129755191D01*
X105562800Y-129722560D01*
X105543535Y-129695910D01*
X105474358Y-129642006D01*
X105380765Y-129597896D01*
X105280600Y-129570849D01*
X105224198Y-129565833D01*
X105114102Y-129581392D01*
G37*
X105114102Y-129581392D02*
X105028732Y-129630157D01*
X104963055Y-129715262D01*
X104952926Y-129734704D01*
X104937743Y-129767995D01*
X104926068Y-129802477D01*
X104917335Y-129844293D01*
X104910976Y-129899582D01*
X104906426Y-129974488D01*
X104903120Y-130075152D01*
X104900491Y-130207716D01*
X104898753Y-130322541D01*
X104891756Y-130814666D01*
X104967545Y-130814666D01*
X105018058Y-130811338D01*
X105039077Y-130794204D01*
X105043332Y-130752541D01*
X105043333Y-130750815D01*
X105043333Y-130686964D01*
X105151542Y-130761398D01*
X105261736Y-130819384D01*
X105364132Y-130836066D01*
X105459604Y-130811578D01*
X105464626Y-130809062D01*
X105536334Y-130754819D01*
X105582920Y-130675869D01*
X105607313Y-130566452D01*
X105611081Y-130521112D01*
X105609153Y-130474144D01*
X105445500Y-130474144D01*
X105431894Y-130562844D01*
X105390880Y-130619373D01*
X105322164Y-130644074D01*
X105297640Y-130645333D01*
X105233327Y-130636853D01*
X105176711Y-130605723D01*
X105140091Y-130574042D01*
X105101510Y-130535570D01*
X105078960Y-130502006D01*
X105068142Y-130460232D01*
X105064755Y-130397131D01*
X105064500Y-130343458D01*
X105064500Y-130184166D01*
X105151390Y-130203689D01*
X105277856Y-130245855D01*
X105370479Y-130306910D01*
X105427078Y-130384850D01*
X105445500Y-130474144D01*
X105609153Y-130474144D01*
X105605713Y-130390384D01*
X105571496Y-130283779D01*
X105505648Y-130198147D01*
X105405384Y-130130332D01*
X105267922Y-130077184D01*
X105203832Y-130059800D01*
X105061088Y-130024574D01*
X105074477Y-129948662D01*
X105107356Y-129850313D01*
X105162720Y-129786487D01*
X105236575Y-129758677D01*
X105324921Y-129768381D01*
X105423763Y-129817092D01*
X105424612Y-129817661D01*
X105518874Y-129880968D01*
X105548262Y-129807287D01*
X105565567Y-129755191D01*
X105562800Y-129722560D01*
X105543535Y-129695910D01*
X105474358Y-129642006D01*
X105380765Y-129597896D01*
X105280600Y-129570849D01*
X105224198Y-129565833D01*
X105114102Y-129581392D01*
G36*
X107424339Y-129578772D02*
G01*
X107333505Y-129622960D01*
X107258941Y-129705121D01*
X107225925Y-129762943D01*
X107192291Y-129854869D01*
X107167061Y-129969370D01*
X107153303Y-130087211D01*
X107154081Y-130189154D01*
X107155794Y-130202939D01*
X107164805Y-130264333D01*
X107752667Y-130264333D01*
X107752202Y-130322541D01*
X107736711Y-130404406D01*
X107697769Y-130493445D01*
X107644955Y-130570350D01*
X107614888Y-130599372D01*
X107536013Y-130636580D01*
X107441934Y-130643694D01*
X107347384Y-130620553D01*
X107312541Y-130602673D01*
X107242831Y-130560172D01*
X107213801Y-130629211D01*
X107198063Y-130683599D01*
X107208014Y-130724595D01*
X107248857Y-130760490D01*
X107318750Y-130796389D01*
X107443424Y-130831139D01*
X107569591Y-130824070D01*
X107665432Y-130789923D01*
X107767121Y-130716426D01*
X107843145Y-130609455D01*
X107893398Y-130469279D01*
X107917776Y-130296169D01*
X107918572Y-130134009D01*
X107908354Y-130047375D01*
X107752202Y-130047375D01*
X107750577Y-130068573D01*
X107740192Y-130082315D01*
X107713529Y-130090215D01*
X107663072Y-130093887D01*
X107581301Y-130094946D01*
X107530417Y-130095000D01*
X107308167Y-130095000D01*
X107308632Y-130026208D01*
X107317951Y-129963329D01*
X107340681Y-129889613D01*
X107350001Y-129867301D01*
X107402741Y-129788760D01*
X107469260Y-129748149D01*
X107544163Y-129746824D01*
X107622053Y-129786144D01*
X107633948Y-129795878D01*
X107674671Y-129846431D01*
X107713890Y-129918976D01*
X107742653Y-129994476D01*
X107752202Y-130047375D01*
X107908354Y-130047375D01*
X107897819Y-129958059D01*
X107852948Y-129812952D01*
X107785002Y-129700214D01*
X107695022Y-129621371D01*
X107584051Y-129577949D01*
X107534182Y-129570854D01*
X107424339Y-129578772D01*
G37*
X107424339Y-129578772D02*
X107333505Y-129622960D01*
X107258941Y-129705121D01*
X107225925Y-129762943D01*
X107192291Y-129854869D01*
X107167061Y-129969370D01*
X107153303Y-130087211D01*
X107154081Y-130189154D01*
X107155794Y-130202939D01*
X107164805Y-130264333D01*
X107752667Y-130264333D01*
X107752202Y-130322541D01*
X107736711Y-130404406D01*
X107697769Y-130493445D01*
X107644955Y-130570350D01*
X107614888Y-130599372D01*
X107536013Y-130636580D01*
X107441934Y-130643694D01*
X107347384Y-130620553D01*
X107312541Y-130602673D01*
X107242831Y-130560172D01*
X107213801Y-130629211D01*
X107198063Y-130683599D01*
X107208014Y-130724595D01*
X107248857Y-130760490D01*
X107318750Y-130796389D01*
X107443424Y-130831139D01*
X107569591Y-130824070D01*
X107665432Y-130789923D01*
X107767121Y-130716426D01*
X107843145Y-130609455D01*
X107893398Y-130469279D01*
X107917776Y-130296169D01*
X107918572Y-130134009D01*
X107908354Y-130047375D01*
X107752202Y-130047375D01*
X107750577Y-130068573D01*
X107740192Y-130082315D01*
X107713529Y-130090215D01*
X107663072Y-130093887D01*
X107581301Y-130094946D01*
X107530417Y-130095000D01*
X107308167Y-130095000D01*
X107308632Y-130026208D01*
X107317951Y-129963329D01*
X107340681Y-129889613D01*
X107350001Y-129867301D01*
X107402741Y-129788760D01*
X107469260Y-129748149D01*
X107544163Y-129746824D01*
X107622053Y-129786144D01*
X107633948Y-129795878D01*
X107674671Y-129846431D01*
X107713890Y-129918976D01*
X107742653Y-129994476D01*
X107752202Y-130047375D01*
X107908354Y-130047375D01*
X107897819Y-129958059D01*
X107852948Y-129812952D01*
X107785002Y-129700214D01*
X107695022Y-129621371D01*
X107584051Y-129577949D01*
X107534182Y-129570854D01*
X107424339Y-129578772D01*
G36*
X108301330Y-129575672D02*
G01*
X108219482Y-129601882D01*
X108154201Y-129639690D01*
X108112952Y-129684246D01*
X108103199Y-129730697D01*
X108110104Y-129749280D01*
X108143687Y-129804807D01*
X108169591Y-129827334D01*
X108201046Y-129820673D01*
X108249911Y-129789566D01*
X108333704Y-129745909D01*
X108404343Y-129740113D01*
X108467492Y-129772120D01*
X108483879Y-129787121D01*
X108529031Y-129850092D01*
X108535930Y-129912210D01*
X108503671Y-129975218D01*
X108431352Y-130040859D01*
X108318070Y-130110877D01*
X108315446Y-130112299D01*
X108239197Y-130157602D01*
X108173663Y-130203810D01*
X108131719Y-130241743D01*
X108128832Y-130245370D01*
X108082962Y-130338599D01*
X108063617Y-130450052D01*
X108070837Y-130564926D01*
X108104660Y-130668421D01*
X108127614Y-130706042D01*
X108202686Y-130775188D01*
X108301306Y-130819196D01*
X108410750Y-130834755D01*
X108518292Y-130818555D01*
X108535833Y-130812261D01*
X108583666Y-130788707D01*
X108640560Y-130754465D01*
X108694673Y-130717557D01*
X108734165Y-130686006D01*
X108747421Y-130668912D01*
X108737320Y-130644055D01*
X108712389Y-130598790D01*
X108704889Y-130586287D01*
X108662437Y-130516657D01*
X108583260Y-130579523D01*
X108486609Y-130639379D01*
X108398653Y-130659233D01*
X108320905Y-130638883D01*
X108291401Y-130618078D01*
X108245722Y-130564131D01*
X108231163Y-130499301D01*
X108231033Y-130490379D01*
X108241712Y-130423455D01*
X108277547Y-130366345D01*
X108344240Y-130312576D01*
X108430078Y-130264345D01*
X108549274Y-130192418D01*
X108630684Y-130114623D01*
X108678836Y-130026351D01*
X108685671Y-130004129D01*
X108699805Y-129885562D01*
X108679889Y-129776614D01*
X108630337Y-129683875D01*
X108555561Y-129613939D01*
X108459976Y-129573396D01*
X108392279Y-129565912D01*
X108301330Y-129575672D01*
G37*
X108301330Y-129575672D02*
X108219482Y-129601882D01*
X108154201Y-129639690D01*
X108112952Y-129684246D01*
X108103199Y-129730697D01*
X108110104Y-129749280D01*
X108143687Y-129804807D01*
X108169591Y-129827334D01*
X108201046Y-129820673D01*
X108249911Y-129789566D01*
X108333704Y-129745909D01*
X108404343Y-129740113D01*
X108467492Y-129772120D01*
X108483879Y-129787121D01*
X108529031Y-129850092D01*
X108535930Y-129912210D01*
X108503671Y-129975218D01*
X108431352Y-130040859D01*
X108318070Y-130110877D01*
X108315446Y-130112299D01*
X108239197Y-130157602D01*
X108173663Y-130203810D01*
X108131719Y-130241743D01*
X108128832Y-130245370D01*
X108082962Y-130338599D01*
X108063617Y-130450052D01*
X108070837Y-130564926D01*
X108104660Y-130668421D01*
X108127614Y-130706042D01*
X108202686Y-130775188D01*
X108301306Y-130819196D01*
X108410750Y-130834755D01*
X108518292Y-130818555D01*
X108535833Y-130812261D01*
X108583666Y-130788707D01*
X108640560Y-130754465D01*
X108694673Y-130717557D01*
X108734165Y-130686006D01*
X108747421Y-130668912D01*
X108737320Y-130644055D01*
X108712389Y-130598790D01*
X108704889Y-130586287D01*
X108662437Y-130516657D01*
X108583260Y-130579523D01*
X108486609Y-130639379D01*
X108398653Y-130659233D01*
X108320905Y-130638883D01*
X108291401Y-130618078D01*
X108245722Y-130564131D01*
X108231163Y-130499301D01*
X108231033Y-130490379D01*
X108241712Y-130423455D01*
X108277547Y-130366345D01*
X108344240Y-130312576D01*
X108430078Y-130264345D01*
X108549274Y-130192418D01*
X108630684Y-130114623D01*
X108678836Y-130026351D01*
X108685671Y-130004129D01*
X108699805Y-129885562D01*
X108679889Y-129776614D01*
X108630337Y-129683875D01*
X108555561Y-129613939D01*
X108459976Y-129573396D01*
X108392279Y-129565912D01*
X108301330Y-129575672D01*
G36*
X109186229Y-129585059D02*
G01*
X109093568Y-129625829D01*
X109077361Y-129637125D01*
X108994208Y-129725515D01*
X108931398Y-129843157D01*
X108889512Y-129981867D01*
X108869131Y-130133461D01*
X108870836Y-130289755D01*
X108895207Y-130442563D01*
X108942824Y-130583701D01*
X109002716Y-130689373D01*
X109079100Y-130764096D01*
X109176947Y-130813105D01*
X109284128Y-130833227D01*
X109388517Y-130821290D01*
X109435417Y-130802546D01*
X109512212Y-130753646D01*
X109572234Y-130691305D01*
X109625405Y-130603998D01*
X109649652Y-130553690D01*
X109677275Y-130488986D01*
X109694788Y-130432175D01*
X109704394Y-130370114D01*
X109708294Y-130289663D01*
X109708778Y-130200833D01*
X109530667Y-130200833D01*
X109521978Y-130349202D01*
X109494713Y-130465095D01*
X109447076Y-130554902D01*
X109422980Y-130583818D01*
X109351264Y-130635259D01*
X109274495Y-130645875D01*
X109198897Y-130615644D01*
X109163004Y-130584707D01*
X109104542Y-130496842D01*
X109065969Y-130383207D01*
X109047283Y-130254539D01*
X109048483Y-130121576D01*
X109069569Y-129995056D01*
X109110538Y-129885716D01*
X109163084Y-129812189D01*
X109236224Y-129764375D01*
X109314599Y-129756669D01*
X109390406Y-129788899D01*
X109422980Y-129817848D01*
X109478921Y-129899334D01*
X109513799Y-130004450D01*
X109529412Y-130139587D01*
X109530667Y-130200833D01*
X109708778Y-130200833D01*
X109707246Y-130094830D01*
X109701830Y-130017788D01*
X109690250Y-129956363D01*
X109670221Y-129897212D01*
X109648012Y-129845721D01*
X109585661Y-129735289D01*
X109511291Y-129647378D01*
X109432151Y-129589663D01*
X109391436Y-129574111D01*
X109292426Y-129566434D01*
X109186229Y-129585059D01*
G37*
X109186229Y-129585059D02*
X109093568Y-129625829D01*
X109077361Y-129637125D01*
X108994208Y-129725515D01*
X108931398Y-129843157D01*
X108889512Y-129981867D01*
X108869131Y-130133461D01*
X108870836Y-130289755D01*
X108895207Y-130442563D01*
X108942824Y-130583701D01*
X109002716Y-130689373D01*
X109079100Y-130764096D01*
X109176947Y-130813105D01*
X109284128Y-130833227D01*
X109388517Y-130821290D01*
X109435417Y-130802546D01*
X109512212Y-130753646D01*
X109572234Y-130691305D01*
X109625405Y-130603998D01*
X109649652Y-130553690D01*
X109677275Y-130488986D01*
X109694788Y-130432175D01*
X109704394Y-130370114D01*
X109708294Y-130289663D01*
X109708778Y-130200833D01*
X109530667Y-130200833D01*
X109521978Y-130349202D01*
X109494713Y-130465095D01*
X109447076Y-130554902D01*
X109422980Y-130583818D01*
X109351264Y-130635259D01*
X109274495Y-130645875D01*
X109198897Y-130615644D01*
X109163004Y-130584707D01*
X109104542Y-130496842D01*
X109065969Y-130383207D01*
X109047283Y-130254539D01*
X109048483Y-130121576D01*
X109069569Y-129995056D01*
X109110538Y-129885716D01*
X109163084Y-129812189D01*
X109236224Y-129764375D01*
X109314599Y-129756669D01*
X109390406Y-129788899D01*
X109422980Y-129817848D01*
X109478921Y-129899334D01*
X109513799Y-130004450D01*
X109529412Y-130139587D01*
X109530667Y-130200833D01*
X109708778Y-130200833D01*
X109707246Y-130094830D01*
X109701830Y-130017788D01*
X109690250Y-129956363D01*
X109670221Y-129897212D01*
X109648012Y-129845721D01*
X109585661Y-129735289D01*
X109511291Y-129647378D01*
X109432151Y-129589663D01*
X109391436Y-129574111D01*
X109292426Y-129566434D01*
X109186229Y-129585059D01*
G36*
X110001592Y-129575574D02*
G01*
X109903874Y-129615294D01*
X109841286Y-129667575D01*
X109816990Y-129699912D01*
X109815999Y-129729933D01*
X109836588Y-129775575D01*
X109865211Y-129823597D01*
X109891544Y-129836627D01*
X109929325Y-129817366D01*
X109954000Y-129798666D01*
X110030851Y-129761598D01*
X110110831Y-129762457D01*
X110187087Y-129798032D01*
X110252768Y-129865111D01*
X110301019Y-129960482D01*
X110301360Y-129961477D01*
X110325953Y-130074521D01*
X110333673Y-130206557D01*
X110324521Y-130337751D01*
X110301360Y-130440188D01*
X110252239Y-130538180D01*
X110185676Y-130605768D01*
X110108070Y-130640278D01*
X110025823Y-130639040D01*
X109945334Y-130599381D01*
X109936694Y-130592416D01*
X109893517Y-130558502D01*
X109864903Y-130540420D01*
X109861530Y-130539500D01*
X109844653Y-130556313D01*
X109819318Y-130597549D01*
X109815300Y-130605159D01*
X109794555Y-130651743D01*
X109797632Y-130683087D01*
X109827293Y-130720673D01*
X109830631Y-130724304D01*
X109919760Y-130791631D01*
X110028157Y-130828413D01*
X110143388Y-130832158D01*
X110240144Y-130806336D01*
X110339872Y-130740247D01*
X110418007Y-130639729D01*
X110473353Y-130507446D01*
X110504714Y-130346064D01*
X110511751Y-130200833D01*
X110504360Y-130051790D01*
X110481799Y-129930092D01*
X110440528Y-129822381D01*
X110387070Y-129730293D01*
X110309922Y-129646689D01*
X110213822Y-129592330D01*
X110107977Y-129568272D01*
X110001592Y-129575574D01*
G37*
X110001592Y-129575574D02*
X109903874Y-129615294D01*
X109841286Y-129667575D01*
X109816990Y-129699912D01*
X109815999Y-129729933D01*
X109836588Y-129775575D01*
X109865211Y-129823597D01*
X109891544Y-129836627D01*
X109929325Y-129817366D01*
X109954000Y-129798666D01*
X110030851Y-129761598D01*
X110110831Y-129762457D01*
X110187087Y-129798032D01*
X110252768Y-129865111D01*
X110301019Y-129960482D01*
X110301360Y-129961477D01*
X110325953Y-130074521D01*
X110333673Y-130206557D01*
X110324521Y-130337751D01*
X110301360Y-130440188D01*
X110252239Y-130538180D01*
X110185676Y-130605768D01*
X110108070Y-130640278D01*
X110025823Y-130639040D01*
X109945334Y-130599381D01*
X109936694Y-130592416D01*
X109893517Y-130558502D01*
X109864903Y-130540420D01*
X109861530Y-130539500D01*
X109844653Y-130556313D01*
X109819318Y-130597549D01*
X109815300Y-130605159D01*
X109794555Y-130651743D01*
X109797632Y-130683087D01*
X109827293Y-130720673D01*
X109830631Y-130724304D01*
X109919760Y-130791631D01*
X110028157Y-130828413D01*
X110143388Y-130832158D01*
X110240144Y-130806336D01*
X110339872Y-130740247D01*
X110418007Y-130639729D01*
X110473353Y-130507446D01*
X110504714Y-130346064D01*
X110511751Y-130200833D01*
X110504360Y-130051790D01*
X110481799Y-129930092D01*
X110440528Y-129822381D01*
X110387070Y-129730293D01*
X110309922Y-129646689D01*
X110213822Y-129592330D01*
X110107977Y-129568272D01*
X110001592Y-129575574D01*
G36*
X106804647Y-129899208D02*
G01*
X106769732Y-130026381D01*
X106734273Y-130156394D01*
X106701919Y-130275813D01*
X106676320Y-130371200D01*
X106671445Y-130389562D01*
X106624296Y-130567707D01*
X106554874Y-130273145D01*
X106524703Y-130145188D01*
X106493102Y-130011273D01*
X106463715Y-129886834D01*
X106440185Y-129787305D01*
X106439117Y-129782791D01*
X106392782Y-129587000D01*
X106308430Y-129587000D01*
X106254914Y-129588962D01*
X106233611Y-129600414D01*
X106234415Y-129629697D01*
X106237931Y-129645208D01*
X106269761Y-129775553D01*
X106307254Y-129923512D01*
X106348836Y-130083380D01*
X106392933Y-130249453D01*
X106437972Y-130416025D01*
X106482379Y-130577393D01*
X106524580Y-130727851D01*
X106563001Y-130861695D01*
X106596068Y-130973220D01*
X106622208Y-131056721D01*
X106639848Y-131106495D01*
X106643010Y-131113534D01*
X106711279Y-131219022D01*
X106790536Y-131289100D01*
X106877053Y-131320768D01*
X106902333Y-131322342D01*
X106961453Y-131317657D01*
X107003923Y-131306613D01*
X107007259Y-131304775D01*
X107026285Y-131272675D01*
X107024902Y-131257474D01*
X107013273Y-131214562D01*
X107002802Y-131169955D01*
X106984830Y-131128428D01*
X106958654Y-131124613D01*
X106893395Y-131130053D01*
X106833360Y-131093985D01*
X106778118Y-131016127D01*
X106770351Y-131001092D01*
X106739701Y-130929249D01*
X106719793Y-130862749D01*
X106715500Y-130830873D01*
X106721463Y-130795242D01*
X106738286Y-130725042D01*
X106764368Y-130626162D01*
X106798111Y-130504491D01*
X106837914Y-130365919D01*
X106882178Y-130216333D01*
X106884833Y-130207492D01*
X106929060Y-130059389D01*
X106968978Y-129923803D01*
X107003014Y-129806228D01*
X107029597Y-129712159D01*
X107047154Y-129647092D01*
X107054114Y-129616523D01*
X107054167Y-129615629D01*
X107034337Y-129594347D01*
X106974715Y-129587005D01*
X106972433Y-129587000D01*
X106890699Y-129587000D01*
X106804647Y-129899208D01*
G37*
X106804647Y-129899208D02*
X106769732Y-130026381D01*
X106734273Y-130156394D01*
X106701919Y-130275813D01*
X106676320Y-130371200D01*
X106671445Y-130389562D01*
X106624296Y-130567707D01*
X106554874Y-130273145D01*
X106524703Y-130145188D01*
X106493102Y-130011273D01*
X106463715Y-129886834D01*
X106440185Y-129787305D01*
X106439117Y-129782791D01*
X106392782Y-129587000D01*
X106308430Y-129587000D01*
X106254914Y-129588962D01*
X106233611Y-129600414D01*
X106234415Y-129629697D01*
X106237931Y-129645208D01*
X106269761Y-129775553D01*
X106307254Y-129923512D01*
X106348836Y-130083380D01*
X106392933Y-130249453D01*
X106437972Y-130416025D01*
X106482379Y-130577393D01*
X106524580Y-130727851D01*
X106563001Y-130861695D01*
X106596068Y-130973220D01*
X106622208Y-131056721D01*
X106639848Y-131106495D01*
X106643010Y-131113534D01*
X106711279Y-131219022D01*
X106790536Y-131289100D01*
X106877053Y-131320768D01*
X106902333Y-131322342D01*
X106961453Y-131317657D01*
X107003923Y-131306613D01*
X107007259Y-131304775D01*
X107026285Y-131272675D01*
X107024902Y-131257474D01*
X107013273Y-131214562D01*
X107002802Y-131169955D01*
X106984830Y-131128428D01*
X106958654Y-131124613D01*
X106893395Y-131130053D01*
X106833360Y-131093985D01*
X106778118Y-131016127D01*
X106770351Y-131001092D01*
X106739701Y-130929249D01*
X106719793Y-130862749D01*
X106715500Y-130830873D01*
X106721463Y-130795242D01*
X106738286Y-130725042D01*
X106764368Y-130626162D01*
X106798111Y-130504491D01*
X106837914Y-130365919D01*
X106882178Y-130216333D01*
X106884833Y-130207492D01*
X106929060Y-130059389D01*
X106968978Y-129923803D01*
X107003014Y-129806228D01*
X107029597Y-129712159D01*
X107047154Y-129647092D01*
X107054114Y-129616523D01*
X107054167Y-129615629D01*
X107034337Y-129594347D01*
X106974715Y-129587005D01*
X106972433Y-129587000D01*
X106890699Y-129587000D01*
X106804647Y-129899208D01*
G36*
X99232884Y-131972240D02*
G01*
X99198985Y-132006652D01*
X99164428Y-132046938D01*
X99141623Y-132079132D01*
X99138502Y-132087277D01*
X99150172Y-132106838D01*
X99181533Y-132151238D01*
X99226440Y-132212367D01*
X99278744Y-132282114D01*
X99332301Y-132352368D01*
X99380962Y-132415019D01*
X99418582Y-132461955D01*
X99439014Y-132485066D01*
X99440797Y-132486168D01*
X99454530Y-132470623D01*
X99482300Y-132433947D01*
X99483626Y-132432129D01*
X99507877Y-132386001D01*
X99511541Y-132350192D01*
X99494429Y-132317360D01*
X99461383Y-132262329D01*
X99418208Y-132193936D01*
X99370709Y-132121020D01*
X99324690Y-132052419D01*
X99285958Y-131996971D01*
X99260318Y-131963513D01*
X99253710Y-131957666D01*
X99232884Y-131972240D01*
G37*
X99232884Y-131972240D02*
X99198985Y-132006652D01*
X99164428Y-132046938D01*
X99141623Y-132079132D01*
X99138502Y-132087277D01*
X99150172Y-132106838D01*
X99181533Y-132151238D01*
X99226440Y-132212367D01*
X99278744Y-132282114D01*
X99332301Y-132352368D01*
X99380962Y-132415019D01*
X99418582Y-132461955D01*
X99439014Y-132485066D01*
X99440797Y-132486168D01*
X99454530Y-132470623D01*
X99482300Y-132433947D01*
X99483626Y-132432129D01*
X99507877Y-132386001D01*
X99511541Y-132350192D01*
X99494429Y-132317360D01*
X99461383Y-132262329D01*
X99418208Y-132193936D01*
X99370709Y-132121020D01*
X99324690Y-132052419D01*
X99285958Y-131996971D01*
X99260318Y-131963513D01*
X99253710Y-131957666D01*
X99232884Y-131972240D01*
G36*
X95285500Y-133714500D02*
G01*
X95031500Y-133714500D01*
X95031500Y-133883833D01*
X95730000Y-133883833D01*
X95730000Y-133714500D01*
X95454833Y-133714500D01*
X95454833Y-132571500D01*
X95666500Y-132571500D01*
X95666500Y-132495435D01*
X95660576Y-132440515D01*
X95638336Y-132413809D01*
X95621234Y-132407532D01*
X95575791Y-132390653D01*
X95512785Y-132361530D01*
X95482531Y-132346014D01*
X95416674Y-132316443D01*
X95357295Y-132298657D01*
X95337297Y-132296333D01*
X95285500Y-132296333D01*
X95285500Y-133714500D01*
G37*
X95285500Y-133714500D02*
X95031500Y-133714500D01*
X95031500Y-133883833D01*
X95730000Y-133883833D01*
X95730000Y-133714500D01*
X95454833Y-133714500D01*
X95454833Y-132571500D01*
X95666500Y-132571500D01*
X95666500Y-132495435D01*
X95660576Y-132440515D01*
X95638336Y-132413809D01*
X95621234Y-132407532D01*
X95575791Y-132390653D01*
X95512785Y-132361530D01*
X95482531Y-132346014D01*
X95416674Y-132316443D01*
X95357295Y-132298657D01*
X95337297Y-132296333D01*
X95285500Y-132296333D01*
X95285500Y-133714500D01*
G36*
X96234498Y-132294391D02*
G01*
X96139036Y-132349972D01*
X96064445Y-132438770D01*
X96013543Y-132557644D01*
X95991783Y-132672176D01*
X95992117Y-132806006D01*
X96021195Y-132949954D01*
X96080382Y-133107565D01*
X96171042Y-133282385D01*
X96294540Y-133477958D01*
X96311523Y-133502833D01*
X96361289Y-133575513D01*
X96402198Y-133635846D01*
X96428059Y-133674675D01*
X96433171Y-133682750D01*
X96418948Y-133691988D01*
X96363893Y-133697150D01*
X96269320Y-133698165D01*
X96183071Y-133696448D01*
X95920500Y-133688980D01*
X95920500Y-133883833D01*
X96703667Y-133883833D01*
X96703667Y-133812906D01*
X96694400Y-133760207D01*
X96663668Y-133696985D01*
X96607073Y-133614457D01*
X96598814Y-133603472D01*
X96514760Y-133488426D01*
X96430813Y-133366410D01*
X96352663Y-133246311D01*
X96286001Y-133137014D01*
X96236517Y-133047406D01*
X96218788Y-133009976D01*
X96175040Y-132873976D01*
X96160835Y-132744483D01*
X96175878Y-132629000D01*
X96219872Y-132535030D01*
X96238461Y-132512382D01*
X96291237Y-132476728D01*
X96366717Y-132465673D01*
X96369102Y-132465666D01*
X96425856Y-132470529D01*
X96471111Y-132490584D01*
X96520923Y-132534028D01*
X96538515Y-132552174D01*
X96588042Y-132600851D01*
X96620204Y-132621294D01*
X96644130Y-132618291D01*
X96652810Y-132612124D01*
X96696408Y-132566595D01*
X96706757Y-132523071D01*
X96683587Y-132471424D01*
X96647829Y-132425657D01*
X96565140Y-132343598D01*
X96482307Y-132295922D01*
X96387037Y-132276456D01*
X96348015Y-132275166D01*
X96234498Y-132294391D01*
G37*
X96234498Y-132294391D02*
X96139036Y-132349972D01*
X96064445Y-132438770D01*
X96013543Y-132557644D01*
X95991783Y-132672176D01*
X95992117Y-132806006D01*
X96021195Y-132949954D01*
X96080382Y-133107565D01*
X96171042Y-133282385D01*
X96294540Y-133477958D01*
X96311523Y-133502833D01*
X96361289Y-133575513D01*
X96402198Y-133635846D01*
X96428059Y-133674675D01*
X96433171Y-133682750D01*
X96418948Y-133691988D01*
X96363893Y-133697150D01*
X96269320Y-133698165D01*
X96183071Y-133696448D01*
X95920500Y-133688980D01*
X95920500Y-133883833D01*
X96703667Y-133883833D01*
X96703667Y-133812906D01*
X96694400Y-133760207D01*
X96663668Y-133696985D01*
X96607073Y-133614457D01*
X96598814Y-133603472D01*
X96514760Y-133488426D01*
X96430813Y-133366410D01*
X96352663Y-133246311D01*
X96286001Y-133137014D01*
X96236517Y-133047406D01*
X96218788Y-133009976D01*
X96175040Y-132873976D01*
X96160835Y-132744483D01*
X96175878Y-132629000D01*
X96219872Y-132535030D01*
X96238461Y-132512382D01*
X96291237Y-132476728D01*
X96366717Y-132465673D01*
X96369102Y-132465666D01*
X96425856Y-132470529D01*
X96471111Y-132490584D01*
X96520923Y-132534028D01*
X96538515Y-132552174D01*
X96588042Y-132600851D01*
X96620204Y-132621294D01*
X96644130Y-132618291D01*
X96652810Y-132612124D01*
X96696408Y-132566595D01*
X96706757Y-132523071D01*
X96683587Y-132471424D01*
X96647829Y-132425657D01*
X96565140Y-132343598D01*
X96482307Y-132295922D01*
X96387037Y-132276456D01*
X96348015Y-132275166D01*
X96234498Y-132294391D01*
G36*
X98096094Y-132282383D02*
G01*
X98091731Y-132283445D01*
X98002092Y-132326768D01*
X97926646Y-132404188D01*
X97869458Y-132508698D01*
X97834591Y-132633292D01*
X97825500Y-132742445D01*
X97841510Y-132874044D01*
X97887886Y-133026727D01*
X97962144Y-133194875D01*
X98061801Y-133372868D01*
X98184374Y-133555086D01*
X98184858Y-133555750D01*
X98227746Y-133615084D01*
X98260738Y-133661868D01*
X98274655Y-133682750D01*
X98260440Y-133691988D01*
X98205392Y-133697150D01*
X98110820Y-133698165D01*
X98024571Y-133696448D01*
X97762000Y-133688980D01*
X97762000Y-133883833D01*
X98545167Y-133883833D01*
X98545167Y-133819732D01*
X98536885Y-133780700D01*
X98510313Y-133724456D01*
X98462861Y-133646512D01*
X98391938Y-133542378D01*
X98355679Y-133491357D01*
X98227305Y-133304510D01*
X98128810Y-133142536D01*
X98058824Y-133001748D01*
X98015975Y-132878461D01*
X97998894Y-132768989D01*
X98006210Y-132669644D01*
X98025495Y-132603153D01*
X98064152Y-132525951D01*
X98113355Y-132483111D01*
X98184129Y-132466663D01*
X98215715Y-132465666D01*
X98267863Y-132472355D01*
X98315302Y-132497543D01*
X98371959Y-132548910D01*
X98378158Y-132555256D01*
X98465101Y-132644845D01*
X98514358Y-132583072D01*
X98563614Y-132521298D01*
X98521164Y-132461684D01*
X98433497Y-132369403D01*
X98327049Y-132306111D01*
X98211391Y-132275781D01*
X98096094Y-132282383D01*
G37*
X98096094Y-132282383D02*
X98091731Y-132283445D01*
X98002092Y-132326768D01*
X97926646Y-132404188D01*
X97869458Y-132508698D01*
X97834591Y-132633292D01*
X97825500Y-132742445D01*
X97841510Y-132874044D01*
X97887886Y-133026727D01*
X97962144Y-133194875D01*
X98061801Y-133372868D01*
X98184374Y-133555086D01*
X98184858Y-133555750D01*
X98227746Y-133615084D01*
X98260738Y-133661868D01*
X98274655Y-133682750D01*
X98260440Y-133691988D01*
X98205392Y-133697150D01*
X98110820Y-133698165D01*
X98024571Y-133696448D01*
X97762000Y-133688980D01*
X97762000Y-133883833D01*
X98545167Y-133883833D01*
X98545167Y-133819732D01*
X98536885Y-133780700D01*
X98510313Y-133724456D01*
X98462861Y-133646512D01*
X98391938Y-133542378D01*
X98355679Y-133491357D01*
X98227305Y-133304510D01*
X98128810Y-133142536D01*
X98058824Y-133001748D01*
X98015975Y-132878461D01*
X97998894Y-132768989D01*
X98006210Y-132669644D01*
X98025495Y-132603153D01*
X98064152Y-132525951D01*
X98113355Y-132483111D01*
X98184129Y-132466663D01*
X98215715Y-132465666D01*
X98267863Y-132472355D01*
X98315302Y-132497543D01*
X98371959Y-132548910D01*
X98378158Y-132555256D01*
X98465101Y-132644845D01*
X98514358Y-132583072D01*
X98563614Y-132521298D01*
X98521164Y-132461684D01*
X98433497Y-132369403D01*
X98327049Y-132306111D01*
X98211391Y-132275781D01*
X98096094Y-132282383D01*
G36*
X99926292Y-132653729D02*
G01*
X99890623Y-132665276D01*
X99879166Y-132702712D01*
X99878956Y-132714375D01*
X99884757Y-132796140D01*
X99903185Y-132841906D01*
X99937285Y-132856907D01*
X99960590Y-132854623D01*
X100026382Y-132861796D01*
X100092581Y-132904537D01*
X100151560Y-132976849D01*
X100177194Y-133024919D01*
X100191560Y-133062039D01*
X100202030Y-133105411D01*
X100209198Y-133162124D01*
X100213661Y-133239266D01*
X100216012Y-133343924D01*
X100216848Y-133483185D01*
X100216869Y-133497541D01*
X100217333Y-133883833D01*
X100386667Y-133883833D01*
X100386667Y-132677333D01*
X100238500Y-132677333D01*
X100238392Y-132777875D01*
X100238283Y-132878416D01*
X100190264Y-132799097D01*
X100130226Y-132717488D01*
X100065002Y-132671150D01*
X99982729Y-132653548D01*
X99926292Y-132653729D01*
G37*
X99926292Y-132653729D02*
X99890623Y-132665276D01*
X99879166Y-132702712D01*
X99878956Y-132714375D01*
X99884757Y-132796140D01*
X99903185Y-132841906D01*
X99937285Y-132856907D01*
X99960590Y-132854623D01*
X100026382Y-132861796D01*
X100092581Y-132904537D01*
X100151560Y-132976849D01*
X100177194Y-133024919D01*
X100191560Y-133062039D01*
X100202030Y-133105411D01*
X100209198Y-133162124D01*
X100213661Y-133239266D01*
X100216012Y-133343924D01*
X100216848Y-133483185D01*
X100216869Y-133497541D01*
X100217333Y-133883833D01*
X100386667Y-133883833D01*
X100386667Y-132677333D01*
X100238500Y-132677333D01*
X100238392Y-132777875D01*
X100238283Y-132878416D01*
X100190264Y-132799097D01*
X100130226Y-132717488D01*
X100065002Y-132671150D01*
X99982729Y-132653548D01*
X99926292Y-132653729D01*
G36*
X101902204Y-132658104D02*
G01*
X101819020Y-132701117D01*
X101751872Y-132779680D01*
X101720558Y-132846666D01*
X101710153Y-132897703D01*
X101700888Y-132988239D01*
X101692953Y-133115450D01*
X101686539Y-133276513D01*
X101683179Y-133402291D01*
X101672440Y-133883833D01*
X101866082Y-133883833D01*
X101872500Y-133409757D01*
X101874868Y-133254709D01*
X101877567Y-133136354D01*
X101881104Y-133049051D01*
X101885988Y-132987160D01*
X101892728Y-132945040D01*
X101901832Y-132917052D01*
X101913808Y-132897554D01*
X101919239Y-132891174D01*
X101979054Y-132851822D01*
X102049451Y-132852788D01*
X102128793Y-132893860D01*
X102164606Y-132923213D01*
X102249333Y-132999759D01*
X102249333Y-133883833D01*
X102418667Y-133883833D01*
X102418667Y-132677333D01*
X102344583Y-132677333D01*
X102295874Y-132680292D01*
X102275185Y-132697608D01*
X102270553Y-132741939D01*
X102270500Y-132755712D01*
X102270500Y-132834091D01*
X102188586Y-132754104D01*
X102092925Y-132683422D01*
X101995485Y-132651814D01*
X101902204Y-132658104D01*
G37*
X101902204Y-132658104D02*
X101819020Y-132701117D01*
X101751872Y-132779680D01*
X101720558Y-132846666D01*
X101710153Y-132897703D01*
X101700888Y-132988239D01*
X101692953Y-133115450D01*
X101686539Y-133276513D01*
X101683179Y-133402291D01*
X101672440Y-133883833D01*
X101866082Y-133883833D01*
X101872500Y-133409757D01*
X101874868Y-133254709D01*
X101877567Y-133136354D01*
X101881104Y-133049051D01*
X101885988Y-132987160D01*
X101892728Y-132945040D01*
X101901832Y-132917052D01*
X101913808Y-132897554D01*
X101919239Y-132891174D01*
X101979054Y-132851822D01*
X102049451Y-132852788D01*
X102128793Y-132893860D01*
X102164606Y-132923213D01*
X102249333Y-132999759D01*
X102249333Y-133883833D01*
X102418667Y-133883833D01*
X102418667Y-132677333D01*
X102344583Y-132677333D01*
X102295874Y-132680292D01*
X102275185Y-132697608D01*
X102270553Y-132741939D01*
X102270500Y-132755712D01*
X102270500Y-132834091D01*
X102188586Y-132754104D01*
X102092925Y-132683422D01*
X101995485Y-132651814D01*
X101902204Y-132658104D01*
G36*
X102779829Y-133042458D02*
G01*
X102735116Y-133219114D01*
X102693434Y-133383334D01*
X102655966Y-133530483D01*
X102623898Y-133655927D01*
X102598415Y-133755032D01*
X102580703Y-133823165D01*
X102571945Y-133855692D01*
X102571423Y-133857375D01*
X102580270Y-133874999D01*
X102625116Y-133883032D01*
X102657750Y-133883833D01*
X102753195Y-133883833D01*
X102809800Y-133640416D01*
X102866406Y-133397000D01*
X103284510Y-133397000D01*
X103306540Y-133476375D01*
X103322129Y-133536528D01*
X103342588Y-133620738D01*
X103363724Y-133711707D01*
X103365551Y-133719791D01*
X103402532Y-133883833D01*
X103494947Y-133883833D01*
X103555807Y-133879492D01*
X103578791Y-133865699D01*
X103578228Y-133857375D01*
X103571146Y-133831539D01*
X103554893Y-133769290D01*
X103530655Y-133675261D01*
X103499617Y-133554087D01*
X103462968Y-133410400D01*
X103421892Y-133248834D01*
X103411161Y-133206500D01*
X103244973Y-133206500D01*
X102911856Y-133206500D01*
X102988629Y-132869021D01*
X103015128Y-132754995D01*
X103039222Y-132655884D01*
X103059078Y-132578876D01*
X103072865Y-132531157D01*
X103077820Y-132519124D01*
X103087732Y-132531459D01*
X103101591Y-132575808D01*
X103115797Y-132639645D01*
X103134573Y-132731261D01*
X103158360Y-132839200D01*
X103179915Y-132931333D01*
X103200525Y-133016660D01*
X103218783Y-133093073D01*
X103231015Y-133145191D01*
X103231724Y-133148291D01*
X103244973Y-133206500D01*
X103411161Y-133206500D01*
X103377576Y-133074022D01*
X103369588Y-133042462D01*
X103170083Y-132254008D01*
X103074600Y-132254004D01*
X102979116Y-132254000D01*
X102779829Y-133042458D01*
G37*
X102779829Y-133042458D02*
X102735116Y-133219114D01*
X102693434Y-133383334D01*
X102655966Y-133530483D01*
X102623898Y-133655927D01*
X102598415Y-133755032D01*
X102580703Y-133823165D01*
X102571945Y-133855692D01*
X102571423Y-133857375D01*
X102580270Y-133874999D01*
X102625116Y-133883032D01*
X102657750Y-133883833D01*
X102753195Y-133883833D01*
X102809800Y-133640416D01*
X102866406Y-133397000D01*
X103284510Y-133397000D01*
X103306540Y-133476375D01*
X103322129Y-133536528D01*
X103342588Y-133620738D01*
X103363724Y-133711707D01*
X103365551Y-133719791D01*
X103402532Y-133883833D01*
X103494947Y-133883833D01*
X103555807Y-133879492D01*
X103578791Y-133865699D01*
X103578228Y-133857375D01*
X103571146Y-133831539D01*
X103554893Y-133769290D01*
X103530655Y-133675261D01*
X103499617Y-133554087D01*
X103462968Y-133410400D01*
X103421892Y-133248834D01*
X103411161Y-133206500D01*
X103244973Y-133206500D01*
X102911856Y-133206500D01*
X102988629Y-132869021D01*
X103015128Y-132754995D01*
X103039222Y-132655884D01*
X103059078Y-132578876D01*
X103072865Y-132531157D01*
X103077820Y-132519124D01*
X103087732Y-132531459D01*
X103101591Y-132575808D01*
X103115797Y-132639645D01*
X103134573Y-132731261D01*
X103158360Y-132839200D01*
X103179915Y-132931333D01*
X103200525Y-133016660D01*
X103218783Y-133093073D01*
X103231015Y-133145191D01*
X103231724Y-133148291D01*
X103244973Y-133206500D01*
X103411161Y-133206500D01*
X103377576Y-133074022D01*
X103369588Y-133042462D01*
X103170083Y-132254008D01*
X103074600Y-132254004D01*
X102979116Y-132254000D01*
X102779829Y-133042458D01*
G36*
X97158832Y-132281213D02*
G01*
X97100957Y-132303770D01*
X97064196Y-132330745D01*
X96985029Y-132421101D01*
X96924751Y-132543874D01*
X96882910Y-132700693D01*
X96859051Y-132893184D01*
X96852569Y-133090083D01*
X96860984Y-133302410D01*
X96885631Y-133488139D01*
X96925613Y-133643993D01*
X96980031Y-133766692D01*
X97047986Y-133852958D01*
X97065464Y-133867322D01*
X97153964Y-133909007D01*
X97254671Y-133918479D01*
X97350868Y-133894435D01*
X97359412Y-133890233D01*
X97446095Y-133821996D01*
X97517114Y-133715005D01*
X97566769Y-133588829D01*
X97580969Y-133533412D01*
X97591159Y-133467924D01*
X97597891Y-133384827D01*
X97601716Y-133276582D01*
X97603186Y-133135651D01*
X97603245Y-133093559D01*
X97448498Y-133093559D01*
X97443461Y-133264668D01*
X97441831Y-133291166D01*
X97421747Y-133460313D01*
X97386115Y-133591236D01*
X97334557Y-133685235D01*
X97323066Y-133698877D01*
X97270528Y-133728946D01*
X97206931Y-133727570D01*
X97147166Y-133696750D01*
X97124272Y-133672166D01*
X97080030Y-133589517D01*
X97048861Y-133478727D01*
X97030230Y-133336295D01*
X97023599Y-133158724D01*
X97025346Y-133027106D01*
X97030009Y-132895545D01*
X97036098Y-132797757D01*
X97044710Y-132725182D01*
X97056942Y-132669262D01*
X97073889Y-132621436D01*
X97078728Y-132610326D01*
X97132446Y-132519548D01*
X97191889Y-132468868D01*
X97253546Y-132458570D01*
X97313906Y-132488942D01*
X97369459Y-132560267D01*
X97382705Y-132585606D01*
X97410694Y-132670007D01*
X97431439Y-132788171D01*
X97444266Y-132932041D01*
X97448498Y-133093559D01*
X97603245Y-133093559D01*
X97603250Y-133090083D01*
X97601333Y-132911445D01*
X97594587Y-132768605D01*
X97581524Y-132655159D01*
X97560653Y-132564702D01*
X97530485Y-132490831D01*
X97489530Y-132427143D01*
X97436299Y-132367232D01*
X97434727Y-132365656D01*
X97379887Y-132314277D01*
X97336387Y-132287143D01*
X97287660Y-132276663D01*
X97237243Y-132275166D01*
X97158832Y-132281213D01*
G37*
X97158832Y-132281213D02*
X97100957Y-132303770D01*
X97064196Y-132330745D01*
X96985029Y-132421101D01*
X96924751Y-132543874D01*
X96882910Y-132700693D01*
X96859051Y-132893184D01*
X96852569Y-133090083D01*
X96860984Y-133302410D01*
X96885631Y-133488139D01*
X96925613Y-133643993D01*
X96980031Y-133766692D01*
X97047986Y-133852958D01*
X97065464Y-133867322D01*
X97153964Y-133909007D01*
X97254671Y-133918479D01*
X97350868Y-133894435D01*
X97359412Y-133890233D01*
X97446095Y-133821996D01*
X97517114Y-133715005D01*
X97566769Y-133588829D01*
X97580969Y-133533412D01*
X97591159Y-133467924D01*
X97597891Y-133384827D01*
X97601716Y-133276582D01*
X97603186Y-133135651D01*
X97603245Y-133093559D01*
X97448498Y-133093559D01*
X97443461Y-133264668D01*
X97441831Y-133291166D01*
X97421747Y-133460313D01*
X97386115Y-133591236D01*
X97334557Y-133685235D01*
X97323066Y-133698877D01*
X97270528Y-133728946D01*
X97206931Y-133727570D01*
X97147166Y-133696750D01*
X97124272Y-133672166D01*
X97080030Y-133589517D01*
X97048861Y-133478727D01*
X97030230Y-133336295D01*
X97023599Y-133158724D01*
X97025346Y-133027106D01*
X97030009Y-132895545D01*
X97036098Y-132797757D01*
X97044710Y-132725182D01*
X97056942Y-132669262D01*
X97073889Y-132621436D01*
X97078728Y-132610326D01*
X97132446Y-132519548D01*
X97191889Y-132468868D01*
X97253546Y-132458570D01*
X97313906Y-132488942D01*
X97369459Y-132560267D01*
X97382705Y-132585606D01*
X97410694Y-132670007D01*
X97431439Y-132788171D01*
X97444266Y-132932041D01*
X97448498Y-133093559D01*
X97603245Y-133093559D01*
X97603250Y-133090083D01*
X97601333Y-132911445D01*
X97594587Y-132768605D01*
X97581524Y-132655159D01*
X97560653Y-132564702D01*
X97530485Y-132490831D01*
X97489530Y-132427143D01*
X97436299Y-132367232D01*
X97434727Y-132365656D01*
X97379887Y-132314277D01*
X97336387Y-132287143D01*
X97287660Y-132276663D01*
X97237243Y-132275166D01*
X97158832Y-132281213D01*
G36*
X99340242Y-132656036D02*
G01*
X99246552Y-132698111D01*
X99162640Y-132776641D01*
X99110689Y-132857250D01*
X99084947Y-132922010D01*
X99068193Y-133005114D01*
X99058324Y-133117608D01*
X99057307Y-133137708D01*
X99048117Y-133333500D01*
X99645833Y-133333500D01*
X99645369Y-133402291D01*
X99629562Y-133492792D01*
X99589308Y-133586971D01*
X99533683Y-133665830D01*
X99508055Y-133689705D01*
X99425873Y-133728547D01*
X99329273Y-133730008D01*
X99223843Y-133694016D01*
X99222809Y-133693490D01*
X99168055Y-133668650D01*
X99136045Y-133669776D01*
X99113215Y-133702220D01*
X99096640Y-133743252D01*
X99087038Y-133779304D01*
X99097008Y-133806056D01*
X99133660Y-133835679D01*
X99160931Y-133853302D01*
X99262903Y-133897928D01*
X99378481Y-133917827D01*
X99488571Y-133910211D01*
X99510733Y-133904390D01*
X99586329Y-133863157D01*
X99661984Y-133791321D01*
X99728748Y-133699640D01*
X99777671Y-133598874D01*
X99786147Y-133573252D01*
X99814321Y-133430035D01*
X99821908Y-133271742D01*
X99814950Y-133185333D01*
X99662500Y-133185333D01*
X99201333Y-133185333D01*
X99201333Y-133115734D01*
X99213600Y-133039218D01*
X99245428Y-132959476D01*
X99289363Y-132890177D01*
X99337950Y-132844990D01*
X99352810Y-132838008D01*
X99431198Y-132831354D01*
X99505153Y-132862575D01*
X99569678Y-132927219D01*
X99619772Y-133020833D01*
X99642430Y-133096006D01*
X99662500Y-133185333D01*
X99814950Y-133185333D01*
X99809308Y-133115274D01*
X99776919Y-132977535D01*
X99771728Y-132963083D01*
X99707850Y-132835484D01*
X99627515Y-132740140D01*
X99535971Y-132677890D01*
X99438464Y-132649576D01*
X99340242Y-132656036D01*
G37*
X99340242Y-132656036D02*
X99246552Y-132698111D01*
X99162640Y-132776641D01*
X99110689Y-132857250D01*
X99084947Y-132922010D01*
X99068193Y-133005114D01*
X99058324Y-133117608D01*
X99057307Y-133137708D01*
X99048117Y-133333500D01*
X99645833Y-133333500D01*
X99645369Y-133402291D01*
X99629562Y-133492792D01*
X99589308Y-133586971D01*
X99533683Y-133665830D01*
X99508055Y-133689705D01*
X99425873Y-133728547D01*
X99329273Y-133730008D01*
X99223843Y-133694016D01*
X99222809Y-133693490D01*
X99168055Y-133668650D01*
X99136045Y-133669776D01*
X99113215Y-133702220D01*
X99096640Y-133743252D01*
X99087038Y-133779304D01*
X99097008Y-133806056D01*
X99133660Y-133835679D01*
X99160931Y-133853302D01*
X99262903Y-133897928D01*
X99378481Y-133917827D01*
X99488571Y-133910211D01*
X99510733Y-133904390D01*
X99586329Y-133863157D01*
X99661984Y-133791321D01*
X99728748Y-133699640D01*
X99777671Y-133598874D01*
X99786147Y-133573252D01*
X99814321Y-133430035D01*
X99821908Y-133271742D01*
X99814950Y-133185333D01*
X99662500Y-133185333D01*
X99201333Y-133185333D01*
X99201333Y-133115734D01*
X99213600Y-133039218D01*
X99245428Y-132959476D01*
X99289363Y-132890177D01*
X99337950Y-132844990D01*
X99352810Y-132838008D01*
X99431198Y-132831354D01*
X99505153Y-132862575D01*
X99569678Y-132927219D01*
X99619772Y-133020833D01*
X99642430Y-133096006D01*
X99662500Y-133185333D01*
X99814950Y-133185333D01*
X99809308Y-133115274D01*
X99776919Y-132977535D01*
X99771728Y-132963083D01*
X99707850Y-132835484D01*
X99627515Y-132740140D01*
X99535971Y-132677890D01*
X99438464Y-132649576D01*
X99340242Y-132656036D01*
G36*
X100661833Y-133883833D02*
G01*
X100735514Y-133883833D01*
X100788026Y-133878295D01*
X100813874Y-133855497D01*
X100822831Y-133829496D01*
X100836469Y-133775159D01*
X100892026Y-133828149D01*
X100988309Y-133896103D01*
X101090292Y-133922483D01*
X101196473Y-133906980D01*
X101223800Y-133896393D01*
X101315746Y-133833577D01*
X101387512Y-133735114D01*
X101438248Y-133603019D01*
X101467110Y-133439305D01*
X101472922Y-133321108D01*
X101290251Y-133321108D01*
X101282563Y-133442224D01*
X101262254Y-133546027D01*
X101242007Y-133598083D01*
X101181557Y-133679675D01*
X101108862Y-133722220D01*
X101028852Y-133724835D01*
X100946455Y-133686639D01*
X100911308Y-133657247D01*
X100852333Y-133600746D01*
X100852333Y-132934215D01*
X100913920Y-132890362D01*
X101001596Y-132847900D01*
X101084391Y-132846772D01*
X101159269Y-132886016D01*
X101223197Y-132964674D01*
X101238414Y-132993005D01*
X101268093Y-133082585D01*
X101285400Y-133196591D01*
X101290251Y-133321108D01*
X101472922Y-133321108D01*
X101473875Y-133301750D01*
X101465322Y-133130397D01*
X101436217Y-132989510D01*
X101383998Y-132871231D01*
X101306105Y-132767706D01*
X101296391Y-132757433D01*
X101232926Y-132697449D01*
X101177236Y-132664491D01*
X101113052Y-132652538D01*
X101024103Y-132655568D01*
X101021667Y-132655764D01*
X100969515Y-132671351D01*
X100911009Y-132703949D01*
X100903273Y-132709572D01*
X100837796Y-132759097D01*
X100847941Y-132443048D01*
X100858086Y-132127000D01*
X100661833Y-132127000D01*
X100661833Y-133883833D01*
G37*
X100661833Y-133883833D02*
X100735514Y-133883833D01*
X100788026Y-133878295D01*
X100813874Y-133855497D01*
X100822831Y-133829496D01*
X100836469Y-133775159D01*
X100892026Y-133828149D01*
X100988309Y-133896103D01*
X101090292Y-133922483D01*
X101196473Y-133906980D01*
X101223800Y-133896393D01*
X101315746Y-133833577D01*
X101387512Y-133735114D01*
X101438248Y-133603019D01*
X101467110Y-133439305D01*
X101472922Y-133321108D01*
X101290251Y-133321108D01*
X101282563Y-133442224D01*
X101262254Y-133546027D01*
X101242007Y-133598083D01*
X101181557Y-133679675D01*
X101108862Y-133722220D01*
X101028852Y-133724835D01*
X100946455Y-133686639D01*
X100911308Y-133657247D01*
X100852333Y-133600746D01*
X100852333Y-132934215D01*
X100913920Y-132890362D01*
X101001596Y-132847900D01*
X101084391Y-132846772D01*
X101159269Y-132886016D01*
X101223197Y-132964674D01*
X101238414Y-132993005D01*
X101268093Y-133082585D01*
X101285400Y-133196591D01*
X101290251Y-133321108D01*
X101472922Y-133321108D01*
X101473875Y-133301750D01*
X101465322Y-133130397D01*
X101436217Y-132989510D01*
X101383998Y-132871231D01*
X101306105Y-132767706D01*
X101296391Y-132757433D01*
X101232926Y-132697449D01*
X101177236Y-132664491D01*
X101113052Y-132652538D01*
X101024103Y-132655568D01*
X101021667Y-132655764D01*
X100969515Y-132671351D01*
X100911009Y-132703949D01*
X100903273Y-132709572D01*
X100837796Y-132759097D01*
X100847941Y-132443048D01*
X100858086Y-132127000D01*
X100661833Y-132127000D01*
X100661833Y-133883833D01*
G36*
X187511873Y-131144163D02*
G01*
X187188487Y-131144190D01*
X186866432Y-131144230D01*
X186546241Y-131144285D01*
X186228445Y-131144353D01*
X185913576Y-131144435D01*
X185602165Y-131144530D01*
X185294745Y-131144640D01*
X184991847Y-131144763D01*
X184694002Y-131144900D01*
X184401742Y-131145050D01*
X184115600Y-131145214D01*
X183836105Y-131145392D01*
X183563791Y-131145584D01*
X183299189Y-131145789D01*
X183042830Y-131146008D01*
X182795246Y-131146241D01*
X182556969Y-131146488D01*
X182328531Y-131146748D01*
X182110463Y-131147022D01*
X181903296Y-131147310D01*
X181707563Y-131147611D01*
X181523794Y-131147926D01*
X181352523Y-131148255D01*
X181194280Y-131148598D01*
X181049597Y-131148955D01*
X180919005Y-131149325D01*
X180803037Y-131149709D01*
X180702224Y-131150106D01*
X180617098Y-131150518D01*
X180548190Y-131150943D01*
X180496032Y-131151382D01*
X180461155Y-131151834D01*
X180444187Y-131152295D01*
X180313851Y-131163635D01*
X180181491Y-131182281D01*
X180051724Y-131207300D01*
X179929165Y-131237759D01*
X179818430Y-131272726D01*
X179783457Y-131285804D01*
X179741746Y-131301795D01*
X179701859Y-131316492D01*
X179669829Y-131327694D01*
X179658311Y-131331400D01*
X179626645Y-131343700D01*
X179582632Y-131364622D01*
X179529107Y-131392501D01*
X179468909Y-131425675D01*
X179404874Y-131462480D01*
X179339837Y-131501252D01*
X179276637Y-131540329D01*
X179218110Y-131578046D01*
X179167092Y-131612741D01*
X179126421Y-131642749D01*
X179123754Y-131644854D01*
X179067030Y-131692687D01*
X179003255Y-131751162D01*
X178935936Y-131816679D01*
X178868577Y-131885639D01*
X178804684Y-131954443D01*
X178747764Y-132019491D01*
X178701321Y-132077185D01*
X178696784Y-132083221D01*
X178603358Y-132215915D01*
X178522839Y-132346883D01*
X178453099Y-132480425D01*
X178392012Y-132620839D01*
X178337449Y-132772422D01*
X178306656Y-132871545D01*
X178289366Y-132932921D01*
X178275091Y-132990551D01*
X178263182Y-133048262D01*
X178252989Y-133109878D01*
X178243862Y-133179224D01*
X178235152Y-133260126D01*
X178228324Y-133332653D01*
X178222788Y-133396077D01*
X178219095Y-133446460D01*
X178217244Y-133489009D01*
X178217234Y-133528929D01*
X178219067Y-133571426D01*
X178222743Y-133621706D01*
X178228260Y-133684975D01*
X178228324Y-133685685D01*
X178237161Y-133778125D01*
X178245956Y-133856111D01*
X178255416Y-133923515D01*
X178266246Y-133984209D01*
X178279154Y-134042064D01*
X178294846Y-134100950D01*
X178314029Y-134164739D01*
X178318146Y-134177794D01*
X178343911Y-134258248D01*
X178365982Y-134324784D01*
X178385883Y-134381069D01*
X178405137Y-134430765D01*
X178425266Y-134477538D01*
X178447794Y-134525053D01*
X178474243Y-134576973D01*
X178506136Y-134636965D01*
X178518429Y-134659737D01*
X178558112Y-134727287D01*
X178608142Y-134803430D01*
X178665666Y-134884469D01*
X178727835Y-134966712D01*
X178791797Y-135046461D01*
X178854702Y-135120023D01*
X178913700Y-135183703D01*
X178950679Y-135219985D01*
X179063019Y-135317207D01*
X179187674Y-135412054D01*
X179318894Y-135500541D01*
X179450928Y-135578677D01*
X179520388Y-135615088D01*
X179606448Y-135656979D01*
X179683510Y-135691925D01*
X179755910Y-135721433D01*
X179827984Y-135747012D01*
X179904067Y-135770169D01*
X179988495Y-135792414D01*
X180085603Y-135815254D01*
X180114079Y-135821612D01*
X180292888Y-135861191D01*
X187972491Y-135862128D01*
X188347409Y-135862170D01*
X188717888Y-135862203D01*
X189083501Y-135862227D01*
X189443823Y-135862242D01*
X189798427Y-135862249D01*
X190146888Y-135862248D01*
X190488777Y-135862238D01*
X190823670Y-135862221D01*
X191151141Y-135862195D01*
X191470762Y-135862162D01*
X191782108Y-135862122D01*
X192084752Y-135862074D01*
X192378269Y-135862018D01*
X192662232Y-135861956D01*
X192936214Y-135861887D01*
X193199790Y-135861810D01*
X193452533Y-135861728D01*
X193694017Y-135861638D01*
X193923817Y-135861542D01*
X194141504Y-135861440D01*
X194346654Y-135861332D01*
X194538840Y-135861218D01*
X194717636Y-135861098D01*
X194882616Y-135860972D01*
X195033353Y-135860841D01*
X195169421Y-135860704D01*
X195290394Y-135860563D01*
X195395845Y-135860416D01*
X195485350Y-135860264D01*
X195558480Y-135860107D01*
X195614810Y-135859946D01*
X195653914Y-135859780D01*
X195675366Y-135859610D01*
X195679603Y-135859504D01*
X195705298Y-135855410D01*
X195744537Y-135848216D01*
X195793775Y-135838659D01*
X195849470Y-135827476D01*
X195908081Y-135815405D01*
X195966066Y-135803182D01*
X196019881Y-135791545D01*
X196065986Y-135781232D01*
X196100837Y-135772979D01*
X196119747Y-135767893D01*
X196153647Y-135755993D01*
X196200187Y-135737926D01*
X196255438Y-135715382D01*
X196315471Y-135690054D01*
X196376356Y-135663632D01*
X196434162Y-135637808D01*
X196484962Y-135614273D01*
X196524825Y-135594719D01*
X196536967Y-135588314D01*
X196648677Y-135522559D01*
X196763972Y-135445697D01*
X196878156Y-135361288D01*
X196986534Y-135272896D01*
X197084408Y-135184080D01*
X197129685Y-135138816D01*
X197257974Y-134993691D01*
X197372669Y-134838767D01*
X197474249Y-134673144D01*
X197563194Y-134495922D01*
X197639984Y-134306201D01*
X197705098Y-134103080D01*
X197729093Y-134013501D01*
X197746435Y-133929818D01*
X197760193Y-133832142D01*
X197770230Y-133724497D01*
X197776409Y-133610904D01*
X197778502Y-133500144D01*
X197503266Y-133500144D01*
X197501274Y-133611914D01*
X197494898Y-133717973D01*
X197484137Y-133812552D01*
X197482854Y-133820938D01*
X197444730Y-134008181D01*
X197390294Y-134190485D01*
X197320322Y-134366323D01*
X197235592Y-134534164D01*
X197136880Y-134692479D01*
X197024963Y-134839740D01*
X196900617Y-134974416D01*
X196893507Y-134981355D01*
X196787088Y-135079958D01*
X196683148Y-135165915D01*
X196577820Y-135241731D01*
X196467239Y-135309907D01*
X196347537Y-135372950D01*
X196214849Y-135433360D01*
X196160279Y-135456122D01*
X196087321Y-135482780D01*
X196000315Y-135509364D01*
X195903526Y-135534787D01*
X195801215Y-135557961D01*
X195697648Y-135577798D01*
X195656678Y-135584577D01*
X195646451Y-135584756D01*
X195618311Y-135584935D01*
X195572687Y-135585114D01*
X195510006Y-135585294D01*
X195430694Y-135585473D01*
X195335179Y-135585652D01*
X195223889Y-135585830D01*
X195097251Y-135586008D01*
X194955693Y-135586184D01*
X194799640Y-135586359D01*
X194629522Y-135586532D01*
X194445764Y-135586703D01*
X194248795Y-135586871D01*
X194039042Y-135587038D01*
X193816932Y-135587201D01*
X193582892Y-135587361D01*
X193337350Y-135587518D01*
X193080733Y-135587672D01*
X192813468Y-135587821D01*
X192535983Y-135587966D01*
X192248705Y-135588107D01*
X191952061Y-135588244D01*
X191646479Y-135588375D01*
X191332385Y-135588501D01*
X191010208Y-135588621D01*
X190680375Y-135588736D01*
X190343312Y-135588845D01*
X189999448Y-135588947D01*
X189649209Y-135589043D01*
X189293022Y-135589132D01*
X188931316Y-135589214D01*
X188564518Y-135589289D01*
X188193054Y-135589356D01*
X188004584Y-135589387D01*
X180375415Y-135590585D01*
X180173682Y-135549950D01*
X180088672Y-135532113D01*
X180018003Y-135515571D01*
X179957821Y-135499298D01*
X179904276Y-135482267D01*
X179862904Y-135467127D01*
X179679907Y-135386995D01*
X179506166Y-135292025D01*
X179342848Y-135183046D01*
X179191116Y-135060887D01*
X179052137Y-134926377D01*
X178966606Y-134829602D01*
X178917628Y-134766416D01*
X178865006Y-134691396D01*
X178812071Y-134609671D01*
X178762156Y-134526368D01*
X178722238Y-134453646D01*
X178689119Y-134384593D01*
X178654488Y-134302658D01*
X178620234Y-134212979D01*
X178588243Y-134120695D01*
X178560403Y-134030945D01*
X178542051Y-133963068D01*
X178536169Y-133933464D01*
X178529310Y-133889508D01*
X178521915Y-133835135D01*
X178514426Y-133774277D01*
X178507286Y-133710869D01*
X178500936Y-133648843D01*
X178495819Y-133592133D01*
X178492376Y-133544672D01*
X178491049Y-133510393D01*
X178491047Y-133509169D01*
X178492730Y-133461247D01*
X178497396Y-133399862D01*
X178504468Y-133329541D01*
X178513372Y-133254813D01*
X178523531Y-133180206D01*
X178534369Y-133110246D01*
X178545311Y-133049462D01*
X178555209Y-133004612D01*
X178569318Y-132953941D01*
X178587993Y-132893876D01*
X178609712Y-132828698D01*
X178632957Y-132762688D01*
X178656206Y-132700128D01*
X178677940Y-132645299D01*
X178696639Y-132602480D01*
X178701639Y-132592202D01*
X178770824Y-132467908D01*
X178853099Y-132341709D01*
X178944652Y-132218807D01*
X179041668Y-132104405D01*
X179115830Y-132027206D01*
X179163834Y-131980340D01*
X179204995Y-131940913D01*
X179241673Y-131907181D01*
X179276231Y-131877405D01*
X179311032Y-131849842D01*
X179348436Y-131822753D01*
X179390806Y-131794397D01*
X179440504Y-131763031D01*
X179499891Y-131726915D01*
X179571331Y-131684309D01*
X179620686Y-131655068D01*
X179685161Y-131621383D01*
X179764608Y-131587182D01*
X179855724Y-131553509D01*
X179955208Y-131521408D01*
X180059758Y-131491922D01*
X180166073Y-131466096D01*
X180270850Y-131444974D01*
X180302057Y-131439618D01*
X180308493Y-131438641D01*
X180315893Y-131437702D01*
X180324629Y-131436803D01*
X180335073Y-131435941D01*
X180347598Y-131435115D01*
X180362574Y-131434326D01*
X180380375Y-131433572D01*
X180401372Y-131432852D01*
X180425937Y-131432166D01*
X180454442Y-131431512D01*
X180487259Y-131430891D01*
X180524760Y-131430300D01*
X180567316Y-131429740D01*
X180615300Y-131429210D01*
X180669084Y-131428708D01*
X180729040Y-131428235D01*
X180795539Y-131427788D01*
X180868954Y-131427368D01*
X180949657Y-131426974D01*
X181038018Y-131426604D01*
X181134412Y-131426259D01*
X181239208Y-131425936D01*
X181352780Y-131425636D01*
X181475499Y-131425357D01*
X181607738Y-131425100D01*
X181749867Y-131424862D01*
X181902260Y-131424643D01*
X182065288Y-131424443D01*
X182239322Y-131424260D01*
X182424736Y-131424095D01*
X182621901Y-131423945D01*
X182831188Y-131423810D01*
X183052970Y-131423690D01*
X183287619Y-131423583D01*
X183535507Y-131423489D01*
X183797005Y-131423407D01*
X184072486Y-131423337D01*
X184362322Y-131423276D01*
X184666884Y-131423225D01*
X184986545Y-131423183D01*
X185321676Y-131423150D01*
X185672649Y-131423123D01*
X186039836Y-131423102D01*
X186423610Y-131423088D01*
X186824342Y-131423078D01*
X187242405Y-131423071D01*
X187678169Y-131423069D01*
X188000000Y-131423068D01*
X195597075Y-131423068D01*
X195720866Y-131444249D01*
X195836536Y-131466302D01*
X195948445Y-131491983D01*
X196051916Y-131520112D01*
X196142275Y-131549508D01*
X196151841Y-131553001D01*
X196251587Y-131594433D01*
X196356573Y-131646241D01*
X196463621Y-131706312D01*
X196569553Y-131772534D01*
X196671192Y-131842796D01*
X196765361Y-131914986D01*
X196848882Y-131986991D01*
X196918579Y-132056701D01*
X196931414Y-132071143D01*
X196963101Y-132107215D01*
X196996389Y-132144378D01*
X197025456Y-132176154D01*
X197032939Y-132184151D01*
X197065258Y-132222206D01*
X197103262Y-132273124D01*
X197144607Y-132333282D01*
X197186952Y-132399052D01*
X197227955Y-132466810D01*
X197265273Y-132532930D01*
X197293566Y-132587617D01*
X197331256Y-132671804D01*
X197368590Y-132768450D01*
X197403855Y-132872121D01*
X197435340Y-132977385D01*
X197461330Y-133078807D01*
X197480113Y-133170956D01*
X197482921Y-133188231D01*
X197494090Y-133282535D01*
X197500871Y-133388429D01*
X197503266Y-133500144D01*
X197778502Y-133500144D01*
X197778593Y-133495383D01*
X197776645Y-133381956D01*
X197770428Y-133274645D01*
X197759804Y-133177470D01*
X197758018Y-133165306D01*
X197748670Y-133106638D01*
X197739180Y-133054535D01*
X197728560Y-133005094D01*
X197715823Y-132954414D01*
X197699980Y-132898591D01*
X197680042Y-132833723D01*
X197655022Y-132755906D01*
X197652009Y-132746668D01*
X197609102Y-132625084D01*
X197562416Y-132513423D01*
X197509023Y-132405538D01*
X197445998Y-132295282D01*
X197408200Y-132234584D01*
X197292583Y-132068851D01*
X197165367Y-131916226D01*
X197025836Y-131776090D01*
X196873276Y-131647818D01*
X196706972Y-131530791D01*
X196526209Y-131424386D01*
X196406798Y-131363591D01*
X196253716Y-131298341D01*
X196088673Y-131243709D01*
X195915256Y-131200585D01*
X195737049Y-131169861D01*
X195557640Y-131152425D01*
X195555812Y-131152318D01*
X195538559Y-131151852D01*
X195503498Y-131151399D01*
X195451160Y-131150961D01*
X195382079Y-131150535D01*
X195296785Y-131150124D01*
X195195810Y-131149726D01*
X195079685Y-131149342D01*
X194948943Y-131148972D01*
X194804114Y-131148615D01*
X194645731Y-131148272D01*
X194474326Y-131147943D01*
X194290429Y-131147627D01*
X194094572Y-131147325D01*
X193887288Y-131147037D01*
X193669108Y-131146762D01*
X193440563Y-131146501D01*
X193202186Y-131146254D01*
X192954507Y-131146021D01*
X192698058Y-131145801D01*
X192433372Y-131145595D01*
X192160980Y-131145403D01*
X191881413Y-131145224D01*
X191595203Y-131145059D01*
X191302882Y-131144908D01*
X191004981Y-131144770D01*
X190702032Y-131144647D01*
X190394567Y-131144537D01*
X190083118Y-131144440D01*
X189768215Y-131144357D01*
X189450391Y-131144289D01*
X189130178Y-131144233D01*
X188808106Y-131144192D01*
X188484708Y-131144164D01*
X188160516Y-131144150D01*
X187836060Y-131144149D01*
X187511873Y-131144163D01*
G37*
X187511873Y-131144163D02*
X187188487Y-131144190D01*
X186866432Y-131144230D01*
X186546241Y-131144285D01*
X186228445Y-131144353D01*
X185913576Y-131144435D01*
X185602165Y-131144530D01*
X185294745Y-131144640D01*
X184991847Y-131144763D01*
X184694002Y-131144900D01*
X184401742Y-131145050D01*
X184115600Y-131145214D01*
X183836105Y-131145392D01*
X183563791Y-131145584D01*
X183299189Y-131145789D01*
X183042830Y-131146008D01*
X182795246Y-131146241D01*
X182556969Y-131146488D01*
X182328531Y-131146748D01*
X182110463Y-131147022D01*
X181903296Y-131147310D01*
X181707563Y-131147611D01*
X181523794Y-131147926D01*
X181352523Y-131148255D01*
X181194280Y-131148598D01*
X181049597Y-131148955D01*
X180919005Y-131149325D01*
X180803037Y-131149709D01*
X180702224Y-131150106D01*
X180617098Y-131150518D01*
X180548190Y-131150943D01*
X180496032Y-131151382D01*
X180461155Y-131151834D01*
X180444187Y-131152295D01*
X180313851Y-131163635D01*
X180181491Y-131182281D01*
X180051724Y-131207300D01*
X179929165Y-131237759D01*
X179818430Y-131272726D01*
X179783457Y-131285804D01*
X179741746Y-131301795D01*
X179701859Y-131316492D01*
X179669829Y-131327694D01*
X179658311Y-131331400D01*
X179626645Y-131343700D01*
X179582632Y-131364622D01*
X179529107Y-131392501D01*
X179468909Y-131425675D01*
X179404874Y-131462480D01*
X179339837Y-131501252D01*
X179276637Y-131540329D01*
X179218110Y-131578046D01*
X179167092Y-131612741D01*
X179126421Y-131642749D01*
X179123754Y-131644854D01*
X179067030Y-131692687D01*
X179003255Y-131751162D01*
X178935936Y-131816679D01*
X178868577Y-131885639D01*
X178804684Y-131954443D01*
X178747764Y-132019491D01*
X178701321Y-132077185D01*
X178696784Y-132083221D01*
X178603358Y-132215915D01*
X178522839Y-132346883D01*
X178453099Y-132480425D01*
X178392012Y-132620839D01*
X178337449Y-132772422D01*
X178306656Y-132871545D01*
X178289366Y-132932921D01*
X178275091Y-132990551D01*
X178263182Y-133048262D01*
X178252989Y-133109878D01*
X178243862Y-133179224D01*
X178235152Y-133260126D01*
X178228324Y-133332653D01*
X178222788Y-133396077D01*
X178219095Y-133446460D01*
X178217244Y-133489009D01*
X178217234Y-133528929D01*
X178219067Y-133571426D01*
X178222743Y-133621706D01*
X178228260Y-133684975D01*
X178228324Y-133685685D01*
X178237161Y-133778125D01*
X178245956Y-133856111D01*
X178255416Y-133923515D01*
X178266246Y-133984209D01*
X178279154Y-134042064D01*
X178294846Y-134100950D01*
X178314029Y-134164739D01*
X178318146Y-134177794D01*
X178343911Y-134258248D01*
X178365982Y-134324784D01*
X178385883Y-134381069D01*
X178405137Y-134430765D01*
X178425266Y-134477538D01*
X178447794Y-134525053D01*
X178474243Y-134576973D01*
X178506136Y-134636965D01*
X178518429Y-134659737D01*
X178558112Y-134727287D01*
X178608142Y-134803430D01*
X178665666Y-134884469D01*
X178727835Y-134966712D01*
X178791797Y-135046461D01*
X178854702Y-135120023D01*
X178913700Y-135183703D01*
X178950679Y-135219985D01*
X179063019Y-135317207D01*
X179187674Y-135412054D01*
X179318894Y-135500541D01*
X179450928Y-135578677D01*
X179520388Y-135615088D01*
X179606448Y-135656979D01*
X179683510Y-135691925D01*
X179755910Y-135721433D01*
X179827984Y-135747012D01*
X179904067Y-135770169D01*
X179988495Y-135792414D01*
X180085603Y-135815254D01*
X180114079Y-135821612D01*
X180292888Y-135861191D01*
X187972491Y-135862128D01*
X188347409Y-135862170D01*
X188717888Y-135862203D01*
X189083501Y-135862227D01*
X189443823Y-135862242D01*
X189798427Y-135862249D01*
X190146888Y-135862248D01*
X190488777Y-135862238D01*
X190823670Y-135862221D01*
X191151141Y-135862195D01*
X191470762Y-135862162D01*
X191782108Y-135862122D01*
X192084752Y-135862074D01*
X192378269Y-135862018D01*
X192662232Y-135861956D01*
X192936214Y-135861887D01*
X193199790Y-135861810D01*
X193452533Y-135861728D01*
X193694017Y-135861638D01*
X193923817Y-135861542D01*
X194141504Y-135861440D01*
X194346654Y-135861332D01*
X194538840Y-135861218D01*
X194717636Y-135861098D01*
X194882616Y-135860972D01*
X195033353Y-135860841D01*
X195169421Y-135860704D01*
X195290394Y-135860563D01*
X195395845Y-135860416D01*
X195485350Y-135860264D01*
X195558480Y-135860107D01*
X195614810Y-135859946D01*
X195653914Y-135859780D01*
X195675366Y-135859610D01*
X195679603Y-135859504D01*
X195705298Y-135855410D01*
X195744537Y-135848216D01*
X195793775Y-135838659D01*
X195849470Y-135827476D01*
X195908081Y-135815405D01*
X195966066Y-135803182D01*
X196019881Y-135791545D01*
X196065986Y-135781232D01*
X196100837Y-135772979D01*
X196119747Y-135767893D01*
X196153647Y-135755993D01*
X196200187Y-135737926D01*
X196255438Y-135715382D01*
X196315471Y-135690054D01*
X196376356Y-135663632D01*
X196434162Y-135637808D01*
X196484962Y-135614273D01*
X196524825Y-135594719D01*
X196536967Y-135588314D01*
X196648677Y-135522559D01*
X196763972Y-135445697D01*
X196878156Y-135361288D01*
X196986534Y-135272896D01*
X197084408Y-135184080D01*
X197129685Y-135138816D01*
X197257974Y-134993691D01*
X197372669Y-134838767D01*
X197474249Y-134673144D01*
X197563194Y-134495922D01*
X197639984Y-134306201D01*
X197705098Y-134103080D01*
X197729093Y-134013501D01*
X197746435Y-133929818D01*
X197760193Y-133832142D01*
X197770230Y-133724497D01*
X197776409Y-133610904D01*
X197778502Y-133500144D01*
X197503266Y-133500144D01*
X197501274Y-133611914D01*
X197494898Y-133717973D01*
X197484137Y-133812552D01*
X197482854Y-133820938D01*
X197444730Y-134008181D01*
X197390294Y-134190485D01*
X197320322Y-134366323D01*
X197235592Y-134534164D01*
X197136880Y-134692479D01*
X197024963Y-134839740D01*
X196900617Y-134974416D01*
X196893507Y-134981355D01*
X196787088Y-135079958D01*
X196683148Y-135165915D01*
X196577820Y-135241731D01*
X196467239Y-135309907D01*
X196347537Y-135372950D01*
X196214849Y-135433360D01*
X196160279Y-135456122D01*
X196087321Y-135482780D01*
X196000315Y-135509364D01*
X195903526Y-135534787D01*
X195801215Y-135557961D01*
X195697648Y-135577798D01*
X195656678Y-135584577D01*
X195646451Y-135584756D01*
X195618311Y-135584935D01*
X195572687Y-135585114D01*
X195510006Y-135585294D01*
X195430694Y-135585473D01*
X195335179Y-135585652D01*
X195223889Y-135585830D01*
X195097251Y-135586008D01*
X194955693Y-135586184D01*
X194799640Y-135586359D01*
X194629522Y-135586532D01*
X194445764Y-135586703D01*
X194248795Y-135586871D01*
X194039042Y-135587038D01*
X193816932Y-135587201D01*
X193582892Y-135587361D01*
X193337350Y-135587518D01*
X193080733Y-135587672D01*
X192813468Y-135587821D01*
X192535983Y-135587966D01*
X192248705Y-135588107D01*
X191952061Y-135588244D01*
X191646479Y-135588375D01*
X191332385Y-135588501D01*
X191010208Y-135588621D01*
X190680375Y-135588736D01*
X190343312Y-135588845D01*
X189999448Y-135588947D01*
X189649209Y-135589043D01*
X189293022Y-135589132D01*
X188931316Y-135589214D01*
X188564518Y-135589289D01*
X188193054Y-135589356D01*
X188004584Y-135589387D01*
X180375415Y-135590585D01*
X180173682Y-135549950D01*
X180088672Y-135532113D01*
X180018003Y-135515571D01*
X179957821Y-135499298D01*
X179904276Y-135482267D01*
X179862904Y-135467127D01*
X179679907Y-135386995D01*
X179506166Y-135292025D01*
X179342848Y-135183046D01*
X179191116Y-135060887D01*
X179052137Y-134926377D01*
X178966606Y-134829602D01*
X178917628Y-134766416D01*
X178865006Y-134691396D01*
X178812071Y-134609671D01*
X178762156Y-134526368D01*
X178722238Y-134453646D01*
X178689119Y-134384593D01*
X178654488Y-134302658D01*
X178620234Y-134212979D01*
X178588243Y-134120695D01*
X178560403Y-134030945D01*
X178542051Y-133963068D01*
X178536169Y-133933464D01*
X178529310Y-133889508D01*
X178521915Y-133835135D01*
X178514426Y-133774277D01*
X178507286Y-133710869D01*
X178500936Y-133648843D01*
X178495819Y-133592133D01*
X178492376Y-133544672D01*
X178491049Y-133510393D01*
X178491047Y-133509169D01*
X178492730Y-133461247D01*
X178497396Y-133399862D01*
X178504468Y-133329541D01*
X178513372Y-133254813D01*
X178523531Y-133180206D01*
X178534369Y-133110246D01*
X178545311Y-133049462D01*
X178555209Y-133004612D01*
X178569318Y-132953941D01*
X178587993Y-132893876D01*
X178609712Y-132828698D01*
X178632957Y-132762688D01*
X178656206Y-132700128D01*
X178677940Y-132645299D01*
X178696639Y-132602480D01*
X178701639Y-132592202D01*
X178770824Y-132467908D01*
X178853099Y-132341709D01*
X178944652Y-132218807D01*
X179041668Y-132104405D01*
X179115830Y-132027206D01*
X179163834Y-131980340D01*
X179204995Y-131940913D01*
X179241673Y-131907181D01*
X179276231Y-131877405D01*
X179311032Y-131849842D01*
X179348436Y-131822753D01*
X179390806Y-131794397D01*
X179440504Y-131763031D01*
X179499891Y-131726915D01*
X179571331Y-131684309D01*
X179620686Y-131655068D01*
X179685161Y-131621383D01*
X179764608Y-131587182D01*
X179855724Y-131553509D01*
X179955208Y-131521408D01*
X180059758Y-131491922D01*
X180166073Y-131466096D01*
X180270850Y-131444974D01*
X180302057Y-131439618D01*
X180308493Y-131438641D01*
X180315893Y-131437702D01*
X180324629Y-131436803D01*
X180335073Y-131435941D01*
X180347598Y-131435115D01*
X180362574Y-131434326D01*
X180380375Y-131433572D01*
X180401372Y-131432852D01*
X180425937Y-131432166D01*
X180454442Y-131431512D01*
X180487259Y-131430891D01*
X180524760Y-131430300D01*
X180567316Y-131429740D01*
X180615300Y-131429210D01*
X180669084Y-131428708D01*
X180729040Y-131428235D01*
X180795539Y-131427788D01*
X180868954Y-131427368D01*
X180949657Y-131426974D01*
X181038018Y-131426604D01*
X181134412Y-131426259D01*
X181239208Y-131425936D01*
X181352780Y-131425636D01*
X181475499Y-131425357D01*
X181607738Y-131425100D01*
X181749867Y-131424862D01*
X181902260Y-131424643D01*
X182065288Y-131424443D01*
X182239322Y-131424260D01*
X182424736Y-131424095D01*
X182621901Y-131423945D01*
X182831188Y-131423810D01*
X183052970Y-131423690D01*
X183287619Y-131423583D01*
X183535507Y-131423489D01*
X183797005Y-131423407D01*
X184072486Y-131423337D01*
X184362322Y-131423276D01*
X184666884Y-131423225D01*
X184986545Y-131423183D01*
X185321676Y-131423150D01*
X185672649Y-131423123D01*
X186039836Y-131423102D01*
X186423610Y-131423088D01*
X186824342Y-131423078D01*
X187242405Y-131423071D01*
X187678169Y-131423069D01*
X188000000Y-131423068D01*
X195597075Y-131423068D01*
X195720866Y-131444249D01*
X195836536Y-131466302D01*
X195948445Y-131491983D01*
X196051916Y-131520112D01*
X196142275Y-131549508D01*
X196151841Y-131553001D01*
X196251587Y-131594433D01*
X196356573Y-131646241D01*
X196463621Y-131706312D01*
X196569553Y-131772534D01*
X196671192Y-131842796D01*
X196765361Y-131914986D01*
X196848882Y-131986991D01*
X196918579Y-132056701D01*
X196931414Y-132071143D01*
X196963101Y-132107215D01*
X196996389Y-132144378D01*
X197025456Y-132176154D01*
X197032939Y-132184151D01*
X197065258Y-132222206D01*
X197103262Y-132273124D01*
X197144607Y-132333282D01*
X197186952Y-132399052D01*
X197227955Y-132466810D01*
X197265273Y-132532930D01*
X197293566Y-132587617D01*
X197331256Y-132671804D01*
X197368590Y-132768450D01*
X197403855Y-132872121D01*
X197435340Y-132977385D01*
X197461330Y-133078807D01*
X197480113Y-133170956D01*
X197482921Y-133188231D01*
X197494090Y-133282535D01*
X197500871Y-133388429D01*
X197503266Y-133500144D01*
X197778502Y-133500144D01*
X197778593Y-133495383D01*
X197776645Y-133381956D01*
X197770428Y-133274645D01*
X197759804Y-133177470D01*
X197758018Y-133165306D01*
X197748670Y-133106638D01*
X197739180Y-133054535D01*
X197728560Y-133005094D01*
X197715823Y-132954414D01*
X197699980Y-132898591D01*
X197680042Y-132833723D01*
X197655022Y-132755906D01*
X197652009Y-132746668D01*
X197609102Y-132625084D01*
X197562416Y-132513423D01*
X197509023Y-132405538D01*
X197445998Y-132295282D01*
X197408200Y-132234584D01*
X197292583Y-132068851D01*
X197165367Y-131916226D01*
X197025836Y-131776090D01*
X196873276Y-131647818D01*
X196706972Y-131530791D01*
X196526209Y-131424386D01*
X196406798Y-131363591D01*
X196253716Y-131298341D01*
X196088673Y-131243709D01*
X195915256Y-131200585D01*
X195737049Y-131169861D01*
X195557640Y-131152425D01*
X195555812Y-131152318D01*
X195538559Y-131151852D01*
X195503498Y-131151399D01*
X195451160Y-131150961D01*
X195382079Y-131150535D01*
X195296785Y-131150124D01*
X195195810Y-131149726D01*
X195079685Y-131149342D01*
X194948943Y-131148972D01*
X194804114Y-131148615D01*
X194645731Y-131148272D01*
X194474326Y-131147943D01*
X194290429Y-131147627D01*
X194094572Y-131147325D01*
X193887288Y-131147037D01*
X193669108Y-131146762D01*
X193440563Y-131146501D01*
X193202186Y-131146254D01*
X192954507Y-131146021D01*
X192698058Y-131145801D01*
X192433372Y-131145595D01*
X192160980Y-131145403D01*
X191881413Y-131145224D01*
X191595203Y-131145059D01*
X191302882Y-131144908D01*
X191004981Y-131144770D01*
X190702032Y-131144647D01*
X190394567Y-131144537D01*
X190083118Y-131144440D01*
X189768215Y-131144357D01*
X189450391Y-131144289D01*
X189130178Y-131144233D01*
X188808106Y-131144192D01*
X188484708Y-131144164D01*
X188160516Y-131144150D01*
X187836060Y-131144149D01*
X187511873Y-131144163D01*
G36*
X191096676Y-132787302D02*
G01*
X191056252Y-132793496D01*
X190971792Y-132818578D01*
X190891006Y-132859380D01*
X190816625Y-132913465D01*
X190751381Y-132978398D01*
X190698004Y-133051745D01*
X190659227Y-133131069D01*
X190651145Y-133154703D01*
X190638517Y-133208221D01*
X190628574Y-133275768D01*
X190621416Y-133353217D01*
X190617142Y-133436443D01*
X190615851Y-133521318D01*
X190617641Y-133603715D01*
X190622612Y-133679509D01*
X190630862Y-133744573D01*
X190636341Y-133772195D01*
X190656656Y-133836691D01*
X190687122Y-133903549D01*
X190725186Y-133968961D01*
X190768295Y-134029116D01*
X190813897Y-134080205D01*
X190859438Y-134118416D01*
X190874693Y-134127932D01*
X190902531Y-134144204D01*
X190925192Y-134158545D01*
X190934296Y-134165101D01*
X190948888Y-134172727D01*
X190976301Y-134183494D01*
X191011700Y-134195573D01*
X191029080Y-134200988D01*
X191069153Y-134212055D01*
X191106875Y-134219688D01*
X191147984Y-134224666D01*
X191198218Y-134227770D01*
X191235398Y-134229067D01*
X191287143Y-134229789D01*
X191337561Y-134229160D01*
X191381149Y-134227330D01*
X191412404Y-134224452D01*
X191414372Y-134224154D01*
X191449486Y-134215862D01*
X191490611Y-134202103D01*
X191532258Y-134185175D01*
X191568934Y-134167375D01*
X191595151Y-134150998D01*
X191600619Y-134146250D01*
X191615268Y-134133655D01*
X191638525Y-134115644D01*
X191653513Y-134104646D01*
X191683979Y-134078708D01*
X191713297Y-134047444D01*
X191722336Y-134035823D01*
X191741067Y-134010625D01*
X191757240Y-133990368D01*
X191763535Y-133983334D01*
X191783897Y-133954227D01*
X191803654Y-133909588D01*
X191822033Y-133852225D01*
X191838258Y-133784944D01*
X191851554Y-133710552D01*
X191861147Y-133631856D01*
X191861438Y-133628702D01*
X191866489Y-133521044D01*
X191866398Y-133518339D01*
X191661912Y-133518339D01*
X191655269Y-133634846D01*
X191636375Y-133741961D01*
X191605664Y-133837924D01*
X191563569Y-133920979D01*
X191562084Y-133923334D01*
X191523194Y-133968452D01*
X191469622Y-134006355D01*
X191404084Y-134035632D01*
X191329293Y-134054870D01*
X191301083Y-134059013D01*
X191269029Y-134062845D01*
X191244057Y-134065860D01*
X191232310Y-134067313D01*
X191219479Y-134066251D01*
X191193686Y-134062356D01*
X191159952Y-134056404D01*
X191151439Y-134054796D01*
X191072962Y-134030949D01*
X191003853Y-133991615D01*
X190944897Y-133937513D01*
X190896880Y-133869363D01*
X190860781Y-133788449D01*
X190836298Y-133696692D01*
X190822185Y-133596838D01*
X190818241Y-133493010D01*
X190824264Y-133389333D01*
X190840053Y-133289933D01*
X190865404Y-133198935D01*
X190892792Y-133134254D01*
X190934248Y-133072218D01*
X190988929Y-133022485D01*
X191056047Y-132985534D01*
X191134812Y-132961841D01*
X191191375Y-132953821D01*
X191278295Y-132953285D01*
X191359088Y-132966712D01*
X191431592Y-132993294D01*
X191493647Y-133032223D01*
X191543090Y-133082693D01*
X191545669Y-133086155D01*
X191593490Y-133165375D01*
X191628527Y-133255476D01*
X191651022Y-133357350D01*
X191661213Y-133471889D01*
X191661912Y-133518339D01*
X191866398Y-133518339D01*
X191862795Y-133411802D01*
X191850794Y-133307338D01*
X191833715Y-133224448D01*
X191807529Y-133148049D01*
X191770231Y-133073579D01*
X191724371Y-133004564D01*
X191672502Y-132944535D01*
X191617174Y-132897020D01*
X191580758Y-132874616D01*
X191552064Y-132858918D01*
X191526299Y-132843358D01*
X191521155Y-132839937D01*
X191502336Y-132830836D01*
X191470928Y-132819558D01*
X191432240Y-132807917D01*
X191411119Y-132802349D01*
X191340160Y-132789402D01*
X191259184Y-132782456D01*
X191175564Y-132781695D01*
X191096676Y-132787302D01*
G37*
X191096676Y-132787302D02*
X191056252Y-132793496D01*
X190971792Y-132818578D01*
X190891006Y-132859380D01*
X190816625Y-132913465D01*
X190751381Y-132978398D01*
X190698004Y-133051745D01*
X190659227Y-133131069D01*
X190651145Y-133154703D01*
X190638517Y-133208221D01*
X190628574Y-133275768D01*
X190621416Y-133353217D01*
X190617142Y-133436443D01*
X190615851Y-133521318D01*
X190617641Y-133603715D01*
X190622612Y-133679509D01*
X190630862Y-133744573D01*
X190636341Y-133772195D01*
X190656656Y-133836691D01*
X190687122Y-133903549D01*
X190725186Y-133968961D01*
X190768295Y-134029116D01*
X190813897Y-134080205D01*
X190859438Y-134118416D01*
X190874693Y-134127932D01*
X190902531Y-134144204D01*
X190925192Y-134158545D01*
X190934296Y-134165101D01*
X190948888Y-134172727D01*
X190976301Y-134183494D01*
X191011700Y-134195573D01*
X191029080Y-134200988D01*
X191069153Y-134212055D01*
X191106875Y-134219688D01*
X191147984Y-134224666D01*
X191198218Y-134227770D01*
X191235398Y-134229067D01*
X191287143Y-134229789D01*
X191337561Y-134229160D01*
X191381149Y-134227330D01*
X191412404Y-134224452D01*
X191414372Y-134224154D01*
X191449486Y-134215862D01*
X191490611Y-134202103D01*
X191532258Y-134185175D01*
X191568934Y-134167375D01*
X191595151Y-134150998D01*
X191600619Y-134146250D01*
X191615268Y-134133655D01*
X191638525Y-134115644D01*
X191653513Y-134104646D01*
X191683979Y-134078708D01*
X191713297Y-134047444D01*
X191722336Y-134035823D01*
X191741067Y-134010625D01*
X191757240Y-133990368D01*
X191763535Y-133983334D01*
X191783897Y-133954227D01*
X191803654Y-133909588D01*
X191822033Y-133852225D01*
X191838258Y-133784944D01*
X191851554Y-133710552D01*
X191861147Y-133631856D01*
X191861438Y-133628702D01*
X191866489Y-133521044D01*
X191866398Y-133518339D01*
X191661912Y-133518339D01*
X191655269Y-133634846D01*
X191636375Y-133741961D01*
X191605664Y-133837924D01*
X191563569Y-133920979D01*
X191562084Y-133923334D01*
X191523194Y-133968452D01*
X191469622Y-134006355D01*
X191404084Y-134035632D01*
X191329293Y-134054870D01*
X191301083Y-134059013D01*
X191269029Y-134062845D01*
X191244057Y-134065860D01*
X191232310Y-134067313D01*
X191219479Y-134066251D01*
X191193686Y-134062356D01*
X191159952Y-134056404D01*
X191151439Y-134054796D01*
X191072962Y-134030949D01*
X191003853Y-133991615D01*
X190944897Y-133937513D01*
X190896880Y-133869363D01*
X190860781Y-133788449D01*
X190836298Y-133696692D01*
X190822185Y-133596838D01*
X190818241Y-133493010D01*
X190824264Y-133389333D01*
X190840053Y-133289933D01*
X190865404Y-133198935D01*
X190892792Y-133134254D01*
X190934248Y-133072218D01*
X190988929Y-133022485D01*
X191056047Y-132985534D01*
X191134812Y-132961841D01*
X191191375Y-132953821D01*
X191278295Y-132953285D01*
X191359088Y-132966712D01*
X191431592Y-132993294D01*
X191493647Y-133032223D01*
X191543090Y-133082693D01*
X191545669Y-133086155D01*
X191593490Y-133165375D01*
X191628527Y-133255476D01*
X191651022Y-133357350D01*
X191661213Y-133471889D01*
X191661912Y-133518339D01*
X191866398Y-133518339D01*
X191862795Y-133411802D01*
X191850794Y-133307338D01*
X191833715Y-133224448D01*
X191807529Y-133148049D01*
X191770231Y-133073579D01*
X191724371Y-133004564D01*
X191672502Y-132944535D01*
X191617174Y-132897020D01*
X191580758Y-132874616D01*
X191552064Y-132858918D01*
X191526299Y-132843358D01*
X191521155Y-132839937D01*
X191502336Y-132830836D01*
X191470928Y-132819558D01*
X191432240Y-132807917D01*
X191411119Y-132802349D01*
X191340160Y-132789402D01*
X191259184Y-132782456D01*
X191175564Y-132781695D01*
X191096676Y-132787302D01*
G36*
X182115304Y-132783827D02*
G01*
X182003793Y-132790894D01*
X181905093Y-132810385D01*
X181818170Y-132842700D01*
X181741986Y-132888236D01*
X181675506Y-132947394D01*
X181667101Y-132956576D01*
X181618178Y-133018049D01*
X181579277Y-133082893D01*
X181549642Y-133153644D01*
X181528511Y-133232837D01*
X181515125Y-133323005D01*
X181508725Y-133426685D01*
X181507907Y-133488002D01*
X181512495Y-133609755D01*
X181526634Y-133717961D01*
X181550999Y-133815122D01*
X181586266Y-133903739D01*
X181633108Y-133986314D01*
X181648425Y-134008742D01*
X181709026Y-134078629D01*
X181782522Y-134135756D01*
X181868337Y-134179807D01*
X181965894Y-134210463D01*
X182038876Y-134223527D01*
X182103808Y-134229575D01*
X182173333Y-134231996D01*
X182240324Y-134230759D01*
X182297652Y-134225834D01*
X182305631Y-134224674D01*
X182389366Y-134202707D01*
X182469758Y-134164630D01*
X182543346Y-134112673D01*
X182606669Y-134049064D01*
X182633383Y-134013611D01*
X182685511Y-133922711D01*
X182724022Y-133822795D01*
X182749182Y-133712745D01*
X182761257Y-133591443D01*
X182761339Y-133490318D01*
X182551968Y-133490318D01*
X182551783Y-133584502D01*
X182544319Y-133674880D01*
X182529375Y-133757244D01*
X182514606Y-133807184D01*
X182497958Y-133846503D01*
X182476251Y-133887869D01*
X182453068Y-133925074D01*
X182431992Y-133951911D01*
X182429858Y-133954059D01*
X182378633Y-133993583D01*
X182313773Y-134027326D01*
X182239598Y-134053244D01*
X182200180Y-134062669D01*
X182158805Y-134066964D01*
X182108894Y-134066178D01*
X182059452Y-134060573D01*
X182047039Y-134058201D01*
X181970087Y-134033030D01*
X181901517Y-133991857D01*
X181841024Y-133934440D01*
X181788298Y-133860532D01*
X181779801Y-133845804D01*
X181757575Y-133803132D01*
X181740922Y-133762918D01*
X181729129Y-133721415D01*
X181721486Y-133674880D01*
X181717281Y-133619565D01*
X181715805Y-133551726D01*
X181715886Y-133509169D01*
X181718338Y-133414126D01*
X181724615Y-133334162D01*
X181735393Y-133266290D01*
X181751348Y-133207524D01*
X181773153Y-133154875D01*
X181801484Y-133105358D01*
X181810033Y-133092582D01*
X181855433Y-133042165D01*
X181913418Y-133002196D01*
X181981127Y-132973238D01*
X182055696Y-132955859D01*
X182134261Y-132950623D01*
X182213960Y-132958096D01*
X182291929Y-132978844D01*
X182322747Y-132991325D01*
X182372706Y-133022164D01*
X182420676Y-133067359D01*
X182462925Y-133123014D01*
X182483902Y-133159659D01*
X182510840Y-133226997D01*
X182531297Y-133307358D01*
X182545073Y-133396534D01*
X182551968Y-133490318D01*
X182761339Y-133490318D01*
X182761351Y-133476541D01*
X182750298Y-133346128D01*
X182727692Y-133229831D01*
X182693354Y-133127378D01*
X182647102Y-133038497D01*
X182588757Y-132962916D01*
X182518139Y-132900363D01*
X182435066Y-132850567D01*
X182339360Y-132813255D01*
X182317259Y-132806876D01*
X182273827Y-132795917D01*
X182235953Y-132788915D01*
X182197035Y-132785116D01*
X182150470Y-132783767D01*
X182115304Y-132783827D01*
G37*
X182115304Y-132783827D02*
X182003793Y-132790894D01*
X181905093Y-132810385D01*
X181818170Y-132842700D01*
X181741986Y-132888236D01*
X181675506Y-132947394D01*
X181667101Y-132956576D01*
X181618178Y-133018049D01*
X181579277Y-133082893D01*
X181549642Y-133153644D01*
X181528511Y-133232837D01*
X181515125Y-133323005D01*
X181508725Y-133426685D01*
X181507907Y-133488002D01*
X181512495Y-133609755D01*
X181526634Y-133717961D01*
X181550999Y-133815122D01*
X181586266Y-133903739D01*
X181633108Y-133986314D01*
X181648425Y-134008742D01*
X181709026Y-134078629D01*
X181782522Y-134135756D01*
X181868337Y-134179807D01*
X181965894Y-134210463D01*
X182038876Y-134223527D01*
X182103808Y-134229575D01*
X182173333Y-134231996D01*
X182240324Y-134230759D01*
X182297652Y-134225834D01*
X182305631Y-134224674D01*
X182389366Y-134202707D01*
X182469758Y-134164630D01*
X182543346Y-134112673D01*
X182606669Y-134049064D01*
X182633383Y-134013611D01*
X182685511Y-133922711D01*
X182724022Y-133822795D01*
X182749182Y-133712745D01*
X182761257Y-133591443D01*
X182761339Y-133490318D01*
X182551968Y-133490318D01*
X182551783Y-133584502D01*
X182544319Y-133674880D01*
X182529375Y-133757244D01*
X182514606Y-133807184D01*
X182497958Y-133846503D01*
X182476251Y-133887869D01*
X182453068Y-133925074D01*
X182431992Y-133951911D01*
X182429858Y-133954059D01*
X182378633Y-133993583D01*
X182313773Y-134027326D01*
X182239598Y-134053244D01*
X182200180Y-134062669D01*
X182158805Y-134066964D01*
X182108894Y-134066178D01*
X182059452Y-134060573D01*
X182047039Y-134058201D01*
X181970087Y-134033030D01*
X181901517Y-133991857D01*
X181841024Y-133934440D01*
X181788298Y-133860532D01*
X181779801Y-133845804D01*
X181757575Y-133803132D01*
X181740922Y-133762918D01*
X181729129Y-133721415D01*
X181721486Y-133674880D01*
X181717281Y-133619565D01*
X181715805Y-133551726D01*
X181715886Y-133509169D01*
X181718338Y-133414126D01*
X181724615Y-133334162D01*
X181735393Y-133266290D01*
X181751348Y-133207524D01*
X181773153Y-133154875D01*
X181801484Y-133105358D01*
X181810033Y-133092582D01*
X181855433Y-133042165D01*
X181913418Y-133002196D01*
X181981127Y-132973238D01*
X182055696Y-132955859D01*
X182134261Y-132950623D01*
X182213960Y-132958096D01*
X182291929Y-132978844D01*
X182322747Y-132991325D01*
X182372706Y-133022164D01*
X182420676Y-133067359D01*
X182462925Y-133123014D01*
X182483902Y-133159659D01*
X182510840Y-133226997D01*
X182531297Y-133307358D01*
X182545073Y-133396534D01*
X182551968Y-133490318D01*
X182761339Y-133490318D01*
X182761351Y-133476541D01*
X182750298Y-133346128D01*
X182727692Y-133229831D01*
X182693354Y-133127378D01*
X182647102Y-133038497D01*
X182588757Y-132962916D01*
X182518139Y-132900363D01*
X182435066Y-132850567D01*
X182339360Y-132813255D01*
X182317259Y-132806876D01*
X182273827Y-132795917D01*
X182235953Y-132788915D01*
X182197035Y-132785116D01*
X182150470Y-132783767D01*
X182115304Y-132783827D01*
G36*
X188563774Y-132800293D02*
G01*
X188504856Y-132814262D01*
X188496244Y-132817496D01*
X188478886Y-132825605D01*
X188465037Y-132836253D01*
X188451983Y-132852946D01*
X188437010Y-132879193D01*
X188417403Y-132918500D01*
X188416252Y-132920871D01*
X188396573Y-132961935D01*
X188378416Y-133001070D01*
X188360353Y-133041588D01*
X188340957Y-133086802D01*
X188318801Y-133140023D01*
X188292457Y-133204563D01*
X188269416Y-133261588D01*
X188250974Y-133307205D01*
X188234406Y-133347913D01*
X188221187Y-133380103D01*
X188212792Y-133400171D01*
X188211243Y-133403718D01*
X188205323Y-133417920D01*
X188193978Y-133446093D01*
X188178446Y-133485124D01*
X188159968Y-133531900D01*
X188141884Y-133577942D01*
X188118428Y-133636706D01*
X188094289Y-133695212D01*
X188070562Y-133751001D01*
X188048342Y-133801617D01*
X188028724Y-133844603D01*
X188012801Y-133877502D01*
X188001669Y-133897857D01*
X187996857Y-133903465D01*
X187991820Y-133895592D01*
X187981331Y-133874292D01*
X187967044Y-133843046D01*
X187954352Y-133814061D01*
X187936864Y-133773539D01*
X187920710Y-133736309D01*
X187908117Y-133707497D01*
X187902920Y-133695762D01*
X187894178Y-133674792D01*
X187890019Y-133661917D01*
X187889964Y-133661276D01*
X187886462Y-133650281D01*
X187877597Y-133628858D01*
X187872218Y-133616813D01*
X187861705Y-133592757D01*
X187846519Y-133556704D01*
X187828764Y-133513700D01*
X187812032Y-133472491D01*
X187794452Y-133429044D01*
X187778225Y-133389366D01*
X187765188Y-133357922D01*
X187757337Y-133339530D01*
X187748455Y-133318926D01*
X187734939Y-133286796D01*
X187719076Y-133248597D01*
X187711211Y-133229494D01*
X187696326Y-133193368D01*
X187683202Y-133161967D01*
X187670271Y-133131708D01*
X187655966Y-133099010D01*
X187638720Y-133060287D01*
X187616966Y-133011958D01*
X187589880Y-132952080D01*
X187563988Y-132897101D01*
X187541630Y-132856994D01*
X187519939Y-132829446D01*
X187496045Y-132812145D01*
X187467079Y-132802779D01*
X187430173Y-132799035D01*
X187399386Y-132798519D01*
X187342058Y-132799865D01*
X187300360Y-132804337D01*
X187271752Y-132812586D01*
X187253693Y-132825265D01*
X187245582Y-132837984D01*
X187243335Y-132848612D01*
X187241322Y-132870238D01*
X187239526Y-132903674D01*
X187237931Y-132949731D01*
X187236522Y-133009220D01*
X187235281Y-133082952D01*
X187234194Y-133171740D01*
X187233245Y-133276395D01*
X187232416Y-133397727D01*
X187231693Y-133536548D01*
X187231661Y-133543556D01*
X187228586Y-134224404D01*
X187422310Y-134224404D01*
X187423387Y-133699440D01*
X187423691Y-133599762D01*
X187424174Y-133503036D01*
X187424813Y-133411282D01*
X187425588Y-133326519D01*
X187426474Y-133250766D01*
X187427449Y-133186042D01*
X187428492Y-133134367D01*
X187429578Y-133097759D01*
X187430264Y-133083507D01*
X187436065Y-132992538D01*
X187529702Y-133230222D01*
X187557343Y-133300232D01*
X187587024Y-133375143D01*
X187617929Y-133452918D01*
X187649243Y-133531522D01*
X187680151Y-133608919D01*
X187709835Y-133683073D01*
X187737481Y-133751949D01*
X187762273Y-133813511D01*
X187783395Y-133865724D01*
X187800031Y-133906552D01*
X187811366Y-133933958D01*
X187816012Y-133944729D01*
X187823069Y-133960587D01*
X187835387Y-133988843D01*
X187851024Y-134025029D01*
X187862970Y-134052832D01*
X187889200Y-134111770D01*
X187911775Y-134155560D01*
X187932994Y-134186401D01*
X187955154Y-134206491D01*
X187980555Y-134218030D01*
X188011493Y-134223216D01*
X188042155Y-134224269D01*
X188098065Y-134224404D01*
X188137367Y-134121245D01*
X188156946Y-134070068D01*
X188179009Y-134012751D01*
X188202524Y-133951937D01*
X188226460Y-133890271D01*
X188249787Y-133830394D01*
X188271473Y-133774949D01*
X188290487Y-133726581D01*
X188305797Y-133687931D01*
X188316372Y-133661643D01*
X188320726Y-133651299D01*
X188327139Y-133635993D01*
X188338556Y-133607512D01*
X188353412Y-133569802D01*
X188370140Y-133526812D01*
X188371643Y-133522924D01*
X188388025Y-133480766D01*
X188409445Y-133425993D01*
X188434165Y-133363032D01*
X188460446Y-133296307D01*
X188486549Y-133230247D01*
X188493634Y-133212360D01*
X188573104Y-133011832D01*
X188577820Y-134224404D01*
X188771319Y-134224404D01*
X188768348Y-133543556D01*
X188767649Y-133403667D01*
X188766841Y-133281320D01*
X188765908Y-133175716D01*
X188764836Y-133086058D01*
X188763609Y-133011548D01*
X188762210Y-132951387D01*
X188760624Y-132904779D01*
X188758836Y-132870924D01*
X188756831Y-132849026D01*
X188754592Y-132838287D01*
X188754575Y-132838247D01*
X188744709Y-132823083D01*
X188728085Y-132812847D01*
X188699536Y-132804670D01*
X188690723Y-132802775D01*
X188628586Y-132796248D01*
X188563774Y-132800293D01*
G37*
X188563774Y-132800293D02*
X188504856Y-132814262D01*
X188496244Y-132817496D01*
X188478886Y-132825605D01*
X188465037Y-132836253D01*
X188451983Y-132852946D01*
X188437010Y-132879193D01*
X188417403Y-132918500D01*
X188416252Y-132920871D01*
X188396573Y-132961935D01*
X188378416Y-133001070D01*
X188360353Y-133041588D01*
X188340957Y-133086802D01*
X188318801Y-133140023D01*
X188292457Y-133204563D01*
X188269416Y-133261588D01*
X188250974Y-133307205D01*
X188234406Y-133347913D01*
X188221187Y-133380103D01*
X188212792Y-133400171D01*
X188211243Y-133403718D01*
X188205323Y-133417920D01*
X188193978Y-133446093D01*
X188178446Y-133485124D01*
X188159968Y-133531900D01*
X188141884Y-133577942D01*
X188118428Y-133636706D01*
X188094289Y-133695212D01*
X188070562Y-133751001D01*
X188048342Y-133801617D01*
X188028724Y-133844603D01*
X188012801Y-133877502D01*
X188001669Y-133897857D01*
X187996857Y-133903465D01*
X187991820Y-133895592D01*
X187981331Y-133874292D01*
X187967044Y-133843046D01*
X187954352Y-133814061D01*
X187936864Y-133773539D01*
X187920710Y-133736309D01*
X187908117Y-133707497D01*
X187902920Y-133695762D01*
X187894178Y-133674792D01*
X187890019Y-133661917D01*
X187889964Y-133661276D01*
X187886462Y-133650281D01*
X187877597Y-133628858D01*
X187872218Y-133616813D01*
X187861705Y-133592757D01*
X187846519Y-133556704D01*
X187828764Y-133513700D01*
X187812032Y-133472491D01*
X187794452Y-133429044D01*
X187778225Y-133389366D01*
X187765188Y-133357922D01*
X187757337Y-133339530D01*
X187748455Y-133318926D01*
X187734939Y-133286796D01*
X187719076Y-133248597D01*
X187711211Y-133229494D01*
X187696326Y-133193368D01*
X187683202Y-133161967D01*
X187670271Y-133131708D01*
X187655966Y-133099010D01*
X187638720Y-133060287D01*
X187616966Y-133011958D01*
X187589880Y-132952080D01*
X187563988Y-132897101D01*
X187541630Y-132856994D01*
X187519939Y-132829446D01*
X187496045Y-132812145D01*
X187467079Y-132802779D01*
X187430173Y-132799035D01*
X187399386Y-132798519D01*
X187342058Y-132799865D01*
X187300360Y-132804337D01*
X187271752Y-132812586D01*
X187253693Y-132825265D01*
X187245582Y-132837984D01*
X187243335Y-132848612D01*
X187241322Y-132870238D01*
X187239526Y-132903674D01*
X187237931Y-132949731D01*
X187236522Y-133009220D01*
X187235281Y-133082952D01*
X187234194Y-133171740D01*
X187233245Y-133276395D01*
X187232416Y-133397727D01*
X187231693Y-133536548D01*
X187231661Y-133543556D01*
X187228586Y-134224404D01*
X187422310Y-134224404D01*
X187423387Y-133699440D01*
X187423691Y-133599762D01*
X187424174Y-133503036D01*
X187424813Y-133411282D01*
X187425588Y-133326519D01*
X187426474Y-133250766D01*
X187427449Y-133186042D01*
X187428492Y-133134367D01*
X187429578Y-133097759D01*
X187430264Y-133083507D01*
X187436065Y-132992538D01*
X187529702Y-133230222D01*
X187557343Y-133300232D01*
X187587024Y-133375143D01*
X187617929Y-133452918D01*
X187649243Y-133531522D01*
X187680151Y-133608919D01*
X187709835Y-133683073D01*
X187737481Y-133751949D01*
X187762273Y-133813511D01*
X187783395Y-133865724D01*
X187800031Y-133906552D01*
X187811366Y-133933958D01*
X187816012Y-133944729D01*
X187823069Y-133960587D01*
X187835387Y-133988843D01*
X187851024Y-134025029D01*
X187862970Y-134052832D01*
X187889200Y-134111770D01*
X187911775Y-134155560D01*
X187932994Y-134186401D01*
X187955154Y-134206491D01*
X187980555Y-134218030D01*
X188011493Y-134223216D01*
X188042155Y-134224269D01*
X188098065Y-134224404D01*
X188137367Y-134121245D01*
X188156946Y-134070068D01*
X188179009Y-134012751D01*
X188202524Y-133951937D01*
X188226460Y-133890271D01*
X188249787Y-133830394D01*
X188271473Y-133774949D01*
X188290487Y-133726581D01*
X188305797Y-133687931D01*
X188316372Y-133661643D01*
X188320726Y-133651299D01*
X188327139Y-133635993D01*
X188338556Y-133607512D01*
X188353412Y-133569802D01*
X188370140Y-133526812D01*
X188371643Y-133522924D01*
X188388025Y-133480766D01*
X188409445Y-133425993D01*
X188434165Y-133363032D01*
X188460446Y-133296307D01*
X188486549Y-133230247D01*
X188493634Y-133212360D01*
X188573104Y-133011832D01*
X188577820Y-134224404D01*
X188771319Y-134224404D01*
X188768348Y-133543556D01*
X188767649Y-133403667D01*
X188766841Y-133281320D01*
X188765908Y-133175716D01*
X188764836Y-133086058D01*
X188763609Y-133011548D01*
X188762210Y-132951387D01*
X188760624Y-132904779D01*
X188758836Y-132870924D01*
X188756831Y-132849026D01*
X188754592Y-132838287D01*
X188754575Y-132838247D01*
X188744709Y-132823083D01*
X188728085Y-132812847D01*
X188699536Y-132804670D01*
X188690723Y-132802775D01*
X188628586Y-132796248D01*
X188563774Y-132800293D01*
G36*
X184557619Y-132795731D02*
G01*
X184539999Y-132796040D01*
X184537606Y-132796304D01*
X184537018Y-132806096D01*
X184537909Y-132829749D01*
X184540084Y-132862863D01*
X184541187Y-132876778D01*
X184547617Y-132954404D01*
X184763104Y-132960058D01*
X184829102Y-132961761D01*
X184893454Y-132963371D01*
X184952389Y-132964797D01*
X185002133Y-132965948D01*
X185038914Y-132966734D01*
X185049657Y-132966935D01*
X185120722Y-132968158D01*
X185120722Y-133399133D01*
X184616390Y-133399133D01*
X184616390Y-133555018D01*
X185120722Y-133555018D01*
X185120722Y-134050180D01*
X184861618Y-134050180D01*
X184774622Y-134050476D01*
X184704204Y-134051468D01*
X184648613Y-134053314D01*
X184606096Y-134056173D01*
X184574900Y-134060201D01*
X184553273Y-134065557D01*
X184539462Y-134072398D01*
X184532355Y-134079814D01*
X184526421Y-134100417D01*
X184525028Y-134130562D01*
X184527804Y-134162120D01*
X184534375Y-134186964D01*
X184537532Y-134192608D01*
X184554256Y-134202141D01*
X184588878Y-134209777D01*
X184641053Y-134215503D01*
X184710438Y-134219306D01*
X184796688Y-134221172D01*
X184899458Y-134221087D01*
X185018403Y-134219037D01*
X185127141Y-134215903D01*
X185192832Y-134213188D01*
X185241478Y-134209928D01*
X185274366Y-134205993D01*
X185292787Y-134201253D01*
X185296780Y-134198744D01*
X185300902Y-134185283D01*
X185304427Y-134154195D01*
X185307345Y-134106183D01*
X185309648Y-134041950D01*
X185311328Y-133962198D01*
X185312375Y-133867631D01*
X185312782Y-133758952D01*
X185312540Y-133636862D01*
X185311640Y-133502066D01*
X185310074Y-133355266D01*
X185308459Y-133237833D01*
X185301988Y-132806027D01*
X184921221Y-132799742D01*
X184839539Y-132798461D01*
X184763725Y-132797402D01*
X184695702Y-132796582D01*
X184637394Y-132796019D01*
X184590725Y-132795729D01*
X184557619Y-132795731D01*
G37*
X184557619Y-132795731D02*
X184539999Y-132796040D01*
X184537606Y-132796304D01*
X184537018Y-132806096D01*
X184537909Y-132829749D01*
X184540084Y-132862863D01*
X184541187Y-132876778D01*
X184547617Y-132954404D01*
X184763104Y-132960058D01*
X184829102Y-132961761D01*
X184893454Y-132963371D01*
X184952389Y-132964797D01*
X185002133Y-132965948D01*
X185038914Y-132966734D01*
X185049657Y-132966935D01*
X185120722Y-132968158D01*
X185120722Y-133399133D01*
X184616390Y-133399133D01*
X184616390Y-133555018D01*
X185120722Y-133555018D01*
X185120722Y-134050180D01*
X184861618Y-134050180D01*
X184774622Y-134050476D01*
X184704204Y-134051468D01*
X184648613Y-134053314D01*
X184606096Y-134056173D01*
X184574900Y-134060201D01*
X184553273Y-134065557D01*
X184539462Y-134072398D01*
X184532355Y-134079814D01*
X184526421Y-134100417D01*
X184525028Y-134130562D01*
X184527804Y-134162120D01*
X184534375Y-134186964D01*
X184537532Y-134192608D01*
X184554256Y-134202141D01*
X184588878Y-134209777D01*
X184641053Y-134215503D01*
X184710438Y-134219306D01*
X184796688Y-134221172D01*
X184899458Y-134221087D01*
X185018403Y-134219037D01*
X185127141Y-134215903D01*
X185192832Y-134213188D01*
X185241478Y-134209928D01*
X185274366Y-134205993D01*
X185292787Y-134201253D01*
X185296780Y-134198744D01*
X185300902Y-134185283D01*
X185304427Y-134154195D01*
X185307345Y-134106183D01*
X185309648Y-134041950D01*
X185311328Y-133962198D01*
X185312375Y-133867631D01*
X185312782Y-133758952D01*
X185312540Y-133636862D01*
X185311640Y-133502066D01*
X185310074Y-133355266D01*
X185308459Y-133237833D01*
X185301988Y-132806027D01*
X184921221Y-132799742D01*
X184839539Y-132798461D01*
X184763725Y-132797402D01*
X184695702Y-132796582D01*
X184637394Y-132796019D01*
X184590725Y-132795729D01*
X184557619Y-132795731D01*
G36*
X194330593Y-132795852D02*
G01*
X194254602Y-132798365D01*
X194185495Y-132801471D01*
X194108166Y-132805454D01*
X194046326Y-132809618D01*
X193997133Y-132814596D01*
X193957742Y-132821022D01*
X193925310Y-132829526D01*
X193896993Y-132840743D01*
X193869946Y-132855303D01*
X193841328Y-132873841D01*
X193832385Y-132880011D01*
X193774589Y-132930949D01*
X193730339Y-132992592D01*
X193700531Y-133062369D01*
X193686062Y-133137707D01*
X193687828Y-133216031D01*
X193697795Y-133266173D01*
X193706826Y-133291945D01*
X193720848Y-133323652D01*
X193737589Y-133357074D01*
X193754776Y-133387987D01*
X193770136Y-133412172D01*
X193781397Y-133425405D01*
X193784211Y-133426686D01*
X193794082Y-133432425D01*
X193812348Y-133447074D01*
X193825751Y-133458968D01*
X193856426Y-133483468D01*
X193891190Y-133506190D01*
X193902324Y-133512282D01*
X193943796Y-133533359D01*
X193917656Y-133550029D01*
X193879615Y-133581511D01*
X193841484Y-133627862D01*
X193802636Y-133690025D01*
X193762446Y-133768946D01*
X193740726Y-133817110D01*
X193722095Y-133859872D01*
X193705501Y-133897820D01*
X193692638Y-133927093D01*
X193685198Y-133943826D01*
X193684787Y-133944729D01*
X193676365Y-133965051D01*
X193663799Y-133997648D01*
X193648943Y-134037466D01*
X193633655Y-134079450D01*
X193619789Y-134118545D01*
X193609201Y-134149697D01*
X193606906Y-134156851D01*
X193600259Y-134184696D01*
X193602252Y-134200920D01*
X193605266Y-134204992D01*
X193619666Y-134210315D01*
X193646854Y-134213747D01*
X193681651Y-134215324D01*
X193718876Y-134215077D01*
X193753351Y-134213041D01*
X193779894Y-134209250D01*
X193793297Y-134203772D01*
X193800288Y-134190920D01*
X193811959Y-134164888D01*
X193826582Y-134129678D01*
X193839845Y-134096028D01*
X193881808Y-133988794D01*
X193919318Y-133897732D01*
X193953507Y-133821548D01*
X193985508Y-133758948D01*
X194016455Y-133708637D01*
X194047480Y-133669320D01*
X194079718Y-133639702D01*
X194114300Y-133618490D01*
X194152361Y-133604388D01*
X194195033Y-133596101D01*
X194243450Y-133592336D01*
X194281258Y-133591696D01*
X194342973Y-133591696D01*
X194349724Y-133896588D01*
X194351459Y-133969652D01*
X194353279Y-134036844D01*
X194355108Y-134095970D01*
X194356867Y-134144838D01*
X194358481Y-134181255D01*
X194359873Y-134203029D01*
X194360656Y-134208357D01*
X194371056Y-134211331D01*
X194395544Y-134213657D01*
X194429873Y-134215016D01*
X194451695Y-134215234D01*
X194493127Y-134214774D01*
X194519802Y-134212986D01*
X194535288Y-134209257D01*
X194543154Y-134202974D01*
X194545143Y-134199187D01*
X194546447Y-134186964D01*
X194547600Y-134158223D01*
X194548606Y-134114784D01*
X194549464Y-134058470D01*
X194550175Y-133991100D01*
X194550742Y-133914495D01*
X194551164Y-133830477D01*
X194551443Y-133740866D01*
X194551581Y-133647483D01*
X194551578Y-133552148D01*
X194551435Y-133456683D01*
X194551353Y-133429240D01*
X194345415Y-133429240D01*
X194233086Y-133422677D01*
X194184652Y-133419367D01*
X194138412Y-133415363D01*
X194099951Y-133411196D01*
X194076825Y-133407789D01*
X194017055Y-133388526D01*
X193966595Y-133356184D01*
X193928775Y-133312949D01*
X193926452Y-133309179D01*
X193912991Y-133284296D01*
X193905192Y-133261234D01*
X193901582Y-133233338D01*
X193900686Y-133193957D01*
X193900686Y-133192815D01*
X193901441Y-133153749D01*
X193904767Y-133126275D01*
X193912258Y-133103670D01*
X193925504Y-133079212D01*
X193928921Y-133073610D01*
X193952529Y-133041941D01*
X193981209Y-133012352D01*
X193996164Y-133000252D01*
X194035170Y-132972743D01*
X194190292Y-132969678D01*
X194345415Y-132966613D01*
X194345415Y-133429240D01*
X194551353Y-133429240D01*
X194551154Y-133362909D01*
X194550735Y-133272645D01*
X194550180Y-133187714D01*
X194549490Y-133109936D01*
X194548666Y-133041131D01*
X194547710Y-132983121D01*
X194546621Y-132937726D01*
X194545402Y-132906767D01*
X194544343Y-132893687D01*
X194539222Y-132865694D01*
X194531515Y-132843125D01*
X194519428Y-132825521D01*
X194501171Y-132812421D01*
X194474950Y-132803365D01*
X194438975Y-132797891D01*
X194391453Y-132795541D01*
X194330593Y-132795852D01*
G37*
X194330593Y-132795852D02*
X194254602Y-132798365D01*
X194185495Y-132801471D01*
X194108166Y-132805454D01*
X194046326Y-132809618D01*
X193997133Y-132814596D01*
X193957742Y-132821022D01*
X193925310Y-132829526D01*
X193896993Y-132840743D01*
X193869946Y-132855303D01*
X193841328Y-132873841D01*
X193832385Y-132880011D01*
X193774589Y-132930949D01*
X193730339Y-132992592D01*
X193700531Y-133062369D01*
X193686062Y-133137707D01*
X193687828Y-133216031D01*
X193697795Y-133266173D01*
X193706826Y-133291945D01*
X193720848Y-133323652D01*
X193737589Y-133357074D01*
X193754776Y-133387987D01*
X193770136Y-133412172D01*
X193781397Y-133425405D01*
X193784211Y-133426686D01*
X193794082Y-133432425D01*
X193812348Y-133447074D01*
X193825751Y-133458968D01*
X193856426Y-133483468D01*
X193891190Y-133506190D01*
X193902324Y-133512282D01*
X193943796Y-133533359D01*
X193917656Y-133550029D01*
X193879615Y-133581511D01*
X193841484Y-133627862D01*
X193802636Y-133690025D01*
X193762446Y-133768946D01*
X193740726Y-133817110D01*
X193722095Y-133859872D01*
X193705501Y-133897820D01*
X193692638Y-133927093D01*
X193685198Y-133943826D01*
X193684787Y-133944729D01*
X193676365Y-133965051D01*
X193663799Y-133997648D01*
X193648943Y-134037466D01*
X193633655Y-134079450D01*
X193619789Y-134118545D01*
X193609201Y-134149697D01*
X193606906Y-134156851D01*
X193600259Y-134184696D01*
X193602252Y-134200920D01*
X193605266Y-134204992D01*
X193619666Y-134210315D01*
X193646854Y-134213747D01*
X193681651Y-134215324D01*
X193718876Y-134215077D01*
X193753351Y-134213041D01*
X193779894Y-134209250D01*
X193793297Y-134203772D01*
X193800288Y-134190920D01*
X193811959Y-134164888D01*
X193826582Y-134129678D01*
X193839845Y-134096028D01*
X193881808Y-133988794D01*
X193919318Y-133897732D01*
X193953507Y-133821548D01*
X193985508Y-133758948D01*
X194016455Y-133708637D01*
X194047480Y-133669320D01*
X194079718Y-133639702D01*
X194114300Y-133618490D01*
X194152361Y-133604388D01*
X194195033Y-133596101D01*
X194243450Y-133592336D01*
X194281258Y-133591696D01*
X194342973Y-133591696D01*
X194349724Y-133896588D01*
X194351459Y-133969652D01*
X194353279Y-134036844D01*
X194355108Y-134095970D01*
X194356867Y-134144838D01*
X194358481Y-134181255D01*
X194359873Y-134203029D01*
X194360656Y-134208357D01*
X194371056Y-134211331D01*
X194395544Y-134213657D01*
X194429873Y-134215016D01*
X194451695Y-134215234D01*
X194493127Y-134214774D01*
X194519802Y-134212986D01*
X194535288Y-134209257D01*
X194543154Y-134202974D01*
X194545143Y-134199187D01*
X194546447Y-134186964D01*
X194547600Y-134158223D01*
X194548606Y-134114784D01*
X194549464Y-134058470D01*
X194550175Y-133991100D01*
X194550742Y-133914495D01*
X194551164Y-133830477D01*
X194551443Y-133740866D01*
X194551581Y-133647483D01*
X194551578Y-133552148D01*
X194551435Y-133456683D01*
X194551353Y-133429240D01*
X194345415Y-133429240D01*
X194233086Y-133422677D01*
X194184652Y-133419367D01*
X194138412Y-133415363D01*
X194099951Y-133411196D01*
X194076825Y-133407789D01*
X194017055Y-133388526D01*
X193966595Y-133356184D01*
X193928775Y-133312949D01*
X193926452Y-133309179D01*
X193912991Y-133284296D01*
X193905192Y-133261234D01*
X193901582Y-133233338D01*
X193900686Y-133193957D01*
X193900686Y-133192815D01*
X193901441Y-133153749D01*
X193904767Y-133126275D01*
X193912258Y-133103670D01*
X193925504Y-133079212D01*
X193928921Y-133073610D01*
X193952529Y-133041941D01*
X193981209Y-133012352D01*
X193996164Y-133000252D01*
X194035170Y-132972743D01*
X194190292Y-132969678D01*
X194345415Y-132966613D01*
X194345415Y-133429240D01*
X194551353Y-133429240D01*
X194551154Y-133362909D01*
X194550735Y-133272645D01*
X194550180Y-133187714D01*
X194549490Y-133109936D01*
X194548666Y-133041131D01*
X194547710Y-132983121D01*
X194546621Y-132937726D01*
X194545402Y-132906767D01*
X194544343Y-132893687D01*
X194539222Y-132865694D01*
X194531515Y-132843125D01*
X194519428Y-132825521D01*
X194501171Y-132812421D01*
X194474950Y-132803365D01*
X194438975Y-132797891D01*
X194391453Y-132795541D01*
X194330593Y-132795852D01*
D11*
X171496250Y-127825000D03*
D12*
X168956250Y-132905000D03*
D11*
X165146250Y-130365000D03*
D13*
X163876250Y-132905000D03*
X174036250Y-132905000D03*
D14*
X157050000Y-139890000D03*
X180862500Y-139890000D03*
D12*
X157050000Y-124650000D03*
X180862500Y-124650000D03*
D11*
X147646150Y-127793750D03*
D12*
X145106150Y-132873750D03*
D11*
X141296150Y-130333750D03*
D13*
X140026150Y-132873750D03*
X150186150Y-132873750D03*
D14*
X95106250Y-139858750D03*
X195106050Y-139858750D03*
D12*
X95106250Y-124618750D03*
X195106050Y-124618750D03*
D15*
X267353749Y-46896249D03*
X244226550Y-85221250D03*
X267353749Y-61171250D03*
X229367550Y-123321250D03*
X50830950Y-85221250D03*
X27703751Y-47171250D03*
X27703751Y-61171250D03*
X65689950Y-123321250D03*
X147491249Y-85221250D03*
D16*
X78581250Y-127793750D03*
X72231250Y-130333750D03*
D17*
X76041250Y-132873750D03*
D18*
X70961250Y-132873750D03*
X81121250Y-132873750D03*
D16*
X59531250Y-127793750D03*
X53181250Y-130333750D03*
D17*
X56991250Y-132873750D03*
D18*
X51911250Y-132873750D03*
X62071250Y-132873750D03*
D16*
X38100000Y-127793750D03*
X31750000Y-130333750D03*
D17*
X35560000Y-132873750D03*
D18*
X30480000Y-132873750D03*
X40640000Y-132873750D03*
D16*
X261937500Y-127793750D03*
X255587500Y-130333750D03*
D17*
X259397500Y-132873750D03*
D18*
X254317500Y-132873750D03*
X264477500Y-132873750D03*
D16*
X240506250Y-127793750D03*
X234156250Y-130333750D03*
D17*
X237966250Y-132873750D03*
D18*
X232886250Y-132873750D03*
X243046250Y-132873750D03*
D16*
X219075000Y-127793750D03*
X212725000Y-130333750D03*
D17*
X216535000Y-132873750D03*
D18*
X211455000Y-132873750D03*
X221615000Y-132873750D03*
D16*
X264318750Y-70643750D03*
X257968750Y-73183750D03*
D17*
X261778750Y-75723750D03*
D18*
X256698750Y-75723750D03*
X266858750Y-75723750D03*
X262096250Y-132873750D03*
X251936250Y-132873750D03*
D17*
X257016250Y-132873750D03*
D16*
X253206250Y-130333750D03*
X259556250Y-127793750D03*
X235743750Y-127793750D03*
X229393750Y-130333750D03*
D17*
X233203750Y-132873750D03*
D18*
X228123750Y-132873750D03*
X238283750Y-132873750D03*
X214471250Y-132873750D03*
X204311250Y-132873750D03*
D17*
X209391250Y-132873750D03*
D16*
X205581250Y-130333750D03*
X211931250Y-127793750D03*
D18*
X90646250Y-132873750D03*
X80486250Y-132873750D03*
D17*
X85566250Y-132873750D03*
D16*
X81756250Y-130333750D03*
X88106250Y-127793750D03*
D18*
X43021250Y-132873750D03*
X32861250Y-132873750D03*
D17*
X37941250Y-132873750D03*
D16*
X34131250Y-130333750D03*
X40481250Y-127793750D03*
X261937500Y-108743750D03*
X255587500Y-111283750D03*
D17*
X259397500Y-113823750D03*
D18*
X254317500Y-113823750D03*
X264477500Y-113823750D03*
D16*
X42862500Y-108743750D03*
X36512500Y-111283750D03*
D17*
X40322500Y-113823750D03*
D18*
X35242500Y-113823750D03*
X45402500Y-113823750D03*
D16*
X257175000Y-89693750D03*
X250825000Y-92233750D03*
D17*
X254635000Y-94773750D03*
D18*
X249555000Y-94773750D03*
X259715000Y-94773750D03*
D16*
X38100000Y-89693750D03*
X31750000Y-92233750D03*
D17*
X35560000Y-94773750D03*
D18*
X30480000Y-94773750D03*
X40640000Y-94773750D03*
D16*
X230981250Y-89693750D03*
X224631250Y-92233750D03*
D17*
X228441250Y-94773750D03*
D18*
X223361250Y-94773750D03*
X233521250Y-94773750D03*
D16*
X254793750Y-70643750D03*
X248443750Y-73183750D03*
D17*
X252253750Y-75723750D03*
D18*
X247173750Y-75723750D03*
X257333750Y-75723750D03*
D17*
X264153750Y-83963750D03*
X240353750Y-83963750D03*
D19*
X240353750Y-68723750D03*
X264153750Y-68723750D03*
D16*
X245268750Y-70643750D03*
X238918750Y-73183750D03*
D17*
X242728750Y-75723750D03*
D18*
X237648750Y-75723750D03*
X247808750Y-75723750D03*
D16*
X35718750Y-70643750D03*
X29368750Y-73183750D03*
D17*
X33178750Y-75723750D03*
D18*
X28098750Y-75723750D03*
X38258750Y-75723750D03*
D20*
X262350000Y-60030000D03*
D21*
X262350000Y-54950000D03*
D20*
X70203380Y-60026550D03*
D21*
X70203380Y-54946550D03*
D16*
X69056250Y-108743750D03*
X62706250Y-111283750D03*
D17*
X66516250Y-113823750D03*
D18*
X61436250Y-113823750D03*
X71596250Y-113823750D03*
D20*
X53286715Y-60026550D03*
D21*
X53286715Y-54946550D03*
D16*
X130968750Y-70643750D03*
X124618750Y-73183750D03*
D17*
X128428750Y-75723750D03*
D18*
X123348750Y-75723750D03*
X133508750Y-75723750D03*
D22*
X189651150Y-57499250D03*
X184651150Y-57499250D03*
D20*
X230587450Y-60026550D03*
D21*
X230587450Y-54946550D03*
D22*
X190791600Y-44723050D03*
X195791600Y-44723050D03*
D23*
X155721050Y-53689250D03*
D24*
X155721050Y-52189250D03*
D22*
X206698350Y-58123450D03*
X206698350Y-60623450D03*
X191991750Y-58123450D03*
X191991750Y-60623450D03*
D25*
X113832901Y-45446950D03*
X113832901Y-49946950D03*
X107332901Y-45446950D03*
X107332901Y-49946950D03*
D19*
X109385000Y-139873750D03*
X133185000Y-139873750D03*
D17*
X133185000Y-124633750D03*
X109385000Y-124633750D03*
D18*
X126365000Y-132873750D03*
X116205000Y-132873750D03*
D17*
X121285000Y-132873750D03*
D16*
X117475000Y-130333750D03*
X123825000Y-127793750D03*
D26*
X196893950Y-58870850D03*
X201773950Y-58870850D03*
D27*
X148716249Y-51826350D03*
X150416249Y-51826350D03*
X149566249Y-51826350D03*
X147866249Y-51826350D03*
X147016249Y-51826350D03*
X146166249Y-51826350D03*
X145316249Y-51826350D03*
X144466249Y-51826350D03*
X150416249Y-50501350D03*
X149561249Y-50501350D03*
X148711249Y-50501350D03*
X147861249Y-50501350D03*
X147011249Y-50501350D03*
X146161249Y-50501350D03*
X145311249Y-50501350D03*
X144461249Y-50501350D03*
D28*
X151766249Y-50846350D03*
X143116249Y-50846350D03*
D29*
X151766249Y-47466350D03*
X143116249Y-47466350D03*
D20*
X175551600Y-47294800D03*
X208571600Y-54914800D03*
X178091600Y-47294800D03*
X206031600Y-54914800D03*
X180631600Y-47294800D03*
X203491600Y-54914800D03*
X183171600Y-47294800D03*
X200951600Y-54914800D03*
X185711600Y-47294800D03*
X198411600Y-54914800D03*
X188251600Y-47294800D03*
X195871600Y-54914800D03*
X190791600Y-47294800D03*
X193331600Y-54914800D03*
X193331600Y-47294800D03*
X190791600Y-54914800D03*
X195871600Y-47294800D03*
X188251600Y-54914800D03*
X198411600Y-47294800D03*
X185711600Y-54914800D03*
X200951600Y-47294800D03*
X183171600Y-54914800D03*
X203491600Y-47294800D03*
X180631600Y-54914800D03*
X206031600Y-47294800D03*
X178091600Y-54914800D03*
X208571600Y-47294800D03*
D21*
X175551600Y-54914800D03*
D16*
X64293750Y-127793750D03*
X57943750Y-130333750D03*
D17*
X61753750Y-132873750D03*
D18*
X56673750Y-132873750D03*
X66833750Y-132873750D03*
D16*
X240506250Y-108743750D03*
X234156250Y-111283750D03*
D17*
X237966250Y-113823750D03*
D18*
X232886250Y-113823750D03*
X243046250Y-113823750D03*
D16*
X221456250Y-108743750D03*
X215106250Y-111283750D03*
D17*
X218916250Y-113823750D03*
D18*
X213836250Y-113823750D03*
X223996250Y-113823750D03*
D16*
X202406250Y-108743750D03*
X196056250Y-111283750D03*
D17*
X199866250Y-113823750D03*
D18*
X194786250Y-113823750D03*
X204946250Y-113823750D03*
D16*
X183356250Y-108743750D03*
X177006250Y-111283750D03*
D17*
X180816250Y-113823750D03*
D18*
X175736250Y-113823750D03*
X185896250Y-113823750D03*
D16*
X164306250Y-108743750D03*
X157956250Y-111283750D03*
D17*
X161766250Y-113823750D03*
D18*
X156686250Y-113823750D03*
X166846250Y-113823750D03*
D16*
X145256250Y-108743750D03*
X138906250Y-111283750D03*
D17*
X142716250Y-113823750D03*
D18*
X137636250Y-113823750D03*
X147796250Y-113823750D03*
D16*
X126206250Y-108743750D03*
X119856250Y-111283750D03*
D17*
X123666250Y-113823750D03*
D18*
X118586250Y-113823750D03*
X128746250Y-113823750D03*
D16*
X107156250Y-108743750D03*
X100806250Y-111283750D03*
D17*
X104616250Y-113823750D03*
D18*
X99536250Y-113823750D03*
X109696250Y-113823750D03*
D16*
X88106250Y-108743750D03*
X81756250Y-111283750D03*
D17*
X85566250Y-113823750D03*
D18*
X80486250Y-113823750D03*
X90646250Y-113823750D03*
D16*
X211931250Y-89693750D03*
X205581250Y-92233750D03*
D17*
X209391250Y-94773750D03*
D18*
X204311250Y-94773750D03*
X214471250Y-94773750D03*
D16*
X192881250Y-89693750D03*
X186531250Y-92233750D03*
D17*
X190341250Y-94773750D03*
D18*
X185261250Y-94773750D03*
X195421250Y-94773750D03*
D16*
X173831250Y-89693750D03*
X167481250Y-92233750D03*
D17*
X171291250Y-94773750D03*
D18*
X166211250Y-94773750D03*
X176371250Y-94773750D03*
D16*
X154781250Y-89693750D03*
X148431250Y-92233750D03*
D17*
X152241250Y-94773750D03*
D18*
X147161250Y-94773750D03*
X157321250Y-94773750D03*
D16*
X135731250Y-89693750D03*
X129381250Y-92233750D03*
D17*
X133191250Y-94773750D03*
D18*
X128111250Y-94773750D03*
X138271250Y-94773750D03*
D16*
X116681250Y-89693750D03*
X110331250Y-92233750D03*
D17*
X114141250Y-94773750D03*
D18*
X109061250Y-94773750D03*
X119221250Y-94773750D03*
D16*
X97631250Y-89693750D03*
X91281250Y-92233750D03*
D17*
X95091250Y-94773750D03*
D18*
X90011250Y-94773750D03*
X100171250Y-94773750D03*
D16*
X78581250Y-89693750D03*
X72231250Y-92233750D03*
D17*
X76041250Y-94773750D03*
D18*
X70961250Y-94773750D03*
X81121250Y-94773750D03*
D16*
X59531250Y-89693750D03*
X53181250Y-92233750D03*
D17*
X56991250Y-94773750D03*
D18*
X51911250Y-94773750D03*
X62071250Y-94773750D03*
D16*
X226218750Y-70643750D03*
X219868750Y-73183750D03*
D17*
X223678750Y-75723750D03*
D18*
X218598750Y-75723750D03*
X228758750Y-75723750D03*
D16*
X207168750Y-70643750D03*
X200818750Y-73183750D03*
D17*
X204628750Y-75723750D03*
D18*
X199548750Y-75723750D03*
X209708750Y-75723750D03*
D16*
X188118750Y-70643750D03*
X181768750Y-73183750D03*
D17*
X185578750Y-75723750D03*
D18*
X180498750Y-75723750D03*
X190658750Y-75723750D03*
D16*
X169068750Y-70643750D03*
X162718750Y-73183750D03*
D17*
X166528750Y-75723750D03*
D18*
X161448750Y-75723750D03*
X171608750Y-75723750D03*
D16*
X150018750Y-70643750D03*
X143668750Y-73183750D03*
D17*
X147478750Y-75723750D03*
D18*
X142398750Y-75723750D03*
X152558750Y-75723750D03*
D16*
X111918750Y-70643750D03*
X105568750Y-73183750D03*
D17*
X109378750Y-75723750D03*
D18*
X104298750Y-75723750D03*
X114458750Y-75723750D03*
D16*
X92868750Y-70643750D03*
X86518750Y-73183750D03*
D17*
X90328750Y-75723750D03*
D18*
X85248750Y-75723750D03*
X95408750Y-75723750D03*
D16*
X73818750Y-70643750D03*
X67468750Y-73183750D03*
D17*
X71278750Y-75723750D03*
D18*
X66198750Y-75723750D03*
X76358750Y-75723750D03*
D16*
X54768750Y-70643750D03*
X48418750Y-73183750D03*
D17*
X52228750Y-75723750D03*
D18*
X47148750Y-75723750D03*
X57308750Y-75723750D03*
D25*
X101892152Y-45446950D03*
X101892152Y-49946950D03*
X95392152Y-45446950D03*
X95392152Y-49946950D03*
D30*
X170846250Y-47987750D03*
D31*
X165766250Y-47987750D03*
D30*
X165766250Y-45497750D03*
D31*
X170846250Y-45497750D03*
D30*
X165766250Y-57947750D03*
D31*
X170846250Y-57947750D03*
D30*
X170846250Y-55457750D03*
D31*
X165766250Y-55457750D03*
D30*
X170846250Y-52967750D03*
D31*
X165766250Y-52967750D03*
D30*
X165766250Y-50477750D03*
D31*
X170846250Y-50477750D03*
D30*
X165766250Y-60437750D03*
D31*
X170846250Y-60437750D03*
D32*
X157295850Y-46704250D03*
D33*
X154755850Y-46704250D03*
D34*
X124200250Y-46272450D03*
D18*
X124200250Y-48812450D03*
X121660250Y-46272450D03*
X121660250Y-48812450D03*
X119120250Y-46272450D03*
X119120250Y-48812450D03*
D31*
X139160250Y-45551250D03*
X139160250Y-50651250D03*
D20*
X153028650Y-57677050D03*
D21*
X158108650Y-57677050D03*
D20*
X153041350Y-60445650D03*
D21*
X158121350Y-60445650D03*
D20*
X227087450Y-60026550D03*
D21*
X227087450Y-54946550D03*
D20*
X223587450Y-60026550D03*
D21*
X223587450Y-54946550D03*
D20*
X107420043Y-60026550D03*
D21*
X107420043Y-54946550D03*
D20*
X104036710Y-60026550D03*
D21*
X104036710Y-54946550D03*
D20*
X87120045Y-60026550D03*
D21*
X87120045Y-54946550D03*
D20*
X63436714Y-60026550D03*
D21*
X63436714Y-54946550D03*
D20*
X49903382Y-60026550D03*
D21*
X49903382Y-54946550D03*
D20*
X43136716Y-60026550D03*
D21*
X43136716Y-54946550D03*
D20*
X241087450Y-60026550D03*
D21*
X241087450Y-54946550D03*
D20*
X237587450Y-60026550D03*
D21*
X237587450Y-54946550D03*
D20*
X234087450Y-60026550D03*
D21*
X234087450Y-54946550D03*
D20*
X117570042Y-60026550D03*
D21*
X117570042Y-54946550D03*
D20*
X114186709Y-60026550D03*
D21*
X114186709Y-54946550D03*
D20*
X110803376Y-60026550D03*
D21*
X110803376Y-54946550D03*
D20*
X93886711Y-60026550D03*
D21*
X93886711Y-54946550D03*
D20*
X90503378Y-60026550D03*
D21*
X90503378Y-54946550D03*
D20*
X66820047Y-60026550D03*
D21*
X66820047Y-54946550D03*
D20*
X46520049Y-60026550D03*
D21*
X46520049Y-54946550D03*
D20*
X248087450Y-60026550D03*
D21*
X248087450Y-54946550D03*
D20*
X244587450Y-60026550D03*
D21*
X244587450Y-54946550D03*
D20*
X131103374Y-60026550D03*
D21*
X131103374Y-54946550D03*
D20*
X127720041Y-60026550D03*
D21*
X127720041Y-54946550D03*
D20*
X124336708Y-60026550D03*
D21*
X124336708Y-54946550D03*
D20*
X120953375Y-60026550D03*
D21*
X120953375Y-54946550D03*
D20*
X97270044Y-60026550D03*
D21*
X97270044Y-54946550D03*
D20*
X83736712Y-60026550D03*
D21*
X83736712Y-54946550D03*
D20*
X73586713Y-60026550D03*
D21*
X73586713Y-54946550D03*
D20*
X60053381Y-60026550D03*
D21*
X60053381Y-54946550D03*
D20*
X39753383Y-60026550D03*
D21*
X39753383Y-54946550D03*
D20*
X258587450Y-60026550D03*
D21*
X258587450Y-54946550D03*
D20*
X255087450Y-60026550D03*
D21*
X255087450Y-54946550D03*
D20*
X251587450Y-60026550D03*
D21*
X251587450Y-54946550D03*
D20*
X220087450Y-60026550D03*
D21*
X220087450Y-54946550D03*
D20*
X141253383Y-60026550D03*
D21*
X141253383Y-54946550D03*
D20*
X137870040Y-60026550D03*
D21*
X137870040Y-54946550D03*
D20*
X134486707Y-60026550D03*
D21*
X134486707Y-54946550D03*
D20*
X100653377Y-60026550D03*
D21*
X100653377Y-54946550D03*
D20*
X80353379Y-60026550D03*
D21*
X80353379Y-54946550D03*
D20*
X76970046Y-60026550D03*
D21*
X76970046Y-54946550D03*
D20*
X56670048Y-60026550D03*
D21*
X56670048Y-54946550D03*
D20*
X36370050Y-60026550D03*
D21*
X36370050Y-54946550D03*
M02*
