G04 #@! TF.GenerationSoftware,KiCad,Pcbnew,(5.1.10)-1*
G04 #@! TF.CreationDate,2021-08-26T14:34:39+02:00*
G04 #@! TF.ProjectId,romeo-bottom,726f6d65-6f2d-4626-9f74-746f6d2e6b69,rev?*
G04 #@! TF.SameCoordinates,Original*
G04 #@! TF.FileFunction,Legend,Bot*
G04 #@! TF.FilePolarity,Positive*
%FSLAX46Y46*%
G04 Gerber Fmt 4.6, Leading zero omitted, Abs format (unit mm)*
G04 Created by KiCad (PCBNEW (5.1.10)-1) date 2021-08-26 14:34:39*
%MOMM*%
%LPD*%
G01*
G04 APERTURE LIST*
%ADD10C,0.150000*%
G04 APERTURE END LIST*
D10*
X59619047Y-91452380D02*
X59619047Y-92166666D01*
X59666666Y-92309523D01*
X59761904Y-92404761D01*
X59904761Y-92452380D01*
X60000000Y-92452380D01*
X58666666Y-92452380D02*
X59142857Y-92452380D01*
X59142857Y-91452380D01*
X57761904Y-92357142D02*
X57809523Y-92404761D01*
X57952380Y-92452380D01*
X58047619Y-92452380D01*
X58190476Y-92404761D01*
X58285714Y-92309523D01*
X58333333Y-92214285D01*
X58380952Y-92023809D01*
X58380952Y-91880952D01*
X58333333Y-91690476D01*
X58285714Y-91595238D01*
X58190476Y-91500000D01*
X58047619Y-91452380D01*
X57952380Y-91452380D01*
X57809523Y-91500000D01*
X57761904Y-91547619D01*
X57047619Y-91452380D02*
X57047619Y-92166666D01*
X57095238Y-92309523D01*
X57190476Y-92404761D01*
X57333333Y-92452380D01*
X57428571Y-92452380D01*
X56095238Y-92452380D02*
X56571428Y-92452380D01*
X56571428Y-91452380D01*
X55190476Y-92357142D02*
X55238095Y-92404761D01*
X55380952Y-92452380D01*
X55476190Y-92452380D01*
X55619047Y-92404761D01*
X55714285Y-92309523D01*
X55761904Y-92214285D01*
X55809523Y-92023809D01*
X55809523Y-91880952D01*
X55761904Y-91690476D01*
X55714285Y-91595238D01*
X55619047Y-91500000D01*
X55476190Y-91452380D01*
X55380952Y-91452380D01*
X55238095Y-91500000D01*
X55190476Y-91547619D01*
X54476190Y-91452380D02*
X54476190Y-92166666D01*
X54523809Y-92309523D01*
X54619047Y-92404761D01*
X54761904Y-92452380D01*
X54857142Y-92452380D01*
X53523809Y-92452380D02*
X54000000Y-92452380D01*
X54000000Y-91452380D01*
X52619047Y-92357142D02*
X52666666Y-92404761D01*
X52809523Y-92452380D01*
X52904761Y-92452380D01*
X53047619Y-92404761D01*
X53142857Y-92309523D01*
X53190476Y-92214285D01*
X53238095Y-92023809D01*
X53238095Y-91880952D01*
X53190476Y-91690476D01*
X53142857Y-91595238D01*
X53047619Y-91500000D01*
X52904761Y-91452380D01*
X52809523Y-91452380D01*
X52666666Y-91500000D01*
X52619047Y-91547619D01*
X51904761Y-91452380D02*
X51904761Y-92166666D01*
X51952380Y-92309523D01*
X52047619Y-92404761D01*
X52190476Y-92452380D01*
X52285714Y-92452380D01*
X50952380Y-92452380D02*
X51428571Y-92452380D01*
X51428571Y-91452380D01*
X50047619Y-92357142D02*
X50095238Y-92404761D01*
X50238095Y-92452380D01*
X50333333Y-92452380D01*
X50476190Y-92404761D01*
X50571428Y-92309523D01*
X50619047Y-92214285D01*
X50666666Y-92023809D01*
X50666666Y-91880952D01*
X50619047Y-91690476D01*
X50571428Y-91595238D01*
X50476190Y-91500000D01*
X50333333Y-91452380D01*
X50238095Y-91452380D01*
X50095238Y-91500000D01*
X50047619Y-91547619D01*
M02*
