%TF.GenerationSoftware,KiCad,Pcbnew,(5.1.9)-1*%
%TF.CreationDate,2021-08-16T00:46:57+02:00*%
%TF.ProjectId,switch_plate,73776974-6368-45f7-906c-6174652e6b69,rev?*%
%TF.SameCoordinates,Original*%
%TF.FileFunction,Profile,NP*%
%FSLAX46Y46*%
G04 Gerber Fmt 4.6, Leading zero omitted, Abs format (unit mm)*
G04 Created by KiCad (PCBNEW (5.1.9)-1) date 2021-08-16 00:46:57*
%MOMM*%
%LPD*%
G01*
G04 APERTURE LIST*
%TA.AperFunction,Profile*%
%ADD10C,0.200000*%
%TD*%
G04 APERTURE END LIST*
D10*
X92150000Y-130220000D02*
G75*
G02*
X91650000Y-130720000I-500000J0D01*
G01*
X136771750Y-128730000D02*
X130771750Y-128730000D01*
X130271750Y-129230000D02*
G75*
G02*
X130771750Y-128730000I500000J0D01*
G01*
X130271750Y-143230000D02*
X130271750Y-129230000D01*
X178396750Y-143730000D02*
G75*
G02*
X177896750Y-143230000I0J500000D01*
G01*
X113395750Y-143230000D02*
X113395750Y-129230000D01*
X184396750Y-128730000D02*
G75*
G02*
X184896750Y-129230000I0J-500000D01*
G01*
X184896750Y-143230000D02*
G75*
G02*
X184396750Y-143730000I-500000J0D01*
G01*
X177896750Y-143230000D02*
X177896750Y-129230000D01*
X136771750Y-128730000D02*
G75*
G02*
X137271750Y-129230000I0J-500000D01*
G01*
X184896750Y-143230000D02*
X184896750Y-129230000D01*
X192146250Y-129230000D02*
G75*
G02*
X192646250Y-128730000I500000J0D01*
G01*
X184396750Y-128730000D02*
X178396750Y-128730000D01*
X192646250Y-143730000D02*
G75*
G02*
X192146250Y-143230000I0J500000D01*
G01*
X113395750Y-143230000D02*
G75*
G02*
X112895750Y-143730000I-500000J0D01*
G01*
X161020750Y-143230000D02*
X161020750Y-129230000D01*
X106395750Y-143230000D02*
X106395750Y-129230000D01*
X154020750Y-129230000D02*
G75*
G02*
X154520750Y-128730000I500000J0D01*
G01*
X106895750Y-143730000D02*
G75*
G02*
X106395750Y-143230000I0J500000D01*
G01*
X160520750Y-143730000D02*
X154520750Y-143730000D01*
X160520750Y-128730000D02*
X154520750Y-128730000D01*
X112895750Y-128730000D02*
X106895750Y-128730000D01*
X136771750Y-143730000D02*
X130771750Y-143730000D01*
X161020750Y-143230000D02*
G75*
G02*
X160520750Y-143730000I-500000J0D01*
G01*
X154020750Y-143230000D02*
X154020750Y-129230000D01*
X198646250Y-128730000D02*
X192646250Y-128730000D01*
X112895750Y-128730000D02*
G75*
G02*
X113395750Y-129230000I0J-500000D01*
G01*
X130771750Y-143730000D02*
G75*
G02*
X130271750Y-143230000I0J500000D01*
G01*
X137271750Y-143230000D02*
X137271750Y-129230000D01*
X198646250Y-128730000D02*
G75*
G02*
X199146250Y-129230000I0J-500000D01*
G01*
X199146250Y-143230000D02*
X199146250Y-129230000D01*
X106395750Y-129230000D02*
G75*
G02*
X106895750Y-128730000I500000J0D01*
G01*
X192146250Y-143230000D02*
X192146250Y-129230000D01*
X184396750Y-143730000D02*
X178396750Y-143730000D01*
X177896750Y-129230000D02*
G75*
G02*
X178396750Y-128730000I500000J0D01*
G01*
X154520750Y-143730000D02*
G75*
G02*
X154020750Y-143230000I0J500000D01*
G01*
X137271750Y-143230000D02*
G75*
G02*
X136771750Y-143730000I-500000J0D01*
G01*
X112895750Y-143730000D02*
X106895750Y-143730000D01*
X199146250Y-143230000D02*
G75*
G02*
X198646250Y-143730000I-500000J0D01*
G01*
X160520750Y-128730000D02*
G75*
G02*
X161020750Y-129230000I0J-500000D01*
G01*
X92146250Y-129230000D02*
G75*
G02*
X92646250Y-128730000I500000J0D01*
G01*
X98646250Y-143730000D02*
X93150000Y-143730000D01*
X98646250Y-128730000D02*
X92646250Y-128730000D01*
X98646250Y-128730000D02*
G75*
G02*
X99146250Y-129230000I0J-500000D01*
G01*
X99146250Y-143230000D02*
X99146250Y-129230000D01*
X92650000Y-144230000D02*
G75*
G02*
X93150000Y-143730000I500000J0D01*
G01*
X99146250Y-143230000D02*
G75*
G02*
X98646250Y-143730000I-500000J0D01*
G01*
X92150000Y-130220000D02*
X92146250Y-129230000D01*
X92650039Y-144230000D02*
G75*
G02*
X92143750Y-144730000I-500039J0D01*
G01*
X198646250Y-143730000D02*
X192646250Y-143730000D01*
X271843749Y-143938691D02*
G75*
G02*
X268539690Y-147248750I-3307059J-3000D01*
G01*
X27503809Y-147250809D02*
G75*
G02*
X24193750Y-143946750I-3000J3307059D01*
G01*
X268533691Y-71048751D02*
G75*
G02*
X271843750Y-74352810I3000J-3307059D01*
G01*
X24193751Y-74358809D02*
G75*
G02*
X27497810Y-71048750I3307059J3000D01*
G01*
X24193751Y-74358809D02*
X24193750Y-143946750D01*
X271843749Y-143938691D02*
X271843750Y-74352810D01*
X27503809Y-147250809D02*
X268539690Y-147248750D01*
X27497810Y-71048750D02*
X268533691Y-71048751D01*
X69300000Y-144222949D02*
X69587500Y-144222949D01*
X69300000Y-131222949D02*
X69587500Y-131222949D01*
X103425000Y-87572948D02*
X116425000Y-87572948D01*
X78825000Y-87072948D02*
G75*
G02*
X78325000Y-87572948I-500000J0D01*
G01*
X103425000Y-87572948D02*
G75*
G02*
X102925000Y-87072948I0J500000D01*
G01*
X103425000Y-73572949D02*
X116425000Y-73572949D01*
X83875000Y-74072949D02*
X83875000Y-87072948D01*
X102925000Y-74072949D02*
G75*
G02*
X103425000Y-73572949I500000J0D01*
G01*
X97375000Y-73572949D02*
G75*
G02*
X97875000Y-74072949I0J-500000D01*
G01*
X97875000Y-74072949D02*
X97875000Y-87072948D01*
X97875000Y-87072948D02*
G75*
G02*
X97375000Y-87572948I-500000J0D01*
G01*
X84375000Y-87572948D02*
G75*
G02*
X83875000Y-87072948I0J500000D01*
G01*
X121975000Y-74072949D02*
G75*
G02*
X122475000Y-73572949I500000J0D01*
G01*
X135975000Y-74072949D02*
X135975000Y-87072948D01*
X121975000Y-74072949D02*
X121975000Y-87072948D01*
X122475000Y-87572948D02*
X135475000Y-87572948D01*
X116925000Y-87072948D02*
G75*
G02*
X116425000Y-87572948I-500000J0D01*
G01*
X84375000Y-73572949D02*
X97375000Y-73572949D01*
X122475000Y-73572949D02*
X135475000Y-73572949D01*
X116925000Y-74072949D02*
X116925000Y-87072948D01*
X102925000Y-74072949D02*
X102925000Y-87072948D01*
X83875000Y-74072949D02*
G75*
G02*
X84375000Y-73572949I500000J0D01*
G01*
X116425000Y-73572949D02*
G75*
G02*
X116925000Y-74072949I0J-500000D01*
G01*
X84375000Y-87572948D02*
X97375000Y-87572948D01*
X65325000Y-87572948D02*
G75*
G02*
X64825000Y-87072948I0J500000D01*
G01*
X221987500Y-93122949D02*
X221987500Y-106122949D01*
X248681250Y-92622949D02*
X261681250Y-92622949D01*
X184387500Y-92622949D02*
X197387500Y-92622949D01*
X203437500Y-92622949D02*
X216437500Y-92622949D01*
X165337500Y-106622949D02*
X178337500Y-106622949D01*
X222487500Y-92622949D02*
X235487500Y-92622949D01*
X235987500Y-106122949D02*
G75*
G02*
X235487500Y-106622949I-500000J0D01*
G01*
X184387500Y-106622949D02*
G75*
G02*
X183887500Y-106122949I0J500000D01*
G01*
X203437500Y-106622949D02*
G75*
G02*
X202937500Y-106122949I0J500000D01*
G01*
X202937500Y-93122949D02*
X202937500Y-106122949D01*
X261681250Y-92622949D02*
G75*
G02*
X262181250Y-93122949I0J-500000D01*
G01*
X159787500Y-106122949D02*
G75*
G02*
X159287500Y-106622949I-500000J0D01*
G01*
X235987500Y-93122949D02*
X235987500Y-106122949D01*
X222487500Y-106622949D02*
G75*
G02*
X221987500Y-106122949I0J500000D01*
G01*
X216437500Y-92622949D02*
G75*
G02*
X216937500Y-93122949I0J-500000D01*
G01*
X178337500Y-92622949D02*
G75*
G02*
X178837500Y-93122949I0J-500000D01*
G01*
X203437500Y-106622949D02*
X216437500Y-106622949D01*
X235487500Y-92622949D02*
G75*
G02*
X235987500Y-93122949I0J-500000D01*
G01*
X222487500Y-106622949D02*
X235487500Y-106622949D01*
X164837500Y-93122949D02*
X164837500Y-106122949D01*
X262181250Y-93122949D02*
X262181250Y-106122949D01*
X221987500Y-93122949D02*
G75*
G02*
X222487500Y-92622949I500000J0D01*
G01*
X202937500Y-93122949D02*
G75*
G02*
X203437500Y-92622949I500000J0D01*
G01*
X183887500Y-93122949D02*
G75*
G02*
X184387500Y-92622949I500000J0D01*
G01*
X248181250Y-93122949D02*
G75*
G02*
X248681250Y-92622949I500000J0D01*
G01*
X248181250Y-93122949D02*
X248181250Y-106122949D01*
X216937500Y-93122949D02*
X216937500Y-106122949D01*
X184387500Y-106622949D02*
X197387500Y-106622949D01*
X165337500Y-106622949D02*
G75*
G02*
X164837500Y-106122949I0J500000D01*
G01*
X33868750Y-112172949D02*
G75*
G02*
X34368750Y-111672949I500000J0D01*
G01*
X197887500Y-106122949D02*
G75*
G02*
X197387500Y-106622949I-500000J0D01*
G01*
X197887500Y-93122949D02*
X197887500Y-106122949D01*
X248681250Y-106622949D02*
X261681250Y-106622949D01*
X47868750Y-112172949D02*
X47868750Y-125172949D01*
X33868750Y-112172949D02*
X33868750Y-125172949D01*
X178837500Y-106122949D02*
G75*
G02*
X178337500Y-106622949I-500000J0D01*
G01*
X34368750Y-125672949D02*
X47368750Y-125672949D01*
X183887500Y-93122949D02*
X183887500Y-106122949D01*
X34368750Y-111672949D02*
X47368750Y-111672949D01*
X178837500Y-93122949D02*
X178837500Y-106122949D01*
X262181250Y-106122949D02*
G75*
G02*
X261681250Y-106622949I-500000J0D01*
G01*
X216937500Y-106122949D02*
G75*
G02*
X216437500Y-106622949I-500000J0D01*
G01*
X197387500Y-92622949D02*
G75*
G02*
X197887500Y-93122949I0J-500000D01*
G01*
X165337500Y-92622949D02*
X178337500Y-92622949D01*
X164837500Y-93122949D02*
G75*
G02*
X165337500Y-92622949I500000J0D01*
G01*
X248681250Y-106622949D02*
G75*
G02*
X248181250Y-106122949I0J500000D01*
G01*
X203437500Y-144722949D02*
G75*
G02*
X202937500Y-144222949I0J500000D01*
G01*
X203437500Y-130722949D02*
X223581250Y-130722949D01*
X223581250Y-130722949D02*
G75*
G02*
X224081250Y-131222949I0J-500000D01*
G01*
X202937500Y-131222949D02*
G75*
G02*
X203437500Y-130722949I500000J0D01*
G01*
X226750000Y-131222949D02*
X226750000Y-144222949D01*
X227250000Y-144722949D02*
X245012500Y-144722949D01*
X227250000Y-130722949D02*
X245012500Y-130722949D01*
X224081250Y-144222949D02*
G75*
G02*
X223581250Y-144722949I-500000J0D01*
G01*
X224081250Y-131222949D02*
X224081250Y-144222949D01*
X203437500Y-144722949D02*
X223581250Y-144722949D01*
X202937500Y-131222949D02*
X202937500Y-144222949D01*
X115331250Y-144722949D02*
G75*
G02*
X114831250Y-144222949I0J500000D01*
G01*
X162956250Y-144722949D02*
X175956250Y-144722949D01*
X162956250Y-130722949D02*
X175956250Y-130722949D01*
X176456250Y-144222949D02*
G75*
G02*
X175956250Y-144722949I-500000J0D01*
G01*
X128831250Y-131222949D02*
X128831250Y-144222949D01*
X128831250Y-144222949D02*
G75*
G02*
X128331250Y-144722949I-500000J0D01*
G01*
X175956250Y-130722949D02*
G75*
G02*
X176456250Y-131222949I0J-500000D01*
G01*
X162456250Y-131222949D02*
G75*
G02*
X162956250Y-130722949I500000J0D01*
G01*
X152143750Y-130722949D02*
G75*
G02*
X152643750Y-131222949I0J-500000D01*
G01*
X152643750Y-131222949D02*
X152643750Y-144222949D01*
X138643750Y-131222949D02*
G75*
G02*
X139143750Y-130722949I500000J0D01*
G01*
X139143750Y-144722949D02*
X152143750Y-144722949D01*
X115331250Y-130722949D02*
X128331250Y-130722949D01*
X162956250Y-144722949D02*
G75*
G02*
X162456250Y-144222949I0J500000D01*
G01*
X176456250Y-131222949D02*
X176456250Y-144222949D01*
X162456250Y-131222949D02*
X162456250Y-144222949D01*
X114831250Y-131222949D02*
X114831250Y-144222949D01*
X115331250Y-144722949D02*
X128331250Y-144722949D01*
X114831250Y-131222949D02*
G75*
G02*
X115331250Y-130722949I500000J0D01*
G01*
X139143750Y-144722949D02*
G75*
G02*
X138643750Y-144222949I0J500000D01*
G01*
X152643750Y-144222949D02*
G75*
G02*
X152143750Y-144722949I-500000J0D01*
G01*
X128331250Y-130722949D02*
G75*
G02*
X128831250Y-131222949I0J-500000D01*
G01*
X139143750Y-130722949D02*
X152143750Y-130722949D01*
X138643750Y-131222949D02*
X138643750Y-144222949D01*
X250562500Y-131222949D02*
G75*
G02*
X251062500Y-130722949I500000J0D01*
G01*
X251062500Y-144722949D02*
X266443750Y-144722949D01*
X227250000Y-144722949D02*
G75*
G02*
X226750000Y-144222949I0J500000D01*
G01*
X245012500Y-130722949D02*
G75*
G02*
X245512500Y-131222949I0J-500000D01*
G01*
X266443750Y-130722949D02*
G75*
G02*
X266943750Y-131222949I0J-500000D01*
G01*
X251062500Y-144722949D02*
G75*
G02*
X250562500Y-144222949I0J500000D01*
G01*
X226750000Y-131222949D02*
G75*
G02*
X227250000Y-130722949I500000J0D01*
G01*
X251062500Y-130722949D02*
X266443750Y-130722949D01*
X266943750Y-131222949D02*
X266943750Y-144222949D01*
X250562500Y-131222949D02*
X250562500Y-144222949D01*
X245512500Y-144222949D02*
G75*
G02*
X245012500Y-144722949I-500000J0D01*
G01*
X245512500Y-131222949D02*
X245512500Y-144222949D01*
X266943750Y-144222949D02*
G75*
G02*
X266443750Y-144722949I-500000J0D01*
G01*
X51037500Y-144722949D02*
X68800000Y-144722949D01*
X29106250Y-131222949D02*
X29106250Y-144222949D01*
X50537500Y-131222949D02*
G75*
G02*
X51037500Y-130722949I500000J0D01*
G01*
X45487500Y-144222949D02*
G75*
G02*
X44987500Y-144722949I-500000J0D01*
G01*
X50537500Y-131222949D02*
X50537500Y-144222949D01*
X44987500Y-130722949D02*
G75*
G02*
X45487500Y-131222949I0J-500000D01*
G01*
X68800000Y-130722949D02*
G75*
G02*
X69300000Y-131222949I0J-500000D01*
G01*
X29606250Y-144722949D02*
X44987500Y-144722949D01*
X51037500Y-130722949D02*
X68800000Y-130722949D01*
X69587500Y-131222949D02*
G75*
G02*
X70087500Y-130722949I500000J0D01*
G01*
X51037500Y-144722949D02*
G75*
G02*
X50537500Y-144222949I0J500000D01*
G01*
X29106250Y-131222949D02*
G75*
G02*
X29606250Y-130722949I500000J0D01*
G01*
X45487500Y-131222949D02*
X45487500Y-144222949D01*
X70087500Y-144722949D02*
G75*
G02*
X69587500Y-144222949I0J500000D01*
G01*
X69300000Y-144222949D02*
G75*
G02*
X68800000Y-144722949I-500000J0D01*
G01*
X70087500Y-144722949D02*
X92143750Y-144730000D01*
X70087500Y-130722949D02*
X91650000Y-130720000D01*
X29606250Y-130722949D02*
X44987500Y-130722949D01*
X29606250Y-144722949D02*
G75*
G02*
X29106250Y-144222949I0J500000D01*
G01*
X83587500Y-106122949D02*
G75*
G02*
X83087500Y-106622949I-500000J0D01*
G01*
X50537500Y-93122949D02*
G75*
G02*
X51037500Y-92622949I500000J0D01*
G01*
X64537500Y-93122949D02*
X64537500Y-106122949D01*
X88637500Y-93122949D02*
X88637500Y-106122949D01*
X70087500Y-106622949D02*
G75*
G02*
X69587500Y-106122949I0J500000D01*
G01*
X69587500Y-93122949D02*
X69587500Y-106122949D01*
X64537500Y-106122949D02*
G75*
G02*
X64037500Y-106622949I-500000J0D01*
G01*
X51037500Y-106622949D02*
G75*
G02*
X50537500Y-106122949I0J500000D01*
G01*
X50537500Y-93122949D02*
X50537500Y-106122949D01*
X51037500Y-106622949D02*
X64037500Y-106622949D01*
X83087500Y-92622949D02*
G75*
G02*
X83587500Y-93122949I0J-500000D01*
G01*
X70087500Y-106622949D02*
X83087500Y-106622949D01*
X102637500Y-106122949D02*
G75*
G02*
X102137500Y-106622949I-500000J0D01*
G01*
X89137500Y-106622949D02*
G75*
G02*
X88637500Y-106122949I0J500000D01*
G01*
X64037500Y-92622949D02*
G75*
G02*
X64537500Y-93122949I0J-500000D01*
G01*
X89137500Y-92622949D02*
X102137500Y-92622949D01*
X69587500Y-93122949D02*
G75*
G02*
X70087500Y-92622949I500000J0D01*
G01*
X102137500Y-92622949D02*
G75*
G02*
X102637500Y-93122949I0J-500000D01*
G01*
X89137500Y-106622949D02*
X102137500Y-106622949D01*
X88637500Y-93122949D02*
G75*
G02*
X89137500Y-92622949I500000J0D01*
G01*
X83587500Y-93122949D02*
X83587500Y-106122949D01*
X70087500Y-92622949D02*
X83087500Y-92622949D01*
X102637500Y-93122949D02*
X102637500Y-106122949D01*
X236775000Y-87572948D02*
G75*
G02*
X236275000Y-87072948I0J500000D01*
G01*
X43106250Y-93122949D02*
X43106250Y-106122949D01*
X29606250Y-106622949D02*
G75*
G02*
X29106250Y-106122949I0J500000D01*
G01*
X29106250Y-93122949D02*
G75*
G02*
X29606250Y-92622949I500000J0D01*
G01*
X29106250Y-93122949D02*
X29106250Y-106122949D01*
X29606250Y-92622949D02*
X42606250Y-92622949D01*
X29606250Y-106622949D02*
X42606250Y-106622949D01*
X268825000Y-73572949D02*
G75*
G02*
X269325000Y-74072949I0J-500000D01*
G01*
X269325000Y-87072948D02*
G75*
G02*
X268825000Y-87572948I-500000J0D01*
G01*
X236775000Y-73572949D02*
X268825000Y-73572949D01*
X42606250Y-92622949D02*
G75*
G02*
X43106250Y-93122949I0J-500000D01*
G01*
X268238000Y-87570000D02*
X268825000Y-87572948D01*
X236275000Y-74072949D02*
G75*
G02*
X236775000Y-73572949I500000J0D01*
G01*
X236275000Y-74072949D02*
X236275000Y-87072948D01*
X51037500Y-92622949D02*
X64037500Y-92622949D01*
X43106250Y-106122949D02*
G75*
G02*
X42606250Y-106622949I-500000J0D01*
G01*
X269325000Y-74072949D02*
X269325000Y-87072948D01*
X237862000Y-89572949D02*
G75*
G02*
X237362000Y-89072949I0J500000D01*
G01*
X244360000Y-87580000D02*
X244362000Y-89072949D01*
X237362000Y-87570000D02*
X237362000Y-89072949D01*
X237862000Y-89572949D02*
X243862000Y-89572949D01*
X261738000Y-89572949D02*
X267738000Y-89572949D01*
X261240000Y-87572948D02*
X261238000Y-89072949D01*
X268238000Y-89072949D02*
G75*
G02*
X267738000Y-89572949I-500000J0D01*
G01*
X268238000Y-87570000D02*
X268238000Y-89072949D01*
X261738000Y-89572949D02*
G75*
G02*
X261238000Y-89072949I0J500000D01*
G01*
X236775000Y-87572948D02*
X237362000Y-87570000D01*
X244362000Y-89072949D02*
G75*
G02*
X243862000Y-89572949I-500000J0D01*
G01*
X231225000Y-87072948D02*
G75*
G02*
X230725000Y-87572948I-500000J0D01*
G01*
X198675000Y-73572949D02*
X211675000Y-73572949D01*
X217725000Y-87572948D02*
G75*
G02*
X217225000Y-87072948I0J500000D01*
G01*
X217725000Y-73572949D02*
X230725000Y-73572949D01*
X217225000Y-74072949D02*
G75*
G02*
X217725000Y-73572949I500000J0D01*
G01*
X217725000Y-87572948D02*
X230725000Y-87572948D01*
X212175000Y-87072948D02*
G75*
G02*
X211675000Y-87572948I-500000J0D01*
G01*
X211675000Y-73572949D02*
G75*
G02*
X212175000Y-74072949I0J-500000D01*
G01*
X198675000Y-87572948D02*
G75*
G02*
X198175000Y-87072948I0J500000D01*
G01*
X179125000Y-74072949D02*
G75*
G02*
X179625000Y-73572949I500000J0D01*
G01*
X198175000Y-74072949D02*
G75*
G02*
X198675000Y-73572949I500000J0D01*
G01*
X212175000Y-74072949D02*
X212175000Y-87072948D01*
X198175000Y-74072949D02*
X198175000Y-87072948D01*
X192625000Y-73572949D02*
G75*
G02*
X193125000Y-74072949I0J-500000D01*
G01*
X193125000Y-87072948D02*
G75*
G02*
X192625000Y-87572948I-500000J0D01*
G01*
X244360000Y-87580000D02*
X261240000Y-87572948D01*
X198675000Y-87572948D02*
X211675000Y-87572948D01*
X217225000Y-74072949D02*
X217225000Y-87072948D01*
X231225000Y-74072949D02*
X231225000Y-87072948D01*
X179625000Y-87572948D02*
G75*
G02*
X179125000Y-87072948I0J500000D01*
G01*
X230725000Y-73572949D02*
G75*
G02*
X231225000Y-74072949I0J-500000D01*
G01*
X160075000Y-74072949D02*
G75*
G02*
X160575000Y-73572949I500000J0D01*
G01*
X174075000Y-74072949D02*
X174075000Y-87072948D01*
X160575000Y-87572948D02*
X173575000Y-87572948D01*
X155024999Y-87072948D02*
G75*
G02*
X154524999Y-87572948I-500000J0D01*
G01*
X141525000Y-87572948D02*
G75*
G02*
X141025000Y-87072948I0J500000D01*
G01*
X154524999Y-73572949D02*
G75*
G02*
X155024999Y-74072949I0J-500000D01*
G01*
X122475000Y-87572948D02*
G75*
G02*
X121975000Y-87072948I0J500000D01*
G01*
X135975000Y-87072948D02*
G75*
G02*
X135475000Y-87572948I-500000J0D01*
G01*
X141025000Y-74072949D02*
G75*
G02*
X141525000Y-73572949I500000J0D01*
G01*
X135475000Y-73572949D02*
G75*
G02*
X135975000Y-74072949I0J-500000D01*
G01*
X141525000Y-73572949D02*
X154524999Y-73572949D01*
X193125000Y-74072949D02*
X193125000Y-87072948D01*
X179125000Y-74072949D02*
X179125000Y-87072948D01*
X174075000Y-87072948D02*
G75*
G02*
X173575000Y-87572948I-500000J0D01*
G01*
X160575000Y-73572949D02*
X173575000Y-73572949D01*
X160575000Y-87572948D02*
G75*
G02*
X160075000Y-87072948I0J500000D01*
G01*
X155024999Y-74072949D02*
X155024999Y-87072948D01*
X141025000Y-74072949D02*
X141025000Y-87072948D01*
X160075000Y-74072949D02*
X160075000Y-87072948D01*
X141525000Y-87572948D02*
X154524999Y-87572948D01*
X179625000Y-87572948D02*
X192625000Y-87572948D01*
X173575000Y-73572949D02*
G75*
G02*
X174075000Y-74072949I0J-500000D01*
G01*
X179625000Y-73572949D02*
X192625000Y-73572949D01*
X78825000Y-74072949D02*
X78825000Y-87072948D01*
X59275000Y-73572949D02*
G75*
G02*
X59775000Y-74072949I0J-500000D01*
G01*
X40224999Y-73572949D02*
G75*
G02*
X40724999Y-74072949I0J-500000D01*
G01*
X64825000Y-74072949D02*
X64825000Y-87072948D01*
X45775000Y-74072949D02*
X45775000Y-87072948D01*
X65325000Y-87572948D02*
X78325000Y-87572948D01*
X46275000Y-87572948D02*
G75*
G02*
X45775000Y-87072948I0J500000D01*
G01*
X27225000Y-87572948D02*
X40224999Y-87572948D01*
X46275000Y-87572948D02*
X59275000Y-87572948D01*
X26725000Y-74072949D02*
X26725000Y-87072948D01*
X27225000Y-87572948D02*
G75*
G02*
X26725000Y-87072948I0J500000D01*
G01*
X59775000Y-87072948D02*
G75*
G02*
X59275000Y-87572948I-500000J0D01*
G01*
X40724999Y-87072948D02*
G75*
G02*
X40224999Y-87572948I-500000J0D01*
G01*
X78325000Y-73572949D02*
G75*
G02*
X78825000Y-74072949I0J-500000D01*
G01*
X64825000Y-74072949D02*
G75*
G02*
X65325000Y-73572949I500000J0D01*
G01*
X46275000Y-73572949D02*
X59275000Y-73572949D01*
X65325000Y-73572949D02*
X78325000Y-73572949D01*
X40724999Y-74072949D02*
X40724999Y-87072948D01*
X59775000Y-74072949D02*
X59775000Y-87072948D01*
X26725000Y-74072949D02*
G75*
G02*
X27225000Y-73572949I500000J0D01*
G01*
X27225000Y-73572949D02*
X40224999Y-73572949D01*
X45775000Y-74072949D02*
G75*
G02*
X46275000Y-73572949I500000J0D01*
G01*
X245512500Y-112172949D02*
X245512500Y-125172949D01*
X226462500Y-125172949D02*
G75*
G02*
X225962500Y-125672949I-500000J0D01*
G01*
X206912500Y-111672949D02*
G75*
G02*
X207412500Y-112172949I0J-500000D01*
G01*
X174362500Y-112172949D02*
G75*
G02*
X174862500Y-111672949I500000J0D01*
G01*
X188362500Y-112172949D02*
X188362500Y-125172949D01*
X155812500Y-125672949D02*
G75*
G02*
X155312500Y-125172949I0J500000D01*
G01*
X174862500Y-125672949D02*
X187862500Y-125672949D01*
X253443750Y-125672949D02*
X266443750Y-125672949D01*
X212962500Y-125672949D02*
G75*
G02*
X212462500Y-125172949I0J500000D01*
G01*
X207412500Y-112172949D02*
X207412500Y-125172949D01*
X212962500Y-111672949D02*
X225962500Y-111672949D01*
X188362500Y-125172949D02*
G75*
G02*
X187862500Y-125672949I-500000J0D01*
G01*
X232012500Y-125672949D02*
G75*
G02*
X231512500Y-125172949I0J500000D01*
G01*
X231512500Y-112172949D02*
X231512500Y-125172949D01*
X226462500Y-112172949D02*
X226462500Y-125172949D01*
X193912500Y-111672949D02*
X206912500Y-111672949D01*
X245512500Y-125172949D02*
G75*
G02*
X245012500Y-125672949I-500000J0D01*
G01*
X212962500Y-125672949D02*
X225962500Y-125672949D01*
X253443750Y-111672949D02*
X266443750Y-111672949D01*
X225962500Y-111672949D02*
G75*
G02*
X226462500Y-112172949I0J-500000D01*
G01*
X155312500Y-112172949D02*
G75*
G02*
X155812500Y-111672949I500000J0D01*
G01*
X212462500Y-112172949D02*
G75*
G02*
X212962500Y-111672949I500000J0D01*
G01*
X253443750Y-125672949D02*
G75*
G02*
X252943750Y-125172949I0J500000D01*
G01*
X266443750Y-111672949D02*
G75*
G02*
X266943750Y-112172949I0J-500000D01*
G01*
X193912500Y-125672949D02*
X206912500Y-125672949D01*
X168812500Y-111672949D02*
G75*
G02*
X169312500Y-112172949I0J-500000D01*
G01*
X174862500Y-125672949D02*
G75*
G02*
X174362500Y-125172949I0J500000D01*
G01*
X174862500Y-111672949D02*
X187862500Y-111672949D01*
X266943750Y-125172949D02*
G75*
G02*
X266443750Y-125672949I-500000J0D01*
G01*
X252943750Y-112172949D02*
G75*
G02*
X253443750Y-111672949I500000J0D01*
G01*
X187862500Y-111672949D02*
G75*
G02*
X188362500Y-112172949I0J-500000D01*
G01*
X193912500Y-125672949D02*
G75*
G02*
X193412500Y-125172949I0J500000D01*
G01*
X266943750Y-112172949D02*
X266943750Y-125172949D01*
X245012500Y-111672949D02*
G75*
G02*
X245512500Y-112172949I0J-500000D01*
G01*
X174362500Y-112172949D02*
X174362500Y-125172949D01*
X231512500Y-112172949D02*
G75*
G02*
X232012500Y-111672949I500000J0D01*
G01*
X169312500Y-125172949D02*
G75*
G02*
X168812500Y-125672949I-500000J0D01*
G01*
X232012500Y-111672949D02*
X245012500Y-111672949D01*
X193412500Y-112172949D02*
X193412500Y-125172949D01*
X169312500Y-112172949D02*
X169312500Y-125172949D01*
X232012500Y-125672949D02*
X245012500Y-125672949D01*
X212462500Y-112172949D02*
X212462500Y-125172949D01*
X207412500Y-125172949D02*
G75*
G02*
X206912500Y-125672949I-500000J0D01*
G01*
X252943750Y-112172949D02*
X252943750Y-125172949D01*
X193412500Y-112172949D02*
G75*
G02*
X193912500Y-111672949I500000J0D01*
G01*
X79112500Y-112172949D02*
G75*
G02*
X79612500Y-111672949I500000J0D01*
G01*
X112162500Y-112172949D02*
X112162500Y-125172949D01*
X60562500Y-125672949D02*
X73562500Y-125672949D01*
X117712500Y-125672949D02*
G75*
G02*
X117212500Y-125172949I0J500000D01*
G01*
X117712500Y-111672949D02*
X130712500Y-111672949D01*
X98662500Y-125672949D02*
G75*
G02*
X98162500Y-125172949I0J500000D01*
G01*
X111662500Y-111672949D02*
G75*
G02*
X112162500Y-112172949I0J-500000D01*
G01*
X98162500Y-112172949D02*
G75*
G02*
X98662500Y-111672949I500000J0D01*
G01*
X93112500Y-112172949D02*
X93112500Y-125172949D01*
X47368750Y-111672949D02*
G75*
G02*
X47868750Y-112172949I0J-500000D01*
G01*
X98662500Y-125672949D02*
X111662500Y-125672949D01*
X93112500Y-125172949D02*
G75*
G02*
X92612500Y-125672949I-500000J0D01*
G01*
X60062500Y-112172949D02*
G75*
G02*
X60562500Y-111672949I500000J0D01*
G01*
X98662500Y-111672949D02*
X111662500Y-111672949D01*
X74062500Y-112172949D02*
X74062500Y-125172949D01*
X117212500Y-112172949D02*
G75*
G02*
X117712500Y-111672949I500000J0D01*
G01*
X117212500Y-112172949D02*
X117212500Y-125172949D01*
X74062500Y-125172949D02*
G75*
G02*
X73562500Y-125672949I-500000J0D01*
G01*
X155312500Y-112172949D02*
X155312500Y-125172949D01*
X149762500Y-111672949D02*
G75*
G02*
X150262500Y-112172949I0J-500000D01*
G01*
X155812500Y-125672949D02*
X168812500Y-125672949D01*
X79112500Y-112172949D02*
X79112500Y-125172949D01*
X60562500Y-125672949D02*
G75*
G02*
X60062500Y-125172949I0J500000D01*
G01*
X155812500Y-111672949D02*
X168812500Y-111672949D01*
X136762500Y-125672949D02*
G75*
G02*
X136262500Y-125172949I0J500000D01*
G01*
X136762500Y-125672949D02*
X149762500Y-125672949D01*
X98162500Y-112172949D02*
X98162500Y-125172949D01*
X136262500Y-112172949D02*
G75*
G02*
X136762500Y-111672949I500000J0D01*
G01*
X60062500Y-112172949D02*
X60062500Y-125172949D01*
X136262500Y-112172949D02*
X136262500Y-125172949D01*
X136762500Y-111672949D02*
X149762500Y-111672949D01*
X131212500Y-125172949D02*
G75*
G02*
X130712500Y-125672949I-500000J0D01*
G01*
X79612500Y-125672949D02*
X92612500Y-125672949D01*
X92612500Y-111672949D02*
G75*
G02*
X93112500Y-112172949I0J-500000D01*
G01*
X112162500Y-125172949D02*
G75*
G02*
X111662500Y-125672949I-500000J0D01*
G01*
X130712500Y-111672949D02*
G75*
G02*
X131212500Y-112172949I0J-500000D01*
G01*
X131212500Y-112172949D02*
X131212500Y-125172949D01*
X79612500Y-125672949D02*
G75*
G02*
X79112500Y-125172949I0J500000D01*
G01*
X117712500Y-125672949D02*
X130712500Y-125672949D01*
X47868750Y-125172949D02*
G75*
G02*
X47368750Y-125672949I-500000J0D01*
G01*
X79612500Y-111672949D02*
X92612500Y-111672949D01*
X60562500Y-111672949D02*
X73562500Y-111672949D01*
X73562500Y-111672949D02*
G75*
G02*
X74062500Y-112172949I0J-500000D01*
G01*
X34368750Y-125672949D02*
G75*
G02*
X33868750Y-125172949I0J500000D01*
G01*
X150262500Y-125172949D02*
G75*
G02*
X149762500Y-125672949I-500000J0D01*
G01*
X150262500Y-112172949D02*
X150262500Y-125172949D01*
X145787500Y-93122949D02*
G75*
G02*
X146287500Y-92622949I500000J0D01*
G01*
X126737500Y-93122949D02*
G75*
G02*
X127237500Y-92622949I500000J0D01*
G01*
X140737500Y-106122949D02*
G75*
G02*
X140237500Y-106622949I-500000J0D01*
G01*
X159787500Y-93122949D02*
X159787500Y-106122949D01*
X127237500Y-106622949D02*
X140237500Y-106622949D01*
X140237500Y-92622949D02*
G75*
G02*
X140737500Y-93122949I0J-500000D01*
G01*
X145787500Y-93122949D02*
X145787500Y-106122949D01*
X146287500Y-106622949D02*
X159287500Y-106622949D01*
X107687500Y-93122949D02*
G75*
G02*
X108187500Y-92622949I500000J0D01*
G01*
X127237500Y-106622949D02*
G75*
G02*
X126737500Y-106122949I0J500000D01*
G01*
X121687500Y-93122949D02*
X121687500Y-106122949D01*
X108187500Y-106622949D02*
G75*
G02*
X107687500Y-106122949I0J500000D01*
G01*
X146287500Y-92622949D02*
X159287500Y-92622949D01*
X140737500Y-93122949D02*
X140737500Y-106122949D01*
X127237500Y-92622949D02*
X140237500Y-92622949D01*
X121687500Y-106122949D02*
G75*
G02*
X121187500Y-106622949I-500000J0D01*
G01*
X126737500Y-93122949D02*
X126737500Y-106122949D01*
X121187500Y-92622949D02*
G75*
G02*
X121687500Y-93122949I0J-500000D01*
G01*
X107687500Y-93122949D02*
X107687500Y-106122949D01*
X108187500Y-92622949D02*
X121187500Y-92622949D01*
X108187500Y-106622949D02*
X121187500Y-106622949D01*
X146287500Y-106622949D02*
G75*
G02*
X145787500Y-106122949I0J500000D01*
G01*
X159287500Y-92622949D02*
G75*
G02*
X159787500Y-93122949I0J-500000D01*
G01*
M02*
