%TF.GenerationSoftware,KiCad,Pcbnew,(5.1.10)-1*%
%TF.CreationDate,2021-08-26T15:07:36+02:00*%
%TF.ProjectId,switch_plate,73776974-6368-45f7-906c-6174652e6b69,rev?*%
%TF.SameCoordinates,Original*%
%TF.FileFunction,Soldermask,Bot*%
%TF.FilePolarity,Negative*%
%FSLAX46Y46*%
G04 Gerber Fmt 4.6, Leading zero omitted, Abs format (unit mm)*
G04 Created by KiCad (PCBNEW (5.1.10)-1) date 2021-08-26 15:07:36*
%MOMM*%
%LPD*%
G01*
G04 APERTURE LIST*
%ADD10C,0.010000*%
G04 APERTURE END LIST*
D10*
%TO.C,Ref\u002A\u002A*%
G36*
X55661833Y-113008833D02*
G01*
X55735514Y-113008833D01*
X55788026Y-113003295D01*
X55813874Y-112980497D01*
X55822831Y-112954496D01*
X55836469Y-112900159D01*
X55892026Y-112953149D01*
X55988309Y-113021103D01*
X56090292Y-113047483D01*
X56196473Y-113031980D01*
X56223800Y-113021393D01*
X56315746Y-112958577D01*
X56387512Y-112860114D01*
X56438248Y-112728019D01*
X56467110Y-112564305D01*
X56472922Y-112446108D01*
X56290251Y-112446108D01*
X56282563Y-112567224D01*
X56262254Y-112671027D01*
X56242007Y-112723083D01*
X56181557Y-112804675D01*
X56108862Y-112847220D01*
X56028852Y-112849835D01*
X55946455Y-112811639D01*
X55911308Y-112782247D01*
X55852333Y-112725746D01*
X55852333Y-112059215D01*
X55913920Y-112015362D01*
X56001596Y-111972900D01*
X56084391Y-111971772D01*
X56159269Y-112011016D01*
X56223197Y-112089674D01*
X56238414Y-112118005D01*
X56268093Y-112207585D01*
X56285400Y-112321591D01*
X56290251Y-112446108D01*
X56472922Y-112446108D01*
X56473875Y-112426750D01*
X56465322Y-112255397D01*
X56436217Y-112114510D01*
X56383998Y-111996231D01*
X56306105Y-111892706D01*
X56296391Y-111882433D01*
X56232926Y-111822449D01*
X56177236Y-111789491D01*
X56113052Y-111777538D01*
X56024103Y-111780568D01*
X56021667Y-111780764D01*
X55969515Y-111796351D01*
X55911009Y-111828949D01*
X55903273Y-111834572D01*
X55837796Y-111884097D01*
X55847941Y-111568048D01*
X55858086Y-111252000D01*
X55661833Y-111252000D01*
X55661833Y-113008833D01*
G37*
X55661833Y-113008833D02*
X55735514Y-113008833D01*
X55788026Y-113003295D01*
X55813874Y-112980497D01*
X55822831Y-112954496D01*
X55836469Y-112900159D01*
X55892026Y-112953149D01*
X55988309Y-113021103D01*
X56090292Y-113047483D01*
X56196473Y-113031980D01*
X56223800Y-113021393D01*
X56315746Y-112958577D01*
X56387512Y-112860114D01*
X56438248Y-112728019D01*
X56467110Y-112564305D01*
X56472922Y-112446108D01*
X56290251Y-112446108D01*
X56282563Y-112567224D01*
X56262254Y-112671027D01*
X56242007Y-112723083D01*
X56181557Y-112804675D01*
X56108862Y-112847220D01*
X56028852Y-112849835D01*
X55946455Y-112811639D01*
X55911308Y-112782247D01*
X55852333Y-112725746D01*
X55852333Y-112059215D01*
X55913920Y-112015362D01*
X56001596Y-111972900D01*
X56084391Y-111971772D01*
X56159269Y-112011016D01*
X56223197Y-112089674D01*
X56238414Y-112118005D01*
X56268093Y-112207585D01*
X56285400Y-112321591D01*
X56290251Y-112446108D01*
X56472922Y-112446108D01*
X56473875Y-112426750D01*
X56465322Y-112255397D01*
X56436217Y-112114510D01*
X56383998Y-111996231D01*
X56306105Y-111892706D01*
X56296391Y-111882433D01*
X56232926Y-111822449D01*
X56177236Y-111789491D01*
X56113052Y-111777538D01*
X56024103Y-111780568D01*
X56021667Y-111780764D01*
X55969515Y-111796351D01*
X55911009Y-111828949D01*
X55903273Y-111834572D01*
X55837796Y-111884097D01*
X55847941Y-111568048D01*
X55858086Y-111252000D01*
X55661833Y-111252000D01*
X55661833Y-113008833D01*
G36*
X54340242Y-111781036D02*
G01*
X54246552Y-111823111D01*
X54162640Y-111901641D01*
X54110689Y-111982250D01*
X54084947Y-112047010D01*
X54068193Y-112130114D01*
X54058324Y-112242608D01*
X54057307Y-112262708D01*
X54048117Y-112458500D01*
X54645833Y-112458500D01*
X54645369Y-112527291D01*
X54629562Y-112617792D01*
X54589308Y-112711971D01*
X54533683Y-112790830D01*
X54508055Y-112814705D01*
X54425873Y-112853547D01*
X54329273Y-112855008D01*
X54223843Y-112819016D01*
X54222809Y-112818490D01*
X54168055Y-112793650D01*
X54136045Y-112794776D01*
X54113215Y-112827220D01*
X54096640Y-112868252D01*
X54087038Y-112904304D01*
X54097008Y-112931056D01*
X54133660Y-112960679D01*
X54160931Y-112978302D01*
X54262903Y-113022928D01*
X54378481Y-113042827D01*
X54488571Y-113035211D01*
X54510733Y-113029390D01*
X54586329Y-112988157D01*
X54661984Y-112916321D01*
X54728748Y-112824640D01*
X54777671Y-112723874D01*
X54786147Y-112698252D01*
X54814321Y-112555035D01*
X54821908Y-112396742D01*
X54814950Y-112310333D01*
X54662500Y-112310333D01*
X54201333Y-112310333D01*
X54201333Y-112240734D01*
X54213600Y-112164218D01*
X54245428Y-112084476D01*
X54289363Y-112015177D01*
X54337950Y-111969990D01*
X54352810Y-111963008D01*
X54431198Y-111956354D01*
X54505153Y-111987575D01*
X54569678Y-112052219D01*
X54619772Y-112145833D01*
X54642430Y-112221006D01*
X54662500Y-112310333D01*
X54814950Y-112310333D01*
X54809308Y-112240274D01*
X54776919Y-112102535D01*
X54771728Y-112088083D01*
X54707850Y-111960484D01*
X54627515Y-111865140D01*
X54535971Y-111802890D01*
X54438464Y-111774576D01*
X54340242Y-111781036D01*
G37*
X54340242Y-111781036D02*
X54246552Y-111823111D01*
X54162640Y-111901641D01*
X54110689Y-111982250D01*
X54084947Y-112047010D01*
X54068193Y-112130114D01*
X54058324Y-112242608D01*
X54057307Y-112262708D01*
X54048117Y-112458500D01*
X54645833Y-112458500D01*
X54645369Y-112527291D01*
X54629562Y-112617792D01*
X54589308Y-112711971D01*
X54533683Y-112790830D01*
X54508055Y-112814705D01*
X54425873Y-112853547D01*
X54329273Y-112855008D01*
X54223843Y-112819016D01*
X54222809Y-112818490D01*
X54168055Y-112793650D01*
X54136045Y-112794776D01*
X54113215Y-112827220D01*
X54096640Y-112868252D01*
X54087038Y-112904304D01*
X54097008Y-112931056D01*
X54133660Y-112960679D01*
X54160931Y-112978302D01*
X54262903Y-113022928D01*
X54378481Y-113042827D01*
X54488571Y-113035211D01*
X54510733Y-113029390D01*
X54586329Y-112988157D01*
X54661984Y-112916321D01*
X54728748Y-112824640D01*
X54777671Y-112723874D01*
X54786147Y-112698252D01*
X54814321Y-112555035D01*
X54821908Y-112396742D01*
X54814950Y-112310333D01*
X54662500Y-112310333D01*
X54201333Y-112310333D01*
X54201333Y-112240734D01*
X54213600Y-112164218D01*
X54245428Y-112084476D01*
X54289363Y-112015177D01*
X54337950Y-111969990D01*
X54352810Y-111963008D01*
X54431198Y-111956354D01*
X54505153Y-111987575D01*
X54569678Y-112052219D01*
X54619772Y-112145833D01*
X54642430Y-112221006D01*
X54662500Y-112310333D01*
X54814950Y-112310333D01*
X54809308Y-112240274D01*
X54776919Y-112102535D01*
X54771728Y-112088083D01*
X54707850Y-111960484D01*
X54627515Y-111865140D01*
X54535971Y-111802890D01*
X54438464Y-111774576D01*
X54340242Y-111781036D01*
G36*
X52158832Y-111406213D02*
G01*
X52100957Y-111428770D01*
X52064196Y-111455745D01*
X51985029Y-111546101D01*
X51924751Y-111668874D01*
X51882910Y-111825693D01*
X51859051Y-112018184D01*
X51852569Y-112215083D01*
X51860984Y-112427410D01*
X51885631Y-112613139D01*
X51925613Y-112768993D01*
X51980031Y-112891692D01*
X52047986Y-112977958D01*
X52065464Y-112992322D01*
X52153964Y-113034007D01*
X52254671Y-113043479D01*
X52350868Y-113019435D01*
X52359412Y-113015233D01*
X52446095Y-112946996D01*
X52517114Y-112840005D01*
X52566769Y-112713829D01*
X52580969Y-112658412D01*
X52591159Y-112592924D01*
X52597891Y-112509827D01*
X52601716Y-112401582D01*
X52603186Y-112260651D01*
X52603245Y-112218559D01*
X52448498Y-112218559D01*
X52443461Y-112389668D01*
X52441831Y-112416166D01*
X52421747Y-112585313D01*
X52386115Y-112716236D01*
X52334557Y-112810235D01*
X52323066Y-112823877D01*
X52270528Y-112853946D01*
X52206931Y-112852570D01*
X52147166Y-112821750D01*
X52124272Y-112797166D01*
X52080030Y-112714517D01*
X52048861Y-112603727D01*
X52030230Y-112461295D01*
X52023599Y-112283724D01*
X52025346Y-112152106D01*
X52030009Y-112020545D01*
X52036098Y-111922757D01*
X52044710Y-111850182D01*
X52056942Y-111794262D01*
X52073889Y-111746436D01*
X52078728Y-111735326D01*
X52132446Y-111644548D01*
X52191889Y-111593868D01*
X52253546Y-111583570D01*
X52313906Y-111613942D01*
X52369459Y-111685267D01*
X52382705Y-111710606D01*
X52410694Y-111795007D01*
X52431439Y-111913171D01*
X52444266Y-112057041D01*
X52448498Y-112218559D01*
X52603245Y-112218559D01*
X52603250Y-112215083D01*
X52601333Y-112036445D01*
X52594587Y-111893605D01*
X52581524Y-111780159D01*
X52560653Y-111689702D01*
X52530485Y-111615831D01*
X52489530Y-111552143D01*
X52436299Y-111492232D01*
X52434727Y-111490656D01*
X52379887Y-111439277D01*
X52336387Y-111412143D01*
X52287660Y-111401663D01*
X52237243Y-111400166D01*
X52158832Y-111406213D01*
G37*
X52158832Y-111406213D02*
X52100957Y-111428770D01*
X52064196Y-111455745D01*
X51985029Y-111546101D01*
X51924751Y-111668874D01*
X51882910Y-111825693D01*
X51859051Y-112018184D01*
X51852569Y-112215083D01*
X51860984Y-112427410D01*
X51885631Y-112613139D01*
X51925613Y-112768993D01*
X51980031Y-112891692D01*
X52047986Y-112977958D01*
X52065464Y-112992322D01*
X52153964Y-113034007D01*
X52254671Y-113043479D01*
X52350868Y-113019435D01*
X52359412Y-113015233D01*
X52446095Y-112946996D01*
X52517114Y-112840005D01*
X52566769Y-112713829D01*
X52580969Y-112658412D01*
X52591159Y-112592924D01*
X52597891Y-112509827D01*
X52601716Y-112401582D01*
X52603186Y-112260651D01*
X52603245Y-112218559D01*
X52448498Y-112218559D01*
X52443461Y-112389668D01*
X52441831Y-112416166D01*
X52421747Y-112585313D01*
X52386115Y-112716236D01*
X52334557Y-112810235D01*
X52323066Y-112823877D01*
X52270528Y-112853946D01*
X52206931Y-112852570D01*
X52147166Y-112821750D01*
X52124272Y-112797166D01*
X52080030Y-112714517D01*
X52048861Y-112603727D01*
X52030230Y-112461295D01*
X52023599Y-112283724D01*
X52025346Y-112152106D01*
X52030009Y-112020545D01*
X52036098Y-111922757D01*
X52044710Y-111850182D01*
X52056942Y-111794262D01*
X52073889Y-111746436D01*
X52078728Y-111735326D01*
X52132446Y-111644548D01*
X52191889Y-111593868D01*
X52253546Y-111583570D01*
X52313906Y-111613942D01*
X52369459Y-111685267D01*
X52382705Y-111710606D01*
X52410694Y-111795007D01*
X52431439Y-111913171D01*
X52444266Y-112057041D01*
X52448498Y-112218559D01*
X52603245Y-112218559D01*
X52603250Y-112215083D01*
X52601333Y-112036445D01*
X52594587Y-111893605D01*
X52581524Y-111780159D01*
X52560653Y-111689702D01*
X52530485Y-111615831D01*
X52489530Y-111552143D01*
X52436299Y-111492232D01*
X52434727Y-111490656D01*
X52379887Y-111439277D01*
X52336387Y-111412143D01*
X52287660Y-111401663D01*
X52237243Y-111400166D01*
X52158832Y-111406213D01*
G36*
X57779829Y-112167458D02*
G01*
X57735116Y-112344114D01*
X57693434Y-112508334D01*
X57655966Y-112655483D01*
X57623898Y-112780927D01*
X57598415Y-112880032D01*
X57580703Y-112948165D01*
X57571945Y-112980692D01*
X57571423Y-112982375D01*
X57580270Y-112999999D01*
X57625116Y-113008032D01*
X57657750Y-113008833D01*
X57753195Y-113008833D01*
X57809800Y-112765416D01*
X57866406Y-112522000D01*
X58284510Y-112522000D01*
X58306540Y-112601375D01*
X58322129Y-112661528D01*
X58342588Y-112745738D01*
X58363724Y-112836707D01*
X58365551Y-112844791D01*
X58402532Y-113008833D01*
X58494947Y-113008833D01*
X58555807Y-113004492D01*
X58578791Y-112990699D01*
X58578228Y-112982375D01*
X58571146Y-112956539D01*
X58554893Y-112894290D01*
X58530655Y-112800261D01*
X58499617Y-112679087D01*
X58462968Y-112535400D01*
X58421892Y-112373834D01*
X58411161Y-112331500D01*
X58244973Y-112331500D01*
X57911856Y-112331500D01*
X57988629Y-111994021D01*
X58015128Y-111879995D01*
X58039222Y-111780884D01*
X58059078Y-111703876D01*
X58072865Y-111656157D01*
X58077820Y-111644124D01*
X58087732Y-111656459D01*
X58101591Y-111700808D01*
X58115797Y-111764645D01*
X58134573Y-111856261D01*
X58158360Y-111964200D01*
X58179915Y-112056333D01*
X58200525Y-112141660D01*
X58218783Y-112218073D01*
X58231015Y-112270191D01*
X58231724Y-112273291D01*
X58244973Y-112331500D01*
X58411161Y-112331500D01*
X58377576Y-112199022D01*
X58369588Y-112167462D01*
X58170083Y-111379008D01*
X58074600Y-111379004D01*
X57979116Y-111379000D01*
X57779829Y-112167458D01*
G37*
X57779829Y-112167458D02*
X57735116Y-112344114D01*
X57693434Y-112508334D01*
X57655966Y-112655483D01*
X57623898Y-112780927D01*
X57598415Y-112880032D01*
X57580703Y-112948165D01*
X57571945Y-112980692D01*
X57571423Y-112982375D01*
X57580270Y-112999999D01*
X57625116Y-113008032D01*
X57657750Y-113008833D01*
X57753195Y-113008833D01*
X57809800Y-112765416D01*
X57866406Y-112522000D01*
X58284510Y-112522000D01*
X58306540Y-112601375D01*
X58322129Y-112661528D01*
X58342588Y-112745738D01*
X58363724Y-112836707D01*
X58365551Y-112844791D01*
X58402532Y-113008833D01*
X58494947Y-113008833D01*
X58555807Y-113004492D01*
X58578791Y-112990699D01*
X58578228Y-112982375D01*
X58571146Y-112956539D01*
X58554893Y-112894290D01*
X58530655Y-112800261D01*
X58499617Y-112679087D01*
X58462968Y-112535400D01*
X58421892Y-112373834D01*
X58411161Y-112331500D01*
X58244973Y-112331500D01*
X57911856Y-112331500D01*
X57988629Y-111994021D01*
X58015128Y-111879995D01*
X58039222Y-111780884D01*
X58059078Y-111703876D01*
X58072865Y-111656157D01*
X58077820Y-111644124D01*
X58087732Y-111656459D01*
X58101591Y-111700808D01*
X58115797Y-111764645D01*
X58134573Y-111856261D01*
X58158360Y-111964200D01*
X58179915Y-112056333D01*
X58200525Y-112141660D01*
X58218783Y-112218073D01*
X58231015Y-112270191D01*
X58231724Y-112273291D01*
X58244973Y-112331500D01*
X58411161Y-112331500D01*
X58377576Y-112199022D01*
X58369588Y-112167462D01*
X58170083Y-111379008D01*
X58074600Y-111379004D01*
X57979116Y-111379000D01*
X57779829Y-112167458D01*
G36*
X56902204Y-111783104D02*
G01*
X56819020Y-111826117D01*
X56751872Y-111904680D01*
X56720558Y-111971666D01*
X56710153Y-112022703D01*
X56700888Y-112113239D01*
X56692953Y-112240450D01*
X56686539Y-112401513D01*
X56683179Y-112527291D01*
X56672440Y-113008833D01*
X56866082Y-113008833D01*
X56872500Y-112534757D01*
X56874868Y-112379709D01*
X56877567Y-112261354D01*
X56881104Y-112174051D01*
X56885988Y-112112160D01*
X56892728Y-112070040D01*
X56901832Y-112042052D01*
X56913808Y-112022554D01*
X56919239Y-112016174D01*
X56979054Y-111976822D01*
X57049451Y-111977788D01*
X57128793Y-112018860D01*
X57164606Y-112048213D01*
X57249333Y-112124759D01*
X57249333Y-113008833D01*
X57418667Y-113008833D01*
X57418667Y-111802333D01*
X57344583Y-111802333D01*
X57295874Y-111805292D01*
X57275185Y-111822608D01*
X57270553Y-111866939D01*
X57270500Y-111880712D01*
X57270500Y-111959091D01*
X57188586Y-111879104D01*
X57092925Y-111808422D01*
X56995485Y-111776814D01*
X56902204Y-111783104D01*
G37*
X56902204Y-111783104D02*
X56819020Y-111826117D01*
X56751872Y-111904680D01*
X56720558Y-111971666D01*
X56710153Y-112022703D01*
X56700888Y-112113239D01*
X56692953Y-112240450D01*
X56686539Y-112401513D01*
X56683179Y-112527291D01*
X56672440Y-113008833D01*
X56866082Y-113008833D01*
X56872500Y-112534757D01*
X56874868Y-112379709D01*
X56877567Y-112261354D01*
X56881104Y-112174051D01*
X56885988Y-112112160D01*
X56892728Y-112070040D01*
X56901832Y-112042052D01*
X56913808Y-112022554D01*
X56919239Y-112016174D01*
X56979054Y-111976822D01*
X57049451Y-111977788D01*
X57128793Y-112018860D01*
X57164606Y-112048213D01*
X57249333Y-112124759D01*
X57249333Y-113008833D01*
X57418667Y-113008833D01*
X57418667Y-111802333D01*
X57344583Y-111802333D01*
X57295874Y-111805292D01*
X57275185Y-111822608D01*
X57270553Y-111866939D01*
X57270500Y-111880712D01*
X57270500Y-111959091D01*
X57188586Y-111879104D01*
X57092925Y-111808422D01*
X56995485Y-111776814D01*
X56902204Y-111783104D01*
G36*
X54926292Y-111778729D02*
G01*
X54890623Y-111790276D01*
X54879166Y-111827712D01*
X54878956Y-111839375D01*
X54884757Y-111921140D01*
X54903185Y-111966906D01*
X54937285Y-111981907D01*
X54960590Y-111979623D01*
X55026382Y-111986796D01*
X55092581Y-112029537D01*
X55151560Y-112101849D01*
X55177194Y-112149919D01*
X55191560Y-112187039D01*
X55202030Y-112230411D01*
X55209198Y-112287124D01*
X55213661Y-112364266D01*
X55216012Y-112468924D01*
X55216848Y-112608185D01*
X55216869Y-112622541D01*
X55217333Y-113008833D01*
X55386667Y-113008833D01*
X55386667Y-111802333D01*
X55238500Y-111802333D01*
X55238392Y-111902875D01*
X55238283Y-112003416D01*
X55190264Y-111924097D01*
X55130226Y-111842488D01*
X55065002Y-111796150D01*
X54982729Y-111778548D01*
X54926292Y-111778729D01*
G37*
X54926292Y-111778729D02*
X54890623Y-111790276D01*
X54879166Y-111827712D01*
X54878956Y-111839375D01*
X54884757Y-111921140D01*
X54903185Y-111966906D01*
X54937285Y-111981907D01*
X54960590Y-111979623D01*
X55026382Y-111986796D01*
X55092581Y-112029537D01*
X55151560Y-112101849D01*
X55177194Y-112149919D01*
X55191560Y-112187039D01*
X55202030Y-112230411D01*
X55209198Y-112287124D01*
X55213661Y-112364266D01*
X55216012Y-112468924D01*
X55216848Y-112608185D01*
X55216869Y-112622541D01*
X55217333Y-113008833D01*
X55386667Y-113008833D01*
X55386667Y-111802333D01*
X55238500Y-111802333D01*
X55238392Y-111902875D01*
X55238283Y-112003416D01*
X55190264Y-111924097D01*
X55130226Y-111842488D01*
X55065002Y-111796150D01*
X54982729Y-111778548D01*
X54926292Y-111778729D01*
G36*
X53096094Y-111407383D02*
G01*
X53091731Y-111408445D01*
X53002092Y-111451768D01*
X52926646Y-111529188D01*
X52869458Y-111633698D01*
X52834591Y-111758292D01*
X52825500Y-111867445D01*
X52841510Y-111999044D01*
X52887886Y-112151727D01*
X52962144Y-112319875D01*
X53061801Y-112497868D01*
X53184374Y-112680086D01*
X53184858Y-112680750D01*
X53227746Y-112740084D01*
X53260738Y-112786868D01*
X53274655Y-112807750D01*
X53260440Y-112816988D01*
X53205392Y-112822150D01*
X53110820Y-112823165D01*
X53024571Y-112821448D01*
X52762000Y-112813980D01*
X52762000Y-113008833D01*
X53545167Y-113008833D01*
X53545167Y-112944732D01*
X53536885Y-112905700D01*
X53510313Y-112849456D01*
X53462861Y-112771512D01*
X53391938Y-112667378D01*
X53355679Y-112616357D01*
X53227305Y-112429510D01*
X53128810Y-112267536D01*
X53058824Y-112126748D01*
X53015975Y-112003461D01*
X52998894Y-111893989D01*
X53006210Y-111794644D01*
X53025495Y-111728153D01*
X53064152Y-111650951D01*
X53113355Y-111608111D01*
X53184129Y-111591663D01*
X53215715Y-111590666D01*
X53267863Y-111597355D01*
X53315302Y-111622543D01*
X53371959Y-111673910D01*
X53378158Y-111680256D01*
X53465101Y-111769845D01*
X53514358Y-111708072D01*
X53563614Y-111646298D01*
X53521164Y-111586684D01*
X53433497Y-111494403D01*
X53327049Y-111431111D01*
X53211391Y-111400781D01*
X53096094Y-111407383D01*
G37*
X53096094Y-111407383D02*
X53091731Y-111408445D01*
X53002092Y-111451768D01*
X52926646Y-111529188D01*
X52869458Y-111633698D01*
X52834591Y-111758292D01*
X52825500Y-111867445D01*
X52841510Y-111999044D01*
X52887886Y-112151727D01*
X52962144Y-112319875D01*
X53061801Y-112497868D01*
X53184374Y-112680086D01*
X53184858Y-112680750D01*
X53227746Y-112740084D01*
X53260738Y-112786868D01*
X53274655Y-112807750D01*
X53260440Y-112816988D01*
X53205392Y-112822150D01*
X53110820Y-112823165D01*
X53024571Y-112821448D01*
X52762000Y-112813980D01*
X52762000Y-113008833D01*
X53545167Y-113008833D01*
X53545167Y-112944732D01*
X53536885Y-112905700D01*
X53510313Y-112849456D01*
X53462861Y-112771512D01*
X53391938Y-112667378D01*
X53355679Y-112616357D01*
X53227305Y-112429510D01*
X53128810Y-112267536D01*
X53058824Y-112126748D01*
X53015975Y-112003461D01*
X52998894Y-111893989D01*
X53006210Y-111794644D01*
X53025495Y-111728153D01*
X53064152Y-111650951D01*
X53113355Y-111608111D01*
X53184129Y-111591663D01*
X53215715Y-111590666D01*
X53267863Y-111597355D01*
X53315302Y-111622543D01*
X53371959Y-111673910D01*
X53378158Y-111680256D01*
X53465101Y-111769845D01*
X53514358Y-111708072D01*
X53563614Y-111646298D01*
X53521164Y-111586684D01*
X53433497Y-111494403D01*
X53327049Y-111431111D01*
X53211391Y-111400781D01*
X53096094Y-111407383D01*
G36*
X51234498Y-111419391D02*
G01*
X51139036Y-111474972D01*
X51064445Y-111563770D01*
X51013543Y-111682644D01*
X50991783Y-111797176D01*
X50992117Y-111931006D01*
X51021195Y-112074954D01*
X51080382Y-112232565D01*
X51171042Y-112407385D01*
X51294540Y-112602958D01*
X51311523Y-112627833D01*
X51361289Y-112700513D01*
X51402198Y-112760846D01*
X51428059Y-112799675D01*
X51433171Y-112807750D01*
X51418948Y-112816988D01*
X51363893Y-112822150D01*
X51269320Y-112823165D01*
X51183071Y-112821448D01*
X50920500Y-112813980D01*
X50920500Y-113008833D01*
X51703667Y-113008833D01*
X51703667Y-112937906D01*
X51694400Y-112885207D01*
X51663668Y-112821985D01*
X51607073Y-112739457D01*
X51598814Y-112728472D01*
X51514760Y-112613426D01*
X51430813Y-112491410D01*
X51352663Y-112371311D01*
X51286001Y-112262014D01*
X51236517Y-112172406D01*
X51218788Y-112134976D01*
X51175040Y-111998976D01*
X51160835Y-111869483D01*
X51175878Y-111754000D01*
X51219872Y-111660030D01*
X51238461Y-111637382D01*
X51291237Y-111601728D01*
X51366717Y-111590673D01*
X51369102Y-111590666D01*
X51425856Y-111595529D01*
X51471111Y-111615584D01*
X51520923Y-111659028D01*
X51538515Y-111677174D01*
X51588042Y-111725851D01*
X51620204Y-111746294D01*
X51644130Y-111743291D01*
X51652810Y-111737124D01*
X51696408Y-111691595D01*
X51706757Y-111648071D01*
X51683587Y-111596424D01*
X51647829Y-111550657D01*
X51565140Y-111468598D01*
X51482307Y-111420922D01*
X51387037Y-111401456D01*
X51348015Y-111400166D01*
X51234498Y-111419391D01*
G37*
X51234498Y-111419391D02*
X51139036Y-111474972D01*
X51064445Y-111563770D01*
X51013543Y-111682644D01*
X50991783Y-111797176D01*
X50992117Y-111931006D01*
X51021195Y-112074954D01*
X51080382Y-112232565D01*
X51171042Y-112407385D01*
X51294540Y-112602958D01*
X51311523Y-112627833D01*
X51361289Y-112700513D01*
X51402198Y-112760846D01*
X51428059Y-112799675D01*
X51433171Y-112807750D01*
X51418948Y-112816988D01*
X51363893Y-112822150D01*
X51269320Y-112823165D01*
X51183071Y-112821448D01*
X50920500Y-112813980D01*
X50920500Y-113008833D01*
X51703667Y-113008833D01*
X51703667Y-112937906D01*
X51694400Y-112885207D01*
X51663668Y-112821985D01*
X51607073Y-112739457D01*
X51598814Y-112728472D01*
X51514760Y-112613426D01*
X51430813Y-112491410D01*
X51352663Y-112371311D01*
X51286001Y-112262014D01*
X51236517Y-112172406D01*
X51218788Y-112134976D01*
X51175040Y-111998976D01*
X51160835Y-111869483D01*
X51175878Y-111754000D01*
X51219872Y-111660030D01*
X51238461Y-111637382D01*
X51291237Y-111601728D01*
X51366717Y-111590673D01*
X51369102Y-111590666D01*
X51425856Y-111595529D01*
X51471111Y-111615584D01*
X51520923Y-111659028D01*
X51538515Y-111677174D01*
X51588042Y-111725851D01*
X51620204Y-111746294D01*
X51644130Y-111743291D01*
X51652810Y-111737124D01*
X51696408Y-111691595D01*
X51706757Y-111648071D01*
X51683587Y-111596424D01*
X51647829Y-111550657D01*
X51565140Y-111468598D01*
X51482307Y-111420922D01*
X51387037Y-111401456D01*
X51348015Y-111400166D01*
X51234498Y-111419391D01*
G36*
X50285500Y-112839500D02*
G01*
X50031500Y-112839500D01*
X50031500Y-113008833D01*
X50730000Y-113008833D01*
X50730000Y-112839500D01*
X50454833Y-112839500D01*
X50454833Y-111696500D01*
X50666500Y-111696500D01*
X50666500Y-111620435D01*
X50660576Y-111565515D01*
X50638336Y-111538809D01*
X50621234Y-111532532D01*
X50575791Y-111515653D01*
X50512785Y-111486530D01*
X50482531Y-111471014D01*
X50416674Y-111441443D01*
X50357295Y-111423657D01*
X50337297Y-111421333D01*
X50285500Y-111421333D01*
X50285500Y-112839500D01*
G37*
X50285500Y-112839500D02*
X50031500Y-112839500D01*
X50031500Y-113008833D01*
X50730000Y-113008833D01*
X50730000Y-112839500D01*
X50454833Y-112839500D01*
X50454833Y-111696500D01*
X50666500Y-111696500D01*
X50666500Y-111620435D01*
X50660576Y-111565515D01*
X50638336Y-111538809D01*
X50621234Y-111532532D01*
X50575791Y-111515653D01*
X50512785Y-111486530D01*
X50482531Y-111471014D01*
X50416674Y-111441443D01*
X50357295Y-111423657D01*
X50337297Y-111421333D01*
X50285500Y-111421333D01*
X50285500Y-112839500D01*
G36*
X54232884Y-111097240D02*
G01*
X54198985Y-111131652D01*
X54164428Y-111171938D01*
X54141623Y-111204132D01*
X54138502Y-111212277D01*
X54150172Y-111231838D01*
X54181533Y-111276238D01*
X54226440Y-111337367D01*
X54278744Y-111407114D01*
X54332301Y-111477368D01*
X54380962Y-111540019D01*
X54418582Y-111586955D01*
X54439014Y-111610066D01*
X54440797Y-111611168D01*
X54454530Y-111595623D01*
X54482300Y-111558947D01*
X54483626Y-111557129D01*
X54507877Y-111511001D01*
X54511541Y-111475192D01*
X54494429Y-111442360D01*
X54461383Y-111387329D01*
X54418208Y-111318936D01*
X54370709Y-111246020D01*
X54324690Y-111177419D01*
X54285958Y-111121971D01*
X54260318Y-111088513D01*
X54253710Y-111082666D01*
X54232884Y-111097240D01*
G37*
X54232884Y-111097240D02*
X54198985Y-111131652D01*
X54164428Y-111171938D01*
X54141623Y-111204132D01*
X54138502Y-111212277D01*
X54150172Y-111231838D01*
X54181533Y-111276238D01*
X54226440Y-111337367D01*
X54278744Y-111407114D01*
X54332301Y-111477368D01*
X54380962Y-111540019D01*
X54418582Y-111586955D01*
X54439014Y-111610066D01*
X54440797Y-111611168D01*
X54454530Y-111595623D01*
X54482300Y-111558947D01*
X54483626Y-111557129D01*
X54507877Y-111511001D01*
X54511541Y-111475192D01*
X54494429Y-111442360D01*
X54461383Y-111387329D01*
X54418208Y-111318936D01*
X54370709Y-111246020D01*
X54324690Y-111177419D01*
X54285958Y-111121971D01*
X54260318Y-111088513D01*
X54253710Y-111082666D01*
X54232884Y-111097240D01*
G36*
X61804647Y-109024208D02*
G01*
X61769732Y-109151381D01*
X61734273Y-109281394D01*
X61701919Y-109400813D01*
X61676320Y-109496200D01*
X61671445Y-109514562D01*
X61624296Y-109692707D01*
X61554874Y-109398145D01*
X61524703Y-109270188D01*
X61493102Y-109136273D01*
X61463715Y-109011834D01*
X61440185Y-108912305D01*
X61439117Y-108907791D01*
X61392782Y-108712000D01*
X61308430Y-108712000D01*
X61254914Y-108713962D01*
X61233611Y-108725414D01*
X61234415Y-108754697D01*
X61237931Y-108770208D01*
X61269761Y-108900553D01*
X61307254Y-109048512D01*
X61348836Y-109208380D01*
X61392933Y-109374453D01*
X61437972Y-109541025D01*
X61482379Y-109702393D01*
X61524580Y-109852851D01*
X61563001Y-109986695D01*
X61596068Y-110098220D01*
X61622208Y-110181721D01*
X61639848Y-110231495D01*
X61643010Y-110238534D01*
X61711279Y-110344022D01*
X61790536Y-110414100D01*
X61877053Y-110445768D01*
X61902333Y-110447342D01*
X61961453Y-110442657D01*
X62003923Y-110431613D01*
X62007259Y-110429775D01*
X62026285Y-110397675D01*
X62024902Y-110382474D01*
X62013273Y-110339562D01*
X62002802Y-110294955D01*
X61984830Y-110253428D01*
X61958654Y-110249613D01*
X61893395Y-110255053D01*
X61833360Y-110218985D01*
X61778118Y-110141127D01*
X61770351Y-110126092D01*
X61739701Y-110054249D01*
X61719793Y-109987749D01*
X61715500Y-109955873D01*
X61721463Y-109920242D01*
X61738286Y-109850042D01*
X61764368Y-109751162D01*
X61798111Y-109629491D01*
X61837914Y-109490919D01*
X61882178Y-109341333D01*
X61884833Y-109332492D01*
X61929060Y-109184389D01*
X61968978Y-109048803D01*
X62003014Y-108931228D01*
X62029597Y-108837159D01*
X62047154Y-108772092D01*
X62054114Y-108741523D01*
X62054167Y-108740629D01*
X62034337Y-108719347D01*
X61974715Y-108712005D01*
X61972433Y-108712000D01*
X61890699Y-108712000D01*
X61804647Y-109024208D01*
G37*
X61804647Y-109024208D02*
X61769732Y-109151381D01*
X61734273Y-109281394D01*
X61701919Y-109400813D01*
X61676320Y-109496200D01*
X61671445Y-109514562D01*
X61624296Y-109692707D01*
X61554874Y-109398145D01*
X61524703Y-109270188D01*
X61493102Y-109136273D01*
X61463715Y-109011834D01*
X61440185Y-108912305D01*
X61439117Y-108907791D01*
X61392782Y-108712000D01*
X61308430Y-108712000D01*
X61254914Y-108713962D01*
X61233611Y-108725414D01*
X61234415Y-108754697D01*
X61237931Y-108770208D01*
X61269761Y-108900553D01*
X61307254Y-109048512D01*
X61348836Y-109208380D01*
X61392933Y-109374453D01*
X61437972Y-109541025D01*
X61482379Y-109702393D01*
X61524580Y-109852851D01*
X61563001Y-109986695D01*
X61596068Y-110098220D01*
X61622208Y-110181721D01*
X61639848Y-110231495D01*
X61643010Y-110238534D01*
X61711279Y-110344022D01*
X61790536Y-110414100D01*
X61877053Y-110445768D01*
X61902333Y-110447342D01*
X61961453Y-110442657D01*
X62003923Y-110431613D01*
X62007259Y-110429775D01*
X62026285Y-110397675D01*
X62024902Y-110382474D01*
X62013273Y-110339562D01*
X62002802Y-110294955D01*
X61984830Y-110253428D01*
X61958654Y-110249613D01*
X61893395Y-110255053D01*
X61833360Y-110218985D01*
X61778118Y-110141127D01*
X61770351Y-110126092D01*
X61739701Y-110054249D01*
X61719793Y-109987749D01*
X61715500Y-109955873D01*
X61721463Y-109920242D01*
X61738286Y-109850042D01*
X61764368Y-109751162D01*
X61798111Y-109629491D01*
X61837914Y-109490919D01*
X61882178Y-109341333D01*
X61884833Y-109332492D01*
X61929060Y-109184389D01*
X61968978Y-109048803D01*
X62003014Y-108931228D01*
X62029597Y-108837159D01*
X62047154Y-108772092D01*
X62054114Y-108741523D01*
X62054167Y-108740629D01*
X62034337Y-108719347D01*
X61974715Y-108712005D01*
X61972433Y-108712000D01*
X61890699Y-108712000D01*
X61804647Y-109024208D01*
G36*
X65001592Y-108700574D02*
G01*
X64903874Y-108740294D01*
X64841286Y-108792575D01*
X64816990Y-108824912D01*
X64815999Y-108854933D01*
X64836588Y-108900575D01*
X64865211Y-108948597D01*
X64891544Y-108961627D01*
X64929325Y-108942366D01*
X64954000Y-108923666D01*
X65030851Y-108886598D01*
X65110831Y-108887457D01*
X65187087Y-108923032D01*
X65252768Y-108990111D01*
X65301019Y-109085482D01*
X65301360Y-109086477D01*
X65325953Y-109199521D01*
X65333673Y-109331557D01*
X65324521Y-109462751D01*
X65301360Y-109565188D01*
X65252239Y-109663180D01*
X65185676Y-109730768D01*
X65108070Y-109765278D01*
X65025823Y-109764040D01*
X64945334Y-109724381D01*
X64936694Y-109717416D01*
X64893517Y-109683502D01*
X64864903Y-109665420D01*
X64861530Y-109664500D01*
X64844653Y-109681313D01*
X64819318Y-109722549D01*
X64815300Y-109730159D01*
X64794555Y-109776743D01*
X64797632Y-109808087D01*
X64827293Y-109845673D01*
X64830631Y-109849304D01*
X64919760Y-109916631D01*
X65028157Y-109953413D01*
X65143388Y-109957158D01*
X65240144Y-109931336D01*
X65339872Y-109865247D01*
X65418007Y-109764729D01*
X65473353Y-109632446D01*
X65504714Y-109471064D01*
X65511751Y-109325833D01*
X65504360Y-109176790D01*
X65481799Y-109055092D01*
X65440528Y-108947381D01*
X65387070Y-108855293D01*
X65309922Y-108771689D01*
X65213822Y-108717330D01*
X65107977Y-108693272D01*
X65001592Y-108700574D01*
G37*
X65001592Y-108700574D02*
X64903874Y-108740294D01*
X64841286Y-108792575D01*
X64816990Y-108824912D01*
X64815999Y-108854933D01*
X64836588Y-108900575D01*
X64865211Y-108948597D01*
X64891544Y-108961627D01*
X64929325Y-108942366D01*
X64954000Y-108923666D01*
X65030851Y-108886598D01*
X65110831Y-108887457D01*
X65187087Y-108923032D01*
X65252768Y-108990111D01*
X65301019Y-109085482D01*
X65301360Y-109086477D01*
X65325953Y-109199521D01*
X65333673Y-109331557D01*
X65324521Y-109462751D01*
X65301360Y-109565188D01*
X65252239Y-109663180D01*
X65185676Y-109730768D01*
X65108070Y-109765278D01*
X65025823Y-109764040D01*
X64945334Y-109724381D01*
X64936694Y-109717416D01*
X64893517Y-109683502D01*
X64864903Y-109665420D01*
X64861530Y-109664500D01*
X64844653Y-109681313D01*
X64819318Y-109722549D01*
X64815300Y-109730159D01*
X64794555Y-109776743D01*
X64797632Y-109808087D01*
X64827293Y-109845673D01*
X64830631Y-109849304D01*
X64919760Y-109916631D01*
X65028157Y-109953413D01*
X65143388Y-109957158D01*
X65240144Y-109931336D01*
X65339872Y-109865247D01*
X65418007Y-109764729D01*
X65473353Y-109632446D01*
X65504714Y-109471064D01*
X65511751Y-109325833D01*
X65504360Y-109176790D01*
X65481799Y-109055092D01*
X65440528Y-108947381D01*
X65387070Y-108855293D01*
X65309922Y-108771689D01*
X65213822Y-108717330D01*
X65107977Y-108693272D01*
X65001592Y-108700574D01*
G36*
X64186229Y-108710059D02*
G01*
X64093568Y-108750829D01*
X64077361Y-108762125D01*
X63994208Y-108850515D01*
X63931398Y-108968157D01*
X63889512Y-109106867D01*
X63869131Y-109258461D01*
X63870836Y-109414755D01*
X63895207Y-109567563D01*
X63942824Y-109708701D01*
X64002716Y-109814373D01*
X64079100Y-109889096D01*
X64176947Y-109938105D01*
X64284128Y-109958227D01*
X64388517Y-109946290D01*
X64435417Y-109927546D01*
X64512212Y-109878646D01*
X64572234Y-109816305D01*
X64625405Y-109728998D01*
X64649652Y-109678690D01*
X64677275Y-109613986D01*
X64694788Y-109557175D01*
X64704394Y-109495114D01*
X64708294Y-109414663D01*
X64708778Y-109325833D01*
X64530667Y-109325833D01*
X64521978Y-109474202D01*
X64494713Y-109590095D01*
X64447076Y-109679902D01*
X64422980Y-109708818D01*
X64351264Y-109760259D01*
X64274495Y-109770875D01*
X64198897Y-109740644D01*
X64163004Y-109709707D01*
X64104542Y-109621842D01*
X64065969Y-109508207D01*
X64047283Y-109379539D01*
X64048483Y-109246576D01*
X64069569Y-109120056D01*
X64110538Y-109010716D01*
X64163084Y-108937189D01*
X64236224Y-108889375D01*
X64314599Y-108881669D01*
X64390406Y-108913899D01*
X64422980Y-108942848D01*
X64478921Y-109024334D01*
X64513799Y-109129450D01*
X64529412Y-109264587D01*
X64530667Y-109325833D01*
X64708778Y-109325833D01*
X64707246Y-109219830D01*
X64701830Y-109142788D01*
X64690250Y-109081363D01*
X64670221Y-109022212D01*
X64648012Y-108970721D01*
X64585661Y-108860289D01*
X64511291Y-108772378D01*
X64432151Y-108714663D01*
X64391436Y-108699111D01*
X64292426Y-108691434D01*
X64186229Y-108710059D01*
G37*
X64186229Y-108710059D02*
X64093568Y-108750829D01*
X64077361Y-108762125D01*
X63994208Y-108850515D01*
X63931398Y-108968157D01*
X63889512Y-109106867D01*
X63869131Y-109258461D01*
X63870836Y-109414755D01*
X63895207Y-109567563D01*
X63942824Y-109708701D01*
X64002716Y-109814373D01*
X64079100Y-109889096D01*
X64176947Y-109938105D01*
X64284128Y-109958227D01*
X64388517Y-109946290D01*
X64435417Y-109927546D01*
X64512212Y-109878646D01*
X64572234Y-109816305D01*
X64625405Y-109728998D01*
X64649652Y-109678690D01*
X64677275Y-109613986D01*
X64694788Y-109557175D01*
X64704394Y-109495114D01*
X64708294Y-109414663D01*
X64708778Y-109325833D01*
X64530667Y-109325833D01*
X64521978Y-109474202D01*
X64494713Y-109590095D01*
X64447076Y-109679902D01*
X64422980Y-109708818D01*
X64351264Y-109760259D01*
X64274495Y-109770875D01*
X64198897Y-109740644D01*
X64163004Y-109709707D01*
X64104542Y-109621842D01*
X64065969Y-109508207D01*
X64047283Y-109379539D01*
X64048483Y-109246576D01*
X64069569Y-109120056D01*
X64110538Y-109010716D01*
X64163084Y-108937189D01*
X64236224Y-108889375D01*
X64314599Y-108881669D01*
X64390406Y-108913899D01*
X64422980Y-108942848D01*
X64478921Y-109024334D01*
X64513799Y-109129450D01*
X64529412Y-109264587D01*
X64530667Y-109325833D01*
X64708778Y-109325833D01*
X64707246Y-109219830D01*
X64701830Y-109142788D01*
X64690250Y-109081363D01*
X64670221Y-109022212D01*
X64648012Y-108970721D01*
X64585661Y-108860289D01*
X64511291Y-108772378D01*
X64432151Y-108714663D01*
X64391436Y-108699111D01*
X64292426Y-108691434D01*
X64186229Y-108710059D01*
G36*
X63301330Y-108700672D02*
G01*
X63219482Y-108726882D01*
X63154201Y-108764690D01*
X63112952Y-108809246D01*
X63103199Y-108855697D01*
X63110104Y-108874280D01*
X63143687Y-108929807D01*
X63169591Y-108952334D01*
X63201046Y-108945673D01*
X63249911Y-108914566D01*
X63333704Y-108870909D01*
X63404343Y-108865113D01*
X63467492Y-108897120D01*
X63483879Y-108912121D01*
X63529031Y-108975092D01*
X63535930Y-109037210D01*
X63503671Y-109100218D01*
X63431352Y-109165859D01*
X63318070Y-109235877D01*
X63315446Y-109237299D01*
X63239197Y-109282602D01*
X63173663Y-109328810D01*
X63131719Y-109366743D01*
X63128832Y-109370370D01*
X63082962Y-109463599D01*
X63063617Y-109575052D01*
X63070837Y-109689926D01*
X63104660Y-109793421D01*
X63127614Y-109831042D01*
X63202686Y-109900188D01*
X63301306Y-109944196D01*
X63410750Y-109959755D01*
X63518292Y-109943555D01*
X63535833Y-109937261D01*
X63583666Y-109913707D01*
X63640560Y-109879465D01*
X63694673Y-109842557D01*
X63734165Y-109811006D01*
X63747421Y-109793912D01*
X63737320Y-109769055D01*
X63712389Y-109723790D01*
X63704889Y-109711287D01*
X63662437Y-109641657D01*
X63583260Y-109704523D01*
X63486609Y-109764379D01*
X63398653Y-109784233D01*
X63320905Y-109763883D01*
X63291401Y-109743078D01*
X63245722Y-109689131D01*
X63231163Y-109624301D01*
X63231033Y-109615379D01*
X63241712Y-109548455D01*
X63277547Y-109491345D01*
X63344240Y-109437576D01*
X63430078Y-109389345D01*
X63549274Y-109317418D01*
X63630684Y-109239623D01*
X63678836Y-109151351D01*
X63685671Y-109129129D01*
X63699805Y-109010562D01*
X63679889Y-108901614D01*
X63630337Y-108808875D01*
X63555561Y-108738939D01*
X63459976Y-108698396D01*
X63392279Y-108690912D01*
X63301330Y-108700672D01*
G37*
X63301330Y-108700672D02*
X63219482Y-108726882D01*
X63154201Y-108764690D01*
X63112952Y-108809246D01*
X63103199Y-108855697D01*
X63110104Y-108874280D01*
X63143687Y-108929807D01*
X63169591Y-108952334D01*
X63201046Y-108945673D01*
X63249911Y-108914566D01*
X63333704Y-108870909D01*
X63404343Y-108865113D01*
X63467492Y-108897120D01*
X63483879Y-108912121D01*
X63529031Y-108975092D01*
X63535930Y-109037210D01*
X63503671Y-109100218D01*
X63431352Y-109165859D01*
X63318070Y-109235877D01*
X63315446Y-109237299D01*
X63239197Y-109282602D01*
X63173663Y-109328810D01*
X63131719Y-109366743D01*
X63128832Y-109370370D01*
X63082962Y-109463599D01*
X63063617Y-109575052D01*
X63070837Y-109689926D01*
X63104660Y-109793421D01*
X63127614Y-109831042D01*
X63202686Y-109900188D01*
X63301306Y-109944196D01*
X63410750Y-109959755D01*
X63518292Y-109943555D01*
X63535833Y-109937261D01*
X63583666Y-109913707D01*
X63640560Y-109879465D01*
X63694673Y-109842557D01*
X63734165Y-109811006D01*
X63747421Y-109793912D01*
X63737320Y-109769055D01*
X63712389Y-109723790D01*
X63704889Y-109711287D01*
X63662437Y-109641657D01*
X63583260Y-109704523D01*
X63486609Y-109764379D01*
X63398653Y-109784233D01*
X63320905Y-109763883D01*
X63291401Y-109743078D01*
X63245722Y-109689131D01*
X63231163Y-109624301D01*
X63231033Y-109615379D01*
X63241712Y-109548455D01*
X63277547Y-109491345D01*
X63344240Y-109437576D01*
X63430078Y-109389345D01*
X63549274Y-109317418D01*
X63630684Y-109239623D01*
X63678836Y-109151351D01*
X63685671Y-109129129D01*
X63699805Y-109010562D01*
X63679889Y-108901614D01*
X63630337Y-108808875D01*
X63555561Y-108738939D01*
X63459976Y-108698396D01*
X63392279Y-108690912D01*
X63301330Y-108700672D01*
G36*
X62424339Y-108703772D02*
G01*
X62333505Y-108747960D01*
X62258941Y-108830121D01*
X62225925Y-108887943D01*
X62192291Y-108979869D01*
X62167061Y-109094370D01*
X62153303Y-109212211D01*
X62154081Y-109314154D01*
X62155794Y-109327939D01*
X62164805Y-109389333D01*
X62752667Y-109389333D01*
X62752202Y-109447541D01*
X62736711Y-109529406D01*
X62697769Y-109618445D01*
X62644955Y-109695350D01*
X62614888Y-109724372D01*
X62536013Y-109761580D01*
X62441934Y-109768694D01*
X62347384Y-109745553D01*
X62312541Y-109727673D01*
X62242831Y-109685172D01*
X62213801Y-109754211D01*
X62198063Y-109808599D01*
X62208014Y-109849595D01*
X62248857Y-109885490D01*
X62318750Y-109921389D01*
X62443424Y-109956139D01*
X62569591Y-109949070D01*
X62665432Y-109914923D01*
X62767121Y-109841426D01*
X62843145Y-109734455D01*
X62893398Y-109594279D01*
X62917776Y-109421169D01*
X62918572Y-109259009D01*
X62908354Y-109172375D01*
X62752202Y-109172375D01*
X62750577Y-109193573D01*
X62740192Y-109207315D01*
X62713529Y-109215215D01*
X62663072Y-109218887D01*
X62581301Y-109219946D01*
X62530417Y-109220000D01*
X62308167Y-109220000D01*
X62308632Y-109151208D01*
X62317951Y-109088329D01*
X62340681Y-109014613D01*
X62350001Y-108992301D01*
X62402741Y-108913760D01*
X62469260Y-108873149D01*
X62544163Y-108871824D01*
X62622053Y-108911144D01*
X62633948Y-108920878D01*
X62674671Y-108971431D01*
X62713890Y-109043976D01*
X62742653Y-109119476D01*
X62752202Y-109172375D01*
X62908354Y-109172375D01*
X62897819Y-109083059D01*
X62852948Y-108937952D01*
X62785002Y-108825214D01*
X62695022Y-108746371D01*
X62584051Y-108702949D01*
X62534182Y-108695854D01*
X62424339Y-108703772D01*
G37*
X62424339Y-108703772D02*
X62333505Y-108747960D01*
X62258941Y-108830121D01*
X62225925Y-108887943D01*
X62192291Y-108979869D01*
X62167061Y-109094370D01*
X62153303Y-109212211D01*
X62154081Y-109314154D01*
X62155794Y-109327939D01*
X62164805Y-109389333D01*
X62752667Y-109389333D01*
X62752202Y-109447541D01*
X62736711Y-109529406D01*
X62697769Y-109618445D01*
X62644955Y-109695350D01*
X62614888Y-109724372D01*
X62536013Y-109761580D01*
X62441934Y-109768694D01*
X62347384Y-109745553D01*
X62312541Y-109727673D01*
X62242831Y-109685172D01*
X62213801Y-109754211D01*
X62198063Y-109808599D01*
X62208014Y-109849595D01*
X62248857Y-109885490D01*
X62318750Y-109921389D01*
X62443424Y-109956139D01*
X62569591Y-109949070D01*
X62665432Y-109914923D01*
X62767121Y-109841426D01*
X62843145Y-109734455D01*
X62893398Y-109594279D01*
X62917776Y-109421169D01*
X62918572Y-109259009D01*
X62908354Y-109172375D01*
X62752202Y-109172375D01*
X62750577Y-109193573D01*
X62740192Y-109207315D01*
X62713529Y-109215215D01*
X62663072Y-109218887D01*
X62581301Y-109219946D01*
X62530417Y-109220000D01*
X62308167Y-109220000D01*
X62308632Y-109151208D01*
X62317951Y-109088329D01*
X62340681Y-109014613D01*
X62350001Y-108992301D01*
X62402741Y-108913760D01*
X62469260Y-108873149D01*
X62544163Y-108871824D01*
X62622053Y-108911144D01*
X62633948Y-108920878D01*
X62674671Y-108971431D01*
X62713890Y-109043976D01*
X62742653Y-109119476D01*
X62752202Y-109172375D01*
X62908354Y-109172375D01*
X62897819Y-109083059D01*
X62852948Y-108937952D01*
X62785002Y-108825214D01*
X62695022Y-108746371D01*
X62584051Y-108702949D01*
X62534182Y-108695854D01*
X62424339Y-108703772D01*
G36*
X60114102Y-108706392D02*
G01*
X60028732Y-108755157D01*
X59963055Y-108840262D01*
X59952926Y-108859704D01*
X59937743Y-108892995D01*
X59926068Y-108927477D01*
X59917335Y-108969293D01*
X59910976Y-109024582D01*
X59906426Y-109099488D01*
X59903120Y-109200152D01*
X59900491Y-109332716D01*
X59898753Y-109447541D01*
X59891756Y-109939666D01*
X59967545Y-109939666D01*
X60018058Y-109936338D01*
X60039077Y-109919204D01*
X60043332Y-109877541D01*
X60043333Y-109875815D01*
X60043333Y-109811964D01*
X60151542Y-109886398D01*
X60261736Y-109944384D01*
X60364132Y-109961066D01*
X60459604Y-109936578D01*
X60464626Y-109934062D01*
X60536334Y-109879819D01*
X60582920Y-109800869D01*
X60607313Y-109691452D01*
X60611081Y-109646112D01*
X60609153Y-109599144D01*
X60445500Y-109599144D01*
X60431894Y-109687844D01*
X60390880Y-109744373D01*
X60322164Y-109769074D01*
X60297640Y-109770333D01*
X60233327Y-109761853D01*
X60176711Y-109730723D01*
X60140091Y-109699042D01*
X60101510Y-109660570D01*
X60078960Y-109627006D01*
X60068142Y-109585232D01*
X60064755Y-109522131D01*
X60064500Y-109468458D01*
X60064500Y-109309166D01*
X60151390Y-109328689D01*
X60277856Y-109370855D01*
X60370479Y-109431910D01*
X60427078Y-109509850D01*
X60445500Y-109599144D01*
X60609153Y-109599144D01*
X60605713Y-109515384D01*
X60571496Y-109408779D01*
X60505648Y-109323147D01*
X60405384Y-109255332D01*
X60267922Y-109202184D01*
X60203832Y-109184800D01*
X60061088Y-109149574D01*
X60074477Y-109073662D01*
X60107356Y-108975313D01*
X60162720Y-108911487D01*
X60236575Y-108883677D01*
X60324921Y-108893381D01*
X60423763Y-108942092D01*
X60424612Y-108942661D01*
X60518874Y-109005968D01*
X60548262Y-108932287D01*
X60565567Y-108880191D01*
X60562800Y-108847560D01*
X60543535Y-108820910D01*
X60474358Y-108767006D01*
X60380765Y-108722896D01*
X60280600Y-108695849D01*
X60224198Y-108690833D01*
X60114102Y-108706392D01*
G37*
X60114102Y-108706392D02*
X60028732Y-108755157D01*
X59963055Y-108840262D01*
X59952926Y-108859704D01*
X59937743Y-108892995D01*
X59926068Y-108927477D01*
X59917335Y-108969293D01*
X59910976Y-109024582D01*
X59906426Y-109099488D01*
X59903120Y-109200152D01*
X59900491Y-109332716D01*
X59898753Y-109447541D01*
X59891756Y-109939666D01*
X59967545Y-109939666D01*
X60018058Y-109936338D01*
X60039077Y-109919204D01*
X60043332Y-109877541D01*
X60043333Y-109875815D01*
X60043333Y-109811964D01*
X60151542Y-109886398D01*
X60261736Y-109944384D01*
X60364132Y-109961066D01*
X60459604Y-109936578D01*
X60464626Y-109934062D01*
X60536334Y-109879819D01*
X60582920Y-109800869D01*
X60607313Y-109691452D01*
X60611081Y-109646112D01*
X60609153Y-109599144D01*
X60445500Y-109599144D01*
X60431894Y-109687844D01*
X60390880Y-109744373D01*
X60322164Y-109769074D01*
X60297640Y-109770333D01*
X60233327Y-109761853D01*
X60176711Y-109730723D01*
X60140091Y-109699042D01*
X60101510Y-109660570D01*
X60078960Y-109627006D01*
X60068142Y-109585232D01*
X60064755Y-109522131D01*
X60064500Y-109468458D01*
X60064500Y-109309166D01*
X60151390Y-109328689D01*
X60277856Y-109370855D01*
X60370479Y-109431910D01*
X60427078Y-109509850D01*
X60445500Y-109599144D01*
X60609153Y-109599144D01*
X60605713Y-109515384D01*
X60571496Y-109408779D01*
X60505648Y-109323147D01*
X60405384Y-109255332D01*
X60267922Y-109202184D01*
X60203832Y-109184800D01*
X60061088Y-109149574D01*
X60074477Y-109073662D01*
X60107356Y-108975313D01*
X60162720Y-108911487D01*
X60236575Y-108883677D01*
X60324921Y-108893381D01*
X60423763Y-108942092D01*
X60424612Y-108942661D01*
X60518874Y-109005968D01*
X60548262Y-108932287D01*
X60565567Y-108880191D01*
X60562800Y-108847560D01*
X60543535Y-108820910D01*
X60474358Y-108767006D01*
X60380765Y-108722896D01*
X60280600Y-108695849D01*
X60224198Y-108690833D01*
X60114102Y-108706392D01*
G36*
X56953000Y-108712000D02*
G01*
X56699000Y-108712000D01*
X56699000Y-108902500D01*
X56956299Y-108902500D01*
X56949358Y-109301467D01*
X56946128Y-109455992D01*
X56941415Y-109573065D01*
X56933560Y-109657566D01*
X56920902Y-109714376D01*
X56901780Y-109748374D01*
X56874535Y-109764443D01*
X56837507Y-109767463D01*
X56792424Y-109762781D01*
X56736676Y-109756947D01*
X56709352Y-109765756D01*
X56696942Y-109798057D01*
X56691616Y-109828804D01*
X56688205Y-109884942D01*
X56696063Y-109923071D01*
X56698809Y-109926775D01*
X56729724Y-109939490D01*
X56787945Y-109950933D01*
X56834922Y-109956283D01*
X56904975Y-109959760D01*
X56950017Y-109952236D01*
X56986941Y-109928722D01*
X57013588Y-109903502D01*
X57049023Y-109862295D01*
X57076024Y-109814636D01*
X57095669Y-109754432D01*
X57109033Y-109675591D01*
X57117193Y-109572022D01*
X57121226Y-109437632D01*
X57122215Y-109288791D01*
X57122333Y-108902500D01*
X57185833Y-108902500D01*
X57226461Y-108899189D01*
X57244585Y-108881193D01*
X57249223Y-108836414D01*
X57249333Y-108817304D01*
X57246058Y-108761617D01*
X57230350Y-108734152D01*
X57193392Y-108720952D01*
X57187708Y-108719783D01*
X57147338Y-108705290D01*
X57121637Y-108675980D01*
X57107539Y-108623867D01*
X57101981Y-108540966D01*
X57101456Y-108495041D01*
X57101167Y-108373333D01*
X56953000Y-108373333D01*
X56953000Y-108712000D01*
G37*
X56953000Y-108712000D02*
X56699000Y-108712000D01*
X56699000Y-108902500D01*
X56956299Y-108902500D01*
X56949358Y-109301467D01*
X56946128Y-109455992D01*
X56941415Y-109573065D01*
X56933560Y-109657566D01*
X56920902Y-109714376D01*
X56901780Y-109748374D01*
X56874535Y-109764443D01*
X56837507Y-109767463D01*
X56792424Y-109762781D01*
X56736676Y-109756947D01*
X56709352Y-109765756D01*
X56696942Y-109798057D01*
X56691616Y-109828804D01*
X56688205Y-109884942D01*
X56696063Y-109923071D01*
X56698809Y-109926775D01*
X56729724Y-109939490D01*
X56787945Y-109950933D01*
X56834922Y-109956283D01*
X56904975Y-109959760D01*
X56950017Y-109952236D01*
X56986941Y-109928722D01*
X57013588Y-109903502D01*
X57049023Y-109862295D01*
X57076024Y-109814636D01*
X57095669Y-109754432D01*
X57109033Y-109675591D01*
X57117193Y-109572022D01*
X57121226Y-109437632D01*
X57122215Y-109288791D01*
X57122333Y-108902500D01*
X57185833Y-108902500D01*
X57226461Y-108899189D01*
X57244585Y-108881193D01*
X57249223Y-108836414D01*
X57249333Y-108817304D01*
X57246058Y-108761617D01*
X57230350Y-108734152D01*
X57193392Y-108720952D01*
X57187708Y-108719783D01*
X57147338Y-108705290D01*
X57121637Y-108675980D01*
X57107539Y-108623867D01*
X57101981Y-108540966D01*
X57101456Y-108495041D01*
X57101167Y-108373333D01*
X56953000Y-108373333D01*
X56953000Y-108712000D01*
G36*
X56360215Y-109140625D02*
G01*
X56359105Y-109276593D01*
X56356080Y-109402957D01*
X56351485Y-109511776D01*
X56345667Y-109595105D01*
X56338971Y-109645003D01*
X56338123Y-109648375D01*
X56301891Y-109724977D01*
X56248895Y-109764324D01*
X56183499Y-109765842D01*
X56110070Y-109728958D01*
X56060723Y-109684775D01*
X55979333Y-109599217D01*
X55979333Y-108712000D01*
X55788184Y-108712000D01*
X55793801Y-109320541D01*
X55799417Y-109929083D01*
X55867749Y-109935681D01*
X55912276Y-109936642D01*
X55934562Y-109920589D01*
X55946523Y-109876391D01*
X55949322Y-109859482D01*
X55962562Y-109776684D01*
X56041124Y-109860907D01*
X56096027Y-109913326D01*
X56146393Y-109940724D01*
X56211633Y-109952993D01*
X56224135Y-109954160D01*
X56306986Y-109954284D01*
X56371161Y-109934840D01*
X56396262Y-109920666D01*
X56434885Y-109890820D01*
X56465483Y-109851999D01*
X56488933Y-109799364D01*
X56506112Y-109728076D01*
X56517897Y-109633294D01*
X56525164Y-109510179D01*
X56528790Y-109353892D01*
X56529667Y-109184408D01*
X56529667Y-108712000D01*
X56360333Y-108712000D01*
X56360215Y-109140625D01*
G37*
X56360215Y-109140625D02*
X56359105Y-109276593D01*
X56356080Y-109402957D01*
X56351485Y-109511776D01*
X56345667Y-109595105D01*
X56338971Y-109645003D01*
X56338123Y-109648375D01*
X56301891Y-109724977D01*
X56248895Y-109764324D01*
X56183499Y-109765842D01*
X56110070Y-109728958D01*
X56060723Y-109684775D01*
X55979333Y-109599217D01*
X55979333Y-108712000D01*
X55788184Y-108712000D01*
X55793801Y-109320541D01*
X55799417Y-109929083D01*
X55867749Y-109935681D01*
X55912276Y-109936642D01*
X55934562Y-109920589D01*
X55946523Y-109876391D01*
X55949322Y-109859482D01*
X55962562Y-109776684D01*
X56041124Y-109860907D01*
X56096027Y-109913326D01*
X56146393Y-109940724D01*
X56211633Y-109952993D01*
X56224135Y-109954160D01*
X56306986Y-109954284D01*
X56371161Y-109934840D01*
X56396262Y-109920666D01*
X56434885Y-109890820D01*
X56465483Y-109851999D01*
X56488933Y-109799364D01*
X56506112Y-109728076D01*
X56517897Y-109633294D01*
X56525164Y-109510179D01*
X56528790Y-109353892D01*
X56529667Y-109184408D01*
X56529667Y-108712000D01*
X56360333Y-108712000D01*
X56360215Y-109140625D01*
G36*
X55323167Y-108712000D02*
G01*
X55069167Y-108712000D01*
X55069167Y-108902500D01*
X55327808Y-108902500D01*
X55319426Y-109288791D01*
X55315348Y-109445461D01*
X55309746Y-109564646D01*
X55301038Y-109651195D01*
X55287644Y-109709954D01*
X55267983Y-109745774D01*
X55240474Y-109763501D01*
X55203538Y-109767985D01*
X55164154Y-109765073D01*
X55106978Y-109760451D01*
X55078380Y-109769134D01*
X55064921Y-109799264D01*
X55058936Y-109828813D01*
X55055089Y-109885133D01*
X55064791Y-109922331D01*
X55066445Y-109924244D01*
X55106547Y-109942417D01*
X55171892Y-109952501D01*
X55246049Y-109953854D01*
X55312587Y-109945834D01*
X55344333Y-109935102D01*
X55387035Y-109898934D01*
X55429029Y-109842252D01*
X55439583Y-109823082D01*
X55454481Y-109789017D01*
X55465730Y-109749992D01*
X55473990Y-109699304D01*
X55479922Y-109630254D01*
X55484186Y-109536141D01*
X55487443Y-109410262D01*
X55489123Y-109320541D01*
X55496328Y-108902500D01*
X55557914Y-108902500D01*
X55597584Y-108898910D01*
X55615105Y-108880030D01*
X55619431Y-108833692D01*
X55619500Y-108818792D01*
X55616431Y-108764122D01*
X55600001Y-108737294D01*
X55559377Y-108723895D01*
X55546268Y-108721346D01*
X55473035Y-108707607D01*
X55466893Y-108545762D01*
X55460750Y-108383916D01*
X55391958Y-108377283D01*
X55323167Y-108370651D01*
X55323167Y-108712000D01*
G37*
X55323167Y-108712000D02*
X55069167Y-108712000D01*
X55069167Y-108902500D01*
X55327808Y-108902500D01*
X55319426Y-109288791D01*
X55315348Y-109445461D01*
X55309746Y-109564646D01*
X55301038Y-109651195D01*
X55287644Y-109709954D01*
X55267983Y-109745774D01*
X55240474Y-109763501D01*
X55203538Y-109767985D01*
X55164154Y-109765073D01*
X55106978Y-109760451D01*
X55078380Y-109769134D01*
X55064921Y-109799264D01*
X55058936Y-109828813D01*
X55055089Y-109885133D01*
X55064791Y-109922331D01*
X55066445Y-109924244D01*
X55106547Y-109942417D01*
X55171892Y-109952501D01*
X55246049Y-109953854D01*
X55312587Y-109945834D01*
X55344333Y-109935102D01*
X55387035Y-109898934D01*
X55429029Y-109842252D01*
X55439583Y-109823082D01*
X55454481Y-109789017D01*
X55465730Y-109749992D01*
X55473990Y-109699304D01*
X55479922Y-109630254D01*
X55484186Y-109536141D01*
X55487443Y-109410262D01*
X55489123Y-109320541D01*
X55496328Y-108902500D01*
X55557914Y-108902500D01*
X55597584Y-108898910D01*
X55615105Y-108880030D01*
X55619431Y-108833692D01*
X55619500Y-108818792D01*
X55616431Y-108764122D01*
X55600001Y-108737294D01*
X55559377Y-108723895D01*
X55546268Y-108721346D01*
X55473035Y-108707607D01*
X55466893Y-108545762D01*
X55460750Y-108383916D01*
X55391958Y-108377283D01*
X55323167Y-108370651D01*
X55323167Y-108712000D01*
G36*
X54730500Y-108712000D02*
G01*
X54476500Y-108712000D01*
X54476500Y-108902500D01*
X54730500Y-108902500D01*
X54729305Y-109257041D01*
X54727121Y-109406805D01*
X54721878Y-109531281D01*
X54713920Y-109624974D01*
X54703591Y-109682385D01*
X54702529Y-109685666D01*
X54683927Y-109730843D01*
X54659825Y-109752298D01*
X54615761Y-109758516D01*
X54578317Y-109758519D01*
X54518010Y-109759620D01*
X54487071Y-109770399D01*
X54472560Y-109799101D01*
X54466034Y-109830068D01*
X54461540Y-109887737D01*
X54478956Y-109923850D01*
X54525001Y-109944323D01*
X54606390Y-109955077D01*
X54608047Y-109955205D01*
X54693995Y-109955388D01*
X54752416Y-109938745D01*
X54767663Y-109929265D01*
X54805747Y-109898192D01*
X54835072Y-109863040D01*
X54856898Y-109817940D01*
X54872485Y-109757026D01*
X54883094Y-109674429D01*
X54889986Y-109564282D01*
X54894421Y-109420718D01*
X54896172Y-109331125D01*
X54903596Y-108902500D01*
X54965215Y-108902500D01*
X55004905Y-108898913D01*
X55022436Y-108880043D01*
X55026764Y-108833720D01*
X55026833Y-108818792D01*
X55023782Y-108764140D01*
X55007321Y-108737309D01*
X54966489Y-108723858D01*
X54952750Y-108721186D01*
X54878667Y-108707288D01*
X54878667Y-108373333D01*
X54730500Y-108373333D01*
X54730500Y-108712000D01*
G37*
X54730500Y-108712000D02*
X54476500Y-108712000D01*
X54476500Y-108902500D01*
X54730500Y-108902500D01*
X54729305Y-109257041D01*
X54727121Y-109406805D01*
X54721878Y-109531281D01*
X54713920Y-109624974D01*
X54703591Y-109682385D01*
X54702529Y-109685666D01*
X54683927Y-109730843D01*
X54659825Y-109752298D01*
X54615761Y-109758516D01*
X54578317Y-109758519D01*
X54518010Y-109759620D01*
X54487071Y-109770399D01*
X54472560Y-109799101D01*
X54466034Y-109830068D01*
X54461540Y-109887737D01*
X54478956Y-109923850D01*
X54525001Y-109944323D01*
X54606390Y-109955077D01*
X54608047Y-109955205D01*
X54693995Y-109955388D01*
X54752416Y-109938745D01*
X54767663Y-109929265D01*
X54805747Y-109898192D01*
X54835072Y-109863040D01*
X54856898Y-109817940D01*
X54872485Y-109757026D01*
X54883094Y-109674429D01*
X54889986Y-109564282D01*
X54894421Y-109420718D01*
X54896172Y-109331125D01*
X54903596Y-108902500D01*
X54965215Y-108902500D01*
X55004905Y-108898913D01*
X55022436Y-108880043D01*
X55026764Y-108833720D01*
X55026833Y-108818792D01*
X55023782Y-108764140D01*
X55007321Y-108737309D01*
X54966489Y-108723858D01*
X54952750Y-108721186D01*
X54878667Y-108707288D01*
X54878667Y-108373333D01*
X54730500Y-108373333D01*
X54730500Y-108712000D01*
G36*
X52172357Y-108317032D02*
G01*
X52082505Y-108358277D01*
X52001086Y-108435630D01*
X51937796Y-108546497D01*
X51892246Y-108692187D01*
X51864050Y-108874010D01*
X51852819Y-109093276D01*
X51852569Y-109135333D01*
X51860888Y-109361245D01*
X51886106Y-109549487D01*
X51928610Y-109701367D01*
X51988787Y-109818197D01*
X52067025Y-109901285D01*
X52082505Y-109912389D01*
X52174606Y-109951162D01*
X52277433Y-109957871D01*
X52350977Y-109940325D01*
X52413340Y-109896453D01*
X52475844Y-109819167D01*
X52532217Y-109716898D01*
X52551940Y-109670121D01*
X52571196Y-109613995D01*
X52585218Y-109554582D01*
X52595148Y-109482825D01*
X52602130Y-109389667D01*
X52607307Y-109266049D01*
X52608727Y-109220000D01*
X52609935Y-109135333D01*
X52445418Y-109135333D01*
X52439561Y-109334654D01*
X52421916Y-109494656D01*
X52392210Y-109616756D01*
X52350173Y-109702373D01*
X52332998Y-109723450D01*
X52272160Y-109761680D01*
X52204738Y-109762583D01*
X52142054Y-109727191D01*
X52121635Y-109704175D01*
X52077516Y-109616290D01*
X52046072Y-109488899D01*
X52027466Y-109322939D01*
X52021828Y-109135333D01*
X52028375Y-108932288D01*
X52048114Y-108769063D01*
X52081191Y-108645206D01*
X52127750Y-108560264D01*
X52187939Y-108513783D01*
X52225009Y-108504628D01*
X52294188Y-108516344D01*
X52350244Y-108567036D01*
X52393280Y-108657000D01*
X52423400Y-108786529D01*
X52440706Y-108955917D01*
X52445418Y-109135333D01*
X52609935Y-109135333D01*
X52611303Y-109039549D01*
X52606643Y-108892940D01*
X52593645Y-108772127D01*
X52571209Y-108669064D01*
X52538236Y-108575707D01*
X52513182Y-108521500D01*
X52443756Y-108416142D01*
X52360649Y-108345747D01*
X52268603Y-108312111D01*
X52172357Y-108317032D01*
G37*
X52172357Y-108317032D02*
X52082505Y-108358277D01*
X52001086Y-108435630D01*
X51937796Y-108546497D01*
X51892246Y-108692187D01*
X51864050Y-108874010D01*
X51852819Y-109093276D01*
X51852569Y-109135333D01*
X51860888Y-109361245D01*
X51886106Y-109549487D01*
X51928610Y-109701367D01*
X51988787Y-109818197D01*
X52067025Y-109901285D01*
X52082505Y-109912389D01*
X52174606Y-109951162D01*
X52277433Y-109957871D01*
X52350977Y-109940325D01*
X52413340Y-109896453D01*
X52475844Y-109819167D01*
X52532217Y-109716898D01*
X52551940Y-109670121D01*
X52571196Y-109613995D01*
X52585218Y-109554582D01*
X52595148Y-109482825D01*
X52602130Y-109389667D01*
X52607307Y-109266049D01*
X52608727Y-109220000D01*
X52609935Y-109135333D01*
X52445418Y-109135333D01*
X52439561Y-109334654D01*
X52421916Y-109494656D01*
X52392210Y-109616756D01*
X52350173Y-109702373D01*
X52332998Y-109723450D01*
X52272160Y-109761680D01*
X52204738Y-109762583D01*
X52142054Y-109727191D01*
X52121635Y-109704175D01*
X52077516Y-109616290D01*
X52046072Y-109488899D01*
X52027466Y-109322939D01*
X52021828Y-109135333D01*
X52028375Y-108932288D01*
X52048114Y-108769063D01*
X52081191Y-108645206D01*
X52127750Y-108560264D01*
X52187939Y-108513783D01*
X52225009Y-108504628D01*
X52294188Y-108516344D01*
X52350244Y-108567036D01*
X52393280Y-108657000D01*
X52423400Y-108786529D01*
X52440706Y-108955917D01*
X52445418Y-109135333D01*
X52609935Y-109135333D01*
X52611303Y-109039549D01*
X52606643Y-108892940D01*
X52593645Y-108772127D01*
X52571209Y-108669064D01*
X52538236Y-108575707D01*
X52513182Y-108521500D01*
X52443756Y-108416142D01*
X52360649Y-108345747D01*
X52268603Y-108312111D01*
X52172357Y-108317032D01*
G36*
X50300367Y-108332546D02*
G01*
X50219594Y-108372683D01*
X50153918Y-108446451D01*
X50121509Y-108502519D01*
X50069910Y-108628951D01*
X50035555Y-108776661D01*
X50017591Y-108951395D01*
X50015166Y-109158895D01*
X50016629Y-109209416D01*
X50031480Y-109422526D01*
X50060057Y-109597324D01*
X50103036Y-109735770D01*
X50161095Y-109839824D01*
X50234907Y-109911446D01*
X50264951Y-109929402D01*
X50349846Y-109954856D01*
X50444554Y-109956210D01*
X50507750Y-109940524D01*
X50584519Y-109886791D01*
X50651001Y-109796911D01*
X50705810Y-109676122D01*
X50747555Y-109529665D01*
X50774848Y-109362778D01*
X50786300Y-109180702D01*
X50783755Y-109096062D01*
X50610059Y-109096062D01*
X50608995Y-109236068D01*
X50603116Y-109366828D01*
X50592421Y-109475516D01*
X50584356Y-109521836D01*
X50550792Y-109624475D01*
X50503331Y-109703120D01*
X50447112Y-109753966D01*
X50387280Y-109773210D01*
X50328976Y-109757047D01*
X50299921Y-109732240D01*
X50263124Y-109683356D01*
X50235394Y-109624697D01*
X50215604Y-109549991D01*
X50202626Y-109452967D01*
X50195329Y-109327355D01*
X50192587Y-109166881D01*
X50192492Y-109135333D01*
X50194063Y-108968964D01*
X50200077Y-108838455D01*
X50211676Y-108737465D01*
X50230000Y-108659648D01*
X50256192Y-108598662D01*
X50291393Y-108548164D01*
X50299921Y-108538425D01*
X50355260Y-108501549D01*
X50414905Y-108502135D01*
X50473714Y-108536378D01*
X50526546Y-108600475D01*
X50568258Y-108690621D01*
X50584356Y-108748830D01*
X50597739Y-108839617D01*
X50606307Y-108959636D01*
X50610059Y-109096062D01*
X50783755Y-109096062D01*
X50780524Y-108988677D01*
X50775329Y-108930929D01*
X50753814Y-108766952D01*
X50725815Y-108637645D01*
X50688869Y-108535536D01*
X50640513Y-108453152D01*
X50602959Y-108407882D01*
X50552538Y-108357381D01*
X50511180Y-108331316D01*
X50460757Y-108321680D01*
X50404988Y-108320416D01*
X50300367Y-108332546D01*
G37*
X50300367Y-108332546D02*
X50219594Y-108372683D01*
X50153918Y-108446451D01*
X50121509Y-108502519D01*
X50069910Y-108628951D01*
X50035555Y-108776661D01*
X50017591Y-108951395D01*
X50015166Y-109158895D01*
X50016629Y-109209416D01*
X50031480Y-109422526D01*
X50060057Y-109597324D01*
X50103036Y-109735770D01*
X50161095Y-109839824D01*
X50234907Y-109911446D01*
X50264951Y-109929402D01*
X50349846Y-109954856D01*
X50444554Y-109956210D01*
X50507750Y-109940524D01*
X50584519Y-109886791D01*
X50651001Y-109796911D01*
X50705810Y-109676122D01*
X50747555Y-109529665D01*
X50774848Y-109362778D01*
X50786300Y-109180702D01*
X50783755Y-109096062D01*
X50610059Y-109096062D01*
X50608995Y-109236068D01*
X50603116Y-109366828D01*
X50592421Y-109475516D01*
X50584356Y-109521836D01*
X50550792Y-109624475D01*
X50503331Y-109703120D01*
X50447112Y-109753966D01*
X50387280Y-109773210D01*
X50328976Y-109757047D01*
X50299921Y-109732240D01*
X50263124Y-109683356D01*
X50235394Y-109624697D01*
X50215604Y-109549991D01*
X50202626Y-109452967D01*
X50195329Y-109327355D01*
X50192587Y-109166881D01*
X50192492Y-109135333D01*
X50194063Y-108968964D01*
X50200077Y-108838455D01*
X50211676Y-108737465D01*
X50230000Y-108659648D01*
X50256192Y-108598662D01*
X50291393Y-108548164D01*
X50299921Y-108538425D01*
X50355260Y-108501549D01*
X50414905Y-108502135D01*
X50473714Y-108536378D01*
X50526546Y-108600475D01*
X50568258Y-108690621D01*
X50584356Y-108748830D01*
X50597739Y-108839617D01*
X50606307Y-108959636D01*
X50610059Y-109096062D01*
X50783755Y-109096062D01*
X50780524Y-108988677D01*
X50775329Y-108930929D01*
X50753814Y-108766952D01*
X50725815Y-108637645D01*
X50688869Y-108535536D01*
X50640513Y-108453152D01*
X50602959Y-108407882D01*
X50552538Y-108357381D01*
X50511180Y-108331316D01*
X50460757Y-108321680D01*
X50404988Y-108320416D01*
X50300367Y-108332546D01*
G36*
X60695999Y-108141444D02*
G01*
X60694862Y-108141748D01*
X60641625Y-108158668D01*
X60619945Y-108178459D01*
X60620027Y-108213060D01*
X60623061Y-108229262D01*
X60632272Y-108281568D01*
X60636000Y-108314834D01*
X60654275Y-108325971D01*
X60701219Y-108323438D01*
X60705820Y-108322613D01*
X60770528Y-108317874D01*
X60815178Y-108335647D01*
X60843580Y-108381133D01*
X60859543Y-108459535D01*
X60865541Y-108540783D01*
X60873316Y-108712000D01*
X60678333Y-108712000D01*
X60678333Y-108902500D01*
X60868833Y-108902500D01*
X60868833Y-109939666D01*
X61038167Y-109939666D01*
X61038167Y-108902500D01*
X61101667Y-108902500D01*
X61142294Y-108899189D01*
X61160418Y-108881193D01*
X61165057Y-108836414D01*
X61165167Y-108817304D01*
X61161951Y-108761695D01*
X61146230Y-108734242D01*
X61108895Y-108720900D01*
X61101667Y-108719408D01*
X61038167Y-108706708D01*
X61038167Y-108533922D01*
X61028189Y-108386591D01*
X60997631Y-108274702D01*
X60945554Y-108196193D01*
X60871020Y-108149006D01*
X60861260Y-108145590D01*
X60779394Y-108129754D01*
X60695999Y-108141444D01*
G37*
X60695999Y-108141444D02*
X60694862Y-108141748D01*
X60641625Y-108158668D01*
X60619945Y-108178459D01*
X60620027Y-108213060D01*
X60623061Y-108229262D01*
X60632272Y-108281568D01*
X60636000Y-108314834D01*
X60654275Y-108325971D01*
X60701219Y-108323438D01*
X60705820Y-108322613D01*
X60770528Y-108317874D01*
X60815178Y-108335647D01*
X60843580Y-108381133D01*
X60859543Y-108459535D01*
X60865541Y-108540783D01*
X60873316Y-108712000D01*
X60678333Y-108712000D01*
X60678333Y-108902500D01*
X60868833Y-108902500D01*
X60868833Y-109939666D01*
X61038167Y-109939666D01*
X61038167Y-108902500D01*
X61101667Y-108902500D01*
X61142294Y-108899189D01*
X61160418Y-108881193D01*
X61165057Y-108836414D01*
X61165167Y-108817304D01*
X61161951Y-108761695D01*
X61146230Y-108734242D01*
X61108895Y-108720900D01*
X61101667Y-108719408D01*
X61038167Y-108706708D01*
X61038167Y-108533922D01*
X61028189Y-108386591D01*
X60997631Y-108274702D01*
X60945554Y-108196193D01*
X60871020Y-108149006D01*
X60861260Y-108145590D01*
X60779394Y-108129754D01*
X60695999Y-108141444D01*
G36*
X59101864Y-108695228D02*
G01*
X59052255Y-108712923D01*
X59006564Y-108750679D01*
X59006534Y-108750709D01*
X58974930Y-108786771D01*
X58950192Y-108827952D01*
X58931508Y-108879672D01*
X58918066Y-108947351D01*
X58909053Y-109036408D01*
X58903655Y-109152264D01*
X58901061Y-109300338D01*
X58900452Y-109458125D01*
X58900333Y-109939666D01*
X59069667Y-109939666D01*
X59069667Y-109483532D01*
X59070281Y-109322564D01*
X59072336Y-109198590D01*
X59076153Y-109106285D01*
X59082049Y-109040323D01*
X59090346Y-108995381D01*
X59100634Y-108967513D01*
X59149946Y-108904231D01*
X59211005Y-108881419D01*
X59283049Y-108899106D01*
X59365317Y-108957318D01*
X59365939Y-108957879D01*
X59450667Y-109034426D01*
X59450667Y-109939666D01*
X59535998Y-109939666D01*
X59594853Y-109933430D01*
X59628858Y-109917353D01*
X59631597Y-109912907D01*
X59634094Y-109885414D01*
X59635965Y-109821333D01*
X59637167Y-109726404D01*
X59637655Y-109606368D01*
X59637386Y-109466966D01*
X59636316Y-109313940D01*
X59636224Y-109304366D01*
X59630583Y-108722583D01*
X59569380Y-108715596D01*
X59511333Y-108722139D01*
X59479906Y-108760059D01*
X59472158Y-108815237D01*
X59469850Y-108840861D01*
X59458650Y-108845709D01*
X59431470Y-108827019D01*
X59381218Y-108782029D01*
X59377056Y-108778195D01*
X59319008Y-108728317D01*
X59272653Y-108702076D01*
X59220873Y-108692096D01*
X59174345Y-108690833D01*
X59101864Y-108695228D01*
G37*
X59101864Y-108695228D02*
X59052255Y-108712923D01*
X59006564Y-108750679D01*
X59006534Y-108750709D01*
X58974930Y-108786771D01*
X58950192Y-108827952D01*
X58931508Y-108879672D01*
X58918066Y-108947351D01*
X58909053Y-109036408D01*
X58903655Y-109152264D01*
X58901061Y-109300338D01*
X58900452Y-109458125D01*
X58900333Y-109939666D01*
X59069667Y-109939666D01*
X59069667Y-109483532D01*
X59070281Y-109322564D01*
X59072336Y-109198590D01*
X59076153Y-109106285D01*
X59082049Y-109040323D01*
X59090346Y-108995381D01*
X59100634Y-108967513D01*
X59149946Y-108904231D01*
X59211005Y-108881419D01*
X59283049Y-108899106D01*
X59365317Y-108957318D01*
X59365939Y-108957879D01*
X59450667Y-109034426D01*
X59450667Y-109939666D01*
X59535998Y-109939666D01*
X59594853Y-109933430D01*
X59628858Y-109917353D01*
X59631597Y-109912907D01*
X59634094Y-109885414D01*
X59635965Y-109821333D01*
X59637167Y-109726404D01*
X59637655Y-109606368D01*
X59637386Y-109466966D01*
X59636316Y-109313940D01*
X59636224Y-109304366D01*
X59630583Y-108722583D01*
X59569380Y-108715596D01*
X59511333Y-108722139D01*
X59479906Y-108760059D01*
X59472158Y-108815237D01*
X59469850Y-108840861D01*
X59458650Y-108845709D01*
X59431470Y-108827019D01*
X59381218Y-108782029D01*
X59377056Y-108778195D01*
X59319008Y-108728317D01*
X59272653Y-108702076D01*
X59220873Y-108692096D01*
X59174345Y-108690833D01*
X59101864Y-108695228D01*
G36*
X58085864Y-108695228D02*
G01*
X58036255Y-108712923D01*
X57990564Y-108750679D01*
X57990534Y-108750709D01*
X57958930Y-108786771D01*
X57934192Y-108827952D01*
X57915508Y-108879672D01*
X57902066Y-108947351D01*
X57893053Y-109036408D01*
X57887655Y-109152264D01*
X57885061Y-109300338D01*
X57884452Y-109458125D01*
X57884333Y-109939666D01*
X58053667Y-109939666D01*
X58053667Y-109494486D01*
X58054679Y-109319986D01*
X58058306Y-109183074D01*
X58065433Y-109079038D01*
X58076947Y-109003169D01*
X58093731Y-108950756D01*
X58116673Y-108917088D01*
X58146657Y-108897455D01*
X58167161Y-108890758D01*
X58231418Y-108885486D01*
X58290971Y-108907779D01*
X58355724Y-108962166D01*
X58380104Y-108988131D01*
X58455833Y-109071955D01*
X58455833Y-109939666D01*
X58625167Y-109939666D01*
X58625167Y-108712000D01*
X58553439Y-108712000D01*
X58504727Y-108716326D01*
X58480801Y-108737744D01*
X58467524Y-108787627D01*
X58453336Y-108863255D01*
X58359808Y-108777044D01*
X58301986Y-108727506D01*
X58255453Y-108701628D01*
X58202793Y-108691958D01*
X58158345Y-108690833D01*
X58085864Y-108695228D01*
G37*
X58085864Y-108695228D02*
X58036255Y-108712923D01*
X57990564Y-108750679D01*
X57990534Y-108750709D01*
X57958930Y-108786771D01*
X57934192Y-108827952D01*
X57915508Y-108879672D01*
X57902066Y-108947351D01*
X57893053Y-109036408D01*
X57887655Y-109152264D01*
X57885061Y-109300338D01*
X57884452Y-109458125D01*
X57884333Y-109939666D01*
X58053667Y-109939666D01*
X58053667Y-109494486D01*
X58054679Y-109319986D01*
X58058306Y-109183074D01*
X58065433Y-109079038D01*
X58076947Y-109003169D01*
X58093731Y-108950756D01*
X58116673Y-108917088D01*
X58146657Y-108897455D01*
X58167161Y-108890758D01*
X58231418Y-108885486D01*
X58290971Y-108907779D01*
X58355724Y-108962166D01*
X58380104Y-108988131D01*
X58455833Y-109071955D01*
X58455833Y-109939666D01*
X58625167Y-109939666D01*
X58625167Y-108712000D01*
X58553439Y-108712000D01*
X58504727Y-108716326D01*
X58480801Y-108737744D01*
X58467524Y-108787627D01*
X58453336Y-108863255D01*
X58359808Y-108777044D01*
X58301986Y-108727506D01*
X58255453Y-108701628D01*
X58202793Y-108691958D01*
X58158345Y-108690833D01*
X58085864Y-108695228D01*
G36*
X57439833Y-109939666D02*
G01*
X57609167Y-109939666D01*
X57609167Y-108712000D01*
X57439833Y-108712000D01*
X57439833Y-109939666D01*
G37*
X57439833Y-109939666D02*
X57609167Y-109939666D01*
X57609167Y-108712000D01*
X57439833Y-108712000D01*
X57439833Y-109939666D01*
G36*
X54116667Y-109939666D02*
G01*
X54307167Y-109939666D01*
X54307167Y-108712000D01*
X54116667Y-108712000D01*
X54116667Y-109939666D01*
G37*
X54116667Y-109939666D02*
X54307167Y-109939666D01*
X54307167Y-108712000D01*
X54116667Y-108712000D01*
X54116667Y-109939666D01*
G36*
X53098168Y-108322100D02*
G01*
X53004480Y-108362753D01*
X52997707Y-108367589D01*
X52924104Y-108445723D01*
X52868353Y-108553410D01*
X52835567Y-108679831D01*
X52830905Y-108720626D01*
X52831920Y-108846380D01*
X52856308Y-108977255D01*
X52906015Y-109118239D01*
X52982989Y-109274321D01*
X53089177Y-109450487D01*
X53153695Y-109547455D01*
X53291413Y-109749166D01*
X52762000Y-109749166D01*
X52762000Y-109939666D01*
X53545167Y-109939666D01*
X53545167Y-109865411D01*
X53540308Y-109828044D01*
X53523320Y-109783447D01*
X53490589Y-109725177D01*
X53438497Y-109646793D01*
X53363987Y-109542619D01*
X53240400Y-109363717D01*
X53140062Y-109198714D01*
X53065004Y-109051519D01*
X53017259Y-108926042D01*
X52999939Y-108842351D01*
X53002473Y-108725658D01*
X53031428Y-108627355D01*
X53083115Y-108553390D01*
X53153845Y-108509708D01*
X53212140Y-108500333D01*
X53262150Y-108510896D01*
X53317519Y-108546523D01*
X53371192Y-108595954D01*
X53420709Y-108644168D01*
X53456495Y-108676550D01*
X53470301Y-108685913D01*
X53484087Y-108667019D01*
X53513512Y-108627830D01*
X53519821Y-108619492D01*
X53565853Y-108558735D01*
X53502134Y-108478283D01*
X53415215Y-108395468D01*
X53312763Y-108340482D01*
X53204005Y-108315351D01*
X53098168Y-108322100D01*
G37*
X53098168Y-108322100D02*
X53004480Y-108362753D01*
X52997707Y-108367589D01*
X52924104Y-108445723D01*
X52868353Y-108553410D01*
X52835567Y-108679831D01*
X52830905Y-108720626D01*
X52831920Y-108846380D01*
X52856308Y-108977255D01*
X52906015Y-109118239D01*
X52982989Y-109274321D01*
X53089177Y-109450487D01*
X53153695Y-109547455D01*
X53291413Y-109749166D01*
X52762000Y-109749166D01*
X52762000Y-109939666D01*
X53545167Y-109939666D01*
X53545167Y-109865411D01*
X53540308Y-109828044D01*
X53523320Y-109783447D01*
X53490589Y-109725177D01*
X53438497Y-109646793D01*
X53363987Y-109542619D01*
X53240400Y-109363717D01*
X53140062Y-109198714D01*
X53065004Y-109051519D01*
X53017259Y-108926042D01*
X52999939Y-108842351D01*
X53002473Y-108725658D01*
X53031428Y-108627355D01*
X53083115Y-108553390D01*
X53153845Y-108509708D01*
X53212140Y-108500333D01*
X53262150Y-108510896D01*
X53317519Y-108546523D01*
X53371192Y-108595954D01*
X53420709Y-108644168D01*
X53456495Y-108676550D01*
X53470301Y-108685913D01*
X53484087Y-108667019D01*
X53513512Y-108627830D01*
X53519821Y-108619492D01*
X53565853Y-108558735D01*
X53502134Y-108478283D01*
X53415215Y-108395468D01*
X53312763Y-108340482D01*
X53204005Y-108315351D01*
X53098168Y-108322100D01*
G36*
X51264588Y-108322168D02*
G01*
X51168843Y-108366214D01*
X51088212Y-108442968D01*
X51028908Y-108551541D01*
X51017811Y-108584664D01*
X50992095Y-108709863D01*
X50990627Y-108837027D01*
X51014856Y-108970894D01*
X51066230Y-109116201D01*
X51146199Y-109277683D01*
X51256211Y-109460077D01*
X51310868Y-109542791D01*
X51450165Y-109749166D01*
X50920500Y-109749166D01*
X50920500Y-109939666D01*
X51703667Y-109939666D01*
X51703667Y-109864982D01*
X51698970Y-109828421D01*
X51682571Y-109784439D01*
X51651006Y-109726847D01*
X51600812Y-109649457D01*
X51528524Y-109546083D01*
X51513095Y-109524511D01*
X51383018Y-109333574D01*
X51281647Y-109163962D01*
X51209974Y-109017553D01*
X51168987Y-108896226D01*
X51161757Y-108857772D01*
X51160045Y-108744330D01*
X51184670Y-108645023D01*
X51231656Y-108566712D01*
X51297033Y-108516256D01*
X51368761Y-108500333D01*
X51423155Y-108513748D01*
X51488213Y-108556826D01*
X51530203Y-108593768D01*
X51630093Y-108687203D01*
X51676918Y-108621293D01*
X51723742Y-108555382D01*
X51674436Y-108490816D01*
X51580371Y-108395153D01*
X51476565Y-108335749D01*
X51369233Y-108311717D01*
X51264588Y-108322168D01*
G37*
X51264588Y-108322168D02*
X51168843Y-108366214D01*
X51088212Y-108442968D01*
X51028908Y-108551541D01*
X51017811Y-108584664D01*
X50992095Y-108709863D01*
X50990627Y-108837027D01*
X51014856Y-108970894D01*
X51066230Y-109116201D01*
X51146199Y-109277683D01*
X51256211Y-109460077D01*
X51310868Y-109542791D01*
X51450165Y-109749166D01*
X50920500Y-109749166D01*
X50920500Y-109939666D01*
X51703667Y-109939666D01*
X51703667Y-109864982D01*
X51698970Y-109828421D01*
X51682571Y-109784439D01*
X51651006Y-109726847D01*
X51600812Y-109649457D01*
X51528524Y-109546083D01*
X51513095Y-109524511D01*
X51383018Y-109333574D01*
X51281647Y-109163962D01*
X51209974Y-109017553D01*
X51168987Y-108896226D01*
X51161757Y-108857772D01*
X51160045Y-108744330D01*
X51184670Y-108645023D01*
X51231656Y-108566712D01*
X51297033Y-108516256D01*
X51368761Y-108500333D01*
X51423155Y-108513748D01*
X51488213Y-108556826D01*
X51530203Y-108593768D01*
X51630093Y-108687203D01*
X51676918Y-108621293D01*
X51723742Y-108555382D01*
X51674436Y-108490816D01*
X51580371Y-108395153D01*
X51476565Y-108335749D01*
X51369233Y-108311717D01*
X51264588Y-108322168D01*
G36*
X57492378Y-108214695D02*
G01*
X57487195Y-108216391D01*
X57431397Y-108254133D01*
X57404256Y-108309797D01*
X57404341Y-108371531D01*
X57430217Y-108427482D01*
X57480454Y-108465797D01*
X57518463Y-108475111D01*
X57574420Y-108471121D01*
X57606680Y-108441432D01*
X57607761Y-108439461D01*
X57630317Y-108367468D01*
X57625123Y-108299868D01*
X57597113Y-108245787D01*
X57551220Y-108214353D01*
X57492378Y-108214695D01*
G37*
X57492378Y-108214695D02*
X57487195Y-108216391D01*
X57431397Y-108254133D01*
X57404256Y-108309797D01*
X57404341Y-108371531D01*
X57430217Y-108427482D01*
X57480454Y-108465797D01*
X57518463Y-108475111D01*
X57574420Y-108471121D01*
X57606680Y-108441432D01*
X57607761Y-108439461D01*
X57630317Y-108367468D01*
X57625123Y-108299868D01*
X57597113Y-108245787D01*
X57551220Y-108214353D01*
X57492378Y-108214695D01*
G36*
X54172257Y-108212748D02*
G01*
X54128450Y-108251043D01*
X54098328Y-108328349D01*
X54105677Y-108410864D01*
X54117412Y-108438224D01*
X54156149Y-108471836D01*
X54211125Y-108478899D01*
X54266063Y-108459970D01*
X54295383Y-108432123D01*
X54325436Y-108359322D01*
X54315849Y-108289200D01*
X54286000Y-108246333D01*
X54227987Y-108209431D01*
X54172257Y-108212748D01*
G37*
X54172257Y-108212748D02*
X54128450Y-108251043D01*
X54098328Y-108328349D01*
X54105677Y-108410864D01*
X54117412Y-108438224D01*
X54156149Y-108471836D01*
X54211125Y-108478899D01*
X54266063Y-108459970D01*
X54295383Y-108432123D01*
X54325436Y-108359322D01*
X54315849Y-108289200D01*
X54286000Y-108246333D01*
X54227987Y-108209431D01*
X54172257Y-108212748D01*
%TD*%
M02*
